<svg width="477" height="426" viewBox="0 0 477 426" fill="none" xmlns="http://www.w3.org/2000/svg">
<path d="M215.334 365.566C201.618 365.614 187.901 365.995 174.207 367.756C169.044 368.419 163.989 369.88 158.814 370.469C148.478 371.645 138.326 373.84 127.953 374.853C119.6 375.668 111.212 376.149 102.883 377.183C94.8211 378.185 86.6519 377.896 78.6807 376.327C72.9446 375.141 67.1812 374.473 61.541 372.568C55.2318 370.437 48.3778 368.913 41.804 368.968C32.4296 369.046 23.3006 369.055 14.3289 372.818C11.1796 374.14 7.32468 376.311 4.93313 379.083C-0.54126 385.429 -1.28178 401.263 4.1842 407.845C13.3907 418.922 33.0397 423.269 45.9442 423.474C60.0848 423.698 73.8219 422.485 87.9839 421.772C101.143 421.109 114.269 420.166 127.45 420.198C154.371 420.266 181.295 420.198 208.168 418.119C233.413 416.166 258.725 416.837 284.029 416.837C309.976 416.837 335.746 417.073 361.505 421.059C372.729 422.796 384.163 423.404 395.443 424.621C405.545 425.711 415.253 424.599 425.316 423.593C433.917 422.747 442.257 420.163 449.835 415.999C455.911 412.642 466.743 402.214 468.606 394.201C473.83 371.738 394.989 372.278 382.884 372.329C369.342 372.385 355.693 372.9 342.161 372.303C336.47 372.052 330.862 370.766 325.307 369.357C319.774 367.953 314.199 368.31 308.588 367.72C285.188 365.26 261.737 365.62 238.262 365.62C230.624 365.62 222.981 365.542 215.338 365.569" fill="#F1F2F2"/>
<path d="M140.052 393.517C138.233 393.578 136.486 393.169 134.699 393.004C133.777 375.247 135.451 356.638 136.177 338.795L149.825 339.526C146.657 349.068 144.396 358.89 143.073 368.86C142.862 370.439 140.311 393.508 140.052 393.517Z" fill="#E5D1BD"/>
<path d="M134.149 389.559C133.026 389.358 132.363 389.859 131.615 390.546C131.18 390.943 130.884 391.508 130.359 391.792C129.84 392.042 129.273 392.18 128.697 392.196C125.415 392.528 117.854 392.39 121.881 397.894C125.539 402.891 135.254 400.902 140.866 399.544C141.244 399.505 141.603 399.356 141.896 399.114C142.172 398.792 142.366 398.409 142.464 397.996C143.104 395.644 143.978 392.708 141.096 391.722C139.865 391.3 138.733 392.119 137.43 391.666C136.363 391.295 135.27 389.76 134.148 389.559" fill="#20252D"/>
<path d="M125.976 349.505L153.81 348.964C161.315 313.14 167.922 277.143 173.629 240.973C174.072 238.17 174.503 235.254 173.697 232.535C172.173 227.388 166.677 224.453 161.414 223.468C153.236 221.936 138.21 224.069 134.017 232.594C129.584 241.604 130.329 257.696 129.254 267.652C126.319 294.831 125.224 322.178 125.976 349.505Z" fill="#305399"/>
<path d="M193.109 393.517C194.928 393.578 196.676 393.169 198.463 393.004C199.385 375.247 197.711 356.638 196.985 338.795L183.337 339.526C186.505 349.068 188.766 358.89 190.089 368.86C190.299 370.439 192.85 393.508 193.109 393.517Z" fill="#E5D1BD"/>
<path d="M199.013 389.559C200.136 389.358 200.799 389.859 201.548 390.546C201.982 390.943 202.278 391.508 202.803 391.792C203.322 392.042 203.888 392.18 204.464 392.196C207.746 392.528 215.308 392.39 211.28 397.894C207.622 402.891 197.907 400.902 192.295 399.544C191.917 399.505 191.559 399.356 191.266 399.114C190.99 398.792 190.796 398.409 190.698 397.996C190.057 395.644 189.183 392.708 192.066 391.722C193.296 391.3 194.429 392.119 195.732 391.666C196.799 391.295 197.892 389.76 199.013 389.559" fill="#20252D"/>
<path d="M207.185 349.505L179.353 348.962C171.847 313.14 165.24 277.143 159.533 240.973C159.09 238.17 158.66 235.254 159.466 232.535C160.989 227.388 166.486 224.453 171.748 223.468C179.926 221.936 194.952 224.069 199.145 232.594C203.578 241.604 202.834 257.696 203.909 267.652C206.844 294.831 207.938 322.179 207.186 349.507" fill="#305399"/>
<path d="M92.148 120.611C92.3241 120.656 92.493 120.726 92.6496 120.818C94.02 121.726 94.1929 123.022 95.2582 124.269C95.7341 124.824 97.5955 124.569 97.1638 126.036C97.0052 126.578 96.4279 127.85 96.0779 129.001C95.5675 130.68 95.9319 133.117 96.5777 134.999C99.1144 142.39 103.588 148.886 108.214 155.17C108.45 155.549 108.774 155.866 109.157 156.095C109.872 156.446 110.717 156.143 111.458 155.853C114.896 154.509 118.451 153.487 122.078 152.802C125.311 152.191 128.684 151.856 131.865 152.702C135.046 153.549 138.018 155.774 139.008 158.919C139.369 160.105 139.445 161.359 139.228 162.579C139.012 163.8 138.51 164.951 137.764 165.939C134.031 170.791 125.401 168.497 120.177 168.131C115.231 167.785 110.316 167.092 105.467 166.056C104.86 165.967 104.277 165.755 103.754 165.434C103.247 165.019 102.834 164.502 102.541 163.915C98.2767 156.663 94.6734 149.074 91.2068 141.372C90.2542 139.256 90.5336 136.907 89.6332 134.958C89.0597 133.714 87.7175 133.152 86.9168 132.098C86.0625 130.926 85.4141 129.616 84.9995 128.225C84.3048 125.739 85.9436 123.64 87.1958 121.664C87.4216 121.214 87.7653 120.835 88.19 120.567C88.9596 120.126 89.812 120.241 90.6611 120.325C91.1644 120.372 91.662 120.467 92.1468 120.611" fill="#E5D1BD"/>
<path d="M122.148 166.811C120.971 162 119.795 157.188 118.619 152.375C118.694 152.684 140.07 145.688 141.357 145.315C146.267 143.892 151.366 142.454 156.42 143.219C167.212 144.85 170.641 158.841 160.964 164.677C150.464 171.015 136.664 173.861 124.508 172.546C124.241 172.54 123.98 172.464 123.751 172.326C123.482 172.074 123.309 171.736 123.262 171.371L122.148 166.811Z" fill="#BCBEC0"/>
<path d="M183.396 153.068C190.834 160.166 196.406 169.284 199.763 178.729C205.705 195.454 205.822 213.313 205.874 230.811C205.892 236.635 205.91 242.46 205.928 248.284C205.947 254.014 205.441 255.248 199.23 254.492C187.72 253.093 175.756 250.713 165.327 245.585C160.364 243.145 155.727 240.062 150.524 238.14C142.955 235.346 135.196 236.611 127.709 234.792C129.608 229.036 132.448 223.778 133.767 217.74C135.087 211.701 135.713 205.515 136.13 199.343C136.857 188.554 138.196 177.83 139.003 167.082C139.581 159.384 138.569 153.079 146.736 148.03C151.179 145.28 159.268 140.577 165.541 141.85C172.196 143.2 179.238 149.1 183.396 153.068Z" fill="#BCBEC0"/>
<path d="M156.558 128.532C157.962 131.612 160.258 134.177 162.132 136.993C163.956 139.733 164.611 142.212 165.095 145.388C165.444 147.683 166.262 149.476 169.018 149.869C174.217 150.609 172.73 146.302 173.911 143.169C175.261 139.588 178.139 136.757 180.151 133.562C185.964 124.326 184.304 106.069 172.223 102.174C159.013 97.9132 152.294 119.191 156.557 128.533" fill="#E5D1BD"/>
<path d="M177.614 119.593C179.114 119.654 180.763 119.774 181.876 120.783C182.988 121.793 182.867 123.996 181.399 124.234C180.068 124.45 178.344 123.057 177.532 124.073C177.056 124.667 177.474 125.537 177.834 126.232C179.214 128.873 179.623 131.917 178.987 134.829C179.534 135.338 180.388 134.81 180.869 134.281C183.254 131.655 185.114 128.594 186.345 125.263C186.837 126.078 187.531 126.751 188.358 127.217C187.861 125.971 188.175 124.607 188.485 123.336C189.613 118.664 190.382 113.189 187.128 109.372C185.386 107.329 182.739 106.154 180.076 105.659C177.413 105.165 174.699 105.285 172.016 105.406C170.868 105.458 169.453 105.706 169.177 106.771C171.695 107.784 174.301 109.755 175.561 112.146C175.948 112.881 177.463 119.587 177.616 119.593" fill="#404C60"/>
<path d="M172.293 108.366C172.385 108.433 172.475 108.501 172.563 108.568C173.704 109.439 174.775 110.499 176.156 110.885C178.147 111.442 180.286 110.48 182.246 111.16C184.437 111.919 185.878 114.547 187.477 116.102C190.122 118.649 193.331 120.53 196.841 121.591C198.626 122.137 200.47 122.468 202.333 122.575C203.176 122.623 204.305 122.783 205.128 122.561C206.231 122.263 206.193 121.76 205.017 121.382C201.329 120.197 200.173 115.003 200.451 111.56C200.672 108.843 201.606 106.003 200.573 103.481C199.783 101.554 198.087 100.559 196.449 99.4575C194.64 98.2421 192.681 98.5695 190.629 97.9856C188.488 97.376 186.743 95.6851 184.559 95.2536C182.252 94.7979 179.946 95.8235 177.638 96.2728C175.724 96.6441 173.755 96.6198 171.851 96.2015C170.152 95.8269 168.492 95.1367 166.751 95.1531C164.185 95.1768 161.824 96.7833 160.326 98.8737C158.207 101.83 156.838 106.889 157.584 110.782C157.468 110.178 159.496 107.99 159.913 107.519C160.793 106.525 161.856 105.594 163.2 105.433C166.242 105.07 169.848 106.587 172.294 108.368" fill="#3B455A"/>
<path d="M186.556 186.827L212.892 208.445C214.933 210.108 216.628 212.158 217.88 214.477C219.131 216.797 219.914 219.341 220.185 221.964C220.456 224.587 220.209 227.238 219.458 229.766C218.707 232.293 217.467 234.647 215.808 236.694C214.134 238.729 212.077 240.413 209.755 241.65C207.432 242.887 204.889 243.654 202.271 243.906C199.652 244.157 197.01 243.89 194.495 243.118C191.98 242.346 189.642 241.084 187.613 239.406L161.277 217.789L186.557 186.827" fill="#7DB5DB"/>
<path d="M187.31 187.446L160.975 165.829C158.946 164.15 156.607 162.889 154.092 162.117C151.577 161.345 148.935 161.077 146.317 161.329C143.698 161.581 141.155 162.348 138.833 163.585C136.51 164.822 134.453 166.506 132.779 168.541C131.12 170.588 129.88 172.942 129.129 175.47C128.378 177.997 128.131 180.648 128.401 183.272C128.672 185.895 129.456 188.439 130.707 190.759C131.959 193.079 133.654 195.129 135.696 196.792L162.032 218.409L187.311 187.448" fill="#587BC9"/>
<path d="M159.587 172.538C159.361 172.533 159.137 172.483 158.93 172.391C158.724 172.299 158.537 172.166 158.381 172.001C155.716 169.366 152.131 167.877 148.387 167.853C147.179 167.852 145.976 168.015 144.811 168.336C144.628 168.388 144.439 168.414 144.248 168.415C142.24 168.415 141.336 165.283 143.533 164.677C145.108 164.242 146.735 164.022 148.369 164.023C153.038 164.003 157.53 165.816 160.885 169.072C162.28 170.44 161.045 172.538 159.588 172.538" fill="#C6D2ED"/>
<path d="M139.359 169.675C138.965 169.674 138.58 169.55 138.26 169.319L138.179 169.259C137.797 168.967 137.539 168.542 137.458 168.068C137.386 167.593 137.503 167.109 137.785 166.721C138.071 166.337 138.496 166.08 138.969 166.007C139.051 165.995 139.134 165.989 139.217 165.989C139.612 165.99 139.996 166.114 140.317 166.345L140.398 166.405C140.78 166.696 141.038 167.122 141.12 167.596C141.192 168.071 141.074 168.555 140.792 168.943C140.506 169.327 140.08 169.583 139.608 169.656C139.526 169.668 139.443 169.674 139.36 169.674" fill="#C6D2ED"/>
<path d="M135.666 196.765L135.405 196.551C132 193.77 129.598 189.947 128.567 185.668C127.535 181.388 127.93 176.888 129.692 172.855C129.825 172.857 129.956 172.858 130.089 172.859C128.26 176.902 127.815 181.439 128.824 185.762C129.833 190.086 132.238 193.954 135.666 196.765" fill="white"/>
<path d="M130.089 172.859C129.956 172.859 129.825 172.859 129.692 172.855C130.416 171.218 131.356 169.687 132.489 168.302C134.319 166.057 136.619 164.242 139.226 162.987C139.22 163.113 139.214 163.243 139.208 163.372C136.726 164.623 134.536 166.384 132.779 168.541C131.702 169.859 130.797 171.311 130.088 172.86" fill="#C4C6C7"/>
<path d="M161.277 217.789L160.987 217.549L139.058 199.549L161.277 217.788V217.789ZM139.208 163.371C139.214 163.243 139.22 163.113 139.226 162.986C139.492 162.858 139.759 162.737 140.029 162.622C139.775 162.852 139.526 163.089 139.282 163.334C139.257 163.346 139.233 163.358 139.208 163.371Z" fill="#C4C6C7"/>
<path d="M200.096 243.754C195.437 243.755 190.921 242.134 187.322 239.167L161.74 218.169L161.277 217.789L162.032 218.408L165.95 213.608L166.47 214.035L167.224 214.654L192.806 235.653C196.404 238.617 200.917 240.237 205.573 240.236C208.285 240.238 210.968 239.688 213.462 238.621C209.796 241.935 205.032 243.765 200.096 243.755" fill="#8CBEDF"/>
<path d="M162.031 218.407L161.277 217.788L139.058 199.549L135.666 196.765C132.238 193.954 129.833 190.086 128.824 185.762C127.815 181.439 128.26 176.902 130.089 172.858C130.798 171.309 131.702 169.858 132.78 168.54C134.536 166.383 136.727 164.622 139.208 163.371C139.233 163.358 139.257 163.346 139.282 163.333C138.827 163.791 138.39 164.276 137.972 164.786C136.314 166.833 135.074 169.187 134.323 171.715C133.572 174.242 133.325 176.893 133.596 179.516C133.866 182.139 134.65 184.683 135.901 187.003C137.153 189.322 138.847 191.372 140.889 193.035L165.951 213.607L162.032 218.407" fill="#6C8BCF"/>
<path d="M175.025 228.375C174.991 228.197 174.982 228.014 174.999 227.833C175.24 226.203 176.339 225.497 177.012 224.001C177.313 223.334 176.297 221.751 177.803 221.521C178.36 221.437 179.754 221.422 180.942 221.253C182.675 221.007 184.723 219.643 186.15 218.261C188.13 216.407 189.973 214.409 191.662 212.284C195.147 207.666 198.2 202.737 200.782 197.557C192.734 193.089 187.581 183.836 188.009 174.622C187.995 173.654 188.219 172.698 188.661 171.838C189.111 171.154 189.718 170.59 190.433 170.192C197.773 165.705 201.7 172.872 205.105 178.512C207.253 182.045 209.139 185.731 210.748 189.542C212.968 194.861 211.216 199.507 208.144 204.208C204.889 209.19 201.502 214.178 197.247 218.37C195.18 220.407 192.878 221.907 190.586 223.64C188.321 225.352 189.208 226.267 187.608 228.277C186.716 229.398 186.018 230.71 184.929 231.648C182.976 233.331 180.385 232.73 178.07 232.429C177.569 232.414 177.082 232.262 176.66 231.99C175.936 231.477 175.679 230.654 175.395 229.847C175.224 229.37 175.1 228.878 175.025 228.376" fill="#E5D1BD"/>
<path d="M204.078 181.57L192.525 190.885C192.773 190.686 177.405 174.229 176.523 173.217C173.159 169.358 169.703 165.335 168.254 160.419C165.161 149.924 176.353 140.889 185.721 147.209C195.891 154.069 204.304 165.4 208.26 177.001C208.367 177.246 208.409 177.515 208.381 177.782C208.268 178.132 208.036 178.432 207.725 178.629L204.078 181.57" fill="#BCBEC0"/>
<path d="M283.8 143.305C285.558 142.224 287.607 141.715 289.665 141.848C291.723 141.98 293.69 142.748 295.296 144.045L313.337 158.62C318.938 163.146 323.435 168.77 331.051 168.909C336.169 169.001 347.781 172.537 349.395 178.309C349.739 179.536 349.569 180.842 349.397 182.105C349.211 183.47 348.528 185.241 347.167 185.045C346.513 184.95 346.038 184.39 345.626 183.872C344.424 182.363 343.022 180.772 341.119 180.473C337.977 179.98 333.812 182.121 330.457 182.277C325.569 182.505 320.673 183.031 315.794 183.409L283.206 159.994C281.865 159.031 280.783 157.751 280.056 156.267C279.329 154.783 278.98 153.142 279.039 151.489C279.098 149.837 279.564 148.225 280.395 146.797C281.227 145.369 282.397 144.17 283.803 143.305" fill="#EACDB0"/>
<path d="M276.1 139.812C279.737 135.496 285.378 133.32 291.468 135.846C293.868 136.842 296.23 137.925 298.553 139.095C300.671 140.163 316.668 156.252 316.116 156.934L298.805 178.319C292.726 174.839 286.586 171.316 281.462 166.534C275.835 161.283 270.338 153.905 272.742 146.041C273.432 143.759 274.575 141.641 276.101 139.812" fill="#7DB5DB"/>
<path d="M288.723 321.46L289.154 347.762C288.978 355.06 289.633 362.334 290.076 369.608C290.487 376.363 289.129 383.327 292.326 389.588C293.329 391.551 295.462 392.919 297.085 390.651C298.335 388.903 297.76 385.879 298.069 383.85C300.391 368.603 304.713 353.734 306.869 338.456C309.128 322.455 302.954 322.877 288.723 321.458" fill="#EACDB0"/>
<path d="M290.211 385.092L288.525 389.479L296.824 396.803L304.426 397.117L306.885 393.095L296.66 384.181L290.212 385.091" fill="#20252D"/>
<path d="M270.138 321.716L265.354 347.581C263.695 359.151 259.926 370.419 258.267 381.99C257.885 384.65 258.077 387.561 256.969 390.07C255.884 392.525 253.761 392.623 251.886 390.956C249.376 388.725 250.534 384.738 250.582 381.69C250.889 361.384 249.296 341.366 248.913 321.028C248.891 320.897 248.899 320.762 248.935 320.634C248.972 320.506 249.036 320.387 249.123 320.287C249.308 320.17 249.53 320.127 249.745 320.167C251.714 320.298 270.034 322.276 270.138 321.716" fill="#EACDB0"/>
<path d="M250.521 386.172L247.891 390.065L254.328 399.078L261.664 401.103L264.964 397.741L257.012 386.743L250.521 386.172Z" fill="#20252D"/>
<path d="M315.756 338.195L312.178 300.592L310.453 276.16L304.65 256.206L273.317 251.329L234.579 257.987L232.716 265.533L240.172 335.386L277.535 338.194L277.03 294.718L282.79 321.667L282.546 338.195H315.756" fill="#534741"/>
<path d="M241.376 176.242C241.324 177.512 241.287 178.78 241.266 180.047C240.813 205.84 242.231 231.961 242.394 257.967C255.683 255.882 269.102 254.734 282.551 254.53C283.658 254.513 286.161 254.779 289.016 255.046C294.188 255.528 300.512 256.011 301.781 254.81C304.454 252.282 301.514 252.759 301.71 249.465C301.962 245.204 299.921 241.713 300.692 236.663C301.599 230.728 303.402 224.858 304.441 218.924C307.293 202.688 306.612 187.553 304.508 171.233C303.285 161.74 301.643 151.447 296.472 143.191C292.774 137.291 285.211 134.776 278.466 134.056C264.698 132.585 250.972 139.808 245.706 152.9C242.739 160.278 241.709 168.266 241.377 176.241" fill="white"/>
<path d="M282.58 142.774L272.663 160.896C273.181 179.203 273.699 197.51 274.218 215.817C274.457 224.254 274.695 232.691 274.933 241.127C275.017 244.057 275.088 246.987 275.182 249.916C275.224 251.231 274.862 253.444 275.609 254.517C276.854 256.302 280.632 256.293 283.494 256.283C284.366 256.28 285.153 256.276 285.758 256.325C289.797 256.643 293.892 256.974 297.695 258.372C300.226 259.302 302.626 260.704 305.297 261.08C305.592 261.152 305.898 261.164 306.197 261.115C306.497 261.066 306.783 260.957 307.039 260.794C307.566 260.368 307.656 259.61 307.706 258.933C308.933 242.321 307.808 225.533 308.168 208.844C308.542 191.633 308.606 174.141 304.045 157.404C302.323 151.087 299.843 144.773 295.832 139.543C290.998 133.242 287.303 132.411 279.697 132.132C277.486 132.051 275.146 131.673 276.021 134.888C276.725 137.471 280.838 140.7 282.577 142.777" fill="#7DB5DB"/>
<path d="M261.004 144.479L270.922 162.601C270.714 162.601 269.664 207.025 269.579 210.02C269.256 221.423 268.933 232.826 268.611 244.229C268.522 247.398 268.948 251.111 268.329 254.227C267.465 258.577 262.899 257.721 259.007 258.073C250.495 258.842 241.533 260.299 232.998 259.867C230.533 259.743 233.773 208.224 233.77 203.415C233.754 186.124 230.196 166.939 238.956 151.259C241.505 146.696 245.998 139.382 250.958 137.129C255.58 135.031 262.196 134.673 267.214 133.497L267.475 136.757L261.004 144.477" fill="#7DB5DB"/>
<path d="M273.761 101.163C275.771 103.614 277.172 106.508 277.85 109.608C278.042 110.425 278.278 111.366 279.035 111.727C279.844 112.113 279.435 113.375 279.844 112.575C280.254 111.776 281.635 109.006 281.553 108.111C281.357 106.012 280.963 103.936 280.374 101.912C279.863 100.153 279.145 98.3503 277.718 97.2057C276.836 96.5718 275.859 96.0819 274.824 95.7544C273.351 95.206 271.837 94.6555 270.266 94.6597C267.558 94.6669 266.131 95.9122 268.785 97.3036C270.679 98.2526 272.369 99.5636 273.762 101.163" fill="#3B455A"/>
<path d="M264.052 139.436C264.309 140.701 264.298 142.067 265.6 142.839C266.253 143.17 266.986 143.309 267.715 143.241C269.602 143.183 271.451 142.694 273.122 141.812C273.825 141.48 274.44 140.989 274.921 140.377C275.451 139.631 275.373 139.034 275.25 138.211C275.105 137.248 275.115 136.239 275.057 135.245C274.93 133.071 274.649 130.909 274.306 128.76C277.339 127.627 280.834 125.911 281.285 122.416C281.368 121.297 281.281 120.172 281.025 119.08C280.198 114.513 279.37 109.946 278.543 105.379C278.257 103.799 277.954 102.172 277.139 100.811C275.708 98.4214 273.018 97.3461 270.481 96.8297C264.006 95.5113 257.017 96.9377 252.13 101.487C250.751 102.68 249.711 104.218 249.117 105.945C248.279 108.699 249.027 111.761 249.776 114.613C250.467 117.247 251.158 119.879 251.85 122.512C252.645 125.541 253.771 128.986 256.454 130.156C257.878 130.778 259.539 130.627 260.837 131.534C263.102 133.118 262.745 136.193 263.751 138.443C263.887 138.762 263.987 139.095 264.05 139.437" fill="#EACDB0"/>
<path d="M269.993 126.861C268.731 127.215 267.295 127.428 266.22 128.227C265.51 128.754 264.828 127.561 265.528 127.04C266.698 126.17 268.255 125.921 269.628 125.535C269.801 125.494 269.983 125.522 270.136 125.613C270.289 125.704 270.401 125.85 270.448 126.022C270.495 126.194 270.474 126.377 270.389 126.534C270.304 126.69 270.162 126.807 269.992 126.861L269.993 126.861ZM281.785 117.052C281.575 116.216 280.739 113.808 279.766 115.605C279.547 116.112 279.496 116.675 279.619 117.213C279.742 117.751 279.789 118.304 279.757 118.855C279.588 120.102 278.394 120.881 277.238 121.078C276.777 121.174 276.3 121.153 275.849 121.016C275.416 120.837 275.015 120.586 274.663 120.275L271.962 118.143C270.416 116.92 268.014 118.032 266.343 118.582C264.417 119.215 262.556 120.185 261.187 121.795C261.05 121.957 260.916 122.125 260.783 122.294C260.478 122.712 260.121 123.09 259.72 123.417C258.335 124.45 256.3 124.032 254.969 122.842C254.359 122.297 253.749 121.562 252.967 121.6C252.656 121.646 252.366 121.782 252.133 121.993C251.9 122.204 251.735 122.478 251.657 122.783C250.902 125.11 252.025 129.775 253.826 131.332C255.222 132.537 256.996 133.347 258.054 134.858C258.767 135.877 259.137 137.189 260.151 137.907C261.327 138.739 262.911 138.472 264.35 138.494C265.789 138.516 267.536 139.216 267.612 140.658L269.957 141.677C270.112 141.758 270.282 141.805 270.457 141.817C270.924 141.814 271.235 141.303 271.277 140.836C271.319 140.37 271.193 139.9 271.244 139.435C271.392 138.108 272.82 137.401 273.988 136.762C276.34 135.469 278.295 133.557 279.643 131.232C280.133 130.383 279.655 129.779 279.896 129.028C280.117 128.338 280.698 127.922 281.067 127.266C282.009 125.592 282.325 123.476 282.342 121.581C282.35 120.054 282.163 118.533 281.785 117.053" fill="#3B455A"/>
<path d="M276.172 91.9554C276.062 91.0391 275.935 90.1413 275.274 89.5541C274.665 89.0128 273.728 88.8846 273.247 88.226C273.022 87.9172 272.926 87.5223 272.672 87.2359C272.233 86.7393 271.478 86.7161 270.819 86.7613C269.33 86.8939 267.848 87.1012 266.379 87.3827C265.208 87.5835 264.239 88.3627 263.044 88.5302C261.527 88.7136 260.02 88.9772 258.531 89.3199C255.623 89.9915 252.921 91.3578 250.654 93.3025C246.816 96.6956 244.768 101.065 245.048 106.192C245.316 111.09 248.053 117.034 251.557 120.478C251.301 119.209 250.005 116.347 250.076 115.081C250.041 113.833 250.218 112.588 250.6 111.4C251.376 109.02 252.753 106.882 254.597 105.194C257.489 102.511 261.097 100.697 264.809 99.4416C267.884 98.4016 271.096 97.3529 274.371 97.2753C276.905 97.2149 279.251 97.2875 276.905 94.3981C276.368 93.7366 276.278 92.8371 276.171 91.955" fill="#3B455A"/>
<path d="M358.288 274.29C359.827 271.305 360.72 268.027 360.91 264.671C361.1 261.315 360.581 257.958 359.388 254.817L349.537 228.88L329.482 218.488L307.519 207.106L287.461 196.714L260.659 203.661C257.413 204.502 254.382 206.02 251.761 208.116C249.141 210.212 246.991 212.839 245.452 215.825L194.331 315.015L194.373 315.039C194.247 315.242 194.11 315.44 194 315.654C188.173 326.96 208.707 349.213 239.865 365.358C271.024 381.503 301.005 385.426 306.832 374.121C306.943 373.907 307.025 373.682 307.117 373.461L307.162 373.483L358.288 274.29Z" fill="#587BC9"/>
<path d="M251.514 228.114L246.042 225.278L249.571 218.432C251.093 215.478 253.397 213 256.23 211.272C259.063 209.543 262.316 208.63 265.633 208.632C268.514 208.633 271.353 209.327 273.911 210.657L290.076 219.034C290.076 219.034 286.163 217.466 279.872 217.466C272.732 217.466 262.531 219.485 251.514 228.114Z" fill="#7995D4"/>
<path d="M386.809 203.65L286.429 151.635C285.921 151.372 285.329 151.321 284.783 151.495C284.237 151.669 283.783 152.053 283.52 152.563L261.463 195.36C261.2 195.87 261.149 196.464 261.323 197.011C261.497 197.558 261.88 198.014 262.388 198.277L362.768 250.291C363.277 250.555 363.869 250.605 364.415 250.431C364.961 250.257 365.415 249.873 365.678 249.363L387.736 206.568C387.999 206.058 388.049 205.464 387.875 204.917C387.702 204.37 387.319 203.914 386.81 203.65" fill="#3B455A"/>
<path d="M267.465 194.203L263.199 191.992L281.784 155.932L286.051 158.143L267.465 194.203" fill="#BCBEC0"/>
<path d="M276.582 198.927L272.315 196.716L290.901 160.657L295.168 162.867L276.582 198.927Z" fill="#BCBEC0"/>
<path d="M285.62 203.611L281.354 201.4L299.94 165.34L304.206 167.551L285.62 203.611Z" fill="#BCBEC0"/>
<path d="M294.737 208.334L290.471 206.124L309.057 170.064L313.323 172.275L294.737 208.334Z" fill="#BCBEC0"/>
<path d="M303.854 213.059L299.587 210.848L318.173 174.789L322.44 176.999L303.854 213.059Z" fill="#BCBEC0"/>
<path d="M312.971 217.783L308.704 215.572L327.29 179.513L331.557 181.724L312.971 217.783Z" fill="#BCBEC0"/>
<path d="M321.83 222.374L317.564 220.163L336.15 184.104L340.416 186.315L321.83 222.374Z" fill="#BCBEC0"/>
<path d="M330.947 227.098L326.68 224.887L345.267 188.827L349.533 191.038L330.947 227.097" fill="#BCBEC0"/>
<path d="M340.064 231.823L335.797 229.611L354.383 193.552L358.65 195.763L340.064 231.823" fill="#BCBEC0"/>
<path d="M349.181 236.546L344.914 234.336L363.5 198.275L367.767 200.486L349.181 236.546Z" fill="#BCBEC0"/>
<path d="M358.298 241.271L354.031 239.06L372.617 203L376.883 205.211L358.298 241.271" fill="#BCBEC0"/>
<path d="M367.414 245.995L363.147 243.784L381.733 207.724L385.999 209.935L367.414 245.995" fill="#BCBEC0"/>
<path d="M359.388 254.818L268.737 201.567L356.422 247.002L359.39 254.818" fill="#5372B8"/>
<path d="M241.734 223.046L354.565 281.513L314.181 359.865L201.349 301.398L241.734 223.045" fill="#D7E8F4"/>
<path d="M310.064 367.853L341.576 306.716L351.102 288.233L310.064 367.853Z" fill="#F4F4F4"/>
<path d="M298.75 379.68C302.63 378.681 305.431 376.842 306.833 374.121C306.944 373.907 307.026 373.682 307.118 373.461L307.163 373.483L310.066 367.854L307.163 373.483L307.118 373.461C307.026 373.682 306.944 373.907 306.833 374.121C305.431 376.842 302.63 378.681 298.75 379.68Z" fill="#E7E8E8"/>
<path d="M239.814 365.331L239.79 365.319L239.814 365.331ZM239.757 365.302L239.734 365.29L239.757 365.302ZM239.683 365.264L239.661 365.252L239.683 365.264ZM239.628 365.235L239.603 365.222L239.628 365.235ZM239.57 365.205L239.548 365.193L239.57 365.205ZM239.498 365.168L239.474 365.155L239.498 365.168ZM239.443 365.139L239.418 365.126L239.443 365.139ZM239.386 365.109L239.344 365.087L239.386 365.109ZM239.315 365.072L239.283 365.055L239.315 365.072ZM239.264 365.045L239.229 365.027L239.264 365.045ZM239.226 365.025L239.152 364.986L239.226 365.025ZM239.132 364.976L239.098 364.958L239.132 364.976ZM239.083 364.95L238.961 364.886L239.083 364.95ZM238.954 364.883L238.779 364.79L238.954 364.883ZM238.771 364.787C238.667 364.732 238.563 364.677 238.46 364.622L238.771 364.787ZM238.457 364.621C236.455 363.56 234.5 362.478 232.594 361.372C234.501 362.478 236.456 363.56 238.457 364.621ZM232.592 361.372L232.466 361.299L232.592 361.372ZM232.466 361.298L232.424 361.274L232.466 361.298ZM232.421 361.272L232.294 361.2L232.421 361.272ZM232.292 361.198L232.17 361.127L232.292 361.198ZM232.164 361.123L232.122 361.1C232.137 361.108 232.148 361.115 232.164 361.123ZM232.122 361.098L232.007 361.031L232.122 361.098ZM231.987 361.019L231.959 361.002L231.987 361.019ZM231.93 360.985L231.895 360.965L231.93 360.985ZM231.861 360.943L231.839 360.93L231.861 360.943ZM231.809 360.912L231.787 360.9L231.809 360.912ZM231.739 360.87L231.723 360.861C231.729 360.863 231.734 360.867 231.739 360.87ZM231.686 360.839L231.667 360.828L231.686 360.839ZM231.63 360.805L231.615 360.797L231.63 360.805ZM231.566 360.768L231.546 360.756L231.566 360.768ZM231.513 360.736L231.495 360.726L231.513 360.736ZM231.445 360.697H231.443H231.445ZM231.388 360.663C231.385 360.663 231.382 360.659 231.378 360.658L231.388 360.663ZM231.33 360.629C231.328 360.628 231.326 360.627 231.325 360.626L231.33 360.629ZM231.212 360.559L231.207 360.556L231.212 360.559ZM231.094 360.49L231.09 360.488L231.094 360.49ZM231.038 360.456L231.032 360.453L231.038 360.456Z" fill="#F4F4F4"/>
<path d="M290.616 380.579C282.243 380.579 271.449 378.352 259.686 374.089C256.702 373.008 253.665 371.797 250.575 370.457C247.046 368.924 243.464 367.222 239.867 365.359L239.813 365.331L239.789 365.319L239.757 365.302L239.734 365.29L239.683 365.264L239.661 365.252C239.65 365.247 239.639 365.24 239.628 365.235L239.604 365.222L239.57 365.205L239.548 365.193L239.498 365.168L239.474 365.155L239.443 365.139L239.418 365.126L239.386 365.109L239.344 365.087L239.317 365.072L239.285 365.055L239.266 365.045L239.231 365.027H239.228L239.153 364.988L239.134 364.978L239.1 364.96L239.084 364.952L238.963 364.887L238.956 364.884L238.781 364.792L238.773 364.788L238.463 364.624H238.459C236.457 363.563 234.503 362.481 232.596 361.375H232.594L232.468 361.301L232.426 361.277H232.424L232.297 361.205L232.294 361.203L232.172 361.132L232.166 361.128C232.151 361.12 232.14 361.113 232.124 361.105L232.12 361.103L232.005 361.036C231.998 361.031 231.993 361.028 231.986 361.024L231.957 361.007L231.929 360.991L231.894 360.97L231.86 360.95L231.837 360.937L231.807 360.919L231.786 360.907C231.769 360.897 231.754 360.888 231.737 360.878C231.732 360.875 231.727 360.871 231.721 360.869L231.684 360.847L231.665 360.836L231.628 360.814L231.613 360.805L231.564 360.776L231.544 360.765L231.511 360.745L231.492 360.734L231.443 360.705H231.441C231.423 360.695 231.404 360.685 231.387 360.673L231.377 360.668L231.328 360.639L231.323 360.636L231.211 360.569L231.205 360.567C231.187 360.555 231.168 360.544 231.15 360.533L231.093 360.499L231.088 360.497L231.036 360.467L231.03 360.463C213.995 350.346 201.18 338.69 195.799 328.979C216.795 339.859 235.973 344.12 253.143 344.12C261.493 344.123 269.811 343.103 277.914 341.082L314.183 359.875L341.577 306.726L310.064 367.854L307.161 373.483L307.116 373.461C307.025 373.682 306.942 373.908 306.832 374.121C305.43 376.842 302.629 378.681 298.748 379.68C296.085 380.317 293.353 380.619 290.615 380.579" fill="#5677C1"/>
<path d="M314.181 359.865L277.914 341.073C324.568 329.456 350.935 288.493 351.102 288.233L341.576 306.716L314.181 359.865Z" fill="#CEDEE9"/>
<path d="M254.086 156.424C255.973 157.257 257.557 158.656 258.621 160.428C259.684 162.199 260.175 164.257 260.025 166.32C259.466 174.041 258.908 181.763 258.349 189.485C258.036 193.82 256.629 199.278 257.755 203.393C259.745 210.667 264.665 218.169 268.168 224.821C269.946 228.2 271.676 233.197 274.452 235.839C274.972 236.333 280.965 239.307 280.913 239.494L280.596 241.139L278.964 240.796L277.99 241.447L282.35 243.794L279.442 248.607L272.92 248.66C271.048 244.983 270.078 240.75 267.364 237.573C266.216 236.229 264.86 235.084 263.602 233.841C261.443 231.709 259.583 229.304 257.634 226.985C255.747 224.74 253.422 222.857 251.596 220.623C247.521 215.638 243.481 210.625 239.424 205.626L240.062 165.433C240.088 163.78 240.522 162.159 241.325 160.715C242.127 159.271 243.274 158.048 244.662 157.156C246.05 156.264 247.637 155.73 249.281 155.602C250.925 155.474 252.575 155.756 254.084 156.422" fill="#EACDB0"/>
<path d="M252.564 148.088C258.174 148.627 263.17 152.038 264.568 158.494C265.119 161.04 265.576 163.603 265.939 166.184C266.27 168.538 262.189 190.885 261.316 190.819L233.925 188.729C233.315 181.738 232.707 174.67 233.709 167.723C234.809 160.096 237.728 151.363 245.543 148.866C247.807 148.135 250.195 147.87 252.563 148.087" fill="#7DB5DB"/>
<path d="M342.057 182.762C342.057 183.173 341.998 183.583 341.884 183.978C341.465 185.429 340.978 186.858 340.424 188.265C341.912 188.595 343.368 189.052 344.778 189.632C346.334 188.232 347.748 186.681 348.999 185.002C349.375 184.549 349.665 184.03 349.855 183.472C350.441 181.395 349.56 178.256 347.499 177.67C346.338 177.338 345.154 177.171 343.997 176.749C343.068 176.411 341.9 175.642 340.869 175.854C339.155 176.207 338.829 178.613 338.639 180.019C338.524 180.868 337.727 185.984 339.785 184.045C340.225 183.632 340.459 183.036 340.889 182.614C341.773 181.752 342.04 182.136 342.059 182.762" fill="#EACDB0"/>
<path d="M108.379 369.848C108.229 369.478 108.038 369.125 107.811 368.796C106.525 366.906 104.416 365.65 102.367 364.466C97.2245 361.494 91.9491 358.556 86.099 357.07C77.3242 354.841 68.1329 356.113 59.513 358.31C51.7076 360.301 42.5672 362.2 35.2895 365.433C32.603 366.626 29.7894 368.839 30.2623 371.555C30.442 372.587 31.0866 373.494 31.7501 374.34C33.6984 376.819 35.9201 379.069 38.3727 381.048C39.963 382.407 41.7571 383.507 43.6889 384.306C45.9799 385.182 48.491 385.418 50.9646 385.59C62.3589 386.379 73.9767 385.913 85.0967 383.359C90.553 382.106 111.363 377.332 108.379 369.848" fill="#BCBEC0"/>
<path d="M59.361 273.45C62.2726 273.124 65.2377 273.075 68.0946 272.892C71.2246 272.691 74.6781 270.367 77.5097 271.315C79.3749 271.94 80.8757 273.326 82.2764 274.711C104.947 297.129 116.964 329.94 114.153 361.744C113.834 365.345 113.208 369.28 111.189 372.363C107.475 378.031 98.9676 371.537 94.1033 370.169L83.6838 367.242C80.272 366.215 76.8058 365.379 73.3014 364.738C61.2612 362.765 49.1116 365.467 37.6326 369.031C34.9756 369.855 31.5389 371.793 28.7897 371.948C26.3695 372.085 26.2719 372.351 26.2618 369.742C26.2496 366.332 28.8541 362.626 30.0263 359.505C34.1985 348.384 37.1235 336.832 38.7472 325.062C40.5249 312.161 40.7521 298.908 44.5498 286.364C45.857 282.045 46.9737 277.529 51.2763 275.521C53.8412 274.395 56.5721 273.696 59.3615 273.45" fill="#587BC9"/>
<path d="M52.2882 255.382C59.6341 257.932 68.379 254.277 75.3315 257.679C79.8516 259.891 82.4422 264.779 82.5587 269.52C82.6546 273.473 82.2873 278.695 78.4455 281.192C75.828 282.894 72.5284 283.49 69.337 284.024C66.4225 284.511 63.3035 284.962 60.5572 283.912C58.1425 282.988 56.4099 281.04 55.0012 279.053C52.1721 275.062 49.786 268.408 50.1054 263.69C50.2993 260.827 51.2868 258.081 52.2882 255.383" fill="#EBCEB1"/>
<path d="M70.4937 257.783C70.2047 257.736 69.9152 257.695 69.6265 257.66C65.4244 257.166 61.1654 257.581 57.137 258.878C54.3865 259.755 51.4396 261.451 51.0525 264.627C50.8779 266.061 51.1732 267.509 51.4669 268.926L52.5727 274.248C52.6653 274.562 52.6773 274.894 52.6076 275.214C52.3131 276.158 50.8636 276.054 50.1302 275.391C47.4576 272.974 43.9485 269.009 42.5941 265.694C41.4897 262.989 41.854 259.495 40.1618 257.071C39.0426 255.468 38.1708 252.979 36.4865 252.034C34.1762 250.738 31.8078 249.354 30.2527 247.206C28.6976 245.057 28.1763 241.924 29.7339 239.777C31.2162 237.734 34.0209 237.195 36.5412 237.217C39.0615 237.239 41.6554 237.649 44.052 236.867C45.09 236.529 46.067 235.97 47.1504 235.819C50.6944 235.324 56.0632 236.696 59.1675 238.509C62.0635 240.198 64.8056 242.346 68.0769 243.065C70.7024 243.642 73.4486 243.241 76.1099 243.617C80.5492 244.245 84.5598 247.124 86.8142 251.01C89.3408 255.363 90.1066 261.31 87.3612 265.652C86.0522 267.85 84.9085 270.143 83.9397 272.512C83.5808 273.327 81.2254 276.539 80.898 273.717C80.6456 271.526 81.1004 269.298 80.8312 267.109C80.1748 261.775 75.4535 258.587 70.4924 257.785" fill="#3B455A"/>
<path d="M98.3752 197.114C90.2803 192.821 79.8011 189.539 68.135 188.064C56.4688 186.589 45.5053 187.158 36.6018 189.301L17.5632 186.893L15.138 207.967C15.945 220.455 36.0977 232.701 62.106 235.991C88.1143 239.281 110.669 232.434 114.543 220.539L117.413 199.521L98.3752 197.114Z" fill="#D7E8F4"/>
<path d="M61.9983 235.977H61.9899H61.9983ZM117.381 199.77L117.415 199.521C117.405 199.606 117.393 199.687 117.381 199.77Z" fill="#E9E9E9"/>
<path d="M74.9588 236.815C70.6622 236.809 66.3701 236.534 62.1078 235.991L61.9984 235.977H61.9899C57.3473 235.39 52.7503 234.485 48.2314 233.267C51.5528 233.788 54.9091 234.053 58.2709 234.059C85.9488 234.059 98.9315 215.159 98.9315 215.159C109.347 212.08 116.366 206.66 117.381 199.771L114.545 220.54C111.327 230.419 95.2251 236.816 74.9583 236.816" fill="#C5D4DF"/>
<path d="M70.5051 169.243C42.932 165.756 19.2302 173.658 17.5653 186.893C16.3237 196.765 27.6937 206.813 44.9937 212.73L81.6075 171.26C77.9459 170.386 74.2396 169.712 70.5051 169.242" fill="#EAF3F9"/>
<path d="M88.5839 173.216L51.8822 214.784C56.026 215.842 60.2316 216.639 64.4744 217.171C92.0475 220.659 115.749 212.757 117.414 199.522C118.689 189.386 106.668 179.061 88.5826 173.216" fill="#EAF3F9"/>
<path d="M81.6958 171.29L45.082 212.76C47.2318 213.493 49.4689 214.159 51.7934 214.758L88.4905 173.194C86.3088 172.49 84.0439 171.856 81.6958 171.29Z" fill="#D7E8F4"/>
<path d="M34.8153 311.352C30.3044 322.819 29.3186 336.032 30.2901 348.739C30.8658 355.614 31.8459 362.449 33.2252 369.208C34.4543 375.457 36.6607 381.858 37.2624 388.142C41.1177 388.071 44.9861 389.301 48.7855 388.643C49.0024 388.621 49.2108 388.546 49.3926 388.425C49.5899 388.238 49.7297 387.998 49.7953 387.734C50.6464 385.31 51.591 383.3 52.1313 380.741C52.7484 377.811 53.3132 374.871 53.8256 371.921C54.854 365.995 55.6695 360.037 56.2723 354.047C57.486 342.021 57.8483 329.924 57.3566 317.846C57.3123 316.76 57.2611 315.674 57.203 314.587C56.1961 295.834 40.7697 296.217 34.8157 311.352" fill="#BCBEC0"/>
<path d="M36.8858 396.148C36.9715 396.339 37.0881 396.515 37.2308 396.668C38.8583 398.415 42.441 400.24 44.5839 401.315C45.2104 401.741 45.8773 402.103 46.5749 402.397C48.2579 403.041 50.1281 402.861 51.9163 402.643C53.6191 402.436 55.7199 401.837 55.982 400.137C56.1373 399.131 55.531 398.183 54.952 397.346C54.6347 396.807 54.2018 396.346 53.6847 395.996C53.328 395.818 52.9511 395.684 52.5622 395.597C51.1927 395.212 49.8872 394.626 48.6879 393.859C48.7836 391.234 48.6953 388.605 48.4237 385.992C48.4628 386.372 41.9681 386.063 41.3908 385.989C38.7485 385.647 38.7018 387.185 38.0669 389.623C37.5918 391.444 36.1083 394.427 36.8888 396.149" fill="#20252D"/>
<path d="M59.1537 311.532C56.067 323.464 56.691 336.7 59.1957 349.194C61.8965 362.662 66.6767 375.561 71.5726 388.322L83.8968 386.5C85.8461 375.177 85.8625 363.066 85.634 351.577C85.3918 339.406 84.2837 327.267 82.3181 315.254C82.1408 314.172 81.9568 313.093 81.7661 312.014C78.4926 293.524 63.2265 295.785 59.1528 311.533" fill="#BCBEC0"/>
<path d="M84.7812 395.033L76.7982 400.082C76.1719 400.508 75.505 400.87 74.8072 401.165C73.1242 401.809 71.2544 401.629 69.4666 401.41C67.7634 401.204 65.6626 400.604 65.4005 398.905C65.2457 397.899 65.852 396.95 66.4305 396.113C66.748 395.575 67.181 395.114 67.6982 394.763C68.0548 394.585 68.4318 394.451 68.8208 394.364C70.1903 393.978 71.4957 393.393 72.6951 392.626C72.5993 390 72.6876 387.372 72.9593 384.759C75.847 385.143 78.7781 385.05 81.6356 384.482C82.3572 388.321 83.6801 391.67 84.7812 395.035" fill="#20252D"/>
<path d="M23.5913 222.821C23.9322 222.381 24.4279 222.089 24.9768 222.003C26.5209 221.616 28.0129 221.044 29.4204 220.299C29.776 220.071 30.1776 219.925 30.5964 219.871C31.8372 219.819 32.895 221.115 32.5992 222.205C32.2849 223.359 30.7596 224.083 30.0094 224.878C29.2235 225.711 30.0936 227.077 31.1619 226.942C31.4455 226.887 31.7142 226.771 31.9497 226.604C32.1853 226.436 32.3823 226.219 32.5276 225.969C32.677 225.738 32.8171 225.471 33.0746 225.373C34.9158 224.669 32.9572 229.509 32.2714 230.029C31.1963 230.903 30.3176 231.996 29.693 233.235C29.0787 234.352 27.9515 236.318 28.0975 237.556C27.6789 237.939 27.8472 238.5 27.6196 239.105C25.9412 238.137 24.06 237.576 22.1267 237.468C21.7897 233.158 22.0914 228.822 23.022 224.601C23.1023 223.979 23.295 223.378 23.5905 222.826" fill="#EBCEB1"/>
<path d="M20.734 238.163C19.8576 243.206 18.4014 248.268 17.5851 253.321C16.5555 259.692 15.7738 266.104 15.1338 272.525C14.9533 274.336 14.7846 276.171 15.0661 277.969C15.5617 281.136 17.984 283.983 20.4458 285.88C27.5863 291.381 35.2326 296.189 43.2812 300.239C43.7066 300.453 47.7227 290.211 48.0328 289.265C49.3018 285.396 49.8609 281.587 50.4946 277.591C50.5567 277.363 50.5396 277.121 50.4462 276.905C50.345 276.784 50.218 276.688 50.0745 276.623C49.9311 276.559 49.7749 276.528 49.6177 276.532C44.3875 275.915 39.1831 275.113 34.0045 274.127C31.8486 273.717 29.1141 273.822 27.9789 271.653C27.1252 270.022 27.3899 268.067 27.6133 266.315C28.0026 263.267 28.3298 260.213 28.5949 257.151C29.1357 250.908 29.4175 244.649 29.4402 238.375C29.4436 237.417 22.0417 235.524 21.1392 235.481C21.0269 236.374 20.8897 237.268 20.734 238.163Z" fill="#587BC9"/>
<path d="M109.396 227.844C109.039 227.383 108.52 227.077 107.945 226.988C106.329 226.583 104.767 225.984 103.293 225.204C102.921 224.966 102.5 224.812 102.062 224.756C100.763 224.702 99.6556 226.058 99.9661 227.199C100.294 228.407 101.891 229.165 102.677 229.997C103.5 230.869 102.588 232.299 101.471 232.157C101.173 232.1 100.892 231.979 100.645 231.803C100.398 231.627 100.192 231.4 100.04 231.137C99.884 230.896 99.7372 230.616 99.4692 230.513C97.5417 229.776 99.5916 234.843 100.311 235.387C101.436 236.302 102.356 237.446 103.01 238.742C103.653 239.911 104.832 241.969 104.68 243.265C105.117 243.666 104.942 244.252 105.18 244.887C106.937 243.873 108.906 243.286 110.93 243.173C111.283 238.66 110.967 234.121 109.993 229.701C109.908 229.052 109.707 228.423 109.398 227.845" fill="#EBCEB1"/>
<path d="M110.312 242.955C111.112 247.542 112.435 252.146 113.177 256.742C114.113 262.537 114.824 268.367 115.407 274.208C115.637 275.849 115.658 277.513 115.469 279.159C115.018 282.04 112.815 284.628 110.576 286.353C104.082 291.357 97.127 295.73 89.8066 299.413C89.4195 299.609 85.7674 290.294 85.4846 289.432C84.9107 287.681 84.211 285.963 83.6792 284.25C83.1692 282.605 83.6977 280.745 82.6496 279.247C81.9886 278.302 80.8572 277.804 80.0713 276.96C79.6577 276.516 79.3774 275.739 79.8491 275.357C80.0489 275.224 80.2829 275.154 80.5223 275.153C82.2784 275.006 84.0445 275.273 85.6786 275.935C87.7988 276.795 89.0631 277.208 91.3419 276.854C93.6482 276.495 95.9483 276.098 98.2422 275.663C100.203 275.289 102.69 275.386 103.723 273.413C104.5 271.928 104.259 270.15 104.056 268.557C103.701 265.786 103.403 263.008 103.162 260.223C102.67 254.545 102.414 248.852 102.394 243.146C102.39 242.275 109.122 240.553 109.943 240.514C110.046 241.327 110.17 242.139 110.311 242.953" fill="#587BC9"/>
<path d="M390.897 386.859C389.174 386.973 387.598 386.366 385.928 386.178C385.997 380.317 386.664 374.479 387.918 368.754C390.515 371.645 392.701 369.964 392.613 375.396C392.584 377.154 390.56 384.184 390.897 386.859" fill="#E5D1BD"/>
<path d="M385.551 383.236C383.592 382.533 383.15 387.225 383.134 388.327C383.182 388.989 383.148 389.654 383.036 390.308C382.801 391.001 382.426 391.637 381.934 392.177L379.088 395.763C378.632 396.278 378.264 396.865 377.999 397.499C377.432 399.103 378.368 401.007 379.884 401.776C385.143 404.439 389.946 397.989 391.085 393.732C391.26 393.079 391.387 392.415 391.514 391.751C391.778 390.379 392.814 387.385 392.271 386.045C391.637 384.48 389.717 385.614 388.459 385.024C387.291 384.475 386.344 383.521 385.552 383.235" fill="#20252D"/>
<path d="M422.91 289.408C418.008 302.79 412.349 315.88 409.125 329.89C405.139 347.195 398.714 364.071 395.415 381.415C393.284 381.484 391.15 381.393 389.031 381.142C386.604 380.855 382.752 380.198 381.876 377.541C381.428 376.182 381.902 373.973 381.971 372.562C382.19 368.043 382.511 363.528 382.843 359.016C383.781 346.249 384.424 333.325 386.766 320.739C389.23 307.499 391.589 294.213 393.757 280.975C394.877 274.132 396.256 267.333 397.954 260.611C398.392 258.88 402.946 241.027 403.84 241.17C414.356 242.805 424.464 246.44 433.619 251.881C434.517 252.415 435.384 253.051 435.696 254.002C436.008 254.953 435.725 255.774 435.435 256.635C432.673 264.863 428.991 272.582 426.046 280.778C425.022 283.629 423.983 286.481 422.91 289.408" fill="#3B455A"/>
<path d="M430.153 384.594C431.802 385.108 433.477 384.886 435.143 385.093C436.437 379.377 437.146 373.543 437.257 367.683C434.059 369.887 432.323 367.742 431.147 373.044C430.769 374.761 431.102 382.072 430.153 384.594Z" fill="#E5D1BD"/>
<path d="M436.712 383.276C436.929 386.476 439.671 389.752 441.253 392.536C441.462 392.85 441.602 393.206 441.661 393.58C441.646 394.143 441.451 394.687 441.105 395.132C440.694 395.791 440.246 396.485 439.545 396.816C438.824 397.077 438.043 397.121 437.298 396.942C436.035 396.752 434.785 396.505 433.547 396.199C433.234 396.142 432.934 396.026 432.663 395.858C432.371 395.618 432.134 395.318 431.968 394.979C430.995 393.305 430.184 392.127 430.102 390.197C430.018 388.202 430.129 386.123 429.634 384.175C429.391 383.23 429.072 382.024 429.854 381.443C430.459 380.994 431.654 381.476 432.35 381.542C433.577 381.659 434.694 381.509 435.855 382.072C436.098 382.176 436.312 382.337 436.479 382.542C436.626 382.76 436.707 383.015 436.712 383.277" fill="#20252D"/>
<path d="M421.661 282.348C423.32 296.508 425.78 310.558 425.662 324.936C425.518 342.697 427.846 360.608 427.023 378.246C429.08 378.811 431.177 379.221 433.295 379.472C435.722 379.759 439.621 380.02 441.09 377.641C441.841 376.425 441.893 374.165 442.155 372.777C442.991 368.331 443.728 363.865 444.453 359.4C446.508 346.766 448.885 334.047 449.532 321.262C450.212 307.811 451.004 294.34 451.972 280.959C452.472 274.044 452.71 267.109 452.621 260.175C452.599 258.388 452.317 239.964 451.415 239.893C440.808 239.026 430.134 240.201 419.966 243.352C418.969 243.662 417.978 244.078 417.454 244.93C416.929 245.782 417.014 246.644 417.095 247.551C417.869 256.2 419.657 264.564 420.616 273.223C420.95 276.235 421.298 279.251 421.661 282.348" fill="#3B455A"/>
<path d="M418.13 166.975C417.958 167.033 417.786 167.095 417.615 167.16C414.76 168.247 412.332 170.201 409.957 172.125C406.39 175.015 404.633 176.281 403.255 180.562C401.97 184.553 401.165 188.767 400.379 192.881C396.34 213.995 395.558 235.02 392.659 256.293C391.869 262.083 391.26 268.89 395.53 272.868C403.109 266.953 412.635 266.613 421.827 266.604C428.281 266.599 434.592 264.503 441.062 265.225C444.36 265.593 447.436 265.324 450.54 265.056C453.322 264.747 456.124 264.653 458.921 264.777C460.435 264.876 462.361 264.859 462.958 263.462C463.257 262.76 461.906 259.566 461.738 258.684C461.41 256.958 461.191 255.212 461.022 253.463C460.416 247.166 459.546 241.044 458.649 234.783C458.275 232.593 458.078 230.377 458.06 228.155C458.158 226.176 458.358 224.203 458.66 222.245C460.048 210.938 458.803 199.382 455.633 188.444C454.972 186.163 454.708 183.508 453.814 181.375C452.994 179.412 451.658 177.451 450.434 175.721C447.841 172.051 444.46 168.899 440.198 167.323C434.544 165.232 427.898 165.213 421.997 166.095C420.685 166.274 419.391 166.571 418.132 166.981" fill="#305399"/>
<path d="M378.259 122.626C378.591 122.624 378.916 122.724 379.191 122.913C379.465 123.101 379.675 123.369 379.794 123.68C380.095 124.563 379.76 125.523 379.43 126.395C378.104 129.895 376.454 133.249 376.111 136.955C375.924 138.977 376.447 142.542 373.72 143.099C373.065 143.273 372.385 143.33 371.711 143.266C371.169 143.158 370.648 142.959 370.171 142.677C369.792 142.473 369.141 142.24 369.018 141.836C368.34 139.568 369.176 135.589 368.961 133.095C368.83 131.576 367.541 113.351 368.364 113.343L372.111 113.243C372.353 113.215 372.599 113.253 372.821 113.355C373.062 113.533 373.235 113.789 373.311 114.08C374.242 116.572 374.716 119.212 374.711 121.873C374.711 122.576 374.683 123.321 375.032 123.931C375.382 124.54 376.272 124.895 376.803 124.434C377.234 124.059 377.22 123.359 377.604 122.934C377.687 122.841 377.788 122.767 377.901 122.714C378.013 122.661 378.135 122.63 378.259 122.625" fill="#E5D1BD"/>
<path d="M365.86 169.363C365.986 157.579 366.565 136.998 368.95 136.855C372.732 136.636 376.521 137.17 380.097 138.425C379.938 146.722 378.978 155.66 381.521 163.708C383.6 170.284 390.507 170.184 396.214 169.772C404.193 169.196 411.731 168.655 419.71 167.381C420.233 167.238 420.787 167.273 421.288 167.478C421.771 167.827 422.1 168.35 422.205 168.938C422.542 170.143 422.776 171.374 422.907 172.618C423.447 177.269 423.078 182.141 421.013 186.341C418.948 190.541 414.997 193.963 410.371 194.602C407.711 194.97 405.018 194.43 402.387 193.892C396.688 192.726 391.612 190.215 386.127 188.245C379.703 185.915 373.463 183.106 367.457 179.842C366.897 179.6 366.42 179.199 366.084 178.688C365.892 178.238 365.807 177.748 365.837 177.26C365.828 176.56 365.816 173.505 365.86 169.364" fill="#305399"/>
<path d="M422.931 166.676C423.044 166.897 423.193 167.097 423.37 167.271C424.15 167.996 425.139 168.455 426.195 168.583C427.567 168.713 428.951 168.615 430.291 168.293C432.117 167.944 432.052 166.873 432.317 165.212C432.462 164.304 432.553 163.389 432.62 162.472C432.658 161.97 432.464 160.171 432.783 159.82C433 159.58 433.882 159.661 434.269 159.459C434.882 159.096 435.396 158.586 435.762 157.973C436.313 157.02 436.73 155.995 437.002 154.927L438.671 149.433C439.303 147.58 439.746 145.669 439.994 143.727C440.27 140.791 439.797 136.648 437.586 134.501C435.571 132.543 432.629 131.857 429.932 131.511C426.342 131.01 422.689 131.751 419.574 133.61C418.263 134.356 417.172 135.436 416.412 136.742C415.278 138.851 415.364 141.486 415.486 143.949C415.598 146.222 415.71 148.495 415.823 150.768C415.952 153.384 416.277 156.396 418.231 157.814C419.268 158.566 420.624 158.727 421.512 159.692C422.625 160.902 422.553 162.716 422.599 164.248C422.626 165.125 422.56 165.954 422.931 166.677" fill="#EACDB0"/>
<path d="M434.236 137.291C434.359 137.502 434.461 137.725 434.542 137.956C434.958 139.161 434.676 140.521 435.083 141.729C435.728 143.645 437.957 144.797 438.294 146.792C438.568 148.423 437.458 149.973 437.363 151.624C437.261 153.427 438.413 155.134 438.235 156.915C438.08 158.462 437.101 160.635 436.18 161.874C436.466 161.49 439.047 161.626 439.718 161.216C440.744 160.588 440.86 160.192 441.166 159.119C441.469 158.055 441.234 157.006 441.707 155.915C442.286 154.577 443.477 153.595 443.895 152.168C444.464 150.221 443.432 148.166 443.511 146.139C443.634 143.07 446.278 140.179 445.321 137.262C444.757 135.551 443.1 134.458 442.168 132.917C441.461 131.747 441.201 130.369 440.709 129.092C440.217 127.815 439.374 126.538 438.066 126.151C437.339 125.936 436.556 126.024 435.811 125.885C434.523 125.645 433.453 124.753 432.211 124.332C430.436 123.73 427.303 125.53 426.267 127.039C425.238 128.537 425.757 129.81 426.809 131.134C428.561 133.34 432.793 134.783 434.239 137.29" fill="#3B455A"/>
<path d="M407.899 124.067C407.026 124.565 406.189 125.124 405.395 125.739C402.233 128.204 399.81 131.913 399.782 135.929C399.763 138.411 400.611 141.069 399.467 143.27C398.037 146.021 394.202 146.655 392.479 149.23C388.929 154.535 397.012 162.232 393.546 167.592C391.687 170.466 387.055 171.339 386.501 174.721C386.209 176.498 387.286 178.233 388.616 179.443C389.913 180.603 391.459 181.447 393.134 181.91C394.81 182.372 396.569 182.441 398.275 182.11C399.929 181.775 403.555 180.331 404.841 182.014C405.209 182.594 405.483 183.229 405.653 183.895C406.621 186.66 409.289 189.115 412.177 188.669C413.236 188.506 414.2 187.979 415.21 187.621C416.388 187.205 417.652 187.009 418.735 186.389C419.818 185.769 420.704 184.533 420.395 183.322C420.318 183.017 420.17 182.733 420.086 182.43C419.655 180.873 420.957 179.41 421.334 177.839C421.955 175.25 419.35 172.467 418.942 169.869C418.435 166.635 420.241 163.404 418.78 160.268C418.267 159.168 416.758 157.136 417.917 155.944C418.649 154.953 420.376 154.631 420.42 153.399C420.441 152.821 420.038 152.328 419.721 151.845C419.131 150.89 418.776 149.807 418.685 148.687C418.594 147.566 418.771 146.441 419.2 145.402C420.091 143.321 421.715 141.642 423.762 140.686C426.118 139.541 425.74 138.964 426.425 136.701C427.056 134.619 428.234 134.131 430.103 133.372C431.782 132.69 432.321 132.266 432.941 130.69C433.394 129.538 433.951 128.159 433.295 126.871C431.87 124.084 427.297 119.928 424.203 119.485C421.517 119.1 418.81 119.851 416.221 120.666C413.36 121.568 410.488 122.58 407.898 124.067" fill="#3B455A"/>
<path d="M432.52 148.002C432.173 148.014 431.828 147.939 431.517 147.784C430.912 147.446 430.592 146.666 431.346 146.249C431.495 146.183 431.657 146.154 431.819 146.164C431.979 146.164 432.154 146.178 432.322 146.193C432.49 146.207 432.654 146.221 432.79 146.221C432.839 146.221 432.887 146.219 432.935 146.214C433.544 146.145 434.139 145.987 434.702 145.744C434.831 145.677 434.971 145.636 435.116 145.624C435.141 145.624 435.167 145.626 435.192 145.631C435.285 145.653 435.37 145.703 435.435 145.773C435.5 145.844 435.542 145.933 435.557 146.028C435.585 146.15 435.579 146.278 435.539 146.397C435.202 147.345 433.706 148 432.52 148" fill="#E1C5A9"/>
<path d="M421.759 148.569C421.19 148.6 420.627 148.444 420.154 148.124C419.617 147.685 419.439 146.861 420.253 146.582C420.318 146.561 420.386 146.552 420.453 146.553C420.861 146.553 421.479 146.806 421.824 146.827C421.956 146.835 422.087 146.839 422.219 146.839C422.699 146.839 423.178 146.784 423.645 146.674C423.754 146.643 423.866 146.625 423.978 146.62C424.036 146.619 424.093 146.628 424.147 146.647C424.235 146.686 424.309 146.749 424.361 146.83C424.413 146.911 424.439 147.006 424.438 147.102C424.444 147.228 424.416 147.352 424.355 147.462C423.948 148.179 422.802 148.569 421.759 148.569" fill="#E1C5A9"/>
<path d="M471.047 219.055C471.066 224.34 470.047 229.578 468.048 234.468C466.048 239.359 463.108 243.807 459.394 247.558C455.68 251.309 451.266 254.29 446.403 256.331C441.54 258.371 436.324 259.431 431.053 259.45C425.781 259.47 420.558 258.448 415.68 256.444C410.803 254.439 406.367 251.49 402.626 247.767C398.885 244.043 395.912 239.617 393.877 234.741C391.842 229.865 390.784 224.635 390.765 219.35C390.746 214.064 391.765 208.827 393.764 203.936C395.763 199.046 398.704 194.598 402.418 190.847C406.131 187.096 410.546 184.115 415.409 182.074C420.271 180.034 425.487 178.974 430.759 178.954C436.03 178.935 441.254 179.957 446.131 181.961C451.009 183.966 455.445 186.914 459.186 190.638C462.927 194.362 465.9 198.788 467.935 203.663C469.97 208.539 471.027 213.769 471.047 219.055Z" fill="#EAC5B0"/>
<path d="M402.418 190.847C401.551 191.722 400.74 192.632 399.97 193.565L456.701 250.032C457.626 249.254 458.527 248.434 459.394 247.559C460.26 246.683 461.071 245.773 461.842 244.84L405.111 188.372C404.186 189.152 403.285 189.971 402.418 190.847" fill="#CEAE9F"/>
<path d="M430.871 259.451C426.242 259.456 421.647 258.656 417.291 257.088L417.305 257.083C421.662 258.654 426.258 259.456 430.888 259.452H430.871" fill="#305193"/>
<path d="M430.888 259.451C426.258 259.454 421.662 258.653 417.305 257.082C428.131 253.658 437.607 246.903 444.388 237.776L456.692 250.023C449.506 256.092 440.418 259.43 431.022 259.45H430.888L430.888 259.451ZM461.83 244.826L448.425 231.484C452.825 223.455 455.11 214.434 455.062 205.273C455.045 198.035 453.574 190.874 450.738 184.218C456.877 187.721 461.985 192.787 465.545 198.904C469.105 205.021 470.992 211.971 471.015 219.054C471.064 228.459 467.812 237.582 461.83 244.826" fill="#E0BDA9"/>
<path d="M456.692 250.023L444.388 237.775C445.877 235.774 447.225 233.672 448.425 231.484L461.83 244.827C460.277 246.711 458.557 248.45 456.692 250.023Z" fill="#C5A799"/>
<path d="M426.74 214.937C426.747 214.614 426.851 214.3 427.037 214.035C427.224 213.771 427.485 213.568 427.787 213.454C428.617 213.197 429.489 213.58 430.279 213.954C433.451 215.458 436.475 217.277 439.884 217.806C441.744 218.095 445.064 217.751 445.451 220.509C445.582 221.174 445.602 221.857 445.512 222.529C445.388 223.063 445.181 223.574 444.896 224.042C444.69 224.411 444.445 225.051 444.065 225.154C441.937 225.72 438.301 224.682 435.983 224.775C432.293 224.919 427.683 225.914 424.455 223.628C424.006 223.343 423.636 222.95 423.377 222.484C422.917 221.556 423.189 220.419 423.471 219.41C423.508 219.212 423.595 219.026 423.723 218.87C423.832 218.774 423.96 218.704 424.099 218.664C425.29 218.246 426.726 218.824 427.796 218.235C428.375 217.916 428.745 217.042 428.343 216.489C428.016 216.037 427.368 216.016 426.993 215.61C426.827 215.427 426.736 215.187 426.739 214.939" fill="#E5D1BD"/>
<path d="M465.571 230.804C454.686 230.086 435.693 228.476 435.671 226.082C435.642 222.297 436.31 218.539 437.64 214.996C437.785 214.613 444.666 215.624 445.395 215.684C448.205 215.948 451.03 216.034 453.852 215.94C459.254 215.69 464.6 213.214 469.987 214.964C472.801 215.878 475.389 218.051 476.32 221.064C477.094 223.568 476.843 229.726 474.201 231.047C473.779 231.217 473.321 231.277 472.869 231.222C472.222 231.197 469.398 231.056 465.572 230.804" fill="#305399"/>
<path d="M80.6931 68.2671L116.178 37.0112C127.754 26.8153 145.224 27.7788 155.198 39.1627C165.173 50.5466 163.874 68.0423 152.298 78.2386L116.812 109.495L80.6931 68.2671Z" fill="#E3E4E5"/>
<path d="M81.7093 67.3713L46.2239 98.6273C34.6478 108.823 33.349 126.318 43.3237 137.702C53.2985 149.087 70.768 150.051 82.3433 139.854L117.829 108.598L81.7093 67.3713Z" fill="#7DB5DB"/>
<path d="M42.9291 124.313C42.6357 124.329 42.3422 124.286 42.0655 124.187C41.7888 124.089 41.5342 123.936 41.3166 123.738C41.099 123.54 40.9227 123.301 40.7977 123.035C40.6727 122.768 40.6016 122.479 40.5884 122.185C40.1589 117.852 40.8555 113.481 42.6103 109.497C44.3651 105.514 47.1184 102.054 50.6023 99.4533C51.0702 99.0938 51.6416 98.8961 52.231 98.8896C54.4656 98.8896 56.245 101.848 53.9931 103.505C48.4026 107.62 45.1687 114.348 45.8512 121.235C46.0435 123.168 44.4206 124.314 42.9274 124.314" fill="#D3E6F3"/>
<path d="M43.6986 131.216C43.0669 131.189 42.4684 130.925 42.0223 130.476C41.5671 130 41.3183 129.363 41.3302 128.704C41.3554 128.038 41.6317 127.407 42.1031 126.937L42.2037 126.84C42.6866 126.382 43.3235 126.123 43.9881 126.114C44.0133 126.114 44.0381 126.114 44.0625 126.114C44.6945 126.14 45.2932 126.405 45.7392 126.854C46.1946 127.33 46.4435 127.967 46.4314 128.626C46.4063 129.292 46.13 129.923 45.6584 130.393L45.5579 130.49C45.0747 130.948 44.4375 131.208 43.7726 131.217C43.7478 131.217 43.7234 131.217 43.6982 131.217" fill="#D3E6F3"/>
<path d="M63.683 146.984C59.8176 147.001 55.9935 146.187 52.4679 144.598C48.9424 143.009 45.7971 140.681 43.2438 137.771C40.3519 134.474 38.3093 130.517 37.2944 126.246C37.3415 126.32 37.3886 126.393 37.437 126.467C38.4776 130.628 40.496 134.48 43.3237 137.701C45.8774 140.61 49.0229 142.937 52.5485 144.526C56.0741 146.115 59.8981 146.928 63.7634 146.912C70.6075 146.907 77.2147 144.398 82.3446 139.855L88.9735 134.017L82.2651 139.925C77.1355 144.468 70.5288 146.978 63.6847 146.984L63.683 146.984ZM96.7414 127.174L117.67 108.74L116.734 109.564L96.7414 127.174" fill="white"/>
<path d="M88.9719 134.016L96.7402 127.174L88.9719 134.016Z" fill="#E8D6C5"/>
<path d="M117.829 108.599L152.269 78.2664L152.219 78.3086L117.828 108.599" fill="white"/>
<path d="M117.829 108.599L112.229 102.207L113.241 101.315L114.258 100.421L148.727 70.06C152.562 66.7097 155.413 62.374 156.972 57.5196C158.532 52.6652 158.741 47.4762 157.577 42.5115C164.755 53.7503 162.74 69.0006 152.269 78.2663L117.829 108.599" fill="#E6E7E8"/>
<path d="M63.763 146.914C59.8977 146.93 56.0737 146.117 52.548 144.528C49.0224 142.94 45.877 140.612 43.3233 137.703C40.4956 134.482 38.4772 130.631 37.4366 126.469C38.1351 127.541 38.9084 128.562 39.7507 129.525C42.3044 132.434 45.4498 134.761 48.9754 136.35C52.5011 137.939 56.3251 138.752 60.1904 138.736C67.0346 138.73 73.6416 136.22 78.7712 131.677L112.229 102.207L117.829 108.599L117.75 108.668L117.669 108.74L96.7402 127.174L88.9719 134.016L82.3446 139.855C77.2152 144.399 70.6084 146.908 63.7642 146.914" fill="#8CBEDF"/>
<path d="M336.577 141.089L278.256 51.8578C277.56 50.7931 277.08 49.6013 276.843 48.3506C276.607 47.0999 276.618 45.8147 276.877 44.5684C277.136 43.3222 277.637 42.1392 278.351 41.0871C279.066 40.035 279.981 39.1344 281.043 38.4367L336.996 1.66973C338.058 0.971944 339.247 0.490703 340.494 0.253498C341.741 0.0162938 343.023 0.0277853 344.266 0.287281C345.509 0.546777 346.689 1.04919 347.738 1.76588C348.787 2.48257 349.686 3.39946 350.382 4.46422L408.702 93.6952C409.398 94.76 409.878 95.9517 410.114 97.2024C410.351 98.4531 410.339 99.7383 410.081 100.985C409.822 102.231 409.321 103.414 408.606 104.466C407.891 105.518 406.977 106.419 405.915 107.116L349.961 143.883C348.899 144.581 347.711 145.062 346.464 145.299C345.216 145.536 343.934 145.525 342.692 145.265C341.449 145.006 340.269 144.503 339.22 143.787C338.17 143.07 337.272 142.153 336.576 141.088" fill="#A3AAB0"/>
<path d="M335.457 141.824L277.136 52.5945C275.731 50.4441 275.235 47.8221 275.758 45.3052C276.281 42.7884 277.779 40.5827 279.923 39.1733L335.877 2.40683C338.022 0.99791 340.637 0.500832 343.147 1.02489C345.657 1.54894 347.857 3.05123 349.262 5.20134L407.585 94.4307C408.281 95.4954 408.761 96.6871 408.998 97.9378C409.234 99.1886 409.223 100.474 408.964 101.72C408.705 102.966 408.204 104.149 407.489 105.201C406.775 106.253 405.86 107.154 404.798 107.852L348.845 144.618C347.783 145.316 346.594 145.797 345.347 146.035C344.099 146.272 342.818 146.26 341.575 146.001C340.332 145.741 339.152 145.239 338.103 144.522C337.053 143.805 336.155 142.889 335.459 141.824" fill="#D7E8F4"/>
<path d="M348.476 144.848C348.6 144.775 348.722 144.699 348.843 144.619L349.928 143.905L348.842 144.619C348.721 144.699 348.598 144.776 348.475 144.849L348.476 144.848ZM367.162 132.582L368.84 131.479L367.162 132.582ZM379.902 124.21L391.172 116.806L404.796 107.853L404.811 107.843L404.846 107.82C404.83 107.831 404.813 107.842 404.797 107.853L379.902 124.211" fill="#F8F8F8"/>
<path d="M368.84 131.479L379.902 124.209L368.84 131.478" fill="#DFCCB8"/>
<path d="M349.928 143.905L391.172 116.804L379.902 124.209L368.84 131.479L367.162 132.582L349.929 143.905L349.928 143.905ZM404.812 107.842C406.791 106.537 408.223 104.548 408.836 102.254C409.45 99.9598 409.202 97.5197 408.14 95.3967C409.199 97.5134 409.449 99.9455 408.842 102.234C408.235 104.523 406.814 106.51 404.846 107.82L404.812 107.843" fill="#9FA6AC"/>
<path d="M343.557 146.204C342.815 146.204 342.075 146.119 341.353 145.951L341.678 125.942C342.848 126.518 344.108 126.889 345.403 127.039C346.483 127.369 347.606 127.537 348.735 127.537C350.943 127.538 353.103 126.89 354.948 125.673C356.195 124.854 357.269 123.796 358.109 122.561C358.948 121.325 359.537 119.935 359.841 118.472C360.145 117.008 360.158 115.499 359.88 114.03C359.602 112.561 359.039 111.161 358.221 109.91C357.309 108.512 356.101 107.332 354.682 106.456C353.264 105.579 351.67 105.027 350.014 104.839C348.934 104.509 347.812 104.341 346.683 104.341C345.072 104.34 343.479 104.686 342.012 105.353L343.026 43.1022C344.176 42.7873 345.269 42.2925 346.266 41.6362C347.513 40.8167 348.587 39.759 349.427 38.5233C350.266 37.2876 350.855 35.8982 351.158 34.4344C351.462 32.9707 351.476 31.4612 351.198 29.9923C350.92 28.5234 350.356 27.1237 349.539 25.8732C348.091 23.6516 345.912 22.0094 343.381 21.2326L343.708 1.15845C345.991 1.77557 347.968 3.21357 349.261 5.19833L407.585 94.4306C407.789 94.7415 407.974 95.0639 408.14 95.3963C409.203 97.5193 409.45 99.9594 408.837 102.253C408.224 104.548 406.792 106.536 404.813 107.842L404.798 107.851L391.172 116.804L349.928 143.905L348.843 144.619C348.722 144.699 348.599 144.775 348.476 144.848C346.988 145.736 345.289 146.205 343.557 146.204H343.557ZM377.751 105.78C378.831 106.111 379.954 106.279 381.083 106.279C383.292 106.28 385.452 105.632 387.297 104.415C388.544 103.596 389.618 102.538 390.458 101.302C391.297 100.067 391.886 98.6773 392.19 97.2137C392.493 95.75 392.507 94.2406 392.229 92.7716C391.951 91.3027 391.388 89.9031 390.57 88.6526C389.659 87.2546 388.451 86.0753 387.033 85.1988C385.614 84.3222 384.021 83.7699 382.366 83.5812C381.286 83.2507 380.163 83.0825 379.033 83.0821C376.825 83.0819 374.665 83.73 372.82 84.9464C370.301 86.6015 368.542 89.1921 367.928 92.1482C367.314 95.1043 367.896 98.1838 369.547 100.709C370.458 102.107 371.666 103.287 373.084 104.163C374.503 105.04 376.096 105.592 377.751 105.78ZM357.639 75.0078C358.719 75.3381 359.841 75.506 360.97 75.5061C363.178 75.5068 365.338 74.8587 367.183 73.6418C368.431 72.8224 369.505 71.7646 370.344 70.5289C371.184 69.2932 371.772 67.9039 372.076 66.4401C372.38 64.9764 372.394 63.467 372.116 61.998C371.838 60.529 371.274 59.1293 370.457 57.8788C369.545 56.4805 368.336 55.3011 366.918 54.4245C365.499 53.548 363.905 52.9961 362.249 52.8079C361.17 52.4777 360.047 52.3097 358.919 52.3097C356.71 52.309 354.55 52.9568 352.705 54.1731C351.458 54.9925 350.384 56.0503 349.545 57.286C348.705 58.5217 348.117 59.911 347.813 61.3748C347.509 62.8385 347.495 64.3479 347.773 65.8169C348.051 67.2859 348.615 68.6856 349.432 69.9361C350.344 71.3346 351.552 72.5142 352.971 73.3908C354.39 74.2674 355.984 74.8194 357.639 75.0074" fill="#D1E2EE"/>
<path d="M307.705 64.7583C306.576 64.7583 305.454 64.5904 304.374 64.2601C304.806 64.3096 305.239 64.3344 305.674 64.3344C307.882 64.335 310.042 63.6872 311.887 62.4709C314.406 60.8158 316.166 58.2252 316.78 55.2691C317.394 52.313 316.811 49.2334 315.16 46.7079C313.709 44.4801 311.523 42.835 308.984 42.0605C310.64 42.2487 312.234 42.8008 313.652 43.6773C315.071 44.5538 316.279 45.7332 317.191 47.1315C318.842 49.6571 319.424 52.7366 318.81 55.6927C318.196 58.6488 316.436 61.2394 313.918 62.8945C312.073 64.1113 309.913 64.7594 307.704 64.7588" fill="#C5D4DF"/>
<path d="M315.16 46.7075C316.811 49.2331 317.393 52.3126 316.78 55.2687C316.166 58.2247 314.406 60.8153 311.887 62.4705C310.64 63.29 309.244 63.8552 307.779 64.1337C306.314 64.4123 304.809 64.3988 303.349 64.094C301.889 63.7893 300.504 63.1992 299.271 62.3574C298.039 61.5157 296.984 60.4388 296.166 59.1883C294.516 56.6628 293.933 53.5833 294.547 50.6271C295.161 47.671 296.921 45.0804 299.44 43.4253C300.687 42.6058 302.083 42.0407 303.548 41.7621C305.013 41.4835 306.518 41.497 307.978 41.8018C309.438 42.1066 310.823 42.6967 312.056 43.5384C313.288 44.3801 314.343 45.457 315.16 46.7075Z" fill="#7DB5DB"/>
<path d="M294.547 50.6271C294.476 50.9692 294.424 51.3101 294.385 51.6501L316.522 56.2718C316.621 55.944 316.709 55.6103 316.78 55.269C316.851 54.9277 316.903 54.586 316.943 54.2451L294.806 49.6243C294.706 49.9516 294.619 50.2854 294.547 50.6271Z" fill="#6CA4C4"/>
<path d="M340.055 43.5026C338.926 43.5025 337.804 43.3346 336.724 43.0043C337.156 43.0539 337.59 43.0787 338.024 43.0786C339.767 43.0791 341.486 42.6747 343.047 41.8973L343.027 43.1026C342.058 43.3671 341.059 43.501 340.055 43.5009V43.5026ZM343.377 21.6527C342.724 21.3037 342.04 21.0189 341.333 20.8022C342.028 20.8826 342.714 21.0265 343.383 21.2322L343.377 21.654" fill="#C5D4DF"/>
<path d="M343.026 43.1021L343.046 41.8968C343.456 41.6929 343.853 41.4646 344.236 41.2129C345.483 40.3934 346.557 39.3357 347.396 38.1C348.236 36.8643 348.824 35.4749 349.128 34.0112C349.432 32.5475 349.446 31.0381 349.168 29.5691C348.89 28.1002 348.326 26.7005 347.509 25.45C346.471 23.8563 345.049 22.5506 343.375 21.6531L343.382 21.2312C345.913 22.008 348.092 23.6502 349.54 25.8718C350.357 27.1223 350.921 28.522 351.199 29.9909C351.477 31.4599 351.463 32.9693 351.159 34.4331C350.855 35.8968 350.267 37.2862 349.427 38.5219C348.588 39.7576 347.514 40.8154 346.267 41.6348C345.27 42.2912 344.177 42.7859 343.027 43.1008" fill="#C0CFDA"/>
<path d="M328.622 96.7619C327.493 96.7618 326.37 96.5939 325.291 96.2637C325.723 96.3132 326.157 96.338 326.591 96.3379C328.8 96.3385 330.96 95.6907 332.805 94.4745C335.323 92.8194 337.083 90.2288 337.697 87.2727C338.311 84.3166 337.729 81.2371 336.078 78.7115C334.627 76.4835 332.441 74.8383 329.902 74.0637C331.558 74.252 333.151 74.8041 334.57 75.6806C335.989 76.5572 337.197 77.7367 338.109 79.1351C339.759 81.6606 340.341 84.74 339.727 87.6959C339.114 90.6518 337.354 93.2422 334.835 94.8972C332.99 96.114 330.83 96.7621 328.622 96.7615" fill="#C5D4DF"/>
<path d="M360.97 75.5061C359.841 75.506 358.719 75.3381 357.639 75.0079C358.071 75.0574 358.505 75.0822 358.94 75.0821C361.148 75.0828 363.308 74.435 365.153 73.2187C367.672 71.5635 369.432 68.973 370.046 66.0169C370.659 63.0609 370.077 59.9813 368.427 57.4557C366.976 55.2276 364.789 53.5824 362.25 52.8083C363.905 52.9965 365.499 53.5485 366.918 54.425C368.337 55.3015 369.545 56.481 370.457 57.8793C371.275 59.1298 371.838 60.5295 372.116 61.9984C372.394 63.4674 372.381 64.9768 372.077 66.4406C371.773 67.9043 371.184 69.2937 370.345 70.5294C369.505 71.7651 368.431 72.8228 367.184 73.6423C365.339 74.8591 363.179 75.5072 360.971 75.5065" fill="#C0CFDA"/>
<path d="M348.735 127.535C347.606 127.535 346.483 127.367 345.403 127.037C345.835 127.086 346.269 127.111 346.704 127.111C348.912 127.112 351.073 126.464 352.917 125.247C354.165 124.428 355.239 123.37 356.078 122.134C356.918 120.898 357.506 119.509 357.81 118.045C358.114 116.582 358.128 115.072 357.85 113.603C357.572 112.134 357.008 110.735 356.191 109.484C354.74 107.256 352.553 105.611 350.014 104.837C351.67 105.025 353.264 105.577 354.683 106.453C356.101 107.33 357.31 108.51 358.222 109.908C359.039 111.159 359.603 112.558 359.881 114.027C360.158 115.496 360.145 117.006 359.841 118.469C359.537 119.933 358.949 121.322 358.109 122.558C357.27 123.794 356.196 124.852 354.948 125.671C353.103 126.887 350.943 127.535 348.735 127.534" fill="#C0CFDA"/>
<path d="M381.083 106.279C379.954 106.279 378.831 106.111 377.751 105.78C378.183 105.83 378.617 105.855 379.052 105.855C381.261 105.855 383.421 105.208 385.266 103.991C387.785 102.336 389.545 99.7457 390.158 96.7896C390.772 93.8335 390.19 90.7539 388.539 88.2284C387.088 86.0009 384.902 84.3558 382.364 83.5811C384.019 83.7698 385.612 84.322 387.03 85.1986C388.449 86.0752 389.657 87.2544 390.568 88.6524C391.386 89.9029 391.949 91.3026 392.227 92.7715C392.505 94.2404 392.491 95.7498 392.187 97.2135C391.883 98.6772 391.295 100.066 390.455 101.302C389.616 102.538 388.542 103.596 387.295 104.415C385.45 105.632 383.29 106.28 381.081 106.279" fill="#C0CFDA"/>
<path d="M347.509 25.4516C348.326 26.7022 348.89 28.1019 349.167 29.5708C349.445 31.0398 349.432 32.5492 349.128 34.0129C348.824 35.4766 348.235 36.866 347.396 38.1017C346.556 39.3373 345.482 40.3951 344.235 41.2146C342.988 42.0341 341.592 42.5993 340.127 42.8779C338.662 43.1564 337.157 43.1429 335.697 42.8382C334.237 42.5334 332.851 41.9433 331.619 41.1016C330.387 40.2598 329.332 39.183 328.514 37.9324C327.697 36.6819 327.133 35.2822 326.855 33.8133C326.577 32.3443 326.591 30.8349 326.895 29.3712C327.199 27.9074 327.787 26.518 328.627 25.2824C329.466 24.0467 330.54 22.9889 331.788 22.1695C333.035 21.35 334.431 20.7848 335.896 20.5062C337.361 20.2277 338.866 20.2412 340.326 20.5459C341.786 20.8507 343.172 21.4408 344.404 22.2825C345.636 23.1243 346.691 24.2011 347.509 25.4516Z" fill="#7DB5DB"/>
<path d="M326.896 29.3714C326.825 29.7135 326.772 30.0544 326.733 30.3944L348.87 35.0161C348.969 34.6887 349.057 34.3546 349.129 34.0133C349.2 33.672 349.251 33.3303 349.291 32.9902L327.154 28.3682C327.054 28.696 326.966 29.0301 326.896 29.3718" fill="#6CA4C4"/>
<path d="M336.078 78.711C337.728 81.2365 338.311 84.3161 337.697 87.2722C337.083 90.2283 335.323 92.8188 332.804 94.474C331.557 95.2935 330.161 95.8587 328.696 96.1373C327.231 96.4159 325.726 96.4024 324.266 96.0977C322.806 95.7929 321.42 95.2027 320.188 94.361C318.955 93.5192 317.901 92.4423 317.083 91.1917C316.266 89.9412 315.702 88.5416 315.424 87.0726C315.146 85.6036 315.16 84.0942 315.464 82.6305C315.768 81.1667 316.356 79.7773 317.196 78.5417C318.035 77.306 319.109 76.2482 320.357 75.4288C321.604 74.6093 323 74.0441 324.465 73.7655C325.93 73.487 327.435 73.5004 328.895 73.8052C330.355 74.11 331.741 74.7001 332.973 75.5418C334.205 76.3836 335.26 77.4604 336.078 78.711Z" fill="#7DB5DB"/>
<path d="M315.465 82.6319C315.394 82.9732 315.341 83.3149 315.302 83.655L337.439 88.2766C337.538 87.9488 337.626 87.6151 337.697 87.2738C337.767 86.9325 337.82 86.5904 337.86 86.2499L315.723 81.6274C315.623 81.9548 315.535 82.2885 315.465 82.6302" fill="#6CA4C4"/>
<path d="M368.426 57.4551C370.077 59.9807 370.659 63.0602 370.045 66.0163C369.431 68.9723 367.671 71.5628 365.153 73.218C363.906 74.0376 362.51 74.6028 361.045 74.8814C359.58 75.16 358.074 75.1465 356.614 74.8417C355.155 74.537 353.769 73.9468 352.536 73.1051C351.304 72.2633 350.249 71.1864 349.432 69.9359C348.615 68.6853 348.051 67.2856 347.773 65.8167C347.495 64.3478 347.509 62.8383 347.813 61.3746C348.117 59.9109 348.705 58.5215 349.545 57.2858C350.384 56.0502 351.458 54.9924 352.705 54.1729C353.953 53.3534 355.348 52.7882 356.813 52.5097C358.279 52.2311 359.784 52.2446 361.244 52.5494C362.704 52.8541 364.089 53.4442 365.322 54.286C366.554 55.1277 367.609 56.2046 368.426 57.4551Z" fill="#7DB5DB"/>
<path d="M347.812 61.3749C347.742 61.717 347.69 62.0579 347.65 62.3979L369.787 67.0196C369.886 66.6918 369.974 66.3581 370.045 66.0168C370.116 65.6755 370.168 65.3333 370.208 64.9937L348.071 60.3721C347.972 60.6994 347.884 61.0331 347.812 61.3749" fill="#6CA4C4"/>
<path d="M356.191 109.485C357.008 110.735 357.572 112.135 357.85 113.604C358.128 115.073 358.114 116.582 357.81 118.046C357.506 119.51 356.918 120.899 356.078 122.135C355.239 123.37 354.165 124.428 352.917 125.247C351.67 126.067 350.274 126.632 348.809 126.911C347.344 127.189 345.839 127.176 344.379 126.871C342.919 126.566 341.534 125.976 340.301 125.134C339.069 124.293 338.014 123.216 337.197 121.965C335.546 119.44 334.964 116.36 335.578 113.404C336.191 110.448 337.951 107.857 340.47 106.202C342.989 104.547 346.06 103.963 349.008 104.579C351.957 105.194 354.54 106.959 356.191 109.485Z" fill="#7DB5DB"/>
<path d="M335.577 113.404C335.507 113.746 335.455 114.087 335.415 114.427L357.552 119.049C357.651 118.721 357.739 118.387 357.81 118.045C357.882 117.703 357.933 117.362 357.973 117.022L335.835 112.4C335.736 112.728 335.648 113.062 335.577 113.403" fill="#6CA4C4"/>
<path d="M388.539 88.2284C390.19 90.7539 390.772 93.8335 390.158 96.7896C389.545 99.7457 387.785 102.336 385.266 103.991C382.747 105.646 379.676 106.23 376.727 105.615C373.779 104.999 371.195 103.235 369.545 100.709C367.894 98.1836 367.312 95.1041 367.926 92.148C368.54 89.1919 370.299 86.6014 372.818 84.9463C374.065 84.1267 375.461 83.5615 376.926 83.2829C378.391 83.0043 379.897 83.0178 381.357 83.3226C382.816 83.6273 384.202 84.2175 385.434 85.0592C386.667 85.901 387.722 86.9779 388.539 88.2284Z" fill="#7DB5DB"/>
<path d="M367.926 92.1481C367.855 92.4902 367.803 92.8315 367.763 93.1711L389.9 97.7928C390 97.4654 390.087 97.1313 390.158 96.79C390.229 96.4487 390.281 96.107 390.321 95.7669L368.184 91.1453C368.085 91.4731 367.997 91.8068 367.926 92.1481Z" fill="#6CA4C4"/>
<path d="M315.272 50.6301C313.925 48.6105 312.101 46.9556 309.962 45.8122C307.824 44.6688 305.437 44.0723 303.014 44.0754C301.911 44.0753 300.812 44.1997 299.737 44.4463C301.386 43.3996 303.297 42.8443 305.249 42.8452C306.967 42.8431 308.658 43.2706 310.17 44.0889C311.681 44.9072 312.966 46.0905 313.906 47.5319C314.528 48.4824 314.99 49.5292 315.272 50.6301Z" fill="#A4CBE6"/>
<path d="M347.878 29.2038C346.531 27.1841 344.707 25.529 342.569 24.3855C340.431 23.2419 338.044 22.6452 335.621 22.6483C334.518 22.6482 333.419 22.7728 332.344 23.0195C333.992 21.9729 335.904 21.4176 337.855 21.4185C339.574 21.416 341.265 21.8433 342.777 22.6616C344.289 23.4799 345.574 24.6635 346.515 26.1051C347.137 27.0554 347.598 28.1022 347.879 29.2033" fill="#A4CBE6"/>
<path d="M336.436 83.0117C335.089 80.9922 333.265 79.3374 331.127 78.194C328.988 77.0506 326.602 76.454 324.178 76.457C323.076 76.4568 321.976 76.5812 320.901 76.8278C322.55 75.7812 324.462 75.2259 326.413 75.2268C328.131 75.2245 329.823 75.6518 331.335 76.4701C332.847 77.2884 334.132 78.4719 335.073 79.9134C335.694 80.8641 336.155 81.9109 336.436 83.0117Z" fill="#A4CBE6"/>
<path d="M369.044 61.5875C367.697 59.5678 365.873 57.9127 363.735 56.7692C361.596 55.6256 359.209 55.0289 356.786 55.032C355.683 55.032 354.584 55.1565 353.509 55.4033C355.158 54.3566 357.069 53.8013 359.021 53.8023C360.739 53.7998 362.431 54.227 363.943 55.0454C365.455 55.8637 366.739 57.0473 367.68 58.4889C368.302 59.4395 368.763 60.4862 369.045 61.5871" fill="#A4CBE6"/>
<path d="M356.548 113.787C355.2 111.768 353.377 110.113 351.238 108.969C349.1 107.826 346.713 107.229 344.289 107.232C343.187 107.232 342.088 107.357 341.013 107.603C342.662 106.557 344.573 106.002 346.525 106.002C348.243 105.999 349.934 106.426 351.447 107.244C352.959 108.062 354.244 109.245 355.185 110.687C355.806 111.637 356.267 112.684 356.55 113.785" fill="#A4CBE6"/>
<path d="M389.156 92.3608C387.809 90.3412 385.985 88.6864 383.847 87.5429C381.709 86.3995 379.322 85.803 376.899 85.8061C375.796 85.806 374.697 85.9304 373.622 86.177C375.271 85.1306 377.182 84.5754 379.134 84.5759C380.852 84.5737 382.543 85.001 384.055 85.8193C385.567 86.6377 386.852 87.8211 387.793 89.2626C388.414 90.213 388.875 91.2598 389.157 92.3608" fill="#A4CBE6"/>
</svg>
