<svg width="25" height="28" viewBox="0 0 25 28" fill="none" xmlns="http://www.w3.org/2000/svg">
<g clip-path="url(#clip0)">
<path d="M9.80273 24.968C9.83004 25.5476 10.0795 26.0944 10.4993 26.4949C10.9191 26.8954 11.477 27.1188 12.0572 27.1188C12.6374 27.1188 13.1954 26.8954 13.6152 26.4949C14.035 26.0944 14.2844 25.5476 14.3117 24.968C13.5427 25.001 12.7867 25.016 12.0577 25.016C11.3287 25.016 10.5717 25.001 9.80273 24.968Z" fill="#CFD0D1"/>
<path d="M23.9626 21.4C22.5366 19.815 20.6476 17.783 20.6476 10.549C20.6476 4.675 16.7716 2.477 13.8626 1.86C13.8642 1.84304 13.8642 1.82596 13.8626 1.809C13.8626 1.32936 13.6721 0.869357 13.3329 0.530197C12.9937 0.191038 12.5337 0.000499725 12.0541 0.000499725C11.5745 0.000499725 11.1145 0.191038 10.7753 0.530197C10.4361 0.869357 10.2456 1.32936 10.2456 1.809C10.244 1.82596 10.244 1.84304 10.2456 1.86C7.3366 2.478 3.4606 4.675 3.4606 10.549C3.4606 17.783 1.5706 19.814 0.145601 21.4C-1.0484 22.729 5.0076 23.588 10.0736 23.772C10.7576 23.799 11.4236 23.811 12.0506 23.811C12.6776 23.811 13.3436 23.799 14.0276 23.772C19.1046 23.588 25.1556 22.729 23.9626 21.4Z" fill="#CFD0D1"/>
</g>
<defs>
<clipPath id="clip0">
<rect width="24.116" height="27.126" fill="white"/>
</clipPath>
</defs>
</svg>
