<svg width="1440" height="280" viewBox="0 0 1440 280" fill="none" xmlns="http://www.w3.org/2000/svg">
<mask id="mask0" mask-type="alpha" maskUnits="userSpaceOnUse" x="0" y="0" width="1440" height="280">
<rect width="1440" height="280" fill="#4DD0E1"/>
</mask>
<g mask="url(#mask0)">
<path d="M1433.7 30.6036L1428.49 27.7304L1431.36 22.5202C1431.96 21.4373 1431.56 20.0755 1430.48 19.4785C1429.4 18.8815 1428.04 19.2751 1427.44 20.3579L1424.57 25.568L1419.36 22.6948C1418.27 22.0977 1416.91 22.4914 1416.31 23.5741C1415.72 24.6569 1416.11 26.0188 1417.19 26.6159L1422.4 29.4891L1419.53 34.6993C1418.93 35.7822 1419.33 37.144 1420.41 37.741C1421.49 38.338 1422.85 37.9444 1423.45 36.8617L1426.32 31.6515L1431.53 34.5248C1432.62 35.1218 1433.98 34.7281 1434.58 33.6454C1435.17 32.5626 1434.78 31.2007 1433.7 30.6036Z" fill="white" fill-opacity="0.3"/>
<path d="M1434.96 11.356C1425.45 6.1095 1413.44 9.58117 1408.19 19.0948C1402.94 28.6084 1406.42 40.6169 1415.93 45.8634C1425.44 51.1099 1437.45 47.6382 1442.7 38.1246C1447.94 28.611 1444.47 16.6025 1434.96 11.356ZM1418.09 41.9419C1410.74 37.8878 1408.06 28.6086 1412.11 21.2571C1416.17 13.9056 1425.45 11.223 1432.8 15.2771C1440.15 19.3312 1442.83 28.6104 1438.78 35.9619C1434.72 43.3134 1425.44 45.996 1418.09 41.9419Z" fill="white" fill-opacity="0.3"/>
<path d="M1472.06 36.3895L1464.23 9.31678C1464.06 8.74629 1463.68 8.26465 1463.16 7.97789L1409.24 -21.7561C1406 -23.5446 1401.9 -22.361 1400.12 -19.1177L1351.24 69.5037C1349.46 72.747 1350.64 76.8407 1353.88 78.6292L1391.33 99.2831C1392.42 99.8802 1393.78 99.4862 1394.38 98.4037C1394.97 97.3212 1394.58 95.9589 1393.5 95.3619L1356.04 74.7081C1354.96 74.1119 1354.57 72.7473 1355.16 71.6664L1404.04 -16.9552C1404.63 -18.0363 1406 -18.4307 1407.08 -17.8345L1459.04 10.8181L1452.66 22.3858C1450.87 25.6291 1452.05 29.7228 1455.29 31.5114L1466.86 37.8906L1447.62 72.79C1447.02 73.8728 1447.41 75.2348 1448.5 75.8318C1449.58 76.4288 1450.94 76.035 1451.54 74.9524L1471.86 38.0923C1472.15 37.5725 1472.22 36.9599 1472.06 36.3895ZM1457.46 27.5902C1456.38 26.994 1455.98 25.6294 1456.58 24.5484L1461.43 15.7534L1466.25 32.4405L1457.46 27.5902Z" fill="white" fill-opacity="0.3"/>
<path d="M1437.79 65.5789L1403.74 46.8014C1402.65 46.2043 1401.29 46.5982 1400.69 47.6808C1400.1 48.7633 1400.49 50.1256 1401.57 50.7225L1435.62 69.5C1436.71 70.0971 1438.07 69.7034 1438.67 68.6206C1439.26 67.5382 1438.87 66.176 1437.79 65.5789Z" fill="white" fill-opacity="0.3"/>
<path d="M1393.98 41.4224L1387.59 37.8993C1386.51 37.3022 1385.15 37.6961 1384.55 38.7787C1383.95 39.8612 1384.35 41.2235 1385.43 41.8204L1391.82 45.3435C1392.9 45.9406 1394.26 45.5467 1394.86 44.4642C1395.46 43.3816 1395.06 42.0195 1393.98 41.4224Z" fill="white" fill-opacity="0.3"/>
<path d="M1417.22 68.5575L1397.68 57.7811C1396.6 57.184 1395.24 57.578 1394.64 58.6605C1394.04 59.7431 1394.44 61.1053 1395.52 61.7023L1415.06 72.4786C1416.14 73.0757 1417.5 72.682 1418.1 71.5993C1418.7 70.5167 1418.31 69.1546 1417.22 68.5575Z" fill="white" fill-opacity="0.3"/>
<path d="M1387.93 52.4019L1381.54 48.8788C1380.46 48.2817 1379.09 48.6756 1378.5 49.7582C1377.9 50.8407 1378.29 52.2029 1379.38 52.7999L1385.76 56.323C1386.85 56.9201 1388.21 56.5262 1388.81 55.4437C1389.4 54.3611 1389.01 52.999 1387.93 52.4019Z" fill="white" fill-opacity="0.3"/>
<path d="M1392.69 70.0994C1392.53 69.5337 1392.14 69.0459 1391.63 68.7605C1391.11 68.4761 1390.49 68.4078 1389.92 68.5705C1389.36 68.7341 1388.87 69.1243 1388.58 69.64C1388.3 70.1556 1388.23 70.7771 1388.39 71.3428C1388.56 71.9087 1388.95 72.3976 1389.46 72.682C1389.98 72.9675 1390.6 73.0356 1391.17 72.8717C1391.73 72.7094 1392.22 72.3182 1392.51 71.8026C1392.79 71.2869 1392.86 70.6663 1392.69 70.0994Z" fill="white" fill-opacity="0.3"/>
<path d="M1381.87 63.3819L1375.48 59.8588C1374.4 59.2617 1373.04 59.6556 1372.44 60.7382C1371.84 61.8209 1372.24 63.1829 1373.32 63.7799L1379.71 67.303C1380.79 67.9001 1382.15 67.5062 1382.75 66.4236C1383.35 65.3412 1382.95 63.979 1381.87 63.3819Z" fill="white" fill-opacity="0.3"/>
<path d="M1449.64 99.7316C1449.07 99.4142 1448.48 99.1453 1447.88 98.9176C1451.4 95.455 1452.97 90.2181 1451.5 85.1509C1450.47 81.5888 1448.12 78.6409 1444.87 76.8503C1441.62 75.0596 1437.87 74.6407 1434.31 75.6705L1410.22 82.6348C1406.66 83.6647 1403.71 86.0199 1401.92 89.2669C1400.13 92.5142 1399.71 96.264 1400.74 99.826C1401.8 103.503 1404.26 106.404 1407.37 108.121C1410.49 109.837 1414.25 110.369 1417.93 109.306L1430.53 105.663C1427.21 112.285 1429.69 120.435 1436.24 124.044C1442.94 127.74 1451.4 125.295 1455.1 118.592C1458.79 111.888 1456.35 103.428 1449.64 99.7316ZM1416.69 105.004C1411.71 106.445 1406.48 103.564 1405.04 98.5823C1404.34 96.1692 1404.63 93.6291 1405.84 91.4295C1407.05 89.2299 1409.05 87.6342 1411.46 86.937L1421.36 84.0765L1426.58 102.144L1416.69 105.004ZM1430.88 100.9L1425.66 82.8326L1435.55 79.9723C1437.97 79.2746 1440.51 79.5584 1442.71 80.7714C1444.91 81.9844 1446.5 83.9813 1447.2 86.3944C1448.64 91.3756 1445.76 96.5998 1440.78 98.0397L1430.88 100.9ZM1436.57 118.804C1433.46 115.938 1432.57 111.211 1434.7 107.347C1436.84 103.482 1441.3 101.708 1445.39 102.81L1436.57 118.804ZM1440.49 120.966L1449.31 104.972C1452.42 107.838 1453.31 112.564 1451.17 116.429C1449.04 120.294 1444.57 122.068 1440.49 120.966Z" fill="white" fill-opacity="0.3"/>
<path d="M67.526 157.162L40.5587 142.904C36.6973 140.863 32.2715 140.447 28.0978 141.734C23.9237 143.021 20.5005 145.856 18.4588 149.718C16.4171 153.579 16.0013 158.005 17.2882 162.179C18.5751 166.353 21.4102 169.776 25.2718 171.818L52.2393 186.076C52.5431 186.236 52.8497 186.386 53.1589 186.526C55.322 187.504 57.602 187.97 59.8554 187.97C65.3588 187.97 70.6984 185.187 73.7583 180.273C73.9622 179.946 74.1561 179.609 74.3392 179.263C78.5536 171.291 75.4972 161.377 67.526 157.162ZM26.7688 168.986C23.6636 167.344 21.3838 164.592 20.3488 161.235C19.3141 157.878 19.6484 154.32 21.2901 151.215C22.9318 148.11 25.6846 145.83 29.0412 144.795C30.3208 144.401 31.6293 144.205 32.9313 144.205C35.0447 144.205 37.14 144.72 39.0612 145.736L51.1291 152.117L38.8367 175.366L26.7688 168.986ZM71.5075 177.765C68.1182 184.175 60.1462 186.633 53.7364 183.244L41.6685 176.863L53.9608 153.614L66.0285 159.994C72.4385 163.383 74.8965 171.355 71.5075 177.765Z" fill="white" fill-opacity="0.2"/>
<path d="M5.41294 175.683C4.5378 175.647 3.78277 176.333 3.74607 177.217C3.70916 178.1 4.39571 178.847 5.27939 178.883C8.53846 179.019 11.6158 180.354 13.9442 182.643C16.4493 185.105 17.8457 188.395 17.8762 191.908C17.9067 195.42 16.5677 198.734 14.1055 201.239L4.53716 210.975L-14.2198 192.54L-4.65143 182.804C-3.62673 181.762 -2.4512 180.905 -1.15768 180.258C-0.366596 179.862 -0.0461502 178.9 -0.44212 178.109C-0.837662 177.318 -1.79985 176.998 -2.59094 177.393C-4.20127 178.199 -5.66312 179.264 -6.93615 180.559L-28.3181 202.316C-32.8607 206.938 -34.0919 213.597 -32.0371 219.324C-31.233 221.565 -29.9259 223.663 -28.1173 225.441C-27.9249 225.63 -27.7284 225.814 -27.5283 225.993C-23.8282 229.294 -18.7075 230.836 -13.8279 229.889C-10.473 229.238 -7.3989 227.69 -4.99172 225.24L16.39 203.484C19.452 200.369 21.1171 196.248 21.0794 191.88C21.0414 187.512 19.305 183.42 16.1895 180.359C13.2935 177.512 9.4663 175.852 5.41294 175.683ZM-7.27644 222.995C-9.71946 225.481 -13.0726 226.897 -16.5408 226.927C-20.046 226.951 -23.367 225.618 -25.8721 223.156C-31.0434 218.074 -31.1157 209.732 -26.0332 204.56L-16.465 194.825L2.29191 213.259C2.29191 213.259 -7.27473 222.993 -7.27644 222.995Z" fill="white" fill-opacity="0.2"/>
<path d="M28.5917 212.627C24.2514 216.967 22.0243 222.97 22.4813 229.096C22.547 229.978 23.3118 230.64 24.1974 230.574C25.0796 230.509 25.7412 229.74 25.6755 228.858C25.2878 223.663 27.1764 218.572 30.8568 214.892C37.8202 207.929 49.151 207.929 56.1144 214.892C63.078 221.856 63.078 233.186 56.1144 240.15C52.7412 243.523 48.2562 245.381 43.4856 245.381C38.7152 245.381 34.2302 243.523 30.857 240.15C29.4645 238.757 28.3216 237.165 27.4599 235.416C27.0688 234.623 26.1088 234.297 25.3153 234.688C24.5219 235.079 24.1957 236.039 24.5868 236.832C25.6036 238.895 26.9511 240.774 28.5919 242.415C32.5702 246.393 37.8597 248.584 43.4856 248.584C49.1115 248.584 54.4012 246.393 58.3797 242.415C66.592 234.202 66.592 220.84 58.3797 212.627C50.1665 204.415 36.8042 204.415 28.5917 212.627Z" fill="white" fill-opacity="0.2"/>
<path d="M50.4688 236.105C50.8786 236.105 51.2885 235.949 51.6015 235.636C52.2268 235.011 52.2268 233.997 51.6015 233.371L37.6348 219.405C37.0092 218.779 35.9952 218.779 35.3697 219.405C34.7444 220.03 34.7444 221.044 35.3697 221.67L49.3364 235.636C49.6491 235.949 50.0592 236.105 50.4688 236.105Z" fill="white" fill-opacity="0.2"/>
</g>
<path d="M1412.17 181.748C1412.07 181.605 1411.94 181.489 1411.79 181.408C1411.64 181.327 1411.47 181.284 1411.3 181.284C1411.12 181.284 1410.95 181.327 1410.8 181.407C1410.65 181.488 1410.52 181.605 1410.42 181.748C1410.28 181.951 1407.04 186.736 1406.2 188.512C1405.73 189.522 1405.22 190.723 1405.22 192.199C1405.22 193.81 1405.86 195.354 1407 196.493C1408.14 197.632 1409.68 198.272 1411.3 198.272C1412.91 198.272 1414.45 197.632 1415.59 196.493C1416.73 195.354 1417.37 193.81 1417.37 192.199C1417.37 190.706 1416.92 189.645 1416.38 188.509C1415.54 186.723 1412.31 181.95 1412.17 181.748ZM1411.3 196.155C1410.25 196.154 1409.24 195.737 1408.5 194.996C1407.76 194.254 1407.34 193.248 1407.34 192.199C1407.34 191.159 1407.72 190.252 1408.12 189.412C1408.63 188.32 1410.26 185.798 1411.29 184.243C1412.32 185.795 1413.95 188.314 1414.47 189.414C1415 190.529 1415.25 191.23 1415.25 192.199C1415.25 193.248 1414.83 194.254 1414.09 194.996C1413.35 195.737 1412.34 196.154 1411.3 196.155Z" fill="white" fill-opacity="0.25"/>
<path d="M1339.22 260.074C1339.52 260.382 1339.88 260.627 1340.28 260.796C1340.67 260.964 1341.1 261.052 1341.53 261.055C1341.96 261.058 1342.39 260.975 1342.78 260.812C1343.18 260.648 1343.54 260.408 1343.85 260.103C1344.15 259.799 1344.39 259.437 1344.56 259.039C1344.72 258.641 1344.8 258.214 1344.8 257.784C1344.8 257.354 1344.71 256.928 1344.54 256.532C1344.37 256.136 1344.13 255.778 1343.82 255.477L1341.46 253.121L1348.48 246.108L1353.51 251.145C1353.83 251.466 1354.21 251.72 1354.63 251.894C1355.05 252.067 1355.5 252.157 1355.95 252.156C1356.41 252.156 1356.86 252.067 1357.28 251.894C1357.7 251.72 1358.08 251.466 1358.4 251.145C1358.72 250.824 1358.97 250.443 1359.15 250.024C1359.32 249.605 1359.41 249.156 1359.41 248.702C1359.41 248.249 1359.32 247.8 1359.15 247.381C1358.97 246.962 1358.72 246.581 1358.4 246.26L1358.01 245.877L1388.71 215.182C1389.36 214.53 1389.76 213.664 1389.82 212.743C1389.89 211.822 1389.62 210.908 1389.07 210.17L1393.06 206.176C1393.53 205.701 1393.85 205.09 1393.95 204.428C1394.06 203.766 1393.95 203.088 1393.65 202.49L1398.73 197.409C1399.41 196.723 1399.85 195.829 1399.96 194.868C1400.08 193.907 1399.88 192.934 1399.38 192.103L1410.68 180.804C1410.78 180.706 1410.85 180.589 1410.91 180.461C1410.96 180.333 1410.99 180.196 1410.99 180.057C1410.99 179.918 1410.96 179.781 1410.91 179.652C1410.85 179.524 1410.78 179.408 1410.68 179.31C1410.58 179.212 1410.46 179.134 1410.34 179.081C1410.21 179.028 1410.07 179 1409.93 179C1409.79 179 1409.65 179.028 1409.53 179.081C1409.4 179.134 1409.28 179.212 1409.18 179.31L1397.89 190.604C1397.06 190.106 1396.08 189.901 1395.12 190.02C1394.16 190.138 1393.27 190.575 1392.58 191.26L1387.5 196.342C1386.9 196.038 1386.22 195.932 1385.56 196.037C1384.9 196.141 1384.29 196.453 1383.81 196.926L1379.82 200.92C1379.08 200.366 1378.16 200.097 1377.24 200.163C1376.32 200.229 1375.46 200.625 1374.81 201.278L1344.11 231.973L1343.73 231.59C1343.08 230.942 1342.2 230.578 1341.28 230.578C1340.37 230.578 1339.49 230.942 1338.84 231.59C1338.19 232.238 1337.83 233.116 1337.83 234.033C1337.83 234.949 1338.19 235.827 1338.84 236.475L1343.88 241.512L1336.87 248.524L1334.51 246.169C1333.9 245.576 1333.08 245.248 1332.22 245.255C1331.37 245.262 1330.56 245.604 1329.95 246.207C1329.35 246.81 1329.01 247.626 1329 248.478C1328.99 249.331 1329.32 250.153 1329.91 250.766L1339.22 260.074ZM1394.07 192.754C1394.49 192.335 1395.06 192.1 1395.65 192.1C1396.25 192.1 1396.81 192.335 1397.23 192.754C1397.65 193.173 1397.89 193.742 1397.89 194.334C1397.89 194.927 1397.65 195.495 1397.23 195.914L1392.26 200.884L1389.1 197.724L1394.07 192.754ZM1385.31 198.42C1385.51 198.221 1385.78 198.109 1386.06 198.109C1386.34 198.109 1386.61 198.221 1386.81 198.42L1391.57 203.177C1391.77 203.377 1391.88 203.648 1391.88 203.93C1391.88 204.212 1391.77 204.483 1391.57 204.682L1387.6 208.646L1381.34 202.385L1385.31 198.42ZM1376.3 202.772C1376.46 202.612 1376.65 202.484 1376.86 202.398C1377.07 202.311 1377.29 202.266 1377.52 202.266C1377.75 202.266 1377.97 202.311 1378.18 202.398C1378.39 202.484 1378.58 202.612 1378.74 202.772L1387.21 211.245C1387.38 211.406 1387.5 211.596 1387.59 211.806C1387.68 212.015 1387.72 212.24 1387.72 212.467C1387.72 212.693 1387.68 212.918 1387.59 213.128C1387.5 213.337 1387.38 213.527 1387.21 213.688L1384.47 216.438L1380.56 212.531C1380.36 212.336 1380.09 212.227 1379.81 212.228C1379.53 212.229 1379.27 212.34 1379.07 212.537C1378.87 212.734 1378.76 213.001 1378.76 213.28C1378.76 213.559 1378.87 213.826 1379.06 214.025L1382.97 217.932L1380.69 220.212L1379.11 218.633C1379.01 218.535 1378.9 218.457 1378.77 218.404C1378.64 218.351 1378.5 218.323 1378.36 218.323C1378.22 218.323 1378.09 218.35 1377.96 218.404C1377.83 218.457 1377.71 218.534 1377.62 218.633C1377.52 218.731 1377.44 218.847 1377.39 218.975C1377.33 219.104 1377.31 219.241 1377.31 219.38C1377.31 219.519 1377.33 219.656 1377.39 219.784C1377.44 219.912 1377.52 220.029 1377.62 220.127L1379.2 221.707L1376.92 223.988L1373.01 220.081C1372.91 219.983 1372.79 219.905 1372.67 219.852C1372.54 219.799 1372.4 219.772 1372.26 219.772C1372.12 219.772 1371.99 219.799 1371.86 219.852C1371.73 219.905 1371.61 219.983 1371.51 220.081C1371.42 220.179 1371.34 220.296 1371.29 220.424C1371.23 220.552 1371.21 220.69 1371.21 220.828C1371.21 220.967 1371.23 221.105 1371.29 221.233C1371.34 221.361 1371.42 221.477 1371.51 221.576L1375.42 225.482L1373.14 227.763L1371.56 226.183C1371.36 225.985 1371.09 225.873 1370.81 225.873C1370.53 225.873 1370.26 225.985 1370.07 226.183C1369.87 226.381 1369.76 226.65 1369.76 226.93C1369.76 227.21 1369.87 227.479 1370.07 227.677L1371.65 229.257L1369.37 231.537L1365.46 227.631C1365.26 227.432 1364.99 227.321 1364.71 227.321C1364.43 227.321 1364.16 227.432 1363.96 227.631C1363.77 227.829 1363.66 228.098 1363.66 228.378C1363.66 228.658 1363.77 228.927 1363.96 229.125L1367.87 233.032L1365.59 235.312L1364.01 233.732C1363.81 233.534 1363.55 233.423 1363.26 233.423C1362.98 233.423 1362.72 233.534 1362.52 233.732C1362.32 233.931 1362.21 234.199 1362.21 234.48C1362.21 234.76 1362.32 235.029 1362.52 235.227L1364.1 236.806L1361.82 239.087L1357.91 235.18C1357.71 234.982 1357.44 234.871 1357.16 234.871C1356.88 234.871 1356.61 234.982 1356.42 235.18C1356.22 235.378 1356.11 235.647 1356.11 235.927C1356.11 236.208 1356.22 236.476 1356.42 236.675L1360.32 240.582L1356.52 244.384L1345.6 233.467L1376.3 202.772ZM1340.34 234.982C1340.08 234.73 1339.94 234.389 1339.94 234.034C1339.94 233.678 1340.08 233.337 1340.34 233.086C1340.59 232.834 1340.93 232.693 1341.28 232.693C1341.64 232.693 1341.98 232.834 1342.23 233.086L1356.9 247.755C1357.15 248.007 1357.3 248.348 1357.3 248.703C1357.3 249.059 1357.15 249.4 1356.9 249.651C1356.65 249.903 1356.31 250.044 1355.95 250.044C1355.6 250.044 1355.26 249.903 1355.01 249.651L1340.34 234.982ZM1345.37 243.007L1346.98 244.615L1339.97 251.627L1338.36 250.019L1345.37 243.007ZM1331.41 247.664C1331.62 247.452 1331.91 247.332 1332.21 247.332C1332.51 247.332 1332.8 247.452 1333.02 247.664L1342.32 256.972C1342.43 257.077 1342.52 257.202 1342.58 257.341C1342.64 257.48 1342.67 257.629 1342.67 257.78C1342.67 257.93 1342.64 258.08 1342.58 258.219C1342.53 258.359 1342.44 258.486 1342.34 258.592C1342.23 258.699 1342.1 258.783 1341.96 258.841C1341.82 258.898 1341.67 258.927 1341.52 258.925C1341.37 258.924 1341.22 258.893 1341.09 258.834C1340.95 258.775 1340.82 258.688 1340.72 258.58L1331.41 249.272C1331.19 249.059 1331.08 248.769 1331.08 248.468C1331.08 248.166 1331.19 247.877 1331.41 247.664L1331.41 247.664Z" fill="white" fill-opacity="0.25"/>
<path d="M1377.19 206.85C1377.38 206.85 1377.57 206.803 1377.73 206.714C1377.9 206.626 1378.04 206.497 1378.15 206.341C1378.25 206.184 1378.31 206.004 1378.33 205.817C1378.35 205.629 1378.32 205.44 1378.25 205.267C1378.18 205.093 1378.07 204.939 1377.92 204.82C1377.77 204.7 1377.6 204.619 1377.42 204.582C1377.23 204.546 1377.04 204.555 1376.86 204.61C1376.68 204.665 1376.52 204.763 1376.38 204.896C1376.22 205.056 1376.11 205.26 1376.07 205.482C1376.03 205.704 1376.05 205.934 1376.14 206.143C1376.22 206.353 1376.37 206.531 1376.56 206.657C1376.75 206.783 1376.97 206.85 1377.19 206.85Z" fill="white" fill-opacity="0.25"/>
<path d="M1362.9 221.179C1363.04 221.179 1363.18 221.152 1363.31 221.099C1363.43 221.046 1363.55 220.968 1363.65 220.87L1375.82 208.694C1376.02 208.496 1376.13 208.227 1376.13 207.946C1376.13 207.666 1376.02 207.397 1375.82 207.199C1375.63 207.001 1375.36 206.89 1375.08 206.89C1374.8 206.89 1374.53 207.001 1374.33 207.199L1362.15 219.375C1362.01 219.523 1361.9 219.711 1361.86 219.916C1361.82 220.121 1361.84 220.334 1361.92 220.527C1362 220.72 1362.14 220.885 1362.31 221.001C1362.49 221.117 1362.69 221.179 1362.9 221.179H1362.9Z" fill="white" fill-opacity="0.25"/>
<path d="M154.17 23.7483C154.073 23.6055 153.942 23.4885 153.79 23.4076C153.638 23.3268 153.468 23.2845 153.295 23.2844C153.123 23.2844 152.953 23.3266 152.8 23.4074C152.648 23.4881 152.518 23.605 152.421 23.7478C152.283 23.9506 149.041 28.736 148.205 30.5122C147.729 31.522 147.223 32.723 147.223 34.1993C147.223 35.8098 147.862 37.3543 149.001 38.4931C150.14 39.6319 151.685 40.2716 153.295 40.2716C154.906 40.2716 156.45 39.6319 157.589 38.4931C158.728 37.3543 159.367 35.8098 159.367 34.1993C159.367 32.7059 158.922 31.6447 158.384 30.5094C157.537 28.7228 154.307 23.9505 154.17 23.7483ZM153.295 38.155C152.246 38.1542 151.24 37.7372 150.498 36.9957C149.755 36.2541 149.338 35.2485 149.336 34.1993C149.336 33.1587 149.721 32.2516 150.116 31.4119C150.631 30.32 152.265 27.7982 153.295 26.2428C154.322 27.7954 155.952 30.3137 156.474 31.4144C157.003 32.5293 157.254 33.2304 157.254 34.1993C157.252 35.2484 156.834 36.254 156.092 36.9956C155.35 37.7371 154.344 38.1541 153.295 38.155Z" fill="white" fill-opacity="0.25"/>
<path d="M81.2215 102.074C81.5219 102.382 81.8805 102.627 82.2765 102.796C82.6724 102.964 83.098 103.052 83.5283 103.055C83.9586 103.058 84.3852 102.975 84.7834 102.812C85.1815 102.648 85.5432 102.408 85.8475 102.103C86.1518 101.799 86.3926 101.437 86.556 101.039C86.7195 100.641 86.8022 100.214 86.7994 99.7841C86.7967 99.3537 86.7085 98.9282 86.54 98.5322C86.3715 98.1362 86.126 97.7776 85.8179 97.4773L83.463 95.1208L90.4757 88.1082L95.5123 93.1449C95.8331 93.4656 96.2138 93.72 96.6329 93.8936C97.052 94.0672 97.5011 94.1565 97.9547 94.1565C98.4083 94.1565 98.8575 94.0671 99.2765 93.8935C99.6956 93.72 100.076 93.4655 100.397 93.1448C100.718 92.824 100.972 92.4433 101.146 92.0242C101.319 91.6051 101.409 91.156 101.409 90.7024C101.409 90.2488 101.319 89.7997 101.146 89.3806C100.972 88.9615 100.718 88.5808 100.397 88.26L100.014 87.877L130.709 57.1817C131.363 56.5296 131.759 55.6636 131.825 54.7428C131.89 53.822 131.622 52.9084 131.067 52.1701L135.062 48.176C135.535 47.7014 135.846 47.0896 135.951 46.4278C136.055 45.7659 135.949 45.0879 135.646 44.4903L140.727 39.4086C141.411 38.7227 141.846 37.8286 141.964 36.8677C142.082 35.9068 141.876 34.934 141.379 34.1032L152.678 22.804C152.776 22.7059 152.854 22.5894 152.907 22.4612C152.96 22.333 152.988 22.1956 152.988 22.0568C152.988 21.9181 152.96 21.7807 152.907 21.6525C152.854 21.5243 152.776 21.4078 152.678 21.3097C152.58 21.2116 152.463 21.1337 152.335 21.0807C152.207 21.0276 152.07 21.0002 151.931 21.0002C151.792 21.0003 151.655 21.0276 151.526 21.0807C151.398 21.1338 151.282 21.2117 151.184 21.3098L139.89 32.604C139.058 32.1064 138.084 31.9007 137.122 32.0196C136.16 32.1384 135.266 32.5749 134.58 33.26L129.498 38.3417C128.9 38.0385 128.222 37.9317 127.56 38.0366C126.898 38.1415 126.286 38.4527 125.811 38.9258L121.817 42.9201C121.079 42.366 120.165 42.0971 119.244 42.1629C118.323 42.2286 117.457 42.6246 116.805 43.278L86.1098 73.9733L85.727 73.5902C85.0792 72.9424 84.2006 72.5784 83.2844 72.5783C82.3682 72.5783 81.4896 72.9422 80.8417 73.59C80.1939 74.2378 79.8299 75.1164 79.8298 76.0325C79.8298 76.9487 80.1937 77.8274 80.8415 78.4752L85.8781 83.5119L78.8662 90.5244L76.5108 88.1692C75.8979 87.5762 75.0765 87.2478 74.2237 87.2548C73.371 87.2619 72.5551 87.6038 71.9521 88.2068C71.349 88.8098 71.0071 89.6257 71.0001 90.4785C70.9931 91.3312 71.3215 92.1526 71.9145 92.7655L81.2215 102.074ZM136.074 34.7544C136.493 34.3354 137.061 34.1001 137.654 34.1001C138.246 34.1001 138.814 34.3354 139.233 34.7544C139.652 35.1734 139.888 35.7417 139.888 36.3342C139.888 36.9267 139.652 37.495 139.233 37.9139L134.263 42.884L131.104 39.7245L136.074 34.7544ZM127.305 40.4203C127.505 40.2209 127.776 40.109 128.058 40.109C128.34 40.109 128.611 40.2209 128.811 40.4203L133.568 45.1771C133.767 45.3769 133.879 45.6476 133.879 45.9298C133.879 46.212 133.767 46.4827 133.568 46.6824L129.604 50.6459L123.342 44.3846L127.305 40.4203ZM118.299 44.772C118.46 44.6116 118.65 44.4844 118.859 44.3976C119.069 44.3108 119.294 44.2661 119.52 44.2661C119.747 44.2661 119.972 44.3108 120.181 44.3976C120.391 44.4844 120.581 44.6116 120.742 44.772L129.215 53.2454C129.375 53.4057 129.503 53.5961 129.589 53.8057C129.676 54.0152 129.721 54.2398 129.721 54.4666C129.721 54.6934 129.676 54.918 129.589 55.1275C129.503 55.3371 129.375 55.5275 129.215 55.6878L126.465 58.4379L122.559 54.5311C122.36 54.3356 122.092 54.2265 121.813 54.2276C121.534 54.2287 121.267 54.3399 121.07 54.537C120.873 54.7341 120.762 55.0011 120.761 55.2798C120.76 55.5586 120.869 55.8265 121.064 56.0252L124.971 59.932L122.69 62.2124L121.111 60.6327C121.012 60.5346 120.896 60.4567 120.768 60.4036C120.64 60.3505 120.502 60.3232 120.363 60.3232C120.225 60.3232 120.087 60.3505 119.959 60.4036C119.831 60.4567 119.714 60.5345 119.616 60.6326C119.518 60.7307 119.44 60.8472 119.387 60.9754C119.334 61.1036 119.307 61.241 119.307 61.3798C119.307 61.5185 119.334 61.6559 119.387 61.7841C119.44 61.9123 119.518 62.0288 119.616 62.127L121.196 63.7066L118.916 65.9879L115.009 62.0812C114.911 61.983 114.794 61.9052 114.666 61.8521C114.538 61.799 114.4 61.7717 114.262 61.7717C114.123 61.7717 113.985 61.7991 113.857 61.8522C113.729 61.9053 113.613 61.9831 113.515 62.0812C113.416 62.1794 113.339 62.2959 113.285 62.4241C113.232 62.5523 113.205 62.6897 113.205 62.8284C113.205 62.9672 113.232 63.1046 113.286 63.2328C113.339 63.361 113.416 63.4775 113.515 63.5756L117.421 67.4822L115.141 69.7626L113.561 68.1829C113.363 67.9847 113.094 67.8734 112.814 67.8734C112.534 67.8733 112.265 67.9846 112.067 68.1828C111.869 68.381 111.757 68.6497 111.757 68.93C111.757 69.2102 111.868 69.479 112.067 69.6771L113.646 71.257L111.366 73.5374L107.459 69.6307C107.261 69.4325 106.992 69.3211 106.712 69.3211C106.432 69.3211 106.163 69.4325 105.965 69.6307C105.767 69.8288 105.655 70.0976 105.655 70.3779C105.655 70.6581 105.767 70.9269 105.965 71.1251L109.872 75.0317L107.592 77.3122L106.012 75.7324C105.814 75.5342 105.545 75.4229 105.265 75.4229C104.985 75.423 104.716 75.5343 104.518 75.7325C104.32 75.9306 104.208 76.1994 104.208 76.4797C104.208 76.7599 104.32 77.0287 104.518 77.2268L106.098 78.8065L103.817 81.0869L99.9099 77.1802C99.7117 76.982 99.4429 76.8707 99.1627 76.8707C98.8824 76.8707 98.6137 76.9821 98.4155 77.1802C98.2174 77.3784 98.1061 77.6472 98.1061 77.9274C98.1061 78.2077 98.2174 78.4764 98.4156 78.6746L102.322 82.582L98.5199 86.3843L87.6039 75.4673L118.299 44.772ZM82.3364 76.9819C82.085 76.7304 81.9437 76.3894 81.9437 76.0338C81.9437 75.6783 82.0849 75.3372 82.3363 75.0858C82.5877 74.8344 82.9288 74.6931 83.2843 74.6931C83.6399 74.6931 83.9809 74.8343 84.2324 75.0857L98.9029 89.7554C99.1543 90.0068 99.2956 90.3478 99.2956 90.7034C99.2956 91.059 99.1543 91.4 98.9029 91.6515C98.6515 91.9029 98.3104 92.0442 97.9548 92.0442C97.5992 92.0442 97.2582 91.9029 97.0068 91.6515L82.3364 76.9819ZM87.3731 85.0072L88.9813 86.6154L81.9685 93.6272L80.3603 92.019L87.3731 85.0072ZM73.4078 89.6645C73.6213 89.4516 73.9104 89.332 74.2119 89.332C74.5134 89.332 74.8026 89.4516 75.016 89.6645L84.3238 98.972C84.432 99.077 84.5183 99.2025 84.5777 99.3411C84.637 99.4798 84.6681 99.6288 84.6693 99.7796C84.6704 99.9304 84.6416 100.08 84.5844 100.219C84.5273 100.359 84.4429 100.486 84.3363 100.592C84.2297 100.699 84.1029 100.783 83.9634 100.841C83.8238 100.898 83.6743 100.927 83.5235 100.925C83.3727 100.924 83.2237 100.893 83.085 100.834C82.9464 100.775 82.8209 100.688 82.7159 100.58L73.4082 91.2718C73.195 91.0585 73.0752 90.7693 73.0752 90.4677C73.0752 90.1661 73.195 89.8769 73.4082 89.6636L73.4078 89.6645Z" fill="white" fill-opacity="0.25"/>
<path d="M119.194 48.8497C119.382 48.8497 119.568 48.8032 119.734 48.7144C119.9 48.6256 120.041 48.4973 120.146 48.3407C120.25 48.1841 120.315 48.0042 120.333 47.8168C120.351 47.6295 120.323 47.4404 120.251 47.2665C120.179 47.0926 120.065 46.9392 119.92 46.8198C119.774 46.7004 119.601 46.6188 119.416 46.5822C119.232 46.5455 119.041 46.555 118.861 46.6098C118.681 46.6646 118.517 46.7629 118.384 46.8961C118.224 47.0563 118.115 47.2603 118.071 47.4823C118.027 47.7043 118.05 47.9344 118.136 48.1435C118.223 48.3525 118.37 48.5312 118.558 48.6569C118.746 48.7826 118.968 48.8497 119.194 48.8497Z" fill="white" fill-opacity="0.25"/>
<path d="M104.901 63.1793C105.039 63.1794 105.177 63.1522 105.305 63.0991C105.433 63.046 105.55 62.9681 105.648 62.8698L117.824 50.6937C118.022 50.4955 118.133 50.2267 118.133 49.9465C118.133 49.6662 118.022 49.3975 117.824 49.1993C117.625 49.0012 117.357 48.8899 117.076 48.8899C116.796 48.8899 116.527 49.0013 116.329 49.1994L104.153 61.3754C104.005 61.5232 103.905 61.7115 103.864 61.9164C103.823 62.1214 103.844 62.3339 103.924 62.527C104.004 62.7201 104.139 62.8851 104.313 63.0012C104.487 63.1173 104.691 63.1793 104.9 63.1793H104.901Z" fill="white" fill-opacity="0.25"/>
<path d="M969.006 110.268C969.006 112.941 968.568 115.578 967.718 118.113C963.725 136.18 929.197 158.036 927.728 158.966C927.269 159.251 926.754 159.4 926.229 159.4C925.705 159.4 925.183 159.268 924.724 158.966C924.329 158.709 914.601 152.57 904.738 144.132C903.557 143.114 903.433 141.358 904.424 140.182C905.439 139.016 907.193 138.874 908.376 139.865C915.728 146.146 923.158 151.224 926.243 153.27C936.613 146.509 959.506 129.308 962.312 116.622C963.045 114.381 963.376 112.343 963.376 110.274C963.376 103.072 959.455 96.4329 953.141 92.9549C945.078 88.4809 934.285 90.5439 928.386 97.6549C927.326 98.9389 925.146 98.9389 924.066 97.6549C918.149 90.5389 907.364 88.4919 899.312 92.9469C892.978 96.4329 889.057 103.068 889.057 110.263C889.057 112.318 889.405 114.365 890.053 116.342C890.469 118.192 891.265 120.001 892.278 121.878H908.634L914.251 108.969C914.732 107.864 915.881 107.169 917.063 107.293C918.267 107.398 919.271 108.264 919.539 109.44L923.674 126.922L929.023 118.151C929.527 117.318 930.434 116.809 931.414 116.809H941.565C943.11 116.809 944.366 118.06 944.366 119.612C944.366 121.156 943.11 122.414 941.565 122.414H932.987L924.929 135.65C924.415 136.494 923.509 136.998 922.546 136.998C922.393 136.998 922.245 136.986 922.108 136.965C920.979 136.784 920.09 135.952 919.819 134.847L916.04 118.923L913.054 125.796C912.608 126.829 911.597 127.481 910.482 127.481H877.802C876.268 127.48 875 126.226 875 124.679C875 123.135 876.268 121.877 877.802 121.877H886.019C885.436 120.486 884.965 119.136 884.673 117.83C883.891 115.562 883.468 112.921 883.468 110.262C883.468 101.02 888.494 92.5109 896.615 88.0369C906.021 82.8339 918.468 84.4699 926.241 91.7739C933.993 84.4689 946.431 82.8339 955.853 88.0369C963.964 92.5049 969.006 101.02 969.006 110.268Z" fill="white" fill-opacity="0.25"/>
<path d="M504.327 104.703C503.508 104.703 502.843 105.368 502.843 106.187C502.843 107.006 503.508 107.671 504.327 107.671C505.147 107.671 505.812 107.006 505.812 106.187C505.812 105.368 505.147 104.703 504.327 104.703Z" fill="white" fill-opacity="0.25"/>
<path d="M517.686 132.459H513.233V128.006C513.233 127.187 512.569 126.522 511.749 126.522C510.929 126.522 510.265 127.187 510.265 128.006V132.459H505.812C504.992 132.459 504.327 133.124 504.327 133.943C504.327 134.763 504.992 135.428 505.812 135.428H510.265V139.881C510.265 140.7 510.929 141.365 511.749 141.365C512.568 141.365 513.233 140.7 513.233 139.881V135.428H517.686C518.506 135.428 519.171 134.763 519.171 133.943C519.171 133.124 518.506 132.459 517.686 132.459Z" fill="white" fill-opacity="0.25"/>
<path d="M557.748 133.795C554.467 128.112 547.211 126.167 541.527 129.449L535.498 132.93V120.04C535.498 118.447 534.971 116.865 534.014 115.587L526.592 105.692V101.479C528.32 100.866 529.561 99.216 529.561 97.2808V90.4531C529.561 87.9978 527.563 86.0002 525.108 86.0002H498.39C495.935 86.0002 493.937 87.9978 493.937 90.4531V97.281C493.937 99.2159 495.178 100.866 496.906 101.479V105.692L489.484 115.588C488.527 116.865 488 118.447 488 120.04V148.787C488 152.879 491.329 156.208 495.421 156.208H519.276C522.604 161.787 529.78 163.654 535.406 160.406L553.402 150.015C559.036 146.762 561.046 139.509 557.748 133.795ZM496.906 90.4531C496.906 89.6346 497.572 88.9687 498.39 88.9687H525.108C525.926 88.9687 526.592 89.6346 526.592 90.4531V97.281C526.592 98.0995 525.926 98.7652 525.108 98.7652H498.39C497.572 98.7652 496.906 98.0993 496.906 97.281V90.4531H496.906ZM491.859 117.368L499.578 107.077C499.77 106.821 499.874 106.508 499.874 106.187V101.734H523.623V104.703H510.265C509.445 104.703 508.78 105.367 508.78 106.187C508.78 107.007 509.445 107.671 510.265 107.671H524.366L531.638 117.368C532.113 118.002 532.409 118.761 532.498 119.546H491C491.089 118.761 491.385 118.002 491.859 117.368ZM495.422 153.239C492.966 153.239 490.969 151.242 490.969 148.787V147.287H517.936C517.466 149.212 517.469 151.268 518.008 153.24H495.422V153.239ZM519.101 144.334H490.969V122.514H532.529V134.644L523.531 139.839C521.655 140.923 520.139 142.466 519.101 144.334ZM533.922 157.835C529.662 160.295 524.219 158.84 521.757 154.577C519.284 150.273 520.783 144.855 525.016 142.41L533.073 137.758L541.978 153.183L533.922 157.835ZM551.917 147.445L544.549 151.699L535.643 136.274L543.012 132.02C547.274 129.559 552.715 131.016 555.177 135.279C557.649 139.563 556.146 145.003 551.917 147.445Z" fill="white" fill-opacity="0.25"/>
</svg>
