<svg width="1440" height="280" viewBox="0 0 1440 280" fill="none" xmlns="http://www.w3.org/2000/svg">
<mask id="mask0" mask-type="alpha" maskUnits="userSpaceOnUse" x="0" y="0" width="1440" height="280">
<rect width="1440" height="280" fill="#4DD0E1"/>
</mask>
<g mask="url(#mask0)">
<path d="M1433.7 30.6036L1428.49 27.7304L1431.36 22.5202C1431.96 21.4373 1431.56 20.0755 1430.48 19.4785C1429.4 18.8815 1428.04 19.2751 1427.44 20.3579L1424.57 25.568L1419.36 22.6948C1418.27 22.0977 1416.91 22.4914 1416.31 23.5741C1415.72 24.6569 1416.11 26.0188 1417.19 26.6159L1422.4 29.4891L1419.53 34.6993C1418.93 35.7822 1419.33 37.144 1420.41 37.741C1421.49 38.338 1422.85 37.9444 1423.45 36.8617L1426.32 31.6515L1431.53 34.5248C1432.62 35.1218 1433.98 34.7281 1434.58 33.6454C1435.17 32.5626 1434.78 31.2007 1433.7 30.6036Z" fill="white" fill-opacity="0.3"/>
<path d="M1434.96 11.356C1425.45 6.1095 1413.44 9.58117 1408.19 19.0948C1402.94 28.6084 1406.42 40.6169 1415.93 45.8634C1425.44 51.1099 1437.45 47.6382 1442.7 38.1246C1447.94 28.611 1444.47 16.6025 1434.96 11.356ZM1418.09 41.9419C1410.74 37.8878 1408.06 28.6086 1412.11 21.2571C1416.17 13.9056 1425.45 11.223 1432.8 15.2771C1440.15 19.3312 1442.83 28.6104 1438.78 35.9619C1434.72 43.3134 1425.44 45.996 1418.09 41.9419Z" fill="white" fill-opacity="0.3"/>
<path d="M1472.06 36.3895L1464.23 9.31678C1464.06 8.74629 1463.68 8.26465 1463.16 7.97789L1409.24 -21.7561C1406 -23.5446 1401.9 -22.361 1400.12 -19.1177L1351.24 69.5037C1349.46 72.747 1350.64 76.8407 1353.88 78.6292L1391.33 99.2831C1392.42 99.8802 1393.78 99.4862 1394.38 98.4037C1394.97 97.3212 1394.58 95.9589 1393.5 95.3619L1356.04 74.7081C1354.96 74.1119 1354.57 72.7473 1355.16 71.6664L1404.04 -16.9552C1404.63 -18.0363 1406 -18.4307 1407.08 -17.8345L1459.04 10.8181L1452.66 22.3858C1450.87 25.6291 1452.05 29.7228 1455.29 31.5114L1466.86 37.8906L1447.62 72.79C1447.02 73.8728 1447.41 75.2348 1448.5 75.8318C1449.58 76.4288 1450.94 76.035 1451.54 74.9524L1471.86 38.0923C1472.15 37.5725 1472.22 36.9599 1472.06 36.3895ZM1457.46 27.5902C1456.38 26.994 1455.98 25.6294 1456.58 24.5484L1461.43 15.7534L1466.25 32.4405L1457.46 27.5902Z" fill="white" fill-opacity="0.3"/>
<path d="M1437.79 65.5789L1403.74 46.8014C1402.65 46.2043 1401.29 46.5982 1400.69 47.6808C1400.1 48.7633 1400.49 50.1256 1401.57 50.7225L1435.62 69.5C1436.71 70.0971 1438.07 69.7034 1438.67 68.6206C1439.26 67.5382 1438.87 66.176 1437.79 65.5789Z" fill="white" fill-opacity="0.3"/>
<path d="M1393.98 41.4224L1387.59 37.8993C1386.51 37.3022 1385.15 37.6961 1384.55 38.7787C1383.95 39.8612 1384.35 41.2235 1385.43 41.8204L1391.82 45.3435C1392.9 45.9406 1394.26 45.5467 1394.86 44.4642C1395.46 43.3816 1395.06 42.0195 1393.98 41.4224Z" fill="white" fill-opacity="0.3"/>
<path d="M1417.22 68.5575L1397.68 57.7811C1396.6 57.184 1395.24 57.578 1394.64 58.6605C1394.04 59.7431 1394.44 61.1053 1395.52 61.7023L1415.06 72.4786C1416.14 73.0757 1417.5 72.682 1418.1 71.5993C1418.7 70.5167 1418.31 69.1546 1417.22 68.5575Z" fill="white" fill-opacity="0.3"/>
<path d="M1387.93 52.4019L1381.54 48.8788C1380.46 48.2817 1379.09 48.6756 1378.5 49.7582C1377.9 50.8407 1378.29 52.2029 1379.38 52.7999L1385.76 56.323C1386.85 56.9201 1388.21 56.5262 1388.81 55.4437C1389.4 54.3611 1389.01 52.999 1387.93 52.4019Z" fill="white" fill-opacity="0.3"/>
<path d="M1392.69 70.0994C1392.53 69.5337 1392.14 69.0459 1391.63 68.7605C1391.11 68.4761 1390.49 68.4078 1389.92 68.5705C1389.36 68.7341 1388.87 69.1243 1388.58 69.64C1388.3 70.1556 1388.23 70.7771 1388.39 71.3428C1388.56 71.9087 1388.95 72.3976 1389.46 72.682C1389.98 72.9675 1390.6 73.0356 1391.17 72.8717C1391.73 72.7094 1392.22 72.3182 1392.51 71.8026C1392.79 71.2869 1392.86 70.6663 1392.69 70.0994Z" fill="white" fill-opacity="0.3"/>
<path d="M1381.87 63.3819L1375.48 59.8588C1374.4 59.2617 1373.04 59.6556 1372.44 60.7382C1371.84 61.8209 1372.24 63.1829 1373.32 63.7799L1379.71 67.303C1380.79 67.9001 1382.15 67.5062 1382.75 66.4236C1383.35 65.3412 1382.95 63.979 1381.87 63.3819Z" fill="white" fill-opacity="0.3"/>
<path d="M1449.64 99.7316C1449.07 99.4142 1448.48 99.1453 1447.88 98.9176C1451.4 95.455 1452.97 90.2181 1451.5 85.1509C1450.47 81.5888 1448.12 78.6409 1444.87 76.8503C1441.62 75.0596 1437.87 74.6407 1434.31 75.6705L1410.22 82.6348C1406.66 83.6647 1403.71 86.0199 1401.92 89.2669C1400.13 92.5142 1399.71 96.264 1400.74 99.826C1401.8 103.503 1404.26 106.404 1407.37 108.121C1410.49 109.837 1414.25 110.369 1417.93 109.306L1430.53 105.663C1427.21 112.285 1429.69 120.435 1436.24 124.044C1442.94 127.74 1451.4 125.295 1455.1 118.592C1458.79 111.888 1456.35 103.428 1449.64 99.7316ZM1416.69 105.004C1411.71 106.445 1406.48 103.564 1405.04 98.5823C1404.34 96.1692 1404.63 93.6291 1405.84 91.4295C1407.05 89.2299 1409.05 87.6342 1411.46 86.937L1421.36 84.0765L1426.58 102.144L1416.69 105.004ZM1430.88 100.9L1425.66 82.8326L1435.55 79.9723C1437.97 79.2746 1440.51 79.5584 1442.71 80.7714C1444.91 81.9844 1446.5 83.9813 1447.2 86.3944C1448.64 91.3756 1445.76 96.5998 1440.78 98.0397L1430.88 100.9ZM1436.57 118.804C1433.46 115.938 1432.57 111.211 1434.7 107.347C1436.84 103.482 1441.3 101.708 1445.39 102.81L1436.57 118.804ZM1440.49 120.966L1449.31 104.972C1452.42 107.838 1453.31 112.564 1451.17 116.429C1449.04 120.294 1444.57 122.068 1440.49 120.966Z" fill="white" fill-opacity="0.3"/>
<path d="M67.526 157.162L40.5587 142.904C36.6973 140.863 32.2715 140.447 28.0978 141.734C23.9237 143.021 20.5005 145.856 18.4588 149.718C16.4171 153.579 16.0013 158.005 17.2882 162.179C18.5751 166.353 21.4102 169.776 25.2718 171.818L52.2393 186.076C52.5431 186.236 52.8497 186.386 53.1589 186.526C55.322 187.504 57.602 187.97 59.8554 187.97C65.3588 187.97 70.6984 185.187 73.7583 180.273C73.9622 179.946 74.1561 179.609 74.3392 179.263C78.5536 171.291 75.4972 161.377 67.526 157.162ZM26.7688 168.986C23.6636 167.344 21.3838 164.592 20.3488 161.235C19.3141 157.878 19.6484 154.32 21.2901 151.215C22.9318 148.11 25.6846 145.83 29.0412 144.795C30.3208 144.401 31.6293 144.205 32.9313 144.205C35.0447 144.205 37.14 144.72 39.0612 145.736L51.1291 152.117L38.8367 175.366L26.7688 168.986ZM71.5075 177.765C68.1182 184.175 60.1462 186.633 53.7364 183.244L41.6685 176.863L53.9608 153.614L66.0285 159.994C72.4385 163.383 74.8965 171.355 71.5075 177.765Z" fill="white" fill-opacity="0.2"/>
<path d="M5.41294 175.683C4.5378 175.647 3.78277 176.333 3.74607 177.217C3.70916 178.1 4.39571 178.847 5.27939 178.883C8.53846 179.019 11.6158 180.354 13.9442 182.643C16.4493 185.105 17.8457 188.395 17.8762 191.908C17.9067 195.42 16.5677 198.734 14.1055 201.239L4.53716 210.975L-14.2198 192.54L-4.65143 182.804C-3.62673 181.762 -2.4512 180.905 -1.15768 180.258C-0.366596 179.862 -0.0461502 178.9 -0.44212 178.109C-0.837662 177.318 -1.79985 176.998 -2.59094 177.393C-4.20127 178.199 -5.66312 179.264 -6.93615 180.559L-28.3181 202.316C-32.8607 206.938 -34.0919 213.597 -32.0371 219.324C-31.233 221.565 -29.9259 223.663 -28.1173 225.441C-27.9249 225.63 -27.7284 225.814 -27.5283 225.993C-23.8282 229.294 -18.7075 230.836 -13.8279 229.889C-10.473 229.238 -7.3989 227.69 -4.99172 225.24L16.39 203.484C19.452 200.369 21.1171 196.248 21.0794 191.88C21.0414 187.512 19.305 183.42 16.1895 180.359C13.2935 177.512 9.4663 175.852 5.41294 175.683ZM-7.27644 222.995C-9.71946 225.481 -13.0726 226.897 -16.5408 226.927C-20.046 226.951 -23.367 225.618 -25.8721 223.156C-31.0434 218.074 -31.1157 209.732 -26.0332 204.56L-16.465 194.825L2.29191 213.259C2.29191 213.259 -7.27473 222.993 -7.27644 222.995Z" fill="white" fill-opacity="0.2"/>
<path d="M28.5917 212.627C24.2514 216.967 22.0243 222.97 22.4813 229.096C22.547 229.978 23.3118 230.64 24.1974 230.574C25.0796 230.509 25.7412 229.74 25.6755 228.858C25.2878 223.663 27.1764 218.572 30.8568 214.892C37.8202 207.929 49.151 207.929 56.1144 214.892C63.078 221.856 63.078 233.186 56.1144 240.15C52.7412 243.523 48.2562 245.381 43.4856 245.381C38.7152 245.381 34.2302 243.523 30.857 240.15C29.4645 238.757 28.3216 237.165 27.4599 235.416C27.0688 234.623 26.1088 234.297 25.3153 234.688C24.5219 235.079 24.1957 236.039 24.5868 236.832C25.6036 238.895 26.9511 240.774 28.5919 242.415C32.5702 246.393 37.8597 248.584 43.4856 248.584C49.1115 248.584 54.4012 246.393 58.3797 242.415C66.592 234.202 66.592 220.84 58.3797 212.627C50.1665 204.415 36.8042 204.415 28.5917 212.627Z" fill="white" fill-opacity="0.2"/>
<path d="M50.4688 236.105C50.8786 236.105 51.2885 235.949 51.6015 235.636C52.2268 235.011 52.2268 233.997 51.6015 233.371L37.6348 219.405C37.0092 218.779 35.9952 218.779 35.3697 219.405C34.7444 220.03 34.7444 221.044 35.3697 221.67L49.3364 235.636C49.6491 235.949 50.0592 236.105 50.4688 236.105Z" fill="white" fill-opacity="0.2"/>
</g>
</svg>
