<svg width="442" height="592" viewBox="0 0 442 592" fill="none" xmlns="http://www.w3.org/2000/svg">
<path d="M206.632 471.024C207.133 472.983 207.749 474.939 208.419 476.835C209.101 478.765 209.839 480.636 210.666 482.493L354.97 428.189C353.91 424.272 352.568 420.423 350.902 416.733L293.019 438.515C289.523 439.831 285.716 438.059 284.496 434.549C283.24 431.051 285.058 427.143 288.543 425.851L344.318 404.842C336.908 393.896 326.542 384.771 313.734 378.811C294.566 369.891 273.542 369.726 255.021 376.696C235.862 383.907 220.179 398.421 211.39 417.305C205.308 430.375 203.092 444.254 204.24 457.576L260.039 436.578C263.513 435.253 267.341 437.034 268.563 440.545C269.819 444.043 268.012 447.927 264.516 449.243L206.632 471.024ZM224.164 51.7421L260.857 68.8184C264.185 70.3671 265.596 74.3625 264.017 77.7574L252.891 101.665C251.31 105.06 247.344 106.552 244.017 105.004L207.324 87.9275C203.996 86.3788 202.584 82.383 204.164 78.9882L215.29 55.0809C216.869 51.6861 220.837 50.1938 224.164 51.7421ZM249.093 78.3099L224.478 66.8548L219.089 78.4364L243.703 89.8915L249.093 78.3099ZM75.9254 370.276L112.619 387.352C115.947 388.901 117.347 392.919 115.767 396.315L104.652 420.198C103.072 423.593 99.0949 425.109 95.7679 423.561L59.0744 406.485C55.7466 404.936 54.3454 400.917 55.9253 397.522L67.0401 373.638C68.6204 370.243 72.5984 368.727 75.9254 370.276ZM100.844 396.867L76.2294 385.411L70.8396 396.993L95.4544 408.448L100.844 396.867ZM139.923 400.059L176.616 417.135C179.944 418.684 181.345 422.702 179.765 426.098L168.65 449.981C167.07 453.376 163.093 454.893 159.766 453.344L123.072 436.268C119.744 434.719 118.344 430.7 119.924 427.305L131.039 403.422C132.619 400.026 136.595 398.51 139.923 400.059ZM164.841 426.649L140.226 415.194L134.836 426.776L159.451 438.231L164.841 426.649ZM105.569 306.578L142.262 323.654C145.59 325.203 147.002 329.199 145.422 332.593L134.296 356.501C132.715 359.896 128.749 361.388 125.422 359.84L88.7289 342.764C85.4011 341.215 83.9888 337.219 85.5687 333.824L96.6946 309.917C98.2748 306.521 102.242 305.03 105.569 306.578ZM130.498 333.146L105.883 321.691L100.494 333.272L125.108 344.728L130.498 333.146ZM169.566 336.361L206.26 353.438C209.588 354.986 210.999 358.982 209.419 362.377L198.293 386.284C196.713 389.679 192.747 391.171 189.42 389.623L152.727 372.547C149.399 370.998 147.987 367.002 149.567 363.608L160.693 339.7C162.273 336.305 166.239 334.813 169.566 336.361ZM194.495 362.929L169.88 351.474L164.49 363.055L189.105 374.51L194.495 362.929ZM135.223 242.857L171.917 259.933C175.244 261.482 176.645 265.5 175.065 268.896L163.95 292.779C162.37 296.175 158.393 297.691 155.066 296.142L118.372 279.066C115.044 277.517 113.643 273.498 115.223 270.103L126.338 246.219C127.918 242.824 131.896 241.309 135.223 242.857ZM160.142 269.448L135.527 257.993L130.137 269.575L154.752 281.03L160.142 269.448ZM199.221 272.64L235.914 289.716C239.242 291.265 240.643 295.283 239.063 298.679L227.948 322.562C226.368 325.958 222.39 327.474 219.063 325.925L182.37 308.849C179.042 307.3 177.642 303.281 179.222 299.886L190.336 276.003C191.917 272.607 195.893 271.091 199.221 272.64ZM224.138 299.231L199.524 287.776L194.134 299.358L218.749 310.813L224.138 299.231ZM164.866 179.16L201.56 196.236C204.887 197.785 206.299 201.781 204.719 205.175L193.594 229.082C192.014 232.477 188.047 233.97 184.72 232.422L148.026 215.346C144.699 213.797 143.287 209.8 144.867 206.405L155.992 182.499C157.572 179.104 161.539 177.612 164.866 179.16ZM189.796 205.728L165.181 194.273L159.792 205.854L184.406 217.309L189.796 205.728ZM228.864 208.943L265.557 226.02C268.885 227.568 270.297 231.564 268.717 234.958L257.591 258.865C256.011 262.26 252.044 263.753 248.717 262.205L212.024 245.129C208.696 243.58 207.285 239.584 208.865 236.189L219.99 212.282C221.57 208.888 225.536 207.395 228.864 208.943ZM253.793 235.511L229.178 224.055L223.788 235.636L248.403 247.091L253.793 235.511ZM194.52 115.44L231.214 132.516C234.542 134.065 235.942 138.083 234.362 141.479L223.247 165.362C221.667 168.758 217.69 170.273 214.363 168.725L177.669 151.649C174.342 150.1 172.94 146.081 174.52 142.686L185.635 118.802C187.215 115.407 191.193 113.891 194.52 115.44ZM219.45 142.007L194.835 130.552L189.435 142.157L214.049 153.612L219.45 142.007ZM258.518 145.223L295.211 162.299C298.539 163.848 299.94 167.866 298.36 171.262L287.245 195.145C285.665 198.541 281.687 200.057 278.36 198.508L241.667 181.432C238.339 179.883 236.938 175.865 238.519 172.469L249.633 148.586C251.214 145.19 255.19 143.674 258.518 145.223ZM283.447 171.79L258.832 160.335L253.431 171.94L278.046 183.395L283.447 171.79ZM288.161 81.5252L324.855 98.6015C328.183 100.15 329.594 104.146 328.014 107.54L316.888 131.448C315.308 134.843 311.342 136.335 308.015 134.787L271.321 117.711C267.994 116.162 266.582 112.166 268.162 108.772L279.288 84.8643C280.868 81.4695 284.834 79.9765 288.161 81.5252ZM313.09 108.093L288.475 96.6375L283.085 108.219L307.7 119.674L313.09 108.093ZM434.974 142.719L476.339 161.97C479.667 163.518 481.091 167.548 479.511 170.943L465.885 200.222L494.579 213.576C497.907 215.125 499.331 219.155 497.751 222.55L478.108 264.759C476.528 268.154 472.539 269.636 469.211 268.088L440.517 254.734L426.891 284.012C425.3 287.431 421.311 288.913 417.983 287.365L376.618 268.114C373.29 266.565 371.878 262.57 373.469 259.151L387.095 229.873L358.377 216.508C355.049 214.96 353.638 210.964 355.218 207.569L374.861 165.36C376.441 161.965 380.419 160.448 383.746 161.997L412.463 175.361L426.09 146.081C427.669 142.686 431.646 141.17 434.974 142.719ZM464.598 171.472L435.288 157.832L421.652 187.134C420.072 190.53 416.083 192.012 412.755 190.463L384.06 177.109L370.142 207.016L398.837 220.37C402.165 221.919 403.599 225.925 402.008 229.344L388.383 258.622L417.692 272.262L431.318 242.983C432.909 239.565 436.875 238.072 440.202 239.621L468.897 252.974L482.815 223.067L454.12 209.714C450.792 208.165 449.381 204.169 450.961 200.774L464.598 171.472ZM315.469 533.386C315.796 538.462 317.328 543.39 319.866 547.769C322.988 553.097 327.695 557.58 333.689 560.369C341.619 564.06 350.392 564.097 358.112 561.21C365.844 558.301 372.534 552.447 376.311 544.33L404.082 484.655L368.801 468.236C367.351 474.748 365.178 481.205 362.245 487.508C352.299 508.88 335.32 524.688 315.469 533.386ZM388.368 549.941C383.011 561.452 373.547 569.751 362.589 573.875C351.664 577.986 339.222 577.911 327.963 572.672C319.485 568.726 312.821 562.371 308.356 554.748C305.374 549.597 303.385 543.862 302.555 537.901C283.004 543.147 261.732 541.849 242.109 532.717C220.914 522.853 205.428 505.603 197.243 485.298C193.8 490.373 188.941 494.081 183.496 496.132C176.672 498.699 168.928 498.66 161.884 495.382L25.5483 431.935C18.5051 428.657 13.4883 422.757 11.0581 415.883C8.62863 409.01 8.7882 401.161 12.1213 393.999L21.3856 374.092C22.9765 370.673 26.9655 369.191 30.2933 370.74C33.6211 372.289 35.0326 376.284 33.4417 379.703L24.1774 399.61C22.4242 403.377 22.3494 407.529 23.6296 411.153C24.9228 414.81 27.5588 417.904 31.2741 419.633L167.61 483.081C171.325 484.809 175.39 484.834 179.02 483.468C182.617 482.114 185.746 479.383 187.499 475.616L191.882 466.198C188.883 448.392 191.076 429.439 199.334 411.695C207.581 393.974 220.68 380.068 236.234 370.896L336.496 155.454C338.075 152.059 342.042 150.566 345.369 152.115C348.696 153.663 350.132 157.67 348.552 161.065L254.784 362.552C275.446 355.928 298.435 356.696 319.471 366.486C336.062 374.207 349.132 386.457 357.961 401.148L367.723 380.171C373.08 368.66 382.545 360.361 393.503 356.238C404.427 352.127 416.846 352.191 428.128 357.442C439.387 362.682 447.457 372.152 451.347 383.157C455.249 394.196 454.994 406.781 449.637 418.292C429.213 462.174 408.79 506.057 388.368 549.941ZM370.788 454.196L409.807 472.354L437.578 412.68C441.355 404.564 441.525 395.675 438.773 387.886C436.009 380.121 430.333 373.433 422.402 369.742C414.447 366.04 405.698 366.015 397.978 368.901C390.246 371.811 383.557 377.666 379.78 385.782L365.397 416.689C369.767 428.625 371.605 441.419 370.788 454.196ZM217.26 494.36C224.683 505.34 235.027 514.454 247.835 520.415C267.002 529.334 288.037 529.475 306.558 522.505C325.079 515.536 341.086 501.455 350.188 481.897C356.065 469.269 358.531 455.45 357.328 441.65L217.26 494.36ZM46.4182 351.819C44.8383 355.214 40.8607 356.73 37.5337 355.182C34.2067 353.633 32.7822 349.603 34.362 346.208L183.347 26.0699C186.691 18.884 192.593 13.7078 199.416 11.1402C206.24 8.57293 213.985 8.61186 221.028 11.8896L357.364 75.3373C371.426 81.8815 377.458 98.9483 370.781 113.297L361.517 133.203C359.936 136.599 355.948 138.08 352.62 136.532C349.292 134.983 347.881 130.987 349.461 127.593L358.724 107.686C362.253 100.105 359.069 91.0969 351.639 87.6392L215.303 24.1915C211.587 22.4624 207.512 22.4612 203.892 23.8038C200.285 25.1814 197.167 27.8891 195.403 31.6801L46.4174 351.818L46.4182 351.819Z" fill="#14649C" fill-opacity="0.05"/>
</svg>
