<svg width="590" height="500" viewBox="0 0 590 500" fill="none" xmlns="http://www.w3.org/2000/svg">
<path d="M491.43 191.56C501.239 105.361 439.239 27.5395 352.95 17.7412C266.661 7.94288 188.758 69.878 178.95 156.077C169.141 242.276 231.141 320.098 317.43 329.896C403.719 339.694 481.622 277.759 491.43 191.56Z" fill="#D1DDE8"/>
<path d="M525.397 355.702C560.525 355.702 589.002 327.255 589.002 292.164C589.002 257.073 560.525 228.625 525.397 228.625C490.269 228.625 461.792 257.073 461.792 292.164C461.792 327.255 490.269 355.702 525.397 355.702Z" fill="#E7EDF4"/>
<path d="M217.042 341.326L170.34 260.404L93.5754 308.372L141.152 391.041C142.211 393.128 143.512 395.084 145.027 396.869C158.162 412.294 184.362 411.581 203.542 395.281C221.345 380.153 226.838 356.92 217.042 341.326Z" fill="#235196"/>
<path d="M188.292 364.747C192.505 361.173 196.204 357.035 199.285 352.451C199.065 352.056 198.873 351.65 198.632 351.265L180.491 319.835C177.669 323.715 174.393 327.245 170.734 330.35C149.932 348.027 121.538 348.811 107.253 332.145L129.67 371.1C144.888 382.832 169.63 380.605 188.292 364.747Z" fill="#4DD0E1"/>
<path style="mix-blend-mode:multiply" d="M172.517 405.917C170.783 403.874 169.295 401.636 168.084 399.247L113.638 304.645L174.077 266.876L170.347 260.401L93.5822 308.369L141.158 391.038C142.218 393.125 143.519 395.081 145.034 396.866C152.063 405.121 162.836 408.708 174.274 407.802C173.667 407.199 173.079 406.576 172.517 405.917Z" fill="url(#paint0_linear)"/>
<path d="M156.65 314.033C175.841 297.731 180.75 272.007 167.615 256.578C154.481 241.148 128.276 241.856 109.085 258.159C89.8942 274.461 84.9849 300.185 98.1196 315.615C111.254 331.044 137.459 330.336 156.65 314.033Z" fill="#235196"/>
<path style="mix-blend-mode:multiply" d="M154.415 311.409C171.804 296.637 176.252 273.328 164.35 259.347C152.448 245.366 128.704 246.007 111.314 260.779C93.9253 275.551 89.477 298.86 101.379 312.842C113.281 326.823 137.025 326.181 154.415 311.409Z" fill="url(#paint1_linear)"/>
<path d="M182.122 304.062L182.042 296.523L180.277 296.542C178.838 293.674 176.622 291.268 173.88 289.598C171.139 287.927 167.983 287.06 164.772 287.094C161.561 287.128 158.424 288.062 155.719 289.791C153.014 291.519 150.849 293.971 149.471 296.869L147.706 296.888L147.786 304.425C147.789 306.69 148.241 308.933 149.117 311.023C149.992 313.113 151.274 315.01 152.887 316.602C154.5 318.195 156.413 319.452 158.516 320.302C160.619 321.152 162.869 321.577 165.137 321.553C167.405 321.529 169.646 321.057 171.73 320.163C173.814 319.269 175.7 317.971 177.28 316.345C178.859 314.718 180.1 312.796 180.931 310.687C181.762 308.579 182.167 306.327 182.122 304.062Z" fill="#D1DDE8"/>
<path d="M177.013 308.833C183.717 302.136 183.717 291.277 177.013 284.579C170.308 277.882 159.438 277.882 152.733 284.579C146.029 291.277 146.029 302.136 152.733 308.833C159.438 315.531 170.308 315.531 177.013 308.833Z" fill="#E7EDF4"/>
<path d="M148.12 293.023C147.541 295.568 147.569 298.213 148.201 300.746L181.63 300.392C182.208 297.846 182.179 295.201 181.547 292.669L148.12 293.023Z" fill="white"/>
<path d="M153.944 269.228L147.018 266.235L146.318 267.853C143.11 267.999 140.007 269.043 137.365 270.865C134.722 272.687 132.644 275.215 131.369 278.159C130.095 281.103 129.673 284.346 130.154 287.518C130.634 290.689 131.997 293.663 134.086 296.098L133.385 297.718L140.311 300.71C142.38 301.604 144.605 302.083 146.86 302.118C149.114 302.153 151.353 301.744 153.449 300.915C155.545 300.085 157.458 298.852 159.077 297.284C160.695 295.717 161.989 293.846 162.885 291.779C163.78 289.711 164.259 287.488 164.294 285.236C164.329 282.984 163.92 280.748 163.089 278.654C162.259 276.56 161.024 274.649 159.455 273.032C157.886 271.415 156.013 270.122 153.944 269.228Z" fill="#D1DDE8"/>
<path d="M155.96 288.788C154.611 291.902 152.37 294.546 149.517 296.386C146.665 298.226 143.331 299.181 139.935 299.128C136.54 299.075 133.237 298.018 130.444 296.09C127.65 294.162 125.491 291.449 124.241 288.296C122.99 285.142 122.704 281.689 123.418 278.373C124.132 275.057 125.815 272.027 128.253 269.666C130.691 267.305 133.775 265.719 137.115 265.109C140.455 264.499 143.901 264.892 147.018 266.239C151.196 268.045 154.486 271.435 156.162 275.664C157.839 279.893 157.766 284.614 155.96 288.788Z" fill="#E7EDF4"/>
<path d="M130.017 295.768C132.11 297.33 134.54 298.38 137.113 298.834L150.387 268.178C148.294 266.616 145.864 265.566 143.291 265.112L130.017 295.768Z" fill="white"/>
<path d="M139.87 317.75L138.127 310.417L136.409 310.825C134.372 308.345 131.679 306.486 128.636 305.461C125.592 304.436 122.322 304.286 119.198 305.028C116.073 305.769 113.22 307.373 110.964 309.655C108.707 311.938 107.138 314.808 106.435 317.938L104.72 318.345L106.463 325.679C107.586 330.028 110.372 333.763 114.222 336.082C118.073 338.401 122.68 339.119 127.055 338.081C131.429 337.043 135.221 334.332 137.616 330.531C140.011 326.729 140.818 322.141 139.863 317.752L139.87 317.75Z" fill="#D1DDE8"/>
<path d="M124.623 331.232C133.939 329.466 140.057 320.49 138.289 311.185C136.521 301.879 127.537 295.767 118.221 297.533C108.906 299.299 102.787 308.274 104.555 317.58C106.323 326.886 115.308 332.998 124.623 331.232Z" fill="#E7EDF4"/>
<path d="M104.267 314.483C104.267 317.093 104.879 319.667 106.054 321.998L138.58 314.28C138.58 311.67 137.968 309.096 136.792 306.765L104.267 314.483Z" fill="white"/>
<path d="M170.437 233.319L168.694 225.985L166.977 226.393C164.94 223.913 162.246 222.054 159.203 221.029C156.16 220.004 152.89 219.854 149.765 220.596C146.641 221.337 143.787 222.941 141.531 225.223C139.275 227.506 137.705 230.376 137.003 233.507L135.285 233.913L137.03 241.247C137.515 243.475 138.439 245.584 139.75 247.45C141.06 249.317 142.73 250.904 144.661 252.118C146.593 253.333 148.747 254.15 150.999 254.523C153.25 254.896 155.554 254.817 157.774 254.29C159.995 253.763 162.088 252.799 163.931 251.454C165.774 250.11 167.33 248.411 168.509 246.459C169.687 244.506 170.464 242.339 170.794 240.083C171.124 237.827 171 235.528 170.43 233.32L170.437 233.319Z" fill="#D1DDE8"/>
<path d="M155.956 246.636C152.652 247.42 149.19 247.207 146.007 246.025C142.824 244.843 140.063 242.745 138.074 239.996C136.084 237.247 134.956 233.97 134.831 230.58C134.706 227.19 135.59 223.839 137.371 220.951C139.153 218.062 141.751 215.767 144.839 214.354C147.926 212.942 151.364 212.475 154.716 213.014C158.069 213.553 161.187 215.073 163.675 217.382C166.163 219.69 167.909 222.684 168.694 225.985C169.215 228.176 169.299 230.449 168.941 232.673C168.583 234.897 167.79 237.029 166.607 238.946C165.424 240.864 163.875 242.53 162.047 243.849C160.22 245.169 158.15 246.116 155.956 246.636Z" fill="#E7EDF4"/>
<path d="M134.833 230.05C134.832 232.66 135.444 235.234 136.62 237.565L169.145 229.848C169.147 227.238 168.536 224.664 167.36 222.333L134.833 230.05Z" fill="white"/>
<path d="M128.915 174.016L127.171 166.682L125.455 167.09C123.418 164.61 120.724 162.752 117.681 161.727C114.638 160.702 111.368 160.551 108.243 161.293C105.119 162.034 102.266 163.638 100.009 165.921C97.753 168.203 96.1839 171.074 95.4811 174.204L93.7636 174.61L95.5065 181.944C96.6462 186.275 99.4363 189.989 103.281 192.293C107.125 194.596 111.719 195.306 116.081 194.271C120.442 193.236 124.226 190.538 126.622 186.754C129.019 182.969 129.839 178.398 128.907 174.018L128.915 174.016Z" fill="#D1DDE8"/>
<path d="M114.435 187.337C111.131 188.121 107.669 187.908 104.486 186.726C101.303 185.545 98.5428 183.447 96.5536 180.698C94.5644 177.949 93.436 174.672 93.3109 171.282C93.1858 167.893 94.0697 164.542 95.8509 161.654C97.6321 158.766 100.23 156.471 103.318 155.058C106.405 153.646 109.842 153.179 113.194 153.718C116.547 154.257 119.664 155.777 122.152 158.085C124.639 160.394 126.386 163.387 127.171 166.687C127.692 168.879 127.776 171.151 127.418 173.375C127.06 175.598 126.267 177.73 125.084 179.647C123.901 181.565 122.352 183.231 120.525 184.55C118.698 185.869 116.628 186.816 114.435 187.337Z" fill="#E7EDF4"/>
<path d="M93.3109 170.739C93.3108 173.349 93.9228 175.922 95.0979 178.253L127.623 170.535C127.624 167.925 127.012 165.352 125.836 163.02L93.3109 170.739Z" fill="white"/>
<path d="M100.805 215.101L93.6992 207.676L91.7579 209.861C74.2947 203.322 51.7723 211.785 38.0816 231.256C27.2103 246.717 24.7774 265.05 30.2825 279.055L28.3124 281.274L38.8496 291.774C39.9113 292.761 41.0379 293.676 42.2219 294.513C60.1937 307.129 87.4905 299.267 103.185 276.953C118.336 255.397 117.441 232.314 100.805 215.101Z" fill="#D1DDE8"/>
<path d="M58.3032 300.346C56.9041 300.225 55.5143 300.014 54.1426 299.713L28.0903 271.154L22.7801 265.336L24.718 263.553L27.5511 266.659L58.3032 300.346Z" fill="#E7EDF4"/>
<path d="M68.8625 299.911C67.813 300.089 66.7432 300.25 65.692 300.346L33.7565 265.336L35.6978 263.554L68.8625 299.911Z" fill="#E7EDF4"/>
<path d="M77.6161 297.457C76.7243 297.812 75.8139 298.134 74.9034 298.407L44.7243 265.336L46.6674 263.554L77.6161 297.457Z" fill="#E7EDF4"/>
<path d="M85.2066 293.756C84.4149 294.212 83.6231 294.666 82.833 295.082L55.6905 265.336L57.6521 263.554L85.2066 293.756Z" fill="#E7EDF4"/>
<path d="M91.9037 289.085C91.2103 289.639 90.5168 290.174 89.803 290.689L66.6635 265.336L68.6302 263.553L91.9037 289.085Z" fill="#E7EDF4"/>
<path d="M97.8276 283.538C97.2325 284.192 96.6187 284.805 95.9846 285.418L77.6398 265.331L79.6015 263.549L97.8276 283.538Z" fill="#E7EDF4"/>
<path d="M103.117 277.033C102.609 277.764 102.068 278.496 101.512 279.189L79.0267 254.549L80.968 252.767L103.117 277.033Z" fill="#E7EDF4"/>
<path d="M107.675 269.65C107.258 270.461 106.802 271.272 106.327 272.065L79.0301 242.139L80.9714 240.359L107.675 269.65Z" fill="#E7EDF4"/>
<path d="M111.339 261.239C111.022 262.169 110.686 263.102 110.289 264.01L79.0267 229.75L80.968 227.97L111.339 261.239Z" fill="#E7EDF4"/>
<path d="M113.638 251.343C113.499 252.452 113.32 253.56 113.102 254.667L79.0233 217.342L80.9646 215.56L113.638 251.343Z" fill="#E7EDF4"/>
<path d="M113.836 243.071L81.6021 207.763L79.0267 204.932L80.968 203.151L85.5644 208.198L113.261 238.538C113.551 240.035 113.743 241.549 113.836 243.071Z" fill="#E7EDF4"/>
<path d="M93.5151 267.278C109.206 244.963 107.351 216.647 89.3733 204.032C71.3951 191.417 44.1012 199.28 28.4105 221.595C12.7198 243.91 14.5742 272.226 32.5523 284.841C50.5304 297.456 77.8244 289.593 93.5151 267.278Z" fill="#E7EDF4"/>
<path d="M89.9395 264.771C103.977 244.809 102.383 219.523 86.3794 208.294C70.3756 197.065 46.0223 204.144 31.9847 224.105C17.9471 244.067 19.541 269.353 35.5448 280.582C51.5486 291.811 75.9019 284.732 89.9395 264.771Z" stroke="white" stroke-miterlimit="10"/>
<path d="M460.897 458.391L224.103 418.03C221.124 417.52 218.445 415.909 216.6 413.517C214.755 411.125 213.878 408.127 214.144 405.119L244.201 67.8473C244.471 64.8394 245.864 62.0431 248.103 60.0141C250.342 57.9851 253.263 56.872 256.286 56.8959L496.489 58.9554C498.15 58.9695 499.79 59.327 501.306 60.0054C502.821 60.6838 504.18 61.6684 505.296 62.8973C506.412 64.1261 507.261 65.5724 507.789 67.1452C508.318 68.718 508.515 70.3832 508.368 72.0358L474.901 447.61C474.753 449.262 474.264 450.866 473.465 452.32C472.666 453.774 471.575 455.048 470.259 456.06C468.944 457.073 467.433 457.802 465.822 458.203C464.211 458.604 462.534 458.668 460.897 458.391Z" fill="#4DD0E1"/>
<path d="M459.734 446.43L227.155 406.789L255.74 86.0544L491.664 88.0716L459.734 446.43Z" fill="#E7EDF4"/>
<path style="mix-blend-mode:multiply" d="M459.734 446.43L227.155 406.789L255.74 86.0544L491.664 88.0716L459.734 446.43Z" fill="url(#paint2_linear)"/>
<path d="M491.664 88.0699L255.74 86.0544C255.74 86.0544 224.442 350.1 204.422 367.015L440.058 418.399L491.664 88.0699Z" fill="white"/>
<path d="M204.422 367.015C204.422 367.015 178.531 354.51 180.834 319.007L391.025 368.303C391.025 368.303 434.483 454.078 443.439 396.757L440.058 418.404L204.422 367.015Z" fill="#E7EDF4"/>
<path d="M334.89 79.6467C338.093 78.987 340.153 75.8588 339.493 72.6597C338.832 69.4606 335.701 67.4021 332.499 68.0618C329.296 68.7216 327.235 71.8498 327.896 75.0489C328.556 78.248 331.688 80.3065 334.89 79.6467Z" fill="#235196"/>
<path d="M419.481 79.5004C422.672 78.7867 424.68 75.6242 423.965 72.4367C423.251 69.2493 420.085 67.2438 416.894 67.9575C413.703 68.6711 411.696 71.8336 412.41 75.0211C413.125 78.2086 416.29 80.2141 419.481 79.5004Z" fill="#235196"/>
<path d="M333.695 73.8599L331.822 94.8802C331.751 95.6743 331.847 96.4744 332.103 97.2295C332.358 97.9846 332.769 98.6781 333.308 99.2659C333.847 99.8536 334.503 100.323 335.234 100.643C335.965 100.963 336.755 101.128 337.553 101.127L365.662 101.079L365.746 100.085C365.873 98.5884 366.555 97.1933 367.659 96.1733C368.762 95.1534 370.208 94.5822 371.711 94.5719L374.395 94.5516C375.231 94.5457 376.059 94.7134 376.827 95.0443C377.594 95.3751 378.285 95.8617 378.854 96.4733C379.423 97.0849 379.859 97.808 380.134 98.5968C380.408 99.3856 380.516 100.223 380.449 101.055V101.055L410.513 101.006C411.946 101.004 413.327 100.466 414.383 99.4986C415.44 98.5312 416.096 97.204 416.223 95.7778L418.188 73.7345" stroke="#235196" stroke-width="3" stroke-linejoin="round"/>
<path d="M287.089 138.863L436.528 142.8" stroke="#E7EDF4" stroke-width="3" stroke-miterlimit="10" stroke-linecap="round"/>
<path d="M285.094 161.269L434.532 165.205" stroke="#E7EDF4" stroke-width="3" stroke-miterlimit="10" stroke-linecap="round"/>
<path d="M281.408 183.524L430.847 187.46" stroke="#E7EDF4" stroke-width="3" stroke-miterlimit="10" stroke-linecap="round"/>
<path d="M277.724 205.781L427.162 209.717" stroke="#E7EDF4" stroke-width="3" stroke-miterlimit="10" stroke-linecap="round"/>
<path d="M274.038 228.036L423.476 231.972" stroke="#E7EDF4" stroke-width="3" stroke-miterlimit="10" stroke-linecap="round"/>
<path d="M346.345 283.85C345.931 288.496 344.147 292.916 341.218 296.55C338.29 300.184 334.348 302.869 329.892 304.265C325.436 305.661 320.666 305.706 316.184 304.394C311.703 303.082 307.711 300.472 304.715 296.893C301.718 293.315 299.851 288.93 299.35 284.291C298.848 279.653 299.735 274.971 301.897 270.836C304.06 266.701 307.401 263.299 311.499 261.061C315.596 258.823 320.266 257.85 324.918 258.263C328.007 258.538 331.011 259.417 333.76 260.852C336.508 262.286 338.947 264.247 340.937 266.623C342.926 268.999 344.428 271.743 345.356 274.699C346.284 277.655 346.62 280.764 346.345 283.85Z" fill="#E7EDF4"/>
<path d="M279.187 296.579C275.907 292.531 273.503 287.849 272.123 282.828C270.744 277.806 270.42 272.553 271.172 267.401C271.552 264.909 272.554 262.048 274.982 261.359C278.558 260.343 281.13 264.702 282.272 268.236C283.756 272.796 285.239 277.357 286.72 281.919C286.902 282.813 287.391 283.615 288.101 284.188C291.721 286.444 293.422 276.076 297.399 277.62C299.569 278.467 298.891 281.81 300.181 283.748C301.629 285.926 305 285.553 307.291 284.29C309.581 283.026 311.653 281.096 314.257 280.826C316.761 280.569 319.226 281.937 321.731 281.673C326.086 281.204 329.496 275.969 333.714 277.154" stroke="#D1DDE8" stroke-width="3" stroke-miterlimit="10" stroke-linecap="round"/>
<path d="M321.115 424.871L284.441 410.776C282.856 410.167 281.167 409.875 279.469 409.918C277.772 409.961 276.1 410.338 274.548 411.026C272.996 411.715 271.595 412.702 270.426 413.932C269.256 415.162 268.34 416.609 267.731 418.193C267.121 419.776 266.829 421.463 266.872 423.159C266.915 424.855 267.292 426.525 267.981 428.076C268.671 429.626 269.659 431.025 270.89 432.193C272.121 433.362 273.57 434.277 275.155 434.886L311.831 448.982C315.032 450.212 318.59 450.121 321.724 448.73C324.858 447.339 327.31 444.761 328.541 441.564C329.151 439.981 329.443 438.293 329.399 436.597C329.356 434.902 328.979 433.231 328.289 431.681C327.6 430.131 326.611 428.731 325.38 427.563C324.149 426.395 322.7 425.48 321.115 424.871Z" fill="white"/>
<path d="M321.115 424.871L302.772 417.823L293.486 441.933L311.822 448.982C313.411 449.611 315.109 449.919 316.818 449.889C318.527 449.858 320.212 449.489 321.778 448.804C323.343 448.118 324.757 447.13 325.937 445.895C327.118 444.661 328.041 443.205 328.655 441.611C329.269 440.018 329.56 438.319 329.512 436.612C329.465 434.906 329.079 433.225 328.377 431.669C327.675 430.112 326.672 428.71 325.424 427.543C324.176 426.376 322.71 425.468 321.108 424.871H321.115Z" fill="#235196"/>
<path style="mix-blend-mode:multiply" d="M320.768 441.782L273.354 423.56C270.983 422.65 268.934 421.059 267.466 418.987C266.488 422.116 266.739 425.499 268.167 428.45C269.595 431.401 272.093 433.699 275.155 434.877L311.829 448.974C314.893 450.149 318.289 450.116 321.329 448.882C324.369 447.648 326.825 445.305 328.199 442.328C325.722 442.882 323.137 442.692 320.768 441.782Z" fill="url(#paint3_linear)"/>
<path d="M375.875 379.712L338.066 390.391C334.766 391.323 331.972 393.527 330.298 396.517C328.625 399.507 328.209 403.039 329.141 406.335C330.075 409.632 332.28 412.423 335.274 414.095C338.267 415.767 341.802 416.183 345.102 415.251L382.911 404.57C384.545 404.109 386.072 403.331 387.405 402.28C388.738 401.229 389.851 399.926 390.679 398.446C391.508 396.965 392.037 395.336 392.235 393.652C392.434 391.967 392.298 390.26 391.836 388.628C391.374 386.995 390.595 385.47 389.543 384.138C388.491 382.806 387.187 381.695 385.704 380.867C384.222 380.039 382.591 379.511 380.905 379.313C379.218 379.114 377.509 379.25 375.875 379.712Z" fill="white"/>
<path d="M375.875 379.712L356.967 385.051L364.003 409.911L382.909 404.57C384.543 404.109 386.07 403.331 387.403 402.28C388.736 401.229 389.848 399.926 390.677 398.446C391.506 396.965 392.035 395.336 392.233 393.652C392.432 391.967 392.296 390.26 391.834 388.628C391.372 386.996 390.593 385.47 389.541 384.139C388.489 382.807 387.185 381.696 385.703 380.868C384.221 380.04 382.59 379.512 380.904 379.314C379.218 379.115 377.509 379.251 375.875 379.712Z" fill="#235196"/>
<path style="mix-blend-mode:multiply" d="M385.742 393.458L336.851 407.263C334.409 407.956 331.816 407.911 329.399 407.135C330.494 410.225 332.725 412.783 335.639 414.29C338.553 415.798 341.932 416.141 345.091 415.251L382.899 404.57C386.056 403.677 388.755 401.618 390.448 398.81C392.14 396.002 392.7 392.656 392.014 389.451C390.364 391.375 388.183 392.769 385.742 393.458Z" fill="url(#paint4_linear)"/>
<path d="M180.806 86.742H167.78V73.7295H153.265V86.742H140.239V101.242H153.265V114.254H167.78V101.242H180.806V86.742Z" fill="#4DD0E1"/>
<path d="M217.783 139.018H208.939V130.183H199.085V139.018H190.242V148.861H199.085V157.697H208.939V148.863H217.783V139.018Z" fill="#235196"/>
<path d="M564.74 115.985H555.903V107.151H546.049V115.985H537.206V125.829H546.049V134.663H555.903V125.829H564.747L564.74 115.985Z" fill="#4DD0E1"/>
<path d="M514.054 378.857L575.976 198.854C576.505 196.924 576.25 194.863 575.266 193.12C574.281 191.377 572.647 190.094 570.72 189.549L466.619 153.812C464.763 153.055 462.683 153.063 460.833 153.832C458.982 154.601 457.511 156.071 456.741 157.919L394.813 337.926C394.284 339.857 394.54 341.919 395.526 343.662C396.512 345.405 398.148 346.688 400.078 347.231L504.178 382.967C506.034 383.723 508.114 383.715 509.964 382.945C511.814 382.175 513.285 380.706 514.054 378.857Z" fill="#235196"/>
<g style="mix-blend-mode:multiply" opacity="0.6">
<path d="M496.883 186.905L473.13 178.841C471.056 178.138 468.788 178.286 466.824 179.253C464.861 180.219 463.361 181.926 462.657 183.997C461.953 186.068 462.101 188.333 463.069 190.295C464.036 192.257 465.745 193.755 467.818 194.459L491.571 202.522C493.644 203.226 495.912 203.078 497.876 202.111C499.84 201.144 501.339 199.438 502.044 197.367C502.393 196.341 502.536 195.257 502.465 194.176C502.395 193.096 502.112 192.039 501.632 191.068C501.153 190.096 500.487 189.229 499.672 188.514C498.857 187.8 497.909 187.253 496.883 186.905Z" fill="#235196"/>
</g>
<g style="mix-blend-mode:multiply" opacity="0.6">
<path d="M550.139 205.186L526.384 197.123C525.357 196.774 524.272 196.631 523.19 196.702C522.109 196.772 521.051 197.055 520.079 197.534C519.107 198.013 518.238 198.678 517.523 199.492C516.808 200.306 516.261 201.253 515.912 202.278C515.564 203.304 515.42 204.387 515.491 205.468C515.561 206.549 515.844 207.605 516.323 208.576C516.802 209.547 517.468 210.415 518.283 211.129C519.098 211.843 520.045 212.39 521.072 212.739L544.827 220.802C545.853 221.151 546.938 221.294 548.02 221.224C549.102 221.153 550.159 220.871 551.132 220.392C552.104 219.913 552.973 219.248 553.688 218.434C554.403 217.62 554.951 216.674 555.299 215.648C556.004 213.577 555.855 211.312 554.888 209.35C553.92 207.388 552.212 205.89 550.139 205.186Z" fill="#235196"/>
</g>
<g style="mix-blend-mode:multiply" opacity="0.6">
<path d="M487.237 214.964L463.482 206.9C462.456 206.552 461.371 206.409 460.289 206.479C459.207 206.55 458.149 206.833 457.177 207.311C456.204 207.79 455.336 208.455 454.621 209.27C453.906 210.084 453.358 211.031 453.009 212.056C452.305 214.127 452.454 216.392 453.422 218.354C454.389 220.315 456.098 221.813 458.17 222.516L481.925 230.58C482.952 230.929 484.037 231.072 485.118 231.002C486.2 230.931 487.258 230.649 488.23 230.17C489.202 229.692 490.071 229.026 490.786 228.212C491.501 227.398 492.048 226.451 492.397 225.426C492.746 224.401 492.889 223.317 492.819 222.236C492.748 221.155 492.466 220.099 491.987 219.127C491.507 218.156 490.841 217.288 490.027 216.574C489.212 215.859 488.264 215.312 487.237 214.964Z" fill="#235196"/>
</g>
<g style="mix-blend-mode:multiply" opacity="0.6">
<path d="M540.488 233.246L516.735 225.182C515.708 224.833 514.623 224.69 513.541 224.76C512.46 224.831 511.402 225.113 510.43 225.592C509.457 226.07 508.588 226.736 507.873 227.55C507.158 228.364 506.611 229.311 506.262 230.336C505.913 231.361 505.77 232.445 505.841 233.526C505.911 234.607 506.194 235.663 506.673 236.635C507.152 237.606 507.819 238.474 508.634 239.188C509.449 239.903 510.396 240.45 511.423 240.798L535.176 248.861C536.203 249.21 537.288 249.353 538.369 249.283C539.451 249.212 540.509 248.93 541.481 248.451C542.454 247.973 543.322 247.307 544.037 246.494C544.753 245.68 545.3 244.733 545.649 243.708C545.998 242.682 546.141 241.598 546.071 240.517C546 239.437 545.717 238.38 545.238 237.409C544.759 236.437 544.092 235.57 543.277 234.855C542.462 234.141 541.515 233.594 540.488 233.246Z" fill="#235196"/>
</g>
<g style="mix-blend-mode:multiply" opacity="0.6">
<path d="M477.573 243.023L453.82 234.96C452.794 234.611 451.708 234.468 450.627 234.538C449.545 234.608 448.487 234.891 447.515 235.369C446.542 235.848 445.673 236.513 444.958 237.327C444.243 238.141 443.696 239.088 443.347 240.114C442.998 241.139 442.855 242.223 442.925 243.304C442.995 244.384 443.278 245.441 443.757 246.412C444.236 247.384 444.902 248.252 445.717 248.966C446.532 249.68 447.48 250.227 448.506 250.576L472.261 258.639C474.334 259.343 476.602 259.195 478.566 258.228C480.53 257.262 482.029 255.556 482.734 253.485C483.083 252.46 483.226 251.376 483.156 250.295C483.085 249.214 482.802 248.158 482.323 247.186C481.844 246.215 481.178 245.347 480.363 244.633C479.548 243.919 478.6 243.372 477.573 243.023Z" fill="#235196"/>
</g>
<g style="mix-blend-mode:multiply" opacity="0.6">
<path d="M530.838 261.305L507.083 253.24C505.01 252.536 502.742 252.684 500.778 253.651C498.814 254.618 497.315 256.324 496.61 258.395C495.906 260.466 496.054 262.732 497.022 264.694C497.99 266.656 499.698 268.153 501.771 268.857L525.524 276.921C526.551 277.269 527.636 277.412 528.718 277.342C529.8 277.271 530.857 276.989 531.83 276.51C532.802 276.031 533.671 275.366 534.386 274.552C535.101 273.738 535.648 272.791 535.997 271.765C536.346 270.74 536.49 269.656 536.419 268.575C536.349 267.495 536.066 266.439 535.587 265.467C535.108 264.496 534.442 263.628 533.627 262.914C532.812 262.2 531.864 261.653 530.838 261.305Z" fill="#235196"/>
</g>
<g style="mix-blend-mode:multiply" opacity="0.6">
<path d="M467.624 271.967L443.869 263.903C442.843 263.555 441.758 263.411 440.676 263.482C439.595 263.552 438.537 263.835 437.565 264.313C436.593 264.792 435.724 265.457 435.009 266.271C434.294 267.085 433.747 268.032 433.398 269.057C433.049 270.082 432.906 271.166 432.976 272.247C433.046 273.328 433.329 274.384 433.808 275.356C434.287 276.327 434.953 277.195 435.768 277.909C436.583 278.624 437.531 279.171 438.558 279.519L462.312 287.583C463.339 287.931 464.424 288.075 465.506 288.004C466.587 287.934 467.645 287.651 468.617 287.173C469.589 286.694 470.458 286.029 471.173 285.215C471.888 284.401 472.435 283.454 472.784 282.429C473.133 281.403 473.276 280.319 473.206 279.239C473.135 278.158 472.853 277.102 472.374 276.13C471.895 275.158 471.228 274.291 470.414 273.576C469.599 272.862 468.651 272.315 467.624 271.967Z" fill="#235196"/>
</g>
<g style="mix-blend-mode:multiply" opacity="0.6">
<path d="M520.882 290.248L497.127 282.183C496.101 281.834 495.015 281.691 493.934 281.761C492.852 281.831 491.794 282.114 490.822 282.593C489.849 283.071 488.981 283.737 488.265 284.551C487.55 285.365 487.003 286.311 486.654 287.337C486.305 288.362 486.162 289.447 486.232 290.528C486.302 291.609 486.585 292.665 487.065 293.637C487.544 294.608 488.21 295.476 489.025 296.191C489.84 296.905 490.788 297.452 491.815 297.801L515.568 305.864C516.595 306.213 517.68 306.356 518.762 306.285C519.844 306.215 520.901 305.932 521.874 305.453C522.846 304.975 523.715 304.309 524.43 303.495C525.145 302.681 525.693 301.734 526.041 300.709C526.39 299.683 526.533 298.599 526.463 297.519C526.392 296.438 526.11 295.382 525.631 294.411C525.151 293.44 524.485 292.572 523.671 291.858C522.856 291.144 521.908 290.597 520.882 290.248Z" fill="#235196"/>
</g>
<g style="mix-blend-mode:multiply" opacity="0.6">
<path d="M457.752 300.668L434 292.604C431.927 291.901 429.659 292.049 427.695 293.016C425.731 293.983 424.232 295.689 423.527 297.76C422.823 299.831 422.971 302.096 423.939 304.058C424.907 306.02 426.615 307.518 428.688 308.222L452.442 316.285C453.468 316.634 454.553 316.777 455.635 316.706C456.717 316.636 457.774 316.353 458.747 315.874C459.719 315.396 460.588 314.73 461.303 313.916C462.018 313.102 462.566 312.155 462.914 311.13C463.263 310.104 463.406 309.02 463.336 307.939C463.265 306.858 462.982 305.802 462.502 304.831C462.023 303.859 461.357 302.991 460.542 302.277C459.726 301.563 458.778 301.016 457.752 300.668Z" fill="#235196"/>
</g>
<g style="mix-blend-mode:multiply" opacity="0.6">
<path d="M511.008 318.95L487.254 310.886C486.228 310.537 485.143 310.394 484.061 310.465C482.979 310.535 481.921 310.818 480.949 311.297C479.976 311.776 479.108 312.441 478.393 313.255C477.678 314.069 477.13 315.016 476.781 316.041C476.433 317.067 476.289 318.151 476.36 319.231C476.43 320.312 476.713 321.368 477.192 322.339C477.671 323.31 478.337 324.178 479.152 324.892C479.967 325.606 480.914 326.153 481.941 326.502L505.696 334.567C507.769 335.27 510.037 335.122 512.001 334.156C513.965 333.189 515.464 331.482 516.168 329.411C516.517 328.386 516.661 327.302 516.59 326.221C516.519 325.14 516.237 324.084 515.757 323.113C515.278 322.141 514.612 321.273 513.797 320.559C512.982 319.845 512.034 319.298 511.008 318.95Z" fill="#235196"/>
</g>
<g style="mix-blend-mode:multiply" opacity="0.6">
<path d="M448.1 328.727L424.345 320.664C423.318 320.315 422.233 320.172 421.151 320.243C420.07 320.313 419.012 320.596 418.04 321.075C417.068 321.553 416.199 322.219 415.484 323.033C414.769 323.847 414.222 324.794 413.873 325.819C413.524 326.844 413.381 327.928 413.451 329.009C413.522 330.09 413.804 331.146 414.283 332.117C414.763 333.088 415.429 333.956 416.244 334.67C417.058 335.384 418.006 335.931 419.033 336.279L442.788 344.343C443.814 344.691 444.899 344.835 445.981 344.764C447.063 344.694 448.12 344.411 449.093 343.933C450.065 343.454 450.934 342.789 451.649 341.975C452.364 341.161 452.912 340.214 453.26 339.189C453.965 337.118 453.816 334.852 452.849 332.891C451.881 330.929 450.173 329.431 448.1 328.727Z" fill="#235196"/>
</g>
<g style="mix-blend-mode:multiply" opacity="0.6">
<path d="M501.357 347.009L477.602 338.945C476.576 338.596 475.491 338.453 474.409 338.523C473.327 338.594 472.269 338.876 471.297 339.355C470.324 339.833 469.456 340.499 468.741 341.313C468.026 342.127 467.478 343.074 467.129 344.099C466.425 346.17 466.573 348.436 467.541 350.398C468.509 352.359 470.217 353.857 472.29 354.561L496.044 362.625C497.07 362.973 498.155 363.116 499.237 363.046C500.319 362.976 501.376 362.693 502.348 362.214C503.321 361.736 504.19 361.071 504.905 360.257C505.62 359.443 506.167 358.496 506.516 357.471C506.865 356.445 507.009 355.361 506.939 354.281C506.868 353.2 506.585 352.144 506.106 351.172C505.627 350.2 504.961 349.333 504.146 348.618C503.331 347.904 502.384 347.357 501.357 347.009Z" fill="#235196"/>
</g>
<path d="M498.459 182.322L474.706 174.258C472.633 173.555 470.365 173.703 468.401 174.67C466.437 175.636 464.938 177.343 464.233 179.414C463.529 181.484 463.677 183.75 464.645 185.712C465.612 187.674 467.32 189.171 469.393 189.876L493.148 197.939C495.221 198.643 497.489 198.495 499.453 197.528C501.417 196.561 502.916 194.854 503.62 192.784C503.969 191.758 504.113 190.674 504.042 189.593C503.971 188.513 503.688 187.456 503.209 186.485C502.73 185.513 502.064 184.646 501.249 183.931C500.434 183.217 499.486 182.67 498.459 182.322Z" fill="white"/>
<path style="mix-blend-mode:multiply" d="M498.666 193.119L467.957 182.694C466.422 182.175 465.075 181.214 464.086 179.932C463.541 181.953 463.787 184.105 464.772 185.951C465.758 187.798 467.41 189.201 469.393 189.876L493.148 197.939C495.132 198.611 497.297 198.504 499.205 197.64C501.112 196.776 502.62 195.219 503.42 193.285C501.854 193.7 500.2 193.642 498.666 193.119Z" fill="url(#paint5_linear)"/>
<path d="M551.717 200.603L527.962 192.54C526.936 192.191 525.851 192.048 524.769 192.119C523.687 192.189 522.63 192.472 521.657 192.951C520.685 193.429 519.817 194.095 519.102 194.909C518.387 195.723 517.839 196.67 517.491 197.695C517.142 198.721 516.998 199.804 517.069 200.885C517.139 201.966 517.422 203.022 517.901 203.993C518.38 204.965 519.046 205.832 519.861 206.546C520.676 207.261 521.624 207.807 522.65 208.155L546.405 216.219C547.432 216.568 548.517 216.711 549.599 216.64C550.68 216.57 551.738 216.288 552.71 215.809C553.683 215.33 554.551 214.665 555.266 213.851C555.982 213.037 556.529 212.091 556.878 211.065C557.582 208.994 557.434 206.729 556.466 204.767C555.498 202.805 553.79 201.307 551.717 200.603Z" fill="white"/>
<path style="mix-blend-mode:multiply" d="M551.924 211.401L521.214 200.976C519.68 200.456 518.333 199.495 517.344 198.214C516.799 200.234 517.044 202.386 518.029 204.232C519.015 206.079 520.667 207.482 522.65 208.155L546.405 216.219C548.389 216.892 550.554 216.785 552.462 215.921C554.37 215.057 555.877 213.5 556.678 211.567C555.112 211.981 553.458 211.923 551.924 211.401Z" fill="url(#paint6_linear)"/>
<path d="M488.656 210.823L464.901 202.759C463.875 202.411 462.79 202.268 461.708 202.338C460.626 202.409 459.568 202.691 458.596 203.17C457.623 203.649 456.755 204.314 456.04 205.129C455.325 205.943 454.777 206.889 454.429 207.915C453.724 209.986 453.873 212.251 454.841 214.213C455.808 216.174 457.517 217.672 459.59 218.375L483.338 226.44C485.411 227.144 487.679 226.996 489.643 226.029C491.607 225.062 493.106 223.356 493.811 221.285C494.515 219.215 494.368 216.95 493.401 214.988C492.435 213.026 490.728 211.528 488.656 210.823Z" fill="white"/>
<path style="mix-blend-mode:multiply" d="M488.863 221.62L458.154 211.196C456.618 210.676 455.271 209.715 454.281 208.433C453.737 210.454 453.983 212.606 454.968 214.452C455.954 216.299 457.606 217.701 459.59 218.375L483.338 226.441C485.322 227.113 487.487 227.005 489.395 226.141C491.303 225.277 492.81 223.72 493.611 221.786C492.046 222.2 490.395 222.142 488.863 221.62Z" fill="url(#paint7_linear)"/>
<path d="M541.914 229.105L518.159 221.041C517.133 220.692 516.047 220.549 514.966 220.62C513.884 220.69 512.827 220.973 511.854 221.451C510.882 221.93 510.013 222.595 509.298 223.409C508.583 224.223 508.035 225.17 507.686 226.195C507.337 227.22 507.194 228.304 507.265 229.385C507.335 230.466 507.618 231.522 508.097 232.494C508.577 233.465 509.243 234.333 510.058 235.047C510.873 235.761 511.821 236.308 512.847 236.657L536.6 244.72C537.627 245.069 538.712 245.212 539.794 245.142C540.875 245.071 541.933 244.789 542.905 244.31C543.878 243.832 544.746 243.166 545.462 242.352C546.177 241.539 546.724 240.592 547.073 239.567C547.422 238.541 547.565 237.457 547.495 236.377C547.424 235.296 547.142 234.24 546.663 233.268C546.183 232.297 545.518 231.429 544.703 230.715C543.888 230 542.94 229.453 541.914 229.105Z" fill="white"/>
<path style="mix-blend-mode:multiply" d="M542.119 239.902L511.409 229.477C509.875 228.957 508.528 227.996 507.539 226.715C506.994 228.736 507.239 230.888 508.225 232.734C509.211 234.581 510.864 235.983 512.847 236.657L536.6 244.72C538.584 245.393 540.75 245.287 542.658 244.423C544.566 243.559 546.074 242.002 546.875 240.068C545.308 240.482 543.653 240.424 542.119 239.902Z" fill="url(#paint8_linear)"/>
<path d="M478.853 239.324L455.098 231.261C454.072 230.912 452.987 230.769 451.905 230.84C450.823 230.91 449.765 231.193 448.793 231.672C447.82 232.15 446.952 232.816 446.237 233.63C445.522 234.444 444.974 235.391 444.626 236.416C444.277 237.442 444.133 238.526 444.204 239.606C444.275 240.687 444.558 241.743 445.037 242.714C445.516 243.686 446.182 244.553 446.997 245.267C447.812 245.982 448.76 246.528 449.787 246.876L473.54 254.94C474.566 255.289 475.651 255.432 476.733 255.362C477.815 255.292 478.873 255.009 479.845 254.531C480.818 254.052 481.686 253.387 482.401 252.573C483.116 251.759 483.664 250.812 484.013 249.786C484.362 248.761 484.505 247.677 484.434 246.596C484.364 245.516 484.081 244.459 483.602 243.488C483.123 242.516 482.457 241.649 481.642 240.934C480.827 240.22 479.88 239.673 478.853 239.324Z" fill="white"/>
<path style="mix-blend-mode:multiply" d="M479.058 250.122L448.349 239.697C446.814 239.177 445.468 238.216 444.478 236.935C443.933 238.955 444.179 241.107 445.165 242.954C446.151 244.8 447.803 246.203 449.786 246.877L473.54 254.94C475.523 255.613 477.689 255.507 479.597 254.643C481.505 253.778 483.012 252.221 483.813 250.288C482.246 250.702 480.592 250.644 479.058 250.122Z" fill="url(#paint9_linear)"/>
<path d="M532.109 257.606L508.356 249.542C507.329 249.194 506.244 249.05 505.162 249.121C504.081 249.191 503.023 249.473 502.051 249.952C501.078 250.431 500.209 251.096 499.494 251.91C498.779 252.724 498.232 253.671 497.883 254.696C497.534 255.722 497.39 256.806 497.461 257.886C497.531 258.967 497.814 260.023 498.293 260.995C498.772 261.966 499.438 262.834 500.253 263.549C501.068 264.263 502.016 264.81 503.042 265.158L526.797 273.222C528.87 273.925 531.138 273.777 533.102 272.811C535.066 271.844 536.565 270.138 537.27 268.068C537.619 267.042 537.762 265.958 537.692 264.878C537.621 263.797 537.338 262.741 536.859 261.769C536.38 260.798 535.713 259.93 534.898 259.216C534.084 258.501 533.136 257.954 532.109 257.606Z" fill="white"/>
<path style="mix-blend-mode:multiply" d="M532.316 268.403L501.606 257.979C500.071 257.459 498.724 256.497 497.736 255.214C497.191 257.235 497.436 259.387 498.421 261.234C499.407 263.081 501.059 264.484 503.042 265.158L526.797 273.222C528.781 273.895 530.947 273.788 532.855 272.924C534.763 272.059 536.27 270.502 537.07 268.568C535.504 268.982 533.85 268.925 532.316 268.403Z" fill="url(#paint10_linear)"/>
<path d="M469.049 267.826L445.293 259.762C444.267 259.414 443.182 259.27 442.101 259.341C441.019 259.411 439.962 259.694 438.989 260.172C438.017 260.651 437.148 261.316 436.434 262.13C435.719 262.944 435.171 263.891 434.822 264.916C434.473 265.941 434.33 267.025 434.4 268.106C434.47 269.187 434.753 270.243 435.232 271.215C435.712 272.186 436.377 273.054 437.192 273.768C438.007 274.483 438.955 275.029 439.982 275.378L463.737 283.441C464.763 283.79 465.848 283.933 466.93 283.863C468.012 283.792 469.069 283.51 470.042 283.031C471.014 282.553 471.883 281.887 472.598 281.073C473.313 280.26 473.861 279.313 474.209 278.288C474.914 276.217 474.765 273.951 473.798 271.989C472.83 270.027 471.122 268.53 469.049 267.826Z" fill="white"/>
<path style="mix-blend-mode:multiply" d="M469.255 278.626L438.546 268.202C437.011 267.682 435.664 266.721 434.675 265.439C434.13 267.46 434.375 269.612 435.361 271.458C436.347 273.305 437.999 274.707 439.982 275.381L463.737 283.445C465.72 284.119 467.886 284.013 469.795 283.15C471.703 282.286 473.211 280.729 474.013 278.796C472.445 279.209 470.79 279.15 469.255 278.626Z" fill="url(#paint11_linear)"/>
<path d="M522.304 286.107L498.55 278.044C496.477 277.342 494.211 277.49 492.248 278.457C490.285 279.424 488.787 281.13 488.083 283.199C487.379 285.27 487.528 287.536 488.495 289.498C489.463 291.46 491.171 292.957 493.244 293.661L516.998 301.725C518.024 302.073 519.109 302.216 520.191 302.146C521.273 302.075 522.331 301.793 523.303 301.314C524.276 300.835 525.144 300.17 525.859 299.356C526.574 298.542 527.122 297.595 527.471 296.569C527.82 295.543 527.963 294.459 527.892 293.378C527.821 292.297 527.538 291.24 527.058 290.269C526.578 289.297 525.911 288.43 525.096 287.715C524.28 287.001 523.332 286.455 522.304 286.107Z" fill="white"/>
<path style="mix-blend-mode:multiply" d="M522.503 296.905L491.793 286.48C490.258 285.96 488.911 284.998 487.922 283.716C487.378 285.737 487.623 287.889 488.609 289.736C489.595 291.582 491.247 292.985 493.231 293.659L516.984 301.723C518.968 302.396 521.134 302.289 523.042 301.425C524.95 300.561 526.458 299.003 527.258 297.069C525.692 297.483 524.037 297.426 522.503 296.905Z" fill="url(#paint12_linear)"/>
<path d="M459.245 296.327L435.49 288.263C434.464 287.915 433.379 287.772 432.297 287.842C431.215 287.912 430.158 288.195 429.185 288.674C428.213 289.152 427.344 289.817 426.629 290.631C425.914 291.445 425.366 292.392 425.018 293.417C424.314 295.488 424.462 297.754 425.43 299.716C426.397 301.678 428.106 303.175 430.179 303.879L453.932 311.943C454.958 312.292 456.043 312.435 457.125 312.365C458.207 312.294 459.265 312.012 460.237 311.533C461.21 311.055 462.078 310.389 462.793 309.575C463.508 308.761 464.056 307.814 464.405 306.789C464.754 305.764 464.897 304.68 464.826 303.599C464.756 302.518 464.473 301.462 463.994 300.491C463.515 299.519 462.849 298.651 462.034 297.937C461.219 297.223 460.272 296.675 459.245 296.327Z" fill="white"/>
<path style="mix-blend-mode:multiply" d="M459.451 307.124L428.744 296.7C427.209 296.18 425.863 295.218 424.873 293.936C424.329 295.956 424.574 298.109 425.56 299.956C426.546 301.802 428.198 303.205 430.182 303.879L453.935 311.943C455.919 312.616 458.085 312.509 459.993 311.645C461.902 310.78 463.409 309.223 464.21 307.289C462.642 307.704 460.986 307.647 459.451 307.124Z" fill="url(#paint13_linear)"/>
<path d="M512.5 314.609L488.746 306.545C487.72 306.196 486.635 306.053 485.553 306.123C484.471 306.193 483.413 306.476 482.441 306.955C481.468 307.433 480.6 308.098 479.885 308.913C479.17 309.727 478.622 310.673 478.273 311.699C477.924 312.724 477.781 313.808 477.852 314.889C477.922 315.97 478.205 317.026 478.684 317.997C479.163 318.969 479.829 319.836 480.644 320.551C481.458 321.265 482.406 321.812 483.433 322.161L507.188 330.224C508.214 330.573 509.299 330.716 510.381 330.645C511.463 330.575 512.521 330.292 513.493 329.814C514.466 329.335 515.334 328.669 516.049 327.855C516.764 327.041 517.312 326.094 517.661 325.069C518.365 322.998 518.216 320.733 517.248 318.771C516.281 316.809 514.572 315.312 512.5 314.609Z" fill="white"/>
<path style="mix-blend-mode:multiply" d="M512.708 325.406L481.998 314.981C480.463 314.462 479.117 313.5 478.128 312.217C477.583 314.238 477.829 316.39 478.814 318.236C479.8 320.083 481.451 321.486 483.434 322.161L507.189 330.224C509.173 330.897 511.339 330.79 513.247 329.926C515.154 329.061 516.662 327.504 517.462 325.57C515.896 325.985 514.242 325.928 512.708 325.406Z" fill="url(#paint14_linear)"/>
<path d="M449.441 324.828L425.692 316.765C424.666 316.416 423.581 316.273 422.499 316.343C421.417 316.414 420.36 316.696 419.387 317.175C418.415 317.653 417.546 318.319 416.831 319.133C416.116 319.947 415.568 320.893 415.22 321.919C414.87 322.944 414.727 324.028 414.797 325.109C414.868 326.189 415.15 327.246 415.63 328.217C416.109 329.189 416.775 330.056 417.59 330.771C418.405 331.485 419.352 332.032 420.379 332.38L444.134 340.444C446.207 341.148 448.475 341 450.438 340.033C452.402 339.067 453.902 337.361 454.607 335.29C454.955 334.264 455.098 333.18 455.028 332.099C454.957 331.018 454.673 329.962 454.193 328.99C453.714 328.018 453.047 327.151 452.232 326.437C451.416 325.723 450.468 325.176 449.441 324.828Z" fill="white"/>
<path style="mix-blend-mode:multiply" d="M449.647 335.626L418.938 325.203C417.403 324.683 416.056 323.721 415.067 322.439C414.522 324.459 414.768 326.611 415.753 328.458C416.739 330.304 418.391 331.708 420.374 332.382L444.129 340.446C446.113 341.119 448.278 341.012 450.186 340.148C452.094 339.283 453.601 337.726 454.401 335.792C452.835 336.207 451.181 336.149 449.647 335.626Z" fill="url(#paint15_linear)"/>
<path d="M502.698 343.11L478.943 335.045C476.87 334.341 474.602 334.489 472.638 335.456C470.674 336.423 469.175 338.129 468.47 340.2C467.766 342.271 467.914 344.537 468.882 346.499C469.85 348.461 471.558 349.958 473.631 350.662L497.386 358.726C498.413 359.074 499.498 359.217 500.58 359.147C501.661 359.076 502.719 358.793 503.691 358.315C504.663 357.836 505.532 357.171 506.247 356.356C506.962 355.542 507.509 354.596 507.857 353.57C508.207 352.545 508.35 351.461 508.28 350.38C508.209 349.3 507.926 348.244 507.447 347.272C506.968 346.301 506.302 345.433 505.487 344.719C504.672 344.005 503.725 343.458 502.698 343.11Z" fill="white"/>
<path style="mix-blend-mode:multiply" d="M502.903 353.907L472.194 343.481C470.659 342.962 469.312 342.001 468.323 340.718C467.778 342.739 468.024 344.892 469.01 346.738C469.996 348.585 471.648 349.988 473.631 350.662L497.386 358.726C499.37 359.398 501.536 359.291 503.443 358.427C505.351 357.563 506.858 356.005 507.659 354.071C506.092 354.486 504.438 354.429 502.903 353.907Z" fill="url(#paint16_linear)"/>
<path d="M525.397 414.146C525.397 416.351 524.743 418.506 523.517 420.339C522.291 422.173 520.549 423.601 518.51 424.445C516.471 425.289 514.228 425.51 512.063 425.08C509.899 424.65 507.911 423.589 506.35 422.03C504.789 420.472 503.726 418.485 503.296 416.323C502.865 414.161 503.086 411.92 503.93 409.883C504.775 407.846 506.205 406.105 508.04 404.881C509.875 403.656 512.032 403.002 514.239 403.002C517.198 403.002 520.036 404.176 522.128 406.266C524.221 408.356 525.396 411.191 525.397 414.146Z" fill="#4DD0E1"/>
<path d="M94.106 376.99C94.1057 379.194 93.4512 381.349 92.2252 383.181C90.9992 385.014 89.2569 386.442 87.2184 387.285C85.18 388.128 82.9371 388.349 80.7731 387.919C78.6092 387.489 76.6215 386.427 75.0614 384.869C73.5013 383.311 72.4389 381.325 72.0084 379.163C71.5778 377.002 71.7986 374.761 72.6428 372.725C73.487 370.688 74.9166 368.948 76.7509 367.723C78.5853 366.498 80.742 365.845 82.9483 365.844C84.4135 365.844 85.8644 366.133 87.2182 366.693C88.5719 367.253 89.8019 368.074 90.838 369.109C91.8741 370.144 92.696 371.373 93.2567 372.725C93.8174 374.077 94.106 375.527 94.106 376.99Z" fill="#4DD0E1"/>
<path d="M541.905 437.579C541.905 438.746 541.558 439.886 540.909 440.856C540.26 441.827 539.337 442.583 538.258 443.029C537.178 443.475 535.991 443.592 534.845 443.364C533.699 443.136 532.647 442.574 531.821 441.749C530.995 440.923 530.433 439.872 530.205 438.727C529.977 437.583 530.094 436.396 530.541 435.318C530.988 434.24 531.746 433.319 532.717 432.67C533.688 432.022 534.83 431.676 535.998 431.676C536.774 431.676 537.543 431.829 538.259 432.125C538.976 432.422 539.627 432.857 540.176 433.405C540.724 433.953 541.16 434.604 541.456 435.32C541.753 436.036 541.906 436.804 541.905 437.579Z" fill="#4DD0E1"/>
<path d="M64.8612 357.594C64.8612 358.762 64.5147 359.903 63.8654 360.874C63.2162 361.844 62.2934 362.601 61.2137 363.048C60.1341 363.494 58.946 363.611 57.7999 363.383C56.6537 363.156 55.6009 362.594 54.7745 361.768C53.9482 360.943 53.3854 359.891 53.1575 358.746C52.9295 357.601 53.0465 356.414 53.4937 355.336C53.9409 354.257 54.6982 353.335 55.6699 352.687C56.6416 352.038 57.7839 351.692 58.9526 351.692C59.7285 351.692 60.4969 351.845 61.2137 352.141C61.9306 352.438 62.582 352.873 63.1307 353.421C63.6793 353.969 64.1145 354.619 64.4115 355.336C64.7084 356.052 64.8612 356.819 64.8612 357.594Z" fill="#4DD0E1"/>
<path opacity="0.7" d="M316.458 499.002C453.581 499.002 564.742 494.729 564.742 489.458C564.742 484.187 453.581 479.914 316.458 479.914C179.335 479.914 68.1742 484.187 68.1742 489.458C68.1742 494.729 179.335 499.002 316.458 499.002Z" fill="#E7EDF4"/>
<defs>
<linearGradient id="paint0_linear" x1="229.87" y1="360.727" x2="48.6146" y2="337.899" gradientUnits="userSpaceOnUse">
<stop offset="0.002" stop-color="white" stop-opacity="0"/>
<stop offset="1" stop-color="#235196"/>
</linearGradient>
<linearGradient id="paint1_linear" x1="38.9172" y1="282.934" x2="177.92" y2="318.06" gradientUnits="userSpaceOnUse">
<stop offset="0.002" stop-color="white" stop-opacity="0"/>
<stop offset="1" stop-color="#235196"/>
</linearGradient>
<linearGradient id="paint2_linear" x1="440.614" y1="253.989" x2="8.14139" y2="253.989" gradientUnits="userSpaceOnUse">
<stop offset="0.002" stop-color="white" stop-opacity="0"/>
<stop offset="1" stop-color="#235196"/>
</linearGradient>
<linearGradient id="paint3_linear" x1="338.01" y1="327.593" x2="348.92" y2="399.206" gradientUnits="userSpaceOnUse">
<stop offset="0.002" stop-color="white" stop-opacity="0"/>
<stop offset="1" stop-color="#235196"/>
</linearGradient>
<linearGradient id="paint4_linear" x1="383.305" y1="275.531" x2="390.734" y2="346.112" gradientUnits="userSpaceOnUse">
<stop offset="0.002" stop-color="white" stop-opacity="0"/>
<stop offset="1" stop-color="#235196"/>
</linearGradient>
<linearGradient id="paint5_linear" x1="505.084" y1="108.831" x2="511.022" y2="154.293" gradientUnits="userSpaceOnUse">
<stop offset="0.002" stop-color="white" stop-opacity="0"/>
<stop offset="1" stop-color="#235196"/>
</linearGradient>
<linearGradient id="paint6_linear" x1="561.393" y1="109.043" x2="567.33" y2="154.485" gradientUnits="userSpaceOnUse">
<stop offset="0.002" stop-color="white" stop-opacity="0"/>
<stop offset="1" stop-color="#235196"/>
</linearGradient>
<linearGradient id="paint7_linear" x1="504.979" y1="138.974" x2="510.908" y2="184.41" gradientUnits="userSpaceOnUse">
<stop offset="0.002" stop-color="white" stop-opacity="0"/>
<stop offset="1" stop-color="#235196"/>
</linearGradient>
<linearGradient id="paint8_linear" x1="561.296" y1="139.165" x2="567.233" y2="184.625" gradientUnits="userSpaceOnUse">
<stop offset="0.002" stop-color="white" stop-opacity="0"/>
<stop offset="1" stop-color="#235196"/>
</linearGradient>
<linearGradient id="paint9_linear" x1="504.889" y1="169.119" x2="510.817" y2="214.554" gradientUnits="userSpaceOnUse">
<stop offset="0.002" stop-color="white" stop-opacity="0"/>
<stop offset="1" stop-color="#235196"/>
</linearGradient>
<linearGradient id="paint10_linear" x1="561.198" y1="169.318" x2="567.126" y2="214.756" gradientUnits="userSpaceOnUse">
<stop offset="0.002" stop-color="white" stop-opacity="0"/>
<stop offset="1" stop-color="#235196"/>
</linearGradient>
<linearGradient id="paint11_linear" x1="504.799" y1="199.243" x2="510.726" y2="244.698" gradientUnits="userSpaceOnUse">
<stop offset="0.002" stop-color="white" stop-opacity="0"/>
<stop offset="1" stop-color="#235196"/>
</linearGradient>
<linearGradient id="paint12_linear" x1="561.094" y1="199.442" x2="567.021" y2="244.898" gradientUnits="userSpaceOnUse">
<stop offset="0.002" stop-color="white" stop-opacity="0"/>
<stop offset="1" stop-color="#235196"/>
</linearGradient>
<linearGradient id="paint13_linear" x1="504.662" y1="229.398" x2="510.6" y2="274.844" gradientUnits="userSpaceOnUse">
<stop offset="0.002" stop-color="white" stop-opacity="0"/>
<stop offset="1" stop-color="#235196"/>
</linearGradient>
<linearGradient id="paint14_linear" x1="561.002" y1="229.587" x2="566.93" y2="275.025" gradientUnits="userSpaceOnUse">
<stop offset="0.002" stop-color="white" stop-opacity="0"/>
<stop offset="1" stop-color="#235196"/>
</linearGradient>
<linearGradient id="paint15_linear" x1="504.558" y1="259.524" x2="510.496" y2="304.988" gradientUnits="userSpaceOnUse">
<stop offset="0.002" stop-color="white" stop-opacity="0"/>
<stop offset="1" stop-color="#235196"/>
</linearGradient>
<linearGradient id="paint16_linear" x1="560.868" y1="259.73" x2="566.806" y2="305.175" gradientUnits="userSpaceOnUse">
<stop offset="0.002" stop-color="white" stop-opacity="0"/>
<stop offset="1" stop-color="#235196"/>
</linearGradient>
</defs>
</svg>
