<svg width="40" height="41" viewBox="0 0 40 41" fill="none" xmlns="http://www.w3.org/2000/svg">
<path d="M25.9227 2.719L25.9234 2.769C25.9349 2.76883 25.9463 2.76875 25.9576 2.76884L25.9585 2.76883C26.6699 2.7613 27.2529 3.33194 27.2604 4.04345L27.2604 4.06763V4.06814V7.29206H24.6705L24.6705 4.06814L24.6705 4.06726C24.658 3.36271 25.219 2.78145 25.9235 2.76899L25.9227 2.719ZM25.9227 2.719C25.9344 2.71883 25.9462 2.71875 25.958 2.71883L24.6205 4.06814C24.6076 3.33599 25.1905 2.73195 25.9227 2.719ZM23.6985 9.07322L23.6984 9.07321C23.2386 9.05999 22.8765 8.67664 22.8893 8.21685V6.46742H11.8936V8.21762C11.8936 8.71365 11.4697 9.07324 10.9824 9.07324H6.55922C6.07108 9.07324 5.65729 8.71299 5.65729 8.21762V6.46742H5.24875C3.86161 6.46742 2.73117 7.62475 2.73117 9.01332V11.6631H32.0517V9.01351C32.0464 7.61589 30.9196 6.48166 29.522 6.46742H29.0415V8.21722C29.0417 8.23006 29.0416 8.24303 29.0412 8.2561C29.0412 8.25611 29.0412 8.25613 29.0412 8.25614L28.9912 8.25444L23.6985 9.07322ZM23.6985 9.07322C23.7147 9.07366 23.7308 9.07366 23.7469 9.07324M23.6985 9.07322L23.7469 9.07324M23.7469 9.07324H28.1686H23.7469ZM15.8661 28.537C15.863 30.5162 16.3672 32.4627 17.3302 34.1908H5.24875C3.86163 34.1908 2.73117 33.0325 2.73117 31.6439V13.4443H32.0517V17.8785C30.6018 17.2533 29.0391 16.931 27.4596 16.9316C21.0688 16.9316 15.8662 22.146 15.8661 28.537ZM15.8661 28.537L15.9161 28.537M15.8661 28.537C15.8661 28.537 15.8661 28.537 15.8661 28.537H15.9161M15.9161 28.537C15.913 30.5171 16.4198 32.4641 17.3875 34.1908L15.9161 28.537ZM27.4532 40.1275H27.4533C33.8441 40.1275 39.05 34.9206 39.05 28.5296C39.0502 24.4883 36.9439 20.9171 33.8329 18.8422V9.01332C33.8329 6.64357 31.8926 4.68624 29.5222 4.68624H29.0415V4.06814C29.0415 2.36927 27.6643 0.992029 25.9654 0.992029C24.2666 0.992029 22.8893 2.36927 22.8893 4.06814V4.68624H11.8936V4.06814C11.8936 2.34607 10.4975 0.95 8.77543 0.95C7.05336 0.95 5.65729 2.34607 5.65729 4.06814V4.68624H5.24875C2.87824 4.68624 0.95 6.64376 0.95 9.01332V31.6439C0.95 34.0136 2.87822 35.972 5.24875 35.972H18.5566C20.7637 38.6014 24.0195 40.1224 27.4532 40.1275ZM8.76633 2.76875H8.76686L8.7674 2.76872L8.76739 2.76883H8.77072C9.50116 2.76883 10.1124 3.34181 10.1124 4.06814V7.29206H7.43846V4.06841C7.4463 3.3429 8.04077 2.76105 8.76633 2.76875ZM8.76686 2.71875L8.77072 2.71883C9.52675 2.71883 10.1624 3.3122 10.1624 4.06814L8.76686 2.71875ZM27.4533 38.3313C22.0357 38.3313 17.6439 33.9395 17.6439 28.522C17.6439 23.1045 22.0357 18.7127 27.4533 18.7127C32.8708 18.7127 37.2626 23.1045 37.2626 28.522C37.2565 33.937 32.8683 38.3252 27.4533 38.3313Z" fill="#CFD0D1" stroke="#CFD0D1" stroke-width="0.1"/>
<path d="M26.595 33.8266C26.4805 33.9379 26.3242 34 26.1619 34C25.9995 34 25.8432 33.9379 25.7287 33.8266L22.2693 30.4846C21.9102 30.1378 21.9102 29.5756 22.2693 29.2294L22.7025 28.811C23.0615 28.4642 23.643 28.4642 24.002 28.811L26.1619 30.8971L31.998 25.2601C32.357 24.9133 32.9391 24.9133 33.2975 25.2601L33.7307 25.6785C34.0898 26.0253 34.0898 26.5875 33.7307 26.9337L26.595 33.8266Z" fill="#CFD0D1"/>
</svg>
