<svg width="54" height="55" viewBox="0 0 54 55" fill="none" xmlns="http://www.w3.org/2000/svg">
<path d="M18.7748 42.8468C18.7748 42.353 18.3745 41.9527 17.8808 41.9527H14.3046V37.4825C14.3046 36.9888 13.9043 36.5885 13.4106 36.5885H8.9404V33.0123H13.4106C13.9043 33.0123 14.3046 32.612 14.3046 32.1183V27.6481H17.8808V32.1183C17.8808 32.612 18.2811 33.0123 18.7748 33.0123H22.351C22.8447 33.0123 23.245 32.612 23.245 32.1183C23.245 31.6246 22.8447 31.2243 22.351 31.2243H19.6689V26.7541C19.6689 26.2603 19.2686 25.86 18.7748 25.86H13.4106C12.9169 25.86 12.5166 26.2603 12.5166 26.7541V31.2243H8.04636C7.55263 31.2243 7.15232 31.6246 7.15232 32.1183V37.4825C7.15232 37.9763 7.55263 38.3766 8.04636 38.3766H12.5166V42.8468C12.5166 43.3405 12.9169 43.7408 13.4106 43.7408H17.8808C18.3745 43.7408 18.7748 43.3405 18.7748 42.8468Z" fill="#14649C"/>
<path d="M50.5043 0.147431C50.0913 -0.122793 49.5379 -0.0112614 49.2616 0.397762L42.4937 10.6613C42.0885 10.575 41.6684 10.5872 41.2689 10.6971C40.5818 10.8765 39.9956 11.3242 39.6417 11.9398L38.8282 13.3435C36.9167 13.3479 35.1509 14.3654 34.1881 16.0166L30.3974 22.5878V18.3501C30.3917 16.5848 29.3529 14.9865 27.7421 14.2643L23.9513 12.5835C22.981 12.1498 22.3548 11.1878 22.351 10.1249V9.7673H23.245C24.7245 9.76283 25.9227 8.5646 25.9272 7.08518V3.50902C25.9227 2.02961 24.7245 0.831371 23.245 0.826901H7.15232C5.67291 0.831371 4.47467 2.02961 4.4702 3.50902V7.08518C4.47467 8.5646 5.67291 9.76283 7.15232 9.7673H8.04636V10.1249C8.04256 11.1878 7.4164 12.1498 6.44603 12.5835L2.6553 14.2643C1.04446 14.9865 0.00569951 16.5848 0 18.3501V53.5753C0 54.069 0.400306 54.4693 0.89404 54.4693H29.5033C29.9971 54.4693 30.3974 54.069 30.3974 53.5753V46.7269C30.8911 46.7304 31.2942 46.3329 31.2977 45.8391C31.2999 45.5149 31.1265 45.2149 30.8444 45.0551L30.0666 44.608L43.4772 21.3809C44.434 19.724 44.434 17.6825 43.4772 16.0256L44.2908 14.6219C44.6448 14.0105 44.7382 13.2824 44.55 12.6014C44.4579 12.2262 44.2805 11.8775 44.0315 11.5822L50.7547 1.38121C51.0273 0.976653 50.9204 0.427712 50.5158 0.15503C50.512 0.15246 50.5082 0.149889 50.5043 0.147431ZM7.15232 7.97922C6.65859 7.97922 6.25828 7.57892 6.25828 7.08518V3.50902C6.25828 3.01529 6.65859 2.61498 7.15232 2.61498H23.245C23.7388 2.61498 24.1391 3.01529 24.1391 3.50902V7.08518C24.1391 7.57892 23.7388 7.97922 23.245 7.97922H7.15232ZM1.78808 52.6812V47.317H11.6225C12.1163 47.317 12.5166 46.9167 12.5166 46.423C12.5166 45.9292 12.1163 45.5289 11.6225 45.5289H1.78808V24.0719H24.1391C24.6328 24.0719 25.0331 23.6716 25.0331 23.1779C25.0331 22.6842 24.6328 22.2839 24.1391 22.2839H1.78808V18.3501C1.79188 17.2872 2.41804 16.3252 3.38841 15.8915L7.17914 14.2107C8.78998 13.4885 9.82874 11.8902 9.83444 10.1249V9.7673H20.5629V10.1249C20.5686 11.8902 21.6074 13.4885 23.2182 14.2107L27.009 15.8915C27.9793 16.3252 28.6055 17.2872 28.6093 18.3501V25.6812L20.7775 39.2438L20.0086 38.7968C19.579 38.5499 19.0307 38.698 18.7838 39.1276C18.5369 39.5572 18.685 40.1055 19.1146 40.3524L21.4301 41.6935L17.8719 47.8534L15.4937 46.4766C15.0641 46.2297 14.5157 46.3778 14.2689 46.8074C14.022 47.237 14.1701 47.7854 14.5997 48.0322L22.655 52.6812H1.78808ZM22.9858 42.5875L26.0792 44.3756L22.5209 50.5355L19.4275 48.7475L22.9858 42.5875ZM28.6093 52.6812H26.2401L24.0765 51.4296L27.6348 45.2696L28.6093 45.8329V52.6812ZM41.9305 20.4868L28.5199 43.714L22.3242 40.1378L24.1123 37.0445L24.8901 37.4915C25.3203 37.7334 25.865 37.5863 26.1149 37.1607C26.3575 36.7333 26.2098 36.1903 25.7841 35.9448L25.0063 35.4978L25.9003 33.9511L28.2248 35.2921C28.6544 35.539 29.2028 35.3909 29.4497 34.9614C29.6965 34.5318 29.5485 33.9834 29.1189 33.7365L26.7944 32.3955L27.6884 30.8488L28.4662 31.2958C28.8874 31.5467 29.4324 31.4086 29.6832 30.9873C29.6859 30.9829 29.6885 30.9784 29.6911 30.9739C29.9345 30.5439 29.7871 29.9981 29.3603 29.7491L28.5825 29.3021L29.4765 27.7554L31.801 29.0965C32.2306 29.3433 32.779 29.1952 33.0258 28.7657C33.2727 28.3361 33.1246 27.7877 32.695 27.5408L30.3705 26.1998L31.2646 24.6531L32.0424 25.1001C32.4636 25.351 33.0085 25.2129 33.2594 24.7916C33.2621 24.7872 33.2647 24.7827 33.2672 24.7782C33.5106 24.3482 33.3632 23.8024 32.9364 23.5534L32.1586 23.1064L33.0527 21.5597L35.3772 22.9008C35.8074 23.1427 36.3521 22.9955 36.602 22.57C36.8446 22.1426 36.6969 21.5996 36.2712 21.3541L33.9467 20.013L34.8407 18.4663L35.6186 18.9133C36.0481 19.1602 36.5965 19.0121 36.8434 18.5825C37.0903 18.153 36.9422 17.6046 36.5126 17.3577L35.7348 16.9107C36.7224 15.1998 38.9099 14.6133 40.6207 15.6009C42.3316 16.5885 42.9181 18.776 41.9305 20.4868ZM42.7351 13.7279L42.2523 14.5772C42.0235 14.3835 41.7782 14.21 41.5192 14.0587C41.2595 13.9099 40.9873 13.7843 40.7056 13.6832L41.1884 12.8339C41.3073 12.6289 41.504 12.4805 41.7338 12.4226C42.1915 12.2866 42.6728 12.5474 42.8088 13.0051C42.874 13.2314 42.8795 13.4746 42.7351 13.7279Z" fill="#14649C"/>
<path d="M53.4377 10.9662L50.8324 6.62476C50.5415 6.20166 49.9627 6.09437 49.5394 6.38539C49.4457 6.44987 49.3645 6.531 49.3001 6.62476L46.6948 10.9662C45.5754 12.8282 46.1774 15.2451 48.0395 16.3644C49.9014 17.4839 52.3183 16.8819 53.4377 15.0198C54.1874 13.7727 54.1874 12.2134 53.4377 10.9662ZM51.9312 14.0444C51.386 15.0966 50.0909 15.5074 49.0389 14.9621C47.9867 14.4169 47.5759 13.1219 48.1212 12.0698C48.1538 12.0069 48.1894 11.9456 48.2281 11.8863L50.0663 8.82231L51.9044 11.8862C52.3069 12.5467 52.3172 13.3741 51.9312 14.0444Z" fill="#14649C"/>
</svg>
