<svg width="100" height="100" viewBox="0 0 100 100" fill="none" xmlns="http://www.w3.org/2000/svg">
<circle cx="50" cy="50" r="50" fill="#184274" fill-opacity="0.1"/>
<path d="M46.0605 77.4883L50.1276 70.4442L53.6491 72.4775L49.5821 79.5215L46.0605 77.4883Z" fill="#14649C"/>
<path d="M40.6337 76.7437C40.3989 76.6088 40.2273 76.3861 40.1567 76.1246C40.0861 75.8632 40.1222 75.5844 40.2572 75.3496C40.3921 75.1147 40.6148 74.9432 40.8763 74.8726C41.1377 74.8019 41.4165 74.8381 41.6513 74.973L44.287 76.4995L48.3576 69.4574L47.4824 68.9486L45.7219 67.9309C45.4871 67.796 45.3155 67.5733 45.2449 67.3118C45.1743 67.0504 45.2104 66.7716 45.3454 66.5368C45.4803 66.302 45.703 66.1304 45.9645 66.0598C46.2259 65.9892 46.5047 66.0253 46.7395 66.1603L47.6147 66.6691L50.1588 62.2627L56.2647 51.6894L56.5292 51.2315V42.8868C56.5271 42.2945 56.3541 41.7154 56.031 41.219C55.7079 40.7226 55.2484 40.33 54.7077 40.0883L50.3929 38.1751C49.4952 37.7727 48.7326 37.1199 48.1965 36.2951C47.6605 35.4702 47.3737 34.5082 47.3705 33.5245V33.1174H35.1588V33.5245C35.1556 34.5082 34.8688 35.4702 34.3327 36.2951C33.7966 37.1199 33.0341 37.7727 32.1364 38.1751L27.8216 40.0883C27.2808 40.33 26.8213 40.7226 26.4982 41.219C26.1751 41.7154 26.0021 42.2945 26 42.8868V47.3644H51.441C51.7109 47.3644 51.9698 47.4716 52.1606 47.6625C52.3515 47.8533 52.4587 48.1122 52.4587 48.3821C52.4587 48.6519 52.3515 48.9108 52.1606 49.1016C51.9698 49.2925 51.7109 49.3997 51.441 49.3997H26V73.8231H37.1941C37.464 73.8231 37.7228 73.9303 37.9136 74.1212C38.1045 74.312 38.2117 74.5708 38.2117 74.8407C38.2117 75.1106 38.1045 75.3695 37.9136 75.5603C37.7228 75.7512 37.464 75.8584 37.1941 75.8584H26V81.9642H49.6805L44.1547 78.779L40.6337 76.7437ZM38.2117 70.7702V65.682H33.1235C32.8536 65.682 32.5948 65.5747 32.4039 65.3839C32.2131 65.1931 32.1058 64.9342 32.1058 64.6643V58.5585C32.1058 58.2886 32.2131 58.0297 32.4039 57.8389C32.5948 57.648 32.8536 57.5408 33.1235 57.5408H38.2117V52.4526C38.2117 52.1827 38.3189 51.9239 38.5098 51.733C38.7006 51.5422 38.9594 51.435 39.2293 51.435H45.3352C45.6051 51.435 45.8639 51.5422 46.0548 51.733C46.2456 51.9239 46.3528 52.1827 46.3528 52.4526V57.5408H49.4058C49.6757 57.5408 49.9345 57.648 50.1253 57.8389C50.3162 58.0297 50.4234 58.2886 50.4234 58.5585C50.4234 58.8284 50.3162 59.0872 50.1253 59.2781C49.9345 59.4689 49.6757 59.5761 49.4058 59.5761H45.3352C45.0653 59.5761 44.8065 59.4689 44.6156 59.2781C44.4248 59.0872 44.3175 58.8284 44.3175 58.5585V53.4703H40.247V58.5585C40.247 58.8284 40.1398 59.0872 39.9489 59.2781C39.7581 59.4689 39.4992 59.5761 39.2293 59.5761H34.1411V63.6467H39.2293C39.4992 63.6467 39.7581 63.7539 39.9489 63.9447C40.1398 64.1356 40.247 64.3944 40.247 64.6643V69.7525H44.3175C44.5874 69.7525 44.8463 69.8597 45.0371 70.0506C45.228 70.2414 45.3352 70.5003 45.3352 70.7702C45.3352 71.0401 45.228 71.2989 45.0371 71.4897C44.8463 71.6806 44.5874 71.7878 44.3175 71.7878H39.2293C38.9594 71.7878 38.7006 71.6806 38.5098 71.4897C38.3189 71.2989 38.2117 71.0401 38.2117 70.7702Z" fill="#14649C"/>
<path d="M50.4241 24.9766H32.1065C31.5445 24.9766 31.0889 25.4322 31.0889 25.9942V30.0648C31.0889 30.6268 31.5445 31.0824 32.1065 31.0824H50.4241C50.9861 31.0824 51.4417 30.6268 51.4417 30.0648V25.9942C51.4417 25.4322 50.9861 24.9766 50.4241 24.9766Z" fill="#14649C"/>
<path d="M70.2071 39.7626C69.2717 39.2222 68.1601 39.0751 67.1164 39.3537C66.0727 39.6323 65.1823 40.3137 64.6406 41.2483L65.5259 41.7572C65.7608 41.8921 65.9323 42.1148 66.003 42.3763C66.0736 42.6377 66.0374 42.9165 65.9025 43.1513C65.8357 43.2676 65.7466 43.3696 65.6404 43.4514C65.5341 43.5333 65.4128 43.5934 65.2834 43.6283C65.0219 43.699 64.7431 43.6628 64.5083 43.5279L63.623 43.019L62.6053 44.7796L65.2512 46.306C65.4839 46.4403 65.6542 46.6611 65.7247 46.9204C65.7953 47.1797 65.7604 47.4564 65.6277 47.69C65.491 47.9229 65.2683 48.0928 65.0076 48.1632C64.7469 48.2336 64.4689 48.1989 64.2335 48.0665L61.5877 46.5401L60.57 48.3006L61.4554 48.8094C61.6514 48.9205 61.805 49.0935 61.8922 49.3013C61.9793 49.5091 61.995 49.74 61.9368 49.9577C61.8786 50.1753 61.7498 50.3676 61.5706 50.5041C61.3914 50.6407 61.1719 50.714 60.9466 50.7124C60.7675 50.7095 60.5923 50.6604 60.4377 50.5699L59.5524 50.0611L58.5348 51.8216L61.1806 53.3481C61.4154 53.4831 61.587 53.7058 61.6576 53.9672C61.7282 54.2287 61.6921 54.5075 61.5571 54.7423C61.4222 54.9771 61.1995 55.1487 60.938 55.2193C60.6766 55.2899 60.3978 55.2537 60.163 55.1188L57.5171 53.5923L56.4995 55.3529L57.3848 55.8617C57.5809 55.9728 57.7345 56.1458 57.8216 56.3536C57.9087 56.5614 57.9244 56.7922 57.8662 57.0099C57.808 57.2276 57.6792 57.4198 57.5 57.5564C57.3208 57.693 57.1013 57.7662 56.876 57.7647C56.697 57.7618 56.5217 57.7127 56.3672 57.6222L55.4818 57.1134L54.4642 58.8739L57.1101 60.4004C57.2263 60.4672 57.3283 60.5562 57.4101 60.6625C57.492 60.7687 57.5521 60.89 57.5871 61.0195C57.622 61.1489 57.6311 61.284 57.6139 61.417C57.5967 61.55 57.5534 61.6783 57.4866 61.7945C57.4198 61.9108 57.3307 62.0128 57.2245 62.0946C57.1182 62.1765 56.9969 62.2366 56.8675 62.2715C56.738 62.3065 56.6029 62.3156 56.4699 62.2984C56.337 62.2811 56.2087 62.2379 56.0924 62.1711L53.4465 60.6446L52.4289 62.4051L53.3142 62.9139C53.547 63.0482 53.7172 63.269 53.7878 63.5283C53.8583 63.7876 53.8234 64.0643 53.6908 64.2979C53.554 64.5308 53.3314 64.7007 53.0706 64.7711C52.8099 64.8415 52.532 64.8068 52.2966 64.6745L51.4113 64.1656L49.376 67.6867L50.2613 68.1955L55.5429 71.2484H55.5531L56.4282 71.7572L71.6929 45.3189C72.2317 44.3849 72.3778 43.2752 72.0993 42.2334C71.8207 41.1917 71.1402 40.3031 70.2071 39.7626Z" fill="#14649C"/>
<path d="M55.4094 73.5283L51.3389 80.5704L53.7507 81.9646H56.5288V74.1694L56.2948 74.0371L55.4094 73.5283Z" fill="#14649C"/>
<path d="M83.5647 34.4406L80.9524 30.0647L78.3402 34.4406C78.1249 34.6993 77.9831 35.011 77.9294 35.3432C77.8757 35.6754 77.9121 36.016 78.0349 36.3293C78.291 36.8879 78.702 37.3612 79.2192 37.693C79.7364 38.0248 80.338 38.2012 80.9524 38.2012C81.5669 38.2012 82.1685 38.0248 82.6857 37.693C83.2028 37.3612 83.6139 36.8879 83.87 36.3293C83.9928 36.016 84.0292 35.6754 83.9755 35.3432C83.9218 35.011 83.78 34.6993 83.5647 34.4406Z" fill="#14649C"/>
<path d="M74.5519 35.163L81.7364 23.5721C81.811 23.4615 81.8627 23.3372 81.8888 23.2064C81.9148 23.0756 81.9145 22.9409 81.888 22.8102C81.8615 22.6795 81.8093 22.5554 81.7343 22.4451C81.6594 22.3348 81.5632 22.2405 81.4515 22.1677C81.2255 22.0199 80.9505 21.9669 80.6858 22.0202C80.4211 22.0736 80.1881 22.2289 80.037 22.4527L72.8321 34.0741C72.4623 34.0577 72.0951 34.1429 71.7704 34.3205C71.4456 34.4981 71.1758 34.7614 70.9901 35.0816L69.7588 37.2085L70.5933 37.6868L72.3538 38.7044L73.2798 39.2437L74.5112 37.1169C74.6441 36.8847 74.7297 36.6284 74.7629 36.3628C74.7961 36.0973 74.7763 35.8279 74.7045 35.5701C74.6751 35.4273 74.6236 35.2899 74.5519 35.163Z" fill="#14649C"/>
</svg>
