<svg width="14" height="14" viewBox="0 0 14 14" fill="none" xmlns="http://www.w3.org/2000/svg">
<path d="M8.2828 7.0001L13.7342 1.54851C14.089 1.1939 14.089 0.620557 13.7342 0.265953C13.3796 -0.088651 12.8063 -0.088651 12.4517 0.265953L7.00007 5.71755L1.54863 0.265953C1.19386 -0.088651 0.620682 -0.088651 0.266078 0.265953C-0.0886926 0.620557 -0.0886926 1.1939 0.266078 1.54851L5.71752 7.0001L0.266078 12.4517C-0.0886926 12.8063 -0.0886926 13.3797 0.266078 13.7343C0.442799 13.9111 0.67516 14 0.907356 14C1.13955 14 1.37175 13.9111 1.54863 13.7343L7.00007 8.28266L12.4517 13.7343C12.6286 13.9111 12.8608 14 13.093 14C13.3252 14 13.5574 13.9111 13.7342 13.7343C14.089 13.3797 14.089 12.8063 13.7342 12.4517L8.2828 7.0001Z" fill="black"/>
</svg>
