<svg width="51" height="63" viewBox="0 0 51 63" fill="none" xmlns="http://www.w3.org/2000/svg">
<mask id="path-1-outside-1" maskUnits="userSpaceOnUse" x="0" y="-0.00012207" width="50" height="55" fill="black">
<rect fill="white" y="-0.00012207" width="50" height="55"/>
<path d="M25.222 40.724C24.4208 40.724 23.636 40.7085 22.8657 40.6814C22.3948 40.6639 21.9404 40.6339 21.4812 40.6068C21.1973 40.5903 20.9047 40.5797 20.6257 40.5593C20.0153 40.5157 19.4223 40.4585 18.8361 40.3975C18.7257 40.3859 18.6104 40.3781 18.5009 40.3665C17.8295 40.2929 17.1755 40.2086 16.538 40.1156C16.5215 40.1136 16.505 40.1117 16.4885 40.1088C13.2089 39.6243 10.3943 38.8851 8.19394 38.0073C8.18232 38.0034 8.17069 37.9986 8.15906 37.9937C7.7531 37.8309 7.37233 37.6623 7.00997 37.4909C6.96831 37.4705 6.92374 37.4511 6.88208 37.4308C6.55653 37.2738 6.25521 37.113 5.96649 36.9493C5.89866 36.9105 5.82697 36.8727 5.76108 36.833C5.51014 36.6857 5.28149 36.5355 5.06252 36.3844C4.9792 36.3263 4.89297 36.2681 4.81352 36.21C4.62846 36.0734 4.46278 35.9358 4.30389 35.7973C4.21766 35.7207 4.13046 35.6451 4.05198 35.5686C3.92215 35.4426 3.80782 35.3157 3.70027 35.1888C3.6247 35.0997 3.55203 35.0096 3.48809 34.9204C3.40283 34.8012 3.33016 34.6821 3.26428 34.5629C3.21196 34.467 3.16545 34.3711 3.12573 34.2751C3.07825 34.1579 3.04046 34.0407 3.01334 33.9244C2.97652 33.7674 2.93679 33.6095 2.93679 33.4545V25.5029C2.96392 25.5281 2.99783 25.5523 3.02593 25.5775C3.23715 25.7626 3.45224 25.9476 3.69446 26.1259C7.3452 28.8901 14.6438 31.0352 25.222 31.0352C35.7557 31.0352 43.0359 28.9075 46.7012 26.1637C46.9938 25.9505 47.2573 25.7306 47.5053 25.5068H47.5063V33.9418C47.5063 34.4776 47.9394 34.9107 48.4752 34.9107C49.011 34.9107 49.4441 34.4776 49.4441 33.9418V22.3153V21.8308V10.2043V9.71981C49.4441 9.54347 49.384 9.38748 49.3026 9.24506C48.1806 5.08856 39.8299 0.999878 25.222 0.999878C10.6142 0.999878 2.26342 5.08856 1.14243 9.24506C1.06007 9.38748 1 9.54347 1 9.71981V10.2043V21.8308V22.3153V33.4574V33.9418V45.5684C1 45.7244 1.04069 45.8717 1.11142 46.0025C2.21498 50.6851 11.4697 53.4435 20.305 54.1062C20.3292 54.1081 20.3544 54.1091 20.3786 54.1091C20.8814 54.1091 21.3058 53.7225 21.3436 53.2129C21.3833 52.679 20.9841 52.214 20.4503 52.1743C9.68215 51.3662 3.40767 48.0875 2.96877 45.4115C2.96102 45.3679 2.95036 45.3262 2.93776 45.2845V37.1324C2.96489 37.1576 2.9988 37.1818 3.0269 37.207C3.23812 37.392 3.45321 37.5771 3.69543 37.7554C7.3452 40.5167 14.6438 42.6618 25.222 42.6618C25.7578 42.6618 26.1909 42.2287 26.1909 41.6929C26.1909 41.1571 25.7578 40.724 25.222 40.724ZM3.52103 14.3675C3.81169 14.5962 4.12561 14.8219 4.46569 15.0419C4.53642 15.0874 4.61587 15.132 4.6895 15.1775C4.97435 15.3548 5.27567 15.5283 5.5925 15.6988C5.70973 15.7618 5.82697 15.8238 5.94808 15.8858C6.30172 16.066 6.6728 16.2404 7.06326 16.4109C7.12721 16.439 7.18534 16.4681 7.25025 16.4952C7.70466 16.688 8.18716 16.8721 8.68904 17.0494C8.82759 17.0988 8.97293 17.1453 9.11535 17.1938C9.51453 17.3284 9.92727 17.4573 10.3546 17.5823C10.5086 17.6269 10.6597 17.6734 10.8177 17.717C11.3845 17.8739 11.9697 18.0231 12.5839 18.1607C12.6682 18.1801 12.7593 18.1966 12.8446 18.215C13.3862 18.3332 13.9481 18.4426 14.5256 18.5444C14.7213 18.5793 14.9199 18.6122 15.1195 18.6451C15.6689 18.7353 16.2347 18.8186 16.8151 18.8941C16.9643 18.9135 17.1067 18.9348 17.2578 18.9542C17.9787 19.0414 18.7247 19.116 19.4911 19.18C19.68 19.1955 19.8767 19.2071 20.0686 19.2207C20.6819 19.2652 21.3087 19.302 21.9501 19.3311C22.1836 19.3418 22.4162 19.3524 22.6545 19.3602C23.4906 19.3892 24.3413 19.4086 25.222 19.4086C26.1027 19.4086 26.9544 19.3883 27.7896 19.3602C28.0269 19.3524 28.2595 19.3408 28.4939 19.3311C29.1353 19.302 29.7622 19.2652 30.3755 19.2207C30.5674 19.2061 30.7631 19.1955 30.953 19.18C31.7194 19.117 32.4654 19.0414 33.1862 18.9542C33.3374 18.9358 33.4798 18.9135 33.629 18.8941C34.2094 18.8186 34.7742 18.7353 35.3246 18.6451C35.5242 18.6122 35.7228 18.5793 35.9185 18.5444C36.4959 18.4426 37.0579 18.3332 37.5995 18.215C37.6848 18.1966 37.7758 18.1801 37.8601 18.1607C38.4744 18.0231 39.0596 17.8739 39.6264 17.717C39.7843 17.6734 39.9355 17.6278 40.0895 17.5823C40.5168 17.4583 40.9295 17.3284 41.3287 17.1938C41.4711 17.1453 41.6165 17.0988 41.755 17.0494C42.2569 16.8711 42.7404 16.687 43.1938 16.4952C43.2587 16.4681 43.3169 16.438 43.3808 16.4109C43.7713 16.2404 44.1424 16.066 44.496 15.8858C44.6171 15.8238 44.7353 15.7618 44.8516 15.6988C45.1684 15.5292 45.4697 15.3558 45.7546 15.1775C45.8282 15.132 45.9077 15.0874 45.9784 15.0419C46.3185 14.8219 46.6324 14.5972 46.923 14.3675C46.9957 14.3094 47.0606 14.2513 47.1314 14.1931C47.2573 14.0885 47.39 13.9848 47.5063 13.8792V21.8308C47.5063 21.9868 47.4666 22.1438 47.4298 22.3007C47.4026 22.418 47.3649 22.5342 47.3174 22.6515C47.2786 22.7474 47.2311 22.8433 47.1788 22.9392C47.1139 23.0584 47.0412 23.1776 46.955 23.2967C46.8911 23.3859 46.8184 23.476 46.7428 23.5651C46.6353 23.6921 46.521 23.819 46.3911 23.9449C46.3126 24.0215 46.2264 24.097 46.1392 24.1736C45.9803 24.3121 45.8146 24.4497 45.6296 24.5863C45.5501 24.6454 45.4649 24.7026 45.3806 24.7607C45.1616 24.9119 44.933 25.062 44.682 25.2093C44.6161 25.249 44.5454 25.2868 44.4766 25.3256C44.1879 25.4884 43.8866 25.6492 43.561 25.8071C43.5194 25.8275 43.4758 25.8468 43.4331 25.8672C43.0698 26.0387 42.69 26.2073 42.284 26.37C42.2724 26.3749 42.2608 26.3788 42.2492 26.3836C40.0488 27.2624 37.2342 28.0016 33.9546 28.4851C33.9381 28.487 33.9216 28.489 33.9052 28.4919C33.2676 28.5859 32.6136 28.6702 31.9422 28.7428C31.8327 28.7545 31.7174 28.7622 31.607 28.7738C31.0208 28.8349 30.4278 28.8911 29.8174 28.9356C29.5384 28.956 29.2458 28.9666 28.9619 28.9831C28.5027 29.0102 28.0483 29.0403 27.5774 29.0577C26.8081 29.0819 26.0233 29.0974 25.222 29.0974C24.4208 29.0974 23.636 29.0819 22.8657 29.0548C22.3948 29.0374 21.9404 29.0073 21.4812 28.9802C21.1973 28.9637 20.9047 28.9531 20.6257 28.9327C20.0153 28.8891 19.4223 28.832 18.8361 28.7709C18.7257 28.7593 18.6104 28.7515 18.5009 28.7399C17.8295 28.6663 17.1755 28.582 16.538 28.489C16.5215 28.487 16.505 28.4851 16.4885 28.4822C13.2089 27.9978 10.3943 27.2585 8.19394 26.3807C8.18232 26.3768 8.17069 26.372 8.15906 26.3671C7.7531 26.2044 7.37233 26.0358 7.00997 25.8643C6.96831 25.8439 6.92374 25.8246 6.88208 25.8042C6.55653 25.6473 6.25521 25.4864 5.96649 25.3227C5.89866 25.2839 5.82697 25.2461 5.76108 25.2064C5.51014 25.0591 5.28149 24.909 5.06252 24.7578C4.9792 24.6997 4.89297 24.6416 4.81352 24.5834C4.62846 24.4468 4.46278 24.3092 4.30389 24.1707C4.21766 24.0941 4.13046 24.0186 4.05198 23.942C3.92215 23.8161 3.80782 23.6891 3.70027 23.5622C3.6247 23.4731 3.55203 23.383 3.48809 23.2938C3.40283 23.1747 3.33016 23.0555 3.26428 22.9363C3.21196 22.8404 3.16545 22.7445 3.12573 22.6486C3.07825 22.5313 3.04046 22.4141 3.01334 22.2978C2.97652 22.1409 2.93679 21.9829 2.93679 21.8279V13.8763C3.05306 13.9819 3.1858 14.0856 3.31175 14.1902C3.38248 14.2513 3.44739 14.3094 3.52103 14.3675ZM25.222 2.93764C38.3552 2.93764 47.5063 6.76666 47.5063 10.2043C47.5063 13.6418 38.3552 17.4709 25.222 17.4709C12.0888 17.4709 2.93776 13.6418 2.93776 10.2043C2.93776 6.76666 12.0888 2.93764 25.222 2.93764Z"/>
</mask>
<path d="M25.222 40.724C24.4208 40.724 23.636 40.7085 22.8657 40.6814C22.3948 40.6639 21.9404 40.6339 21.4812 40.6068C21.1973 40.5903 20.9047 40.5797 20.6257 40.5593C20.0153 40.5157 19.4223 40.4585 18.8361 40.3975C18.7257 40.3859 18.6104 40.3781 18.5009 40.3665C17.8295 40.2929 17.1755 40.2086 16.538 40.1156C16.5215 40.1136 16.505 40.1117 16.4885 40.1088C13.2089 39.6243 10.3943 38.8851 8.19394 38.0073C8.18232 38.0034 8.17069 37.9986 8.15906 37.9937C7.7531 37.8309 7.37233 37.6623 7.00997 37.4909C6.96831 37.4705 6.92374 37.4511 6.88208 37.4308C6.55653 37.2738 6.25521 37.113 5.96649 36.9493C5.89866 36.9105 5.82697 36.8727 5.76108 36.833C5.51014 36.6857 5.28149 36.5355 5.06252 36.3844C4.9792 36.3263 4.89297 36.2681 4.81352 36.21C4.62846 36.0734 4.46278 35.9358 4.30389 35.7973C4.21766 35.7207 4.13046 35.6451 4.05198 35.5686C3.92215 35.4426 3.80782 35.3157 3.70027 35.1888C3.6247 35.0997 3.55203 35.0096 3.48809 34.9204C3.40283 34.8012 3.33016 34.6821 3.26428 34.5629C3.21196 34.467 3.16545 34.3711 3.12573 34.2751C3.07825 34.1579 3.04046 34.0407 3.01334 33.9244C2.97652 33.7674 2.93679 33.6095 2.93679 33.4545V25.5029C2.96392 25.5281 2.99783 25.5523 3.02593 25.5775C3.23715 25.7626 3.45224 25.9476 3.69446 26.1259C7.3452 28.8901 14.6438 31.0352 25.222 31.0352C35.7557 31.0352 43.0359 28.9075 46.7012 26.1637C46.9938 25.9505 47.2573 25.7306 47.5053 25.5068H47.5063V33.9418C47.5063 34.4776 47.9394 34.9107 48.4752 34.9107C49.011 34.9107 49.4441 34.4776 49.4441 33.9418V22.3153V21.8308V10.2043V9.71981C49.4441 9.54347 49.384 9.38748 49.3026 9.24506C48.1806 5.08856 39.8299 0.999878 25.222 0.999878C10.6142 0.999878 2.26342 5.08856 1.14243 9.24506C1.06007 9.38748 1 9.54347 1 9.71981V10.2043V21.8308V22.3153V33.4574V33.9418V45.5684C1 45.7244 1.04069 45.8717 1.11142 46.0025C2.21498 50.6851 11.4697 53.4435 20.305 54.1062C20.3292 54.1081 20.3544 54.1091 20.3786 54.1091C20.8814 54.1091 21.3058 53.7225 21.3436 53.2129C21.3833 52.679 20.9841 52.214 20.4503 52.1743C9.68215 51.3662 3.40767 48.0875 2.96877 45.4115C2.96102 45.3679 2.95036 45.3262 2.93776 45.2845V37.1324C2.96489 37.1576 2.9988 37.1818 3.0269 37.207C3.23812 37.392 3.45321 37.5771 3.69543 37.7554C7.3452 40.5167 14.6438 42.6618 25.222 42.6618C25.7578 42.6618 26.1909 42.2287 26.1909 41.6929C26.1909 41.1571 25.7578 40.724 25.222 40.724ZM3.52103 14.3675C3.81169 14.5962 4.12561 14.8219 4.46569 15.0419C4.53642 15.0874 4.61587 15.132 4.6895 15.1775C4.97435 15.3548 5.27567 15.5283 5.5925 15.6988C5.70973 15.7618 5.82697 15.8238 5.94808 15.8858C6.30172 16.066 6.6728 16.2404 7.06326 16.4109C7.12721 16.439 7.18534 16.4681 7.25025 16.4952C7.70466 16.688 8.18716 16.8721 8.68904 17.0494C8.82759 17.0988 8.97293 17.1453 9.11535 17.1938C9.51453 17.3284 9.92727 17.4573 10.3546 17.5823C10.5086 17.6269 10.6597 17.6734 10.8177 17.717C11.3845 17.8739 11.9697 18.0231 12.5839 18.1607C12.6682 18.1801 12.7593 18.1966 12.8446 18.215C13.3862 18.3332 13.9481 18.4426 14.5256 18.5444C14.7213 18.5793 14.9199 18.6122 15.1195 18.6451C15.6689 18.7353 16.2347 18.8186 16.8151 18.8941C16.9643 18.9135 17.1067 18.9348 17.2578 18.9542C17.9787 19.0414 18.7247 19.116 19.4911 19.18C19.68 19.1955 19.8767 19.2071 20.0686 19.2207C20.6819 19.2652 21.3087 19.302 21.9501 19.3311C22.1836 19.3418 22.4162 19.3524 22.6545 19.3602C23.4906 19.3892 24.3413 19.4086 25.222 19.4086C26.1027 19.4086 26.9544 19.3883 27.7896 19.3602C28.0269 19.3524 28.2595 19.3408 28.4939 19.3311C29.1353 19.302 29.7622 19.2652 30.3755 19.2207C30.5674 19.2061 30.7631 19.1955 30.953 19.18C31.7194 19.117 32.4654 19.0414 33.1862 18.9542C33.3374 18.9358 33.4798 18.9135 33.629 18.8941C34.2094 18.8186 34.7742 18.7353 35.3246 18.6451C35.5242 18.6122 35.7228 18.5793 35.9185 18.5444C36.4959 18.4426 37.0579 18.3332 37.5995 18.215C37.6848 18.1966 37.7758 18.1801 37.8601 18.1607C38.4744 18.0231 39.0596 17.8739 39.6264 17.717C39.7843 17.6734 39.9355 17.6278 40.0895 17.5823C40.5168 17.4583 40.9295 17.3284 41.3287 17.1938C41.4711 17.1453 41.6165 17.0988 41.755 17.0494C42.2569 16.8711 42.7404 16.687 43.1938 16.4952C43.2587 16.4681 43.3169 16.438 43.3808 16.4109C43.7713 16.2404 44.1424 16.066 44.496 15.8858C44.6171 15.8238 44.7353 15.7618 44.8516 15.6988C45.1684 15.5292 45.4697 15.3558 45.7546 15.1775C45.8282 15.132 45.9077 15.0874 45.9784 15.0419C46.3185 14.8219 46.6324 14.5972 46.923 14.3675C46.9957 14.3094 47.0606 14.2513 47.1314 14.1931C47.2573 14.0885 47.39 13.9848 47.5063 13.8792V21.8308C47.5063 21.9868 47.4666 22.1438 47.4298 22.3007C47.4026 22.418 47.3649 22.5342 47.3174 22.6515C47.2786 22.7474 47.2311 22.8433 47.1788 22.9392C47.1139 23.0584 47.0412 23.1776 46.955 23.2967C46.8911 23.3859 46.8184 23.476 46.7428 23.5651C46.6353 23.6921 46.521 23.819 46.3911 23.9449C46.3126 24.0215 46.2264 24.097 46.1392 24.1736C45.9803 24.3121 45.8146 24.4497 45.6296 24.5863C45.5501 24.6454 45.4649 24.7026 45.3806 24.7607C45.1616 24.9119 44.933 25.062 44.682 25.2093C44.6161 25.249 44.5454 25.2868 44.4766 25.3256C44.1879 25.4884 43.8866 25.6492 43.561 25.8071C43.5194 25.8275 43.4758 25.8468 43.4331 25.8672C43.0698 26.0387 42.69 26.2073 42.284 26.37C42.2724 26.3749 42.2608 26.3788 42.2492 26.3836C40.0488 27.2624 37.2342 28.0016 33.9546 28.4851C33.9381 28.487 33.9216 28.489 33.9052 28.4919C33.2676 28.5859 32.6136 28.6702 31.9422 28.7428C31.8327 28.7545 31.7174 28.7622 31.607 28.7738C31.0208 28.8349 30.4278 28.8911 29.8174 28.9356C29.5384 28.956 29.2458 28.9666 28.9619 28.9831C28.5027 29.0102 28.0483 29.0403 27.5774 29.0577C26.8081 29.0819 26.0233 29.0974 25.222 29.0974C24.4208 29.0974 23.636 29.0819 22.8657 29.0548C22.3948 29.0374 21.9404 29.0073 21.4812 28.9802C21.1973 28.9637 20.9047 28.9531 20.6257 28.9327C20.0153 28.8891 19.4223 28.832 18.8361 28.7709C18.7257 28.7593 18.6104 28.7515 18.5009 28.7399C17.8295 28.6663 17.1755 28.582 16.538 28.489C16.5215 28.487 16.505 28.4851 16.4885 28.4822C13.2089 27.9978 10.3943 27.2585 8.19394 26.3807C8.18232 26.3768 8.17069 26.372 8.15906 26.3671C7.7531 26.2044 7.37233 26.0358 7.00997 25.8643C6.96831 25.8439 6.92374 25.8246 6.88208 25.8042C6.55653 25.6473 6.25521 25.4864 5.96649 25.3227C5.89866 25.2839 5.82697 25.2461 5.76108 25.2064C5.51014 25.0591 5.28149 24.909 5.06252 24.7578C4.9792 24.6997 4.89297 24.6416 4.81352 24.5834C4.62846 24.4468 4.46278 24.3092 4.30389 24.1707C4.21766 24.0941 4.13046 24.0186 4.05198 23.942C3.92215 23.8161 3.80782 23.6891 3.70027 23.5622C3.6247 23.4731 3.55203 23.383 3.48809 23.2938C3.40283 23.1747 3.33016 23.0555 3.26428 22.9363C3.21196 22.8404 3.16545 22.7445 3.12573 22.6486C3.07825 22.5313 3.04046 22.4141 3.01334 22.2978C2.97652 22.1409 2.93679 21.9829 2.93679 21.8279V13.8763C3.05306 13.9819 3.1858 14.0856 3.31175 14.1902C3.38248 14.2513 3.44739 14.3094 3.52103 14.3675ZM25.222 2.93764C38.3552 2.93764 47.5063 6.76666 47.5063 10.2043C47.5063 13.6418 38.3552 17.4709 25.222 17.4709C12.0888 17.4709 2.93776 13.6418 2.93776 10.2043C2.93776 6.76666 12.0888 2.93764 25.222 2.93764Z" fill="#14649C"/>
<path d="M25.222 40.724C24.4208 40.724 23.636 40.7085 22.8657 40.6814C22.3948 40.6639 21.9404 40.6339 21.4812 40.6068C21.1973 40.5903 20.9047 40.5797 20.6257 40.5593C20.0153 40.5157 19.4223 40.4585 18.8361 40.3975C18.7257 40.3859 18.6104 40.3781 18.5009 40.3665C17.8295 40.2929 17.1755 40.2086 16.538 40.1156C16.5215 40.1136 16.505 40.1117 16.4885 40.1088C13.2089 39.6243 10.3943 38.8851 8.19394 38.0073C8.18232 38.0034 8.17069 37.9986 8.15906 37.9937C7.7531 37.8309 7.37233 37.6623 7.00997 37.4909C6.96831 37.4705 6.92374 37.4511 6.88208 37.4308C6.55653 37.2738 6.25521 37.113 5.96649 36.9493C5.89866 36.9105 5.82697 36.8727 5.76108 36.833C5.51014 36.6857 5.28149 36.5355 5.06252 36.3844C4.9792 36.3263 4.89297 36.2681 4.81352 36.21C4.62846 36.0734 4.46278 35.9358 4.30389 35.7973C4.21766 35.7207 4.13046 35.6451 4.05198 35.5686C3.92215 35.4426 3.80782 35.3157 3.70027 35.1888C3.6247 35.0997 3.55203 35.0096 3.48809 34.9204C3.40283 34.8012 3.33016 34.6821 3.26428 34.5629C3.21196 34.467 3.16545 34.3711 3.12573 34.2751C3.07825 34.1579 3.04046 34.0407 3.01334 33.9244C2.97652 33.7674 2.93679 33.6095 2.93679 33.4545V25.5029C2.96392 25.5281 2.99783 25.5523 3.02593 25.5775C3.23715 25.7626 3.45224 25.9476 3.69446 26.1259C7.3452 28.8901 14.6438 31.0352 25.222 31.0352C35.7557 31.0352 43.0359 28.9075 46.7012 26.1637C46.9938 25.9505 47.2573 25.7306 47.5053 25.5068H47.5063V33.9418C47.5063 34.4776 47.9394 34.9107 48.4752 34.9107C49.011 34.9107 49.4441 34.4776 49.4441 33.9418V22.3153V21.8308V10.2043V9.71981C49.4441 9.54347 49.384 9.38748 49.3026 9.24506C48.1806 5.08856 39.8299 0.999878 25.222 0.999878C10.6142 0.999878 2.26342 5.08856 1.14243 9.24506C1.06007 9.38748 1 9.54347 1 9.71981V10.2043V21.8308V22.3153V33.4574V33.9418V45.5684C1 45.7244 1.04069 45.8717 1.11142 46.0025C2.21498 50.6851 11.4697 53.4435 20.305 54.1062C20.3292 54.1081 20.3544 54.1091 20.3786 54.1091C20.8814 54.1091 21.3058 53.7225 21.3436 53.2129C21.3833 52.679 20.9841 52.214 20.4503 52.1743C9.68215 51.3662 3.40767 48.0875 2.96877 45.4115C2.96102 45.3679 2.95036 45.3262 2.93776 45.2845V37.1324C2.96489 37.1576 2.9988 37.1818 3.0269 37.207C3.23812 37.392 3.45321 37.5771 3.69543 37.7554C7.3452 40.5167 14.6438 42.6618 25.222 42.6618C25.7578 42.6618 26.1909 42.2287 26.1909 41.6929C26.1909 41.1571 25.7578 40.724 25.222 40.724ZM3.52103 14.3675C3.81169 14.5962 4.12561 14.8219 4.46569 15.0419C4.53642 15.0874 4.61587 15.132 4.6895 15.1775C4.97435 15.3548 5.27567 15.5283 5.5925 15.6988C5.70973 15.7618 5.82697 15.8238 5.94808 15.8858C6.30172 16.066 6.6728 16.2404 7.06326 16.4109C7.12721 16.439 7.18534 16.4681 7.25025 16.4952C7.70466 16.688 8.18716 16.8721 8.68904 17.0494C8.82759 17.0988 8.97293 17.1453 9.11535 17.1938C9.51453 17.3284 9.92727 17.4573 10.3546 17.5823C10.5086 17.6269 10.6597 17.6734 10.8177 17.717C11.3845 17.8739 11.9697 18.0231 12.5839 18.1607C12.6682 18.1801 12.7593 18.1966 12.8446 18.215C13.3862 18.3332 13.9481 18.4426 14.5256 18.5444C14.7213 18.5793 14.9199 18.6122 15.1195 18.6451C15.6689 18.7353 16.2347 18.8186 16.8151 18.8941C16.9643 18.9135 17.1067 18.9348 17.2578 18.9542C17.9787 19.0414 18.7247 19.116 19.4911 19.18C19.68 19.1955 19.8767 19.2071 20.0686 19.2207C20.6819 19.2652 21.3087 19.302 21.9501 19.3311C22.1836 19.3418 22.4162 19.3524 22.6545 19.3602C23.4906 19.3892 24.3413 19.4086 25.222 19.4086C26.1027 19.4086 26.9544 19.3883 27.7896 19.3602C28.0269 19.3524 28.2595 19.3408 28.4939 19.3311C29.1353 19.302 29.7622 19.2652 30.3755 19.2207C30.5674 19.2061 30.7631 19.1955 30.953 19.18C31.7194 19.117 32.4654 19.0414 33.1862 18.9542C33.3374 18.9358 33.4798 18.9135 33.629 18.8941C34.2094 18.8186 34.7742 18.7353 35.3246 18.6451C35.5242 18.6122 35.7228 18.5793 35.9185 18.5444C36.4959 18.4426 37.0579 18.3332 37.5995 18.215C37.6848 18.1966 37.7758 18.1801 37.8601 18.1607C38.4744 18.0231 39.0596 17.8739 39.6264 17.717C39.7843 17.6734 39.9355 17.6278 40.0895 17.5823C40.5168 17.4583 40.9295 17.3284 41.3287 17.1938C41.4711 17.1453 41.6165 17.0988 41.755 17.0494C42.2569 16.8711 42.7404 16.687 43.1938 16.4952C43.2587 16.4681 43.3169 16.438 43.3808 16.4109C43.7713 16.2404 44.1424 16.066 44.496 15.8858C44.6171 15.8238 44.7353 15.7618 44.8516 15.6988C45.1684 15.5292 45.4697 15.3558 45.7546 15.1775C45.8282 15.132 45.9077 15.0874 45.9784 15.0419C46.3185 14.8219 46.6324 14.5972 46.923 14.3675C46.9957 14.3094 47.0606 14.2513 47.1314 14.1931C47.2573 14.0885 47.39 13.9848 47.5063 13.8792V21.8308C47.5063 21.9868 47.4666 22.1438 47.4298 22.3007C47.4026 22.418 47.3649 22.5342 47.3174 22.6515C47.2786 22.7474 47.2311 22.8433 47.1788 22.9392C47.1139 23.0584 47.0412 23.1776 46.955 23.2967C46.8911 23.3859 46.8184 23.476 46.7428 23.5651C46.6353 23.6921 46.521 23.819 46.3911 23.9449C46.3126 24.0215 46.2264 24.097 46.1392 24.1736C45.9803 24.3121 45.8146 24.4497 45.6296 24.5863C45.5501 24.6454 45.4649 24.7026 45.3806 24.7607C45.1616 24.9119 44.933 25.062 44.682 25.2093C44.6161 25.249 44.5454 25.2868 44.4766 25.3256C44.1879 25.4884 43.8866 25.6492 43.561 25.8071C43.5194 25.8275 43.4758 25.8468 43.4331 25.8672C43.0698 26.0387 42.69 26.2073 42.284 26.37C42.2724 26.3749 42.2608 26.3788 42.2492 26.3836C40.0488 27.2624 37.2342 28.0016 33.9546 28.4851C33.9381 28.487 33.9216 28.489 33.9052 28.4919C33.2676 28.5859 32.6136 28.6702 31.9422 28.7428C31.8327 28.7545 31.7174 28.7622 31.607 28.7738C31.0208 28.8349 30.4278 28.8911 29.8174 28.9356C29.5384 28.956 29.2458 28.9666 28.9619 28.9831C28.5027 29.0102 28.0483 29.0403 27.5774 29.0577C26.8081 29.0819 26.0233 29.0974 25.222 29.0974C24.4208 29.0974 23.636 29.0819 22.8657 29.0548C22.3948 29.0374 21.9404 29.0073 21.4812 28.9802C21.1973 28.9637 20.9047 28.9531 20.6257 28.9327C20.0153 28.8891 19.4223 28.832 18.8361 28.7709C18.7257 28.7593 18.6104 28.7515 18.5009 28.7399C17.8295 28.6663 17.1755 28.582 16.538 28.489C16.5215 28.487 16.505 28.4851 16.4885 28.4822C13.2089 27.9978 10.3943 27.2585 8.19394 26.3807C8.18232 26.3768 8.17069 26.372 8.15906 26.3671C7.7531 26.2044 7.37233 26.0358 7.00997 25.8643C6.96831 25.8439 6.92374 25.8246 6.88208 25.8042C6.55653 25.6473 6.25521 25.4864 5.96649 25.3227C5.89866 25.2839 5.82697 25.2461 5.76108 25.2064C5.51014 25.0591 5.28149 24.909 5.06252 24.7578C4.9792 24.6997 4.89297 24.6416 4.81352 24.5834C4.62846 24.4468 4.46278 24.3092 4.30389 24.1707C4.21766 24.0941 4.13046 24.0186 4.05198 23.942C3.92215 23.8161 3.80782 23.6891 3.70027 23.5622C3.6247 23.4731 3.55203 23.383 3.48809 23.2938C3.40283 23.1747 3.33016 23.0555 3.26428 22.9363C3.21196 22.8404 3.16545 22.7445 3.12573 22.6486C3.07825 22.5313 3.04046 22.4141 3.01334 22.2978C2.97652 22.1409 2.93679 21.9829 2.93679 21.8279V13.8763C3.05306 13.9819 3.1858 14.0856 3.31175 14.1902C3.38248 14.2513 3.44739 14.3094 3.52103 14.3675ZM25.222 2.93764C38.3552 2.93764 47.5063 6.76666 47.5063 10.2043C47.5063 13.6418 38.3552 17.4709 25.222 17.4709C12.0888 17.4709 2.93776 13.6418 2.93776 10.2043C2.93776 6.76666 12.0888 2.93764 25.222 2.93764Z" stroke="#14649C" stroke-width="0.2" mask="url(#path-1-outside-1)"/>
<path d="M50.7073 38.9803L39.6062 33.0651C39.4416 32.9772 39.2442 32.9784 39.0807 33.0682L28.2868 38.9834C28.1098 39.0805 28 39.2662 28 39.4682V47.195C28.0065 53.5466 31.7696 59.2929 37.5893 61.8375L39.0875 62.4904C39.2275 62.5515 39.387 62.5518 39.5273 62.491L41.2155 61.762C47.1431 59.2725 50.9994 53.4708 51 47.0417V39.4682C51 39.264 50.8874 39.0762 50.7073 38.9803V38.9803ZM49.8947 47.0417C49.8934 53.0276 46.3021 58.4287 40.7828 60.7451L40.7791 60.747L39.3089 61.3817L38.0315 60.8244C32.6144 58.4558 29.1112 53.1075 29.105 47.195V39.7954L39.35 34.1806L49.8947 39.7994V47.0417Z" fill="#14649C"/>
<path d="M35.2725 46.8367C35.0742 46.6045 34.7254 46.577 34.4932 46.7753C34.261 46.9733 34.2335 47.3225 34.4318 47.5544L37.3512 50.9731C37.5461 51.2013 37.8875 51.2324 38.12 51.0431L44.9192 45.5115C45.156 45.3191 45.1918 44.9709 44.999 44.734C44.8066 44.4975 44.4584 44.4614 44.2215 44.6541L37.8412 49.8446L35.2725 46.8367Z" fill="#14649C"/>
</svg>
