<svg width="22" height="23" viewBox="0 0 22 23" fill="none" xmlns="http://www.w3.org/2000/svg">
<path d="M0.604515 17.6331H0.723669L6.47229 16.3821C6.58426 16.3635 6.68802 16.3116 6.77011 16.2332L16.5099 6.49333C17.2214 5.78337 17.6184 4.81771 17.612 3.81266C17.6133 2.7998 17.2177 1.82678 16.5099 1.10217C15.8 0.390671 14.8344 -0.0062986 13.8292 0.00014367C12.8178 -0.0088071 11.8475 0.400819 11.1486 1.13199L1.43848 10.8718C1.35285 10.9407 1.29042 11.0343 1.25975 11.1399L0.00880453 16.8885C-0.0253452 17.0949 0.0410159 17.3051 0.187535 17.4544C0.29751 17.5666 0.447392 17.6309 0.604515 17.6331ZM13.8292 1.19157C15.2604 1.19145 16.4206 2.35157 16.4208 3.78273C16.4208 3.7927 16.4207 3.80268 16.4206 3.81266C16.4303 4.49446 16.1614 5.15071 15.676 5.62955L12.0124 1.93613C12.495 1.4565 13.1488 1.18854 13.8292 1.19157ZM11.1783 2.79997L14.8419 6.46357L6.35308 14.9226L2.68947 11.2888L11.1783 2.79997ZM2.21292 12.4803L5.16165 15.429L1.3789 16.263L2.21292 12.4803Z" fill="#14649C"/>
<path d="M20.9983 20.85H1.042C0.712988 20.85 0.446289 21.1167 0.446289 21.4457C0.446289 21.7748 0.712988 22.0415 1.042 22.0415H20.9983C21.3273 22.0415 21.594 21.7748 21.594 21.4457C21.594 21.1167 21.3273 20.85 20.9983 20.85Z" fill="#14649C"/>
</svg>
