<svg width="101" height="101" viewBox="0 0 101 101" fill="none" xmlns="http://www.w3.org/2000/svg">
<path d="M50.5 101C78.3904 101 101 78.3904 101 50.5C101 22.6096 78.3904 0 50.5 0C22.6096 0 0 22.6096 0 50.5C0 78.3904 22.6096 101 50.5 101Z" fill="#184274" fill-opacity="0.1"/>
<path d="M83.0637 78.2688C82.9488 78.4293 82.8333 78.5877 82.7178 78.7461C82.3883 78.9725 81.9976 79.0932 81.5978 79.092H19.9739C19.5917 79.0923 19.2175 78.9818 18.8968 78.7738C18.7903 78.6354 18.6851 78.4922 18.5786 78.3504L18.6851 78.2916L49.8845 60.9971C50.1615 60.8444 50.4726 60.7642 50.789 60.7642C51.1053 60.7642 51.4165 60.8444 51.6935 60.9971L82.962 78.2086L83.0637 78.2688Z" fill="#14649C"/>
<path d="M81.5983 41.9088L54.5608 26.2946C53.4236 25.6379 52.1336 25.2919 50.8204 25.2913C49.5072 25.2907 48.217 25.6355 47.0792 26.2911L19.9745 41.9088C19.4474 41.9095 18.9422 42.1192 18.5695 42.4919C18.1968 42.8646 17.9871 43.3699 17.9863 43.897V77.1059C17.9869 77.633 18.1965 78.1384 18.5693 78.5111C18.942 78.8839 19.4474 79.0935 19.9745 79.0941H81.5983C82.1254 79.0933 82.6307 78.8836 83.0034 78.5109C83.3761 78.1382 83.5858 77.633 83.5865 77.1059V43.897C83.5858 43.3699 83.3761 42.8646 83.0034 42.4919C82.6307 42.1192 82.1254 41.9095 81.5983 41.9088ZM83.3527 77.1059C83.3514 77.5707 83.1661 78.0161 82.8374 78.3448C82.5086 78.6734 82.0632 78.8585 81.5983 78.8596H19.9745C19.5097 78.8586 19.0642 78.6736 18.7355 78.3449C18.4068 78.0162 18.2217 77.5707 18.2208 77.1059V43.897C18.2216 43.4321 18.4066 42.9864 18.7353 42.6577C19.064 42.329 19.5096 42.144 19.9745 42.1433L47.0799 26.5256C48.2177 25.87 49.5079 25.5252 50.8211 25.5258C52.1343 25.5264 53.4243 25.8724 54.5615 26.5291L81.599 42.1433C82.064 42.1438 82.5098 42.3288 82.8387 42.6575C83.1675 42.9862 83.3526 43.432 83.3534 43.897L83.3527 77.1059Z" fill="#3F3D56"/>
<path d="M50.8218 60.6975C50.6181 60.6982 50.4157 60.6643 50.2234 60.5972L50.1881 60.5848L50.1812 60.5059L50.112 60.537L50.0885 60.5474L50.065 60.537C50.0159 60.5156 49.9667 60.4907 49.9197 60.4644L28.3936 48.3672V23.6672C28.3943 23.0937 28.6224 22.5439 29.028 22.1384C29.4335 21.7329 29.9833 21.5047 30.5568 21.504H71.0155C71.589 21.5047 72.1388 21.7329 72.5444 22.1384C72.9499 22.5439 73.178 23.0937 73.1788 23.6672V48.3991L73.149 48.4157L51.7211 60.4644C51.4462 60.6177 51.1365 60.6979 50.8218 60.6975Z" fill="white"/>
<path d="M50.8211 60.7563C50.6107 60.757 50.4018 60.7219 50.2033 60.6526L50.1341 60.6277V60.5945L50.0947 60.6118L50.0476 60.591C49.9964 60.5689 49.946 60.5433 49.8968 60.5156L28.3347 48.4011V23.6672C28.3353 23.0781 28.5695 22.5132 28.9861 22.0966C29.4027 21.68 29.9676 21.4458 30.5567 21.4452H71.0176C71.6067 21.4458 72.1716 21.68 72.5882 22.0966C73.0048 22.5132 73.239 23.0781 73.2396 23.6672V48.433L51.7515 60.5156C51.4671 60.6742 51.1467 60.7571 50.8211 60.7563ZM50.352 60.4547C50.7819 60.5782 51.2432 60.5267 51.6353 60.3115L73.0037 48.296V23.6686C73.0032 23.1415 72.7935 22.6361 72.4208 22.2633C72.048 21.8906 71.5426 21.681 71.0155 21.6804H30.5567C30.0296 21.681 29.5242 21.8906 29.1515 22.2633C28.7787 22.6361 28.5691 23.1415 28.5685 23.6686V48.2662L29.9708 49.0535L50.0075 60.3129C50.0347 60.3281 50.0624 60.3426 50.0905 60.3565C50.1187 60.3431 50.1463 60.3286 50.1735 60.3129L50.3313 60.2244L50.352 60.4547Z" fill="#3F3D56"/>
<path d="M83.0683 42.7714L74.5822 47.5447L73.1205 48.3665L51.6926 60.4153C51.4263 60.5637 51.1264 60.6413 50.8216 60.6408C50.6245 60.6415 50.4287 60.6087 50.2426 60.544C50.1908 60.5273 50.14 60.5077 50.0904 60.4852C50.0443 60.4639 49.9982 60.4409 49.9521 60.416L29.9153 49.1566L28.4536 48.3354L18.5238 42.7555C18.4967 42.74 18.4769 42.7144 18.4686 42.6844C18.4603 42.6543 18.4642 42.6222 18.4795 42.595C18.4947 42.5681 18.52 42.5483 18.5499 42.54C18.5797 42.5317 18.6116 42.5356 18.6386 42.5508L28.4543 48.0663L29.916 48.8875L50.0669 60.2112C50.1335 60.2487 50.2029 60.281 50.2744 60.3081C50.3049 60.3198 50.3367 60.3302 50.3678 60.3399C50.5679 60.4013 50.7784 60.4216 50.9866 60.3995C51.1948 60.3773 51.3963 60.3133 51.5791 60.2112L73.1219 48.0995L74.5857 47.2777L82.9562 42.5736C82.9696 42.5652 82.9846 42.5596 83.0002 42.5571C83.0158 42.5546 83.0318 42.5554 83.0471 42.5592C83.0624 42.5631 83.0768 42.5701 83.0894 42.5797C83.1019 42.5893 83.1124 42.6013 83.1202 42.6151C83.128 42.6288 83.1329 42.6441 83.1346 42.6598C83.1363 42.6755 83.1349 42.6914 83.1303 42.7066C83.1257 42.7217 83.1181 42.7357 83.1079 42.7478C83.0977 42.7599 83.0852 42.7698 83.0711 42.777L83.0683 42.7714Z" fill="#3F3D56"/>
<path d="M37.1722 29.16H33.898C33.7711 29.1669 33.6441 29.1478 33.5248 29.104C33.4055 29.0602 33.2963 28.9925 33.204 28.9051C33.1117 28.8177 33.0382 28.7124 32.988 28.5957C32.9378 28.4789 32.9119 28.3532 32.9119 28.226C32.9119 28.0989 32.9378 27.9732 32.988 27.8564C33.0382 27.7396 33.1117 27.6344 33.204 27.547C33.2963 27.4596 33.4055 27.3919 33.5248 27.3481C33.6441 27.3043 33.7711 27.2852 33.898 27.2921H37.1722C37.4111 27.3051 37.6359 27.4092 37.8004 27.5829C37.9649 27.7566 38.0566 27.9868 38.0566 28.226C38.0566 28.4653 37.9649 28.6954 37.8004 28.8692C37.6359 29.0429 37.4111 29.1469 37.1722 29.16Z" fill="#184274"/>
<path d="M41.031 32.3172H33.898C33.7711 32.3241 33.6441 32.3051 33.5248 32.2613C33.4055 32.2175 33.2963 32.1498 33.204 32.0624C33.1117 31.975 33.0382 31.8697 32.988 31.753C32.9378 31.6362 32.9119 31.5104 32.9119 31.3833C32.9119 31.2562 32.9378 31.1304 32.988 31.0137C33.0382 30.8969 33.1117 30.7916 33.204 30.7042C33.2963 30.6168 33.4055 30.5491 33.5248 30.5053C33.6441 30.4615 33.7711 30.4425 33.898 30.4494H41.031C41.2699 30.4624 41.4947 30.5665 41.6592 30.7402C41.8237 30.9139 41.9154 31.1441 41.9154 31.3833C41.9154 31.6226 41.8237 31.8527 41.6592 32.0264C41.4947 32.2002 41.2699 32.3042 41.031 32.3172Z" fill="#E6E6E6"/>
<path d="M48.8855 50.1576C48.4181 50.1586 47.9631 50.0075 47.589 49.7273L47.5655 49.71L42.6836 45.9744C42.4575 45.8011 42.2677 45.5851 42.1251 45.3385C41.9825 45.0919 41.8899 44.8196 41.8525 44.5372C41.8151 44.2548 41.8337 43.9678 41.9072 43.6926C41.9808 43.4174 42.1078 43.1594 42.281 42.9333C42.4543 42.7072 42.6703 42.5174 42.9169 42.3748C43.1635 42.2322 43.4358 42.1396 43.7182 42.1022C44.0006 42.0648 44.2876 42.0834 44.5628 42.1569C44.838 42.2304 45.096 42.3574 45.3221 42.5307L48.4842 44.9554L55.9554 35.2096C56.1288 34.9831 56.3451 34.7931 56.5919 34.6503C56.8388 34.5076 57.1114 34.4149 57.3941 34.3777C57.6769 34.3404 57.9642 34.3592 58.2396 34.4331C58.515 34.507 58.7732 34.6345 58.9993 34.8083L58.9529 34.8713L59.0006 34.809C59.4574 35.1596 59.7562 35.6771 59.8315 36.2479C59.9067 36.8187 59.7522 37.396 59.4019 37.8529L50.6121 49.3157C50.4083 49.5792 50.1465 49.7921 49.847 49.9381C49.5476 50.0841 49.2186 50.1592 48.8855 50.1576Z" fill="#14649C"/>
</svg>
