<svg width="24" height="18" viewBox="0 0 24 18" fill="none" xmlns="http://www.w3.org/2000/svg">
<path d="M14.828 6.17127C14.633 5.97627 14.316 5.97627 14.121 6.17127C13.926 6.36627 13.926 6.68427 14.121 6.87829C14.687 7.4443 15 8.1973 15 8.99929C15 10.6533 13.654 11.9993 12 11.9993C11.198 11.9993 10.445 11.6873 9.87902 11.1203C9.68402 10.9253 9.36701 10.9253 9.17201 11.1203C8.97701 11.3143 8.97701 11.6323 9.17201 11.8273C9.92599 12.5833 10.931 12.9993 12 12.9993C14.206 12.9993 16 11.2053 16 8.99933C16 7.93026 15.584 6.92526 14.828 6.17127Z" fill="#959596"/>
<path d="M12.697 5.06827C12.4699 5.02828 12.238 4.99927 12 4.99927C9.79399 4.99927 8 6.79326 8 8.99924C8 9.23723 8.02902 9.46926 8.06998 9.69623C8.11297 9.93824 8.324 10.1092 8.561 10.1092C8.59001 10.1092 8.61898 10.1072 8.64898 10.1012C8.91997 10.0532 9.10198 9.79321 9.05398 9.52223C9.023 9.35221 8.99998 9.17924 8.99998 8.99924C8.99998 7.34526 10.346 5.99925 12 5.99925C12.18 5.99925 12.353 6.02227 12.523 6.05227C12.789 6.10627 13.054 5.91825 13.102 5.64727C13.15 5.37628 12.968 5.11627 12.697 5.06827Z" fill="#959596"/>
<path d="M23.881 8.67626C23.768 8.54225 21.063 5.38527 17.332 3.45229C17.09 3.32531 16.785 3.42131 16.658 3.66731C16.531 3.91232 16.627 4.21429 16.873 4.34132C19.747 5.82932 22.043 8.15131 22.828 8.99932C21.636 10.2903 16.945 14.9993 12 14.9993C10.322 14.9993 8.63102 14.5943 6.97202 13.7943C6.72602 13.6733 6.42504 13.7783 6.30504 14.0273C6.18405 14.2753 6.28905 14.5743 6.53805 14.6943C8.33304 15.5613 10.171 15.9993 12.0001 15.9993C18.1611 15.9993 23.6511 9.59529 23.8821 9.32229C24.04 9.13625 24.039 8.86325 23.881 8.67626Z" fill="#959596"/>
<path d="M15.2811 2.57527C14.1431 2.19225 13.0391 1.99927 12 1.99927C5.83904 1.99927 0.349052 8.40327 0.118052 8.67627C-0.0279632 8.84825 -0.0399632 9.09829 0.0900678 9.28527C0.159068 9.38427 1.81206 11.7312 4.67706 13.6343C4.76204 13.6913 4.85706 13.7183 4.95306 13.7183C5.11407 13.7183 5.27307 13.6403 5.36907 13.4933C5.52207 13.2643 5.45907 12.9533 5.22906 12.8013C3.12508 11.4023 1.68508 9.71328 1.14607 9.02629C2.29708 7.77627 7.01907 2.9993 12 2.9993C12.931 2.9993 13.9281 3.17531 14.962 3.52228C15.224 3.61626 15.508 3.47128 15.595 3.20827C15.6831 2.94628 15.543 2.6633 15.2811 2.57527Z" fill="#959596"/>
<path d="M20.8531 0.14625C20.6581 -0.0487499 20.3411 -0.0487499 20.1461 0.14625L3.14613 17.1462C2.95113 17.3412 2.95113 17.6582 3.14613 17.8532C3.24414 17.9502 3.37211 17.9993 3.50013 17.9993C3.62814 17.9993 3.75611 17.9503 3.85314 17.8532L20.8531 0.853264C21.0481 0.658264 21.0481 0.341249 20.8531 0.14625Z" fill="#959596"/>
</svg>
