<svg width="22" height="15" viewBox="0 0 22 15" fill="none" xmlns="http://www.w3.org/2000/svg">
<path d="M21.8602 6.58309C21.6637 6.31423 16.9808 0 10.9999 0C5.01902 0 0.335931 6.31423 0.139606 6.58283C-0.0465353 6.8379 -0.0465353 7.18384 0.139606 7.4389C0.335931 7.70776 5.01902 14.022 10.9999 14.022C16.9808 14.022 21.6637 7.70772 21.8602 7.43912C22.0466 7.1841 22.0466 6.83789 21.8602 6.58309ZM10.9999 12.5714C6.59435 12.5714 2.77867 8.38056 1.64915 7.0105C2.77721 5.63924 6.58489 1.45054 10.9999 1.45054C15.4052 1.45054 19.2207 5.6407 20.3507 7.01149C19.2226 8.38271 15.4149 12.5714 10.9999 12.5714Z" fill="#14649C"/>
<path d="M11.0001 2.65935C8.60064 2.65935 6.64844 4.61155 6.64844 7.01102C6.64844 9.41049 8.60064 11.3627 11.0001 11.3627C13.3996 11.3627 15.3518 9.41049 15.3518 7.01102C15.3518 4.61155 13.3996 2.65935 11.0001 2.65935ZM11.0001 9.91211C9.40038 9.91211 8.09902 8.61071 8.09902 7.01102C8.09902 5.41133 9.40042 4.10993 11.0001 4.10993C12.5998 4.10993 13.9012 5.41133 13.9012 7.01102C13.9012 8.61071 12.5998 9.91211 11.0001 9.91211Z" fill="#14649C"/>
</svg>
