<svg width="22" height="21" viewBox="0 0 22 21" fill="none" xmlns="http://www.w3.org/2000/svg">
<path fill-rule="evenodd" clip-rule="evenodd" d="M10.958 20.9999L10.9678 21H10.9644L10.958 20.9999ZM11.0356 21H11.0322L11.042 20.9999L11.0356 21ZM10.9244 20.9998L10.935 20.9998H10.9289L10.9244 20.9998ZM11.0711 20.9998H11.065L11.0756 20.9998L11.0711 20.9998ZM10.892 20.9995L10.8991 20.9995L10.8934 20.9995H10.892ZM11.1066 20.9995L11.1009 20.9995L11.108 20.9995H11.1066ZM11.1421 20.9991L11.1396 20.9992L11.1492 20.9991L11.1421 20.9991ZM10.8508 20.9991L10.8604 20.9992L10.8579 20.9991L10.8508 20.9991ZM11.1775 20.9986L11.1717 20.9987L11.1836 20.9986L11.1775 20.9986ZM10.8164 20.9986L10.8283 20.9987L10.8225 20.9986L10.8164 20.9986ZM11.213 20.9981L11.2051 20.9982L11.216 20.998L11.213 20.9981ZM10.784 20.998L10.7949 20.9982L10.787 20.9981L10.784 20.998ZM10.7437 20.9972L10.7534 20.9974L10.7516 20.9974L10.7437 20.9972ZM11.2484 20.9974L11.2466 20.9974L11.2563 20.9972L11.2484 20.9974ZM10.7084 20.9963L10.7216 20.9967L10.7163 20.9966L10.7084 20.9963ZM11.2837 20.9966L11.2784 20.9967L11.2916 20.9963L11.2837 20.9966ZM11.3191 20.9957L11.3104 20.9959L11.324 20.9955L11.3191 20.9957ZM10.676 20.9955L10.6896 20.9959L10.6809 20.9957L10.676 20.9955ZM10.645 20.9946L10.6547 20.9949L10.6456 20.9946L10.6373 20.9944L10.645 20.9946ZM11.3544 20.9946L11.3453 20.9949L11.355 20.9946L11.3627 20.9944L11.3544 20.9946ZM11.3897 20.9935L11.3849 20.9937L11.3997 20.9932L11.3897 20.9935ZM10.6003 20.9932L10.6151 20.9937L10.6103 20.9935L10.6003 20.9932ZM10.5681 20.992L10.5837 20.9926L10.575 20.9923L10.5681 20.992ZM11.425 20.9923L11.4163 20.9926L11.4319 20.992L11.425 20.9923ZM10.5365 20.9908L10.5518 20.9914L10.5398 20.991L10.5365 20.9908ZM11.4602 20.991L11.4482 20.9914L11.4635 20.9908L11.4602 20.991ZM10.4923 20.989L10.5086 20.9897L10.5046 20.9895L10.4923 20.989ZM11.4954 20.9895L11.4914 20.9897L11.5077 20.989L11.4954 20.9895ZM10.4605 20.9876L10.4775 20.9883L10.4695 20.988L10.4605 20.9876ZM11.5305 20.988L11.5225 20.9883L11.5395 20.9876L11.5305 20.988ZM10.4292 20.9861L10.4463 20.9869L10.4343 20.9863L10.4292 20.9861ZM11.5657 20.9863L11.5537 20.9869L11.5708 20.9861L11.5657 20.9863ZM11.6008 20.9846L11.5853 20.9854L11.5991 20.9847L11.6153 20.9838L11.6008 20.9846ZM10.4009 20.9847L10.4147 20.9854L10.3992 20.9846L10.3847 20.9838L10.4009 20.9847ZM11.6359 20.9827L11.629 20.9831L11.6465 20.9821L11.6359 20.9827ZM10.3535 20.9821L10.371 20.9831L10.3641 20.9827L10.3535 20.9821ZM10.3225 20.9804L10.3399 20.9813L10.329 20.9808L10.3225 20.9804ZM11.671 20.9808L11.6601 20.9813L11.6775 20.9804L11.671 20.9808ZM10.2929 20.9786L10.3086 20.9795L10.294 20.9787L10.2793 20.9778L10.2929 20.9786ZM11.706 20.9787L11.6914 20.9795L11.7071 20.9786L11.7207 20.9778L11.706 20.9787ZM11.741 20.9765L11.7358 20.9768L11.7524 20.9758L11.741 20.9765ZM10.2476 20.9758L10.2642 20.9768L10.259 20.9765L10.2476 20.9758ZM10.2166 20.9737L10.233 20.9748L10.224 20.9742L10.2166 20.9737ZM11.776 20.9742L11.767 20.9748L11.7834 20.9737L11.776 20.9742ZM10.1857 20.9716L10.2007 20.9726L10.1891 20.9719L10.1857 20.9716ZM11.8109 20.9719L11.7993 20.9726L11.8143 20.9716L11.8109 20.9719ZM10.1442 20.9686L10.1573 20.9696L10.1542 20.9694L10.1442 20.9686ZM11.8458 20.9694L11.8427 20.9696L11.8558 20.9686L11.8458 20.9694ZM11.8807 20.9668L11.8744 20.9672L11.8878 20.9662L11.8807 20.9668ZM10.1122 20.9662L10.1256 20.9672L10.1193 20.9668L10.1122 20.9662ZM10.0811 20.9638L10.0924 20.9647L10.0844 20.9641L10.0811 20.9638ZM11.9156 20.9641L11.9076 20.9647L11.9189 20.9638L11.9156 20.9641ZM10.0468 20.961L10.0502 20.9613L10.0496 20.9613L10.0468 20.961ZM11.9504 20.9613L11.9498 20.9613L11.9532 20.961L11.9504 20.9613ZM11.9852 20.9584L11.9821 20.9586L11.9899 20.958L11.9852 20.9584ZM10.0101 20.958L10.0179 20.9586L10.0148 20.9584L10.0101 20.958ZM9.9779 20.9552L9.9837 20.9557L9.98009 20.9554L9.9779 20.9552ZM12.0199 20.9554L12.0163 20.9557L12.0221 20.9552L12.0199 20.9554ZM9.28125 20.8723C4.02536 20.0838 0 15.737 0 10.5C0 4.7049 4.92895 0 11 0C17.0711 0 22 4.7049 22 10.5C22 15.737 17.9746 20.0838 12.7188 20.8723V13.5352H15.2818L15.7695 10.5H12.7188V8.53039C12.7188 7.70003 13.1449 6.89062 14.5114 6.89062H15.8984V4.30664C15.8984 4.30664 14.6396 4.10156 13.4361 4.10156C10.9235 4.10156 9.28125 5.55516 9.28125 8.18672V10.5H6.48828V13.5352H9.28125V20.8723Z" fill="white"/>
</svg>
