<svg width="268" height="181" viewBox="0 0 268 181" fill="none" xmlns="http://www.w3.org/2000/svg">
<path d="M244.664 63.3298C244.384 63.5604 244.103 63.781 243.815 63.9983H172.899C172.371 63.781 171.845 63.5582 171.321 63.3298C163.835 60.0716 156.866 55.7332 150.639 50.4529C146.503 46.9495 142.699 43.3325 139.941 39.9428C136.094 35.2126 132.55 30.0578 130.902 24.1843C129.257 18.3109 129.749 11.5783 133.423 6.70764C134.56 5.20937 135.959 3.92859 137.551 2.92681C137.815 2.75967 138.083 2.59921 138.357 2.44878C142.763 -0.0249695 148.322 -0.626696 153.283 0.653637C160.387 2.48889 166.29 7.61357 170.502 13.6241C174.714 19.6313 177.449 26.5311 180.143 33.3539C182.878 21.1757 191.158 10.2678 202.343 4.72195C213.525 -0.823928 227.419 -0.757069 238.363 5.25013C241.807 7.15171 244.917 9.60186 247.573 12.5042C247.837 12.7884 248.094 13.0792 248.348 13.3734C253.687 19.5544 257.027 27.4704 257.301 35.6338C257.652 46.1506 252.778 56.7141 244.664 63.3298Z" fill="#F2F2F2"/>
<path d="M175.734 63.9984H174.731C174.718 63.7744 174.701 63.5537 174.681 63.3298C174.331 58.9571 173.597 54.6237 172.488 50.3793C169.945 40.6896 165.6 31.5651 159.681 23.4823C153.78 15.3738 146.34 8.50615 137.785 3.27114C137.723 3.23528 137.669 3.18564 137.629 3.12598C137.588 3.06632 137.562 2.99821 137.551 2.92682C137.535 2.83347 137.546 2.73739 137.582 2.64977C137.618 2.56216 137.678 2.48663 137.756 2.43197C137.833 2.37732 137.924 2.34579 138.019 2.34107C138.114 2.33636 138.208 2.35864 138.29 2.40532C138.313 2.41862 138.336 2.43313 138.357 2.44878C143.203 5.40275 147.702 8.89239 151.769 12.8519C159.043 19.9476 164.908 28.3559 169.055 37.6329C172.713 45.7577 174.954 54.4488 175.681 63.3298C175.701 63.5537 175.717 63.7777 175.734 63.9984Z" fill="white"/>
<path d="M248.349 13.3734C248.342 13.3771 248.334 13.3794 248.326 13.3801C247.594 13.5138 246.858 13.6542 246.129 13.8046C240.147 15.0332 234.291 16.8113 228.636 19.1165C222.995 21.4184 217.57 24.2151 212.423 27.4738C207.269 30.7308 202.409 34.4309 197.898 38.5321C193.387 42.6274 189.249 47.1156 185.532 51.9438C182.755 55.5613 180.229 59.3656 177.974 63.3298C177.847 63.5504 177.723 63.7744 177.6 63.9983H176.453C176.573 63.7744 176.697 63.5504 176.824 63.3298C179.553 58.4725 182.681 53.8511 186.178 49.5135C190.044 44.7131 194.33 40.2662 198.984 36.2255C203.609 32.2075 208.573 28.5971 213.82 25.4346C219.089 22.2593 224.629 19.5566 230.374 17.3581C235.95 15.2266 241.706 13.6021 247.573 12.5042C247.737 12.4741 247.898 12.4441 248.061 12.414C248.686 12.3003 248.954 13.243 248.349 13.3734Z" fill="white"/>
<path d="M66.0821 65.9857C67.8654 62.6191 68.1598 58.2344 65.9423 55.1365C64.6223 53.2925 62.5613 52.082 60.3987 51.3993C58.2362 50.7165 55.9548 50.5158 53.6931 50.3499C51.4543 50.1857 49.1756 50.0542 46.9885 50.5605C44.8015 51.0669 42.6831 52.304 41.6177 54.2799C39.8179 57.618 41.4574 61.8982 40.1355 65.4527C38.9223 68.7146 35.4697 70.6217 32.0756 71.3913C28.6816 72.1608 25.139 72.0789 21.7433 72.8411C18.3475 73.6032 14.8891 75.4925 13.6545 78.7464C12.7617 81.0994 13.2053 83.8097 14.3817 86.0344C15.5582 88.2592 17.4006 90.0603 19.3564 91.6442C22.274 94.0071 25.6874 96.0308 29.4362 96.2356C33.3863 96.4514 37.2486 94.5711 40.0917 91.8203C42.9347 89.0695 44.8703 85.5148 46.4167 81.8736C47.3977 79.5637 48.3246 77.0777 50.2906 75.5178C51.7352 74.3716 53.5726 73.8695 55.3544 73.3945L57.3721 72.8567C59.2005 72.3783 60.9116 71.5309 62.4003 70.3666C63.8889 69.2023 65.1236 67.7456 66.0283 66.0864C66.0463 66.0529 66.0642 66.0193 66.0821 65.9857Z" fill="#2F2E41"/>
<path d="M50.1701 176.728H46.072L44.1221 160.92H50.1711L50.1701 176.728Z" fill="#FFB8B8"/>
<path d="M43.1435 175.557H51.0475V180.533H38.167C38.167 179.88 38.2957 179.232 38.5458 178.629C38.7959 178.025 39.1625 177.476 39.6246 177.014C40.0867 176.552 40.6353 176.185 41.2391 175.935C41.8429 175.685 42.49 175.557 43.1435 175.557Z" fill="#2F2E41"/>
<path d="M84.2677 176.728H80.1696L78.2197 160.92H84.2687L84.2677 176.728Z" fill="#FFB8B8"/>
<path d="M77.2422 175.557H85.1461V180.533H72.2656C72.2656 179.88 72.3943 179.232 72.6444 178.629C72.8945 178.025 73.2611 177.476 73.7232 177.014C74.1853 176.552 74.7339 176.185 75.3377 175.935C75.9415 175.685 76.5886 175.557 77.2422 175.557Z" fill="#2F2E41"/>
<path d="M58.0475 164.163C57.9903 164.163 57.9332 164.16 57.8763 164.154L41.2028 162.368C40.9813 162.344 40.7675 162.273 40.5755 162.161C40.3834 162.048 40.2177 161.895 40.0891 161.713C39.9606 161.531 39.8723 161.324 39.8302 161.106C39.788 160.887 39.7928 160.662 39.8445 160.445L54.6076 104.294C54.6767 104.009 54.8243 103.748 55.0337 103.542C55.2431 103.335 55.506 103.192 55.7927 103.127L69.488 99.3091C69.7626 99.2488 70.0483 99.263 70.3156 99.3501C70.5829 99.4372 70.8221 99.5941 71.0085 99.8046C79.8138 109.736 86.4495 131.753 91.4761 159.504C91.514 159.713 91.5089 159.928 91.4611 160.136C91.4133 160.343 91.3238 160.539 91.198 160.71C91.0722 160.882 90.9128 161.026 90.7295 161.134C90.5462 161.242 90.3428 161.312 90.1317 161.339L76.47 163.083C76.0825 163.134 75.6901 163.037 75.3702 162.813C75.0503 162.588 74.826 162.252 74.7414 161.871L68.0945 132.237C68.0334 131.964 67.8804 131.72 67.6612 131.547C67.442 131.374 67.1698 131.281 66.8903 131.284C66.6108 131.287 66.3409 131.386 66.1258 131.565C65.9106 131.743 65.7633 131.99 65.7085 132.264L59.5809 162.902C59.5115 163.258 59.3205 163.578 59.0407 163.808C58.7609 164.038 58.4097 164.164 58.0475 164.163Z" fill="#2F2E41"/>
<path d="M55.5123 73.6961C60.0468 73.6961 63.7228 70.0201 63.7228 65.4855C63.7228 60.951 60.0468 57.275 55.5123 57.275C50.9777 57.275 47.3018 60.951 47.3018 65.4855C47.3018 70.0201 50.9777 73.6961 55.5123 73.6961Z" fill="#FFB8B8"/>
<path d="M55.2818 104.452C54.9367 104.452 54.6013 104.337 54.3279 104.127C54.0545 103.916 53.8585 103.621 53.7704 103.287L48.831 84.7308C48.4745 83.3974 48.6221 81.9794 49.2456 80.748C49.8692 79.5167 50.9249 78.5585 52.2107 78.0568C56.1867 76.5048 59.9748 75.929 63.4697 76.3448C66.5759 76.715 70.4077 95.1046 70.1542 95.497L71.38 99.1741C71.4495 99.3826 71.4744 99.6034 71.4531 99.8222C71.4317 100.041 71.3646 100.253 71.2561 100.444C71.1476 100.635 71.0002 100.801 70.8233 100.932C70.6464 101.062 70.444 101.154 70.2293 101.201L55.6225 104.415C55.5106 104.44 55.3964 104.452 55.2818 104.452Z" fill="#CCCCCC"/>
<path d="M59.7086 123.429C59.779 123.064 59.7684 122.687 59.6777 122.327C59.5869 121.966 59.4182 121.63 59.1833 121.341C58.9485 121.053 58.6533 120.819 58.3185 120.657C57.9837 120.495 57.6174 120.409 57.2456 120.404L54.3998 111.822L51.4912 115.512L54.6395 123.095C54.6723 123.72 54.9334 124.312 55.3732 124.758C55.813 125.204 56.4011 125.472 57.0259 125.514C57.6507 125.555 58.2689 125.365 58.7634 124.981C59.2578 124.597 59.5942 124.044 59.7086 123.429Z" fill="#FFB8B8"/>
<path d="M96.2953 102.806C96.125 102.475 95.8842 102.186 95.5899 101.958C95.2957 101.731 94.9551 101.571 94.5923 101.489C94.2294 101.407 93.8531 101.406 93.4898 101.486C93.1264 101.565 92.785 101.724 92.4894 101.949L84.9493 96.9611L84.9424 101.659L92.1037 105.676C92.5159 106.147 93.0867 106.451 93.7079 106.53C94.3292 106.608 94.9577 106.456 95.4743 106.103C95.991 105.749 96.36 105.218 96.5113 104.61C96.6626 104.002 96.5857 103.36 96.2953 102.806H96.2953Z" fill="#FFB8B8"/>
<path d="M53.743 119.464C53.4132 119.464 53.0918 119.36 52.8245 119.167C52.5572 118.974 52.3576 118.702 52.254 118.389L45.5827 104.276C45.3091 103.449 45.1697 102.583 45.1699 101.712L47.1757 83.3693C47.1756 82.3423 47.5675 81.354 48.2714 80.6061C48.9752 79.8582 49.938 79.4072 50.9631 79.3451C51.9882 79.283 52.9984 79.6145 53.7874 80.272C54.5764 80.9294 55.0848 81.8632 55.2086 82.8827L52.1399 103.82L57.0369 116.67C57.1144 117.012 57.0748 117.37 56.9246 117.686C56.7744 118.003 56.5222 118.26 56.2084 118.416L54.444 119.299C54.2263 119.408 53.9863 119.464 53.743 119.464Z" fill="#CCCCCC"/>
<path d="M89.3729 104.658C89.1273 104.659 88.8851 104.601 88.6659 104.49L75.3987 97.7885C74.6209 97.396 73.9111 96.8813 73.2964 96.264L60.347 83.2727C59.622 82.5454 59.2019 81.5687 59.1725 80.5422C59.1432 79.5156 59.5067 78.5166 60.189 77.749C60.8712 76.9814 61.8207 76.5031 62.8436 76.4117C63.8665 76.3204 64.8856 76.6229 65.6931 77.2575L79.7207 92.8364L90.8402 99.8966C91.1365 100.084 91.3612 100.365 91.4784 100.696C91.5956 101.026 91.5984 101.386 91.4864 101.718L90.8596 103.589C90.7551 103.901 90.5553 104.171 90.2886 104.363C90.0218 104.555 89.7015 104.658 89.3729 104.658L89.3729 104.658Z" fill="#CCCCCC"/>
<path d="M46.1729 61.2405C47.5675 63.065 49.5724 64.3266 51.8207 64.7945C54.0997 65.2654 56.4716 64.9256 58.5266 63.8337C60.1802 62.9402 61.5035 61.5992 62.7995 60.279C63.3404 59.7281 63.9165 59.0926 63.8893 58.341C63.8472 57.1764 62.4471 56.5398 61.2455 56.2858C57.3014 55.463 53.1974 55.9245 49.5344 57.6028C47.9031 58.3606 46.2034 59.7315 46.4484 61.4357" fill="#2F2E41"/>
<path d="M261.789 63.3297H100.661C99.1549 63.3319 97.7107 63.9313 96.6454 64.9966C95.5801 66.0619 94.9806 67.5061 94.9785 69.0127V131.191C94.9806 132.697 95.5801 134.142 96.6454 135.207C97.7107 136.272 99.1549 136.872 100.661 136.874H261.789C263.296 136.872 264.74 136.272 265.806 135.207C266.871 134.142 267.47 132.697 267.472 131.191V69.0127C267.47 67.5061 266.871 66.0619 265.806 64.9966C264.74 63.9313 263.296 63.3319 261.789 63.3297ZM266.804 131.191C266.802 132.52 266.273 133.795 265.333 134.735C264.393 135.675 263.119 136.203 261.789 136.205H100.661C99.3321 136.203 98.0576 135.675 97.1176 134.735C96.1775 133.795 95.6487 132.52 95.6471 131.191V69.0127C95.6487 67.6833 96.1775 66.4088 97.1176 65.4688C98.0576 64.5288 99.3321 63.9999 100.661 63.9983H261.789C263.119 63.9999 264.393 64.5288 265.333 65.4688C266.273 66.4088 266.802 67.6833 266.804 69.0127V131.191Z" fill="#3F3D56"/>
<path d="M129.917 119.491C126.082 119.491 122.334 118.353 119.145 116.223C115.957 114.092 113.472 111.064 112.004 107.521C110.537 103.979 110.153 100.08 110.901 96.3191C111.649 92.558 113.496 89.1033 116.207 86.3917C118.919 83.6801 122.374 81.8335 126.135 81.0854C129.896 80.3373 133.794 80.7212 137.337 82.1887C140.88 83.6562 143.908 86.1413 146.038 89.3298C148.169 92.5183 149.306 96.2669 149.306 100.102C149.3 105.242 147.256 110.17 143.621 113.805C139.986 117.44 135.058 119.485 129.917 119.491ZM129.917 81.3814C126.215 81.3814 122.595 82.4793 119.517 84.5364C116.438 86.5934 114.039 89.5171 112.622 92.9378C111.205 96.3584 110.834 100.122 111.557 103.754C112.279 107.385 114.062 110.721 116.68 113.339C119.298 115.957 122.634 117.74 126.265 118.462C129.896 119.185 133.66 118.814 137.081 117.397C140.502 115.98 143.426 113.581 145.483 110.502C147.54 107.424 148.637 103.804 148.637 100.102C148.632 95.1385 146.658 90.3802 143.148 86.8707C139.639 83.3612 134.88 81.387 129.917 81.3814Z" fill="#3F3D56"/>
<path d="M247.411 87.733H170.19C169.11 87.7336 168.073 88.152 167.295 88.9004C166.518 89.6488 166.06 90.6692 166.018 91.7478C166.012 91.8022 166.01 91.8569 166.011 91.9116C166.013 93.0194 166.453 94.0813 167.237 94.8646C168.02 95.6479 169.082 96.0887 170.19 96.0902H247.411C248.519 96.0902 249.582 95.65 250.365 94.8663C251.149 94.0827 251.589 93.0198 251.589 91.9116C251.589 90.8034 251.149 89.7405 250.365 88.9569C249.582 88.1732 248.519 87.733 247.411 87.733Z" fill="#14649C"/>
<path d="M247.411 104.113H170.19C169.11 104.114 168.073 104.532 167.295 105.281C166.518 106.029 166.06 107.049 166.018 108.128C166.012 108.182 166.01 108.237 166.011 108.292C166.013 109.4 166.453 110.462 167.237 111.245C168.02 112.028 169.082 112.469 170.19 112.47H247.411C248.519 112.47 249.582 112.03 250.365 111.247C251.149 110.463 251.589 109.4 251.589 108.292C251.589 107.184 251.149 106.121 250.365 105.337C249.582 104.553 248.519 104.113 247.411 104.113Z" fill="#14649C"/>
<path d="M127.755 108.573C127.214 108.574 126.687 108.399 126.254 108.075L126.227 108.055L120.576 103.728C120.315 103.528 120.095 103.278 119.93 102.992C119.765 102.707 119.658 102.392 119.614 102.065C119.571 101.738 119.593 101.406 119.678 101.087C119.763 100.769 119.91 100.47 120.11 100.208C120.311 99.9467 120.561 99.7271 120.847 99.562C121.132 99.397 121.447 99.2898 121.774 99.2465C122.101 99.2032 122.433 99.2248 122.751 99.3099C123.07 99.395 123.369 99.542 123.63 99.7425L127.29 102.549L135.94 91.2687C136.141 91.0071 136.391 90.7875 136.676 90.6226C136.962 90.4576 137.277 90.3505 137.604 90.3074C137.931 90.2642 138.263 90.2859 138.581 90.3711C138.9 90.4564 139.198 90.6035 139.46 90.8041L139.406 90.8771L139.461 90.8051C139.989 91.2108 140.334 91.8091 140.421 92.469C140.509 93.1289 140.33 93.7964 139.926 94.3251L129.752 107.593C129.517 107.899 129.214 108.147 128.868 108.317C128.521 108.486 128.14 108.574 127.755 108.573Z" fill="#14649C"/>
<path d="M127.699 181H0.334291C0.245631 181 0.160603 180.965 0.0979112 180.902C0.0352195 180.839 0 180.754 0 180.666C0 180.577 0.0352195 180.492 0.0979112 180.429C0.160603 180.367 0.245631 180.331 0.334291 180.331H127.699C127.788 180.331 127.873 180.367 127.935 180.429C127.998 180.492 128.033 180.577 128.033 180.666C128.033 180.754 127.998 180.839 127.935 180.902C127.873 180.965 127.788 181 127.699 181Z" fill="#3F3D56"/>
<path d="M228.406 48.2698C221.423 47.3092 214.331 47.4691 207.398 48.7434C200.485 50.0072 193.811 52.3405 187.617 55.6594C184.136 57.5299 180.832 59.7128 177.746 62.1812C177.241 62.5839 177.955 63.2894 178.455 62.8903C183.87 58.5826 189.94 55.1702 196.435 52.7828C202.879 50.3997 209.651 49.0257 216.514 48.7095C220.397 48.5311 224.289 48.7076 228.14 49.2368C228.268 49.2675 228.403 49.2484 228.517 49.1834C228.632 49.1184 228.717 49.0123 228.757 48.8866C228.791 48.7584 228.774 48.6217 228.708 48.5062C228.643 48.3908 228.534 48.3058 228.406 48.2698H228.406Z" fill="white"/>
</svg>
