<svg width="44" height="44" viewBox="0 0 44 44" fill="none" xmlns="http://www.w3.org/2000/svg">
<path d="M21.1607 42.7799L21.1609 42.7801C21.3365 42.9539 21.5732 43.05 21.8156 43.05C21.8746 43.05 21.9355 43.0445 21.9946 43.0334L21.9952 43.0333L28.1817 41.796L28.1819 41.796C28.3626 41.7591 28.5273 41.6723 28.6554 41.5425C28.6554 41.5424 28.6555 41.5424 28.6556 41.5423L42.2675 27.9304C43.3108 26.887 43.3108 25.191 42.2675 24.1477L39.7929 21.6731C38.7513 20.6315 37.0518 20.6315 36.0102 21.6731L22.3985 35.2848C22.3984 35.2849 22.3984 35.2849 22.3983 35.285C22.2663 35.4134 22.1814 35.5783 22.1446 35.7587L22.1446 35.7589L20.9073 41.9453C20.8462 42.2472 20.9425 42.5617 21.1607 42.7799ZM27.547 40.0348L22.9959 40.9447L23.9058 36.3936L37.32 22.9794C37.6417 22.6576 38.1649 22.6576 38.4866 22.9794L40.9612 25.454C41.283 25.7757 41.283 26.2988 40.9612 26.6206L27.547 40.0348Z" fill="#CFD0D1" stroke="#CFD0D1" stroke-width="0.1"/>
<path d="M5.37523 37.7997H17.6259C18.1365 37.7997 18.5509 37.3853 18.5509 36.8746C18.5509 36.364 18.1365 35.9496 17.6259 35.9496H5.37523C3.95552 35.9496 2.80009 34.7942 2.80009 33.3745V10.6233C2.80009 9.20356 3.95552 8.04814 5.37523 8.04814H8.87541C9.38605 8.04814 9.80045 7.63373 9.80045 7.12309C9.80045 6.61245 9.38605 6.19805 8.87541 6.19805H5.37523C2.93424 6.19805 0.95 8.18228 0.95 10.6233V33.3745C0.95 35.8154 2.93424 37.7997 5.37523 37.7997Z" fill="#CFD0D1" stroke="#CFD0D1" stroke-width="0.1"/>
<path d="M28.9514 21.1238C28.9514 21.6345 29.3658 22.0489 29.8765 22.0489C30.3871 22.0489 30.8015 21.6345 30.8015 21.1238V10.6233C30.8015 8.18228 28.8173 6.19805 26.3763 6.19805H22.8761C22.3655 6.19805 21.9511 6.61245 21.9511 7.12309C21.9511 7.63373 22.3655 8.04814 22.8761 8.04814H26.3763C27.796 8.04814 28.9514 9.20356 28.9514 10.6233V21.1238Z" fill="#CFD0D1" stroke="#CFD0D1" stroke-width="0.1"/>
<path d="M10.6255 11.5483H21.126C22.601 11.5483 23.8012 10.3482 23.8012 8.87321V5.37303C23.8012 4.86239 23.3868 4.44798 22.8761 4.44798H20.2042C19.7781 2.44999 17.9982 0.947803 15.8758 0.947803C13.7533 0.947803 11.9734 2.44999 11.5474 4.44798H8.87541C8.36477 4.44798 7.95037 4.86239 7.95037 5.37303V8.87321C7.95037 10.3482 9.15056 11.5483 10.6255 11.5483ZM9.80046 8.87321V6.29807H12.3756C12.8862 6.29807 13.3006 5.88367 13.3006 5.37303C13.3006 3.95332 14.4561 2.79789 15.8758 2.79789C17.2955 2.79789 18.4509 3.95332 18.4509 5.37303C18.4509 5.88367 18.8653 6.29807 19.376 6.29807H21.9511V8.87321C21.9511 9.32687 21.5797 9.69826 21.126 9.69826H10.6255C10.1718 9.69826 9.80046 9.32687 9.80046 8.87321Z" fill="#CFD0D1" stroke="#CFD0D1" stroke-width="0.1"/>
<path d="M7.12532 16.7986H24.6262C25.1369 16.7986 25.5513 16.3842 25.5513 15.8736C25.5513 15.3629 25.1369 14.9485 24.6262 14.9485H7.12532C6.61468 14.9485 6.20027 15.3629 6.20027 15.8736C6.20027 16.3842 6.61468 16.7986 7.12532 16.7986Z" fill="#CFD0D1" stroke="#CFD0D1" stroke-width="0.1"/>
<path d="M7.12532 22.049H24.6262C25.1369 22.049 25.5513 21.6346 25.5513 21.1239C25.5513 20.6133 25.1369 20.1989 24.6262 20.1989H7.12532C6.61468 20.1989 6.20027 20.6133 6.20027 21.1239C6.20027 21.6346 6.61468 22.049 7.12532 22.049Z" fill="#CFD0D1" stroke="#CFD0D1" stroke-width="0.1"/>
<path d="M7.12532 27.2992H24.6262C25.1369 27.2992 25.5513 26.8848 25.5513 26.3742C25.5513 25.8636 25.1369 25.4491 24.6262 25.4491H7.12532C6.61468 25.4491 6.20027 25.8636 6.20027 26.3742C6.20027 26.8848 6.61468 27.2992 7.12532 27.2992Z" fill="#CFD0D1" stroke="#CFD0D1" stroke-width="0.1"/>
</svg>
