<svg width="114" height="34" viewBox="0 0 114 34" fill="none" xmlns="http://www.w3.org/2000/svg">
<path d="M67.3748 33.8454C68.1662 33.8454 68.8078 33.6107 68.8078 33.3211C68.8078 33.0316 68.1662 32.7969 67.3748 32.7969C66.5834 32.7969 65.9418 33.0316 65.9418 33.3211C65.9418 33.6107 66.5834 33.8454 67.3748 33.8454Z" fill="#8C8C8C"/>
<path d="M67.3751 33.5539C67.7226 33.5539 68.0042 33.4496 68.0042 33.3209C68.0042 33.1922 67.7226 33.0879 67.3751 33.0879C67.0276 33.0879 66.746 33.1922 66.746 33.3209C66.746 33.4496 67.0276 33.5539 67.3751 33.5539Z" fill="white"/>
<path d="M87.1461 3.63587L83.4878 1.49218C83.1033 1.27083 82.9752 0.769857 83.1965 0.397042C83.4179 0.024227 83.9189 -0.115579 84.2917 0.10578L87.9499 2.24947C88.3344 2.47082 88.4626 2.97179 88.2412 3.34461C88.0198 3.71742 87.5305 3.85723 87.1461 3.63587Z" fill="white"/>
<path d="M85.0251 1.45768L82.9289 5.03662L84.3163 5.84919L86.4125 2.27025L85.0251 1.45768Z" fill="white"/>
<path d="M83.7702 6.76069L82.4231 5.97168L80.2503 9.68131L81.5975 10.4703L83.7702 6.76069Z" fill="#ED1F23"/>
<path d="M83.4609 9.98531L84.2499 8.63818L80.5403 6.46545L79.7513 7.81258L83.4609 9.98531Z" fill="#ED1F23"/>
<path d="M79.675 10.5956L75.6829 17.4116L77.0702 18.2242L81.0624 11.4081L79.675 10.5956Z" fill="white"/>
<path d="M74.5079 15.9688L74.1487 16.582L78.552 19.161L78.9112 18.5478L74.5079 15.9688Z" fill="white"/>
<path d="M74.0158 17.5933L71.977 21.0768C71.7789 21.4263 75.4837 23.5933 75.6818 23.2437L77.7206 19.7603L74.0158 17.5933Z" fill="#ED1F23"/>
<path d="M72.5482 24.4556C71.6745 23.9429 68.9133 22.1604 69.8453 20.576L78.7579 5.37207L79.9929 6.0944L71.1036 21.2633C71.1502 21.5313 71.8143 22.3585 73.2822 23.2206C74.7385 24.0711 75.7987 24.2575 76.055 24.1643L84.921 8.99537L86.156 9.7177L77.2434 24.9216C76.323 26.506 73.422 24.9682 72.5482 24.4556Z" fill="white"/>
<path d="M79.3052 5.84978L77.8373 8.35463C77.6276 8.33133 77.4295 8.26143 77.2431 8.14493C76.4975 7.70221 76.2412 6.73522 76.6839 5.98959C77.1266 5.24396 78.0936 4.98765 78.8392 5.43037C79.0256 5.53522 79.1771 5.67503 79.3052 5.84978Z" fill="white"/>
<path d="M86.6455 11.8265C86.2027 12.5838 85.2358 12.8284 84.4901 12.3857C84.2921 12.2692 84.1406 12.1294 84.0125 11.9546L85.4688 9.46143C85.6785 9.48473 85.8882 9.55463 86.0746 9.67113C86.8319 10.1139 87.0882 11.0808 86.6455 11.8265Z" fill="white"/>
<path d="M73.6666 24.6071L71.8724 23.5586L70.8821 25.9586L72.0588 26.646L73.6666 24.6071Z" fill="white"/>
<path d="M67.3752 33.3216L71.5694 25.7954L71.8723 25.9702L67.3752 33.3216Z" fill="white"/>
<path d="M13.2 5.47656H15.3204L8.65631 25.0843H6.64077L0 5.47656H2.17864L7.68931 21.7872L13.2 5.47656Z" fill="white"/>
<path d="M20.7263 11.2554C22.2293 11.2554 23.4642 11.7097 24.4196 12.6068C25.3749 13.5156 25.8526 14.6573 25.8526 16.0554V25.0845H23.9419V23.6631C22.9749 24.8049 21.6351 25.3874 19.9341 25.3874C18.5594 25.3874 17.4526 25.0146 16.6137 24.2573C15.7865 23.5 15.3671 22.533 15.3671 21.333C15.3671 20.168 15.7749 19.2359 16.5788 18.5253C17.3827 17.8146 18.5244 17.3835 19.9924 17.2204L23.9419 16.7893V16.1136C23.9419 15.2748 23.639 14.5641 23.0331 13.9932C22.4273 13.4224 21.6584 13.1311 20.7263 13.1311C19.8992 13.1311 19.2001 13.3641 18.606 13.8418C18.0118 14.3194 17.6623 14.9253 17.5574 15.6593H15.6817C15.7749 14.3894 16.2759 13.3408 17.2079 12.502C18.1399 11.6631 19.305 11.2554 20.7263 11.2554ZM20.1089 23.6398C21.239 23.6398 22.1594 23.3136 22.8817 22.6495C23.5924 21.9855 23.9535 21.1932 23.9535 20.2845V18.4787L20.2487 18.8864C18.2914 19.0961 17.3244 19.9117 17.3244 21.333C17.3244 21.9971 17.5691 22.5447 18.0584 22.9874C18.5477 23.4185 19.2234 23.6398 20.1089 23.6398Z" fill="white"/>
<path d="M31.0253 23.3486C29.7088 21.9971 29.0563 20.3194 29.0563 18.3156C29.0563 16.3117 29.7088 14.634 31.0253 13.2826C32.3418 11.9311 34.0078 11.2554 36.035 11.2554C37.2 11.2554 38.2602 11.5117 39.2272 12.0127C40.1942 12.5136 40.9864 13.201 41.5923 14.0864L40.0893 15.2165C39.1573 13.8534 37.8058 13.1777 36.035 13.1777C34.5437 13.1777 33.3321 13.667 32.4 14.634C31.4563 15.601 30.9903 16.836 30.9903 18.3389C30.9903 19.8418 31.4563 21.0767 32.4 22.0437C33.3437 23.0107 34.5554 23.5 36.035 23.5C37.8058 23.5 39.1573 22.8243 40.0893 21.4612L41.5923 22.6146C40.9864 23.4884 40.1942 24.1758 39.2272 24.6651C38.2602 25.1544 37.2 25.3991 36.035 25.3991C34.0078 25.3757 32.3418 24.7 31.0253 23.3486Z" fill="white"/>
<path d="M45.6465 23.3486C44.33 21.9971 43.6776 20.3194 43.6776 18.3156C43.6776 16.3117 44.33 14.634 45.6465 13.2826C46.963 11.9311 48.6291 11.2554 50.6562 11.2554C51.8213 11.2554 52.8815 11.5117 53.8485 12.0127C54.8155 12.5136 55.6077 13.201 56.2135 14.0864L54.7106 15.2165C53.7786 13.8534 52.4271 13.1777 50.6562 13.1777C49.165 13.1777 47.9533 13.667 47.0213 14.634C46.0776 15.601 45.6116 16.836 45.6116 18.3389C45.6116 19.8418 46.0776 21.0767 47.0213 22.0437C47.965 23.0107 49.1766 23.5 50.6562 23.5C52.4271 23.5 53.7786 22.8243 54.7106 21.4612L56.2135 22.6146C55.6077 23.4884 54.8155 24.1758 53.8485 24.6651C52.8815 25.1544 51.8213 25.3991 50.6562 25.3991C48.6291 25.3757 46.963 24.7 45.6465 23.3486Z" fill="white"/>
<path d="M60.3496 21.1349C60.3496 21.8689 60.6292 22.4514 61.1768 22.8825C61.736 23.3136 62.4583 23.5233 63.3554 23.5233C64.2525 23.5233 64.9748 23.3136 65.5341 22.8825C66.0933 22.4514 66.3612 21.8922 66.3612 21.2165C66.3612 20.3427 65.8603 19.7252 64.8583 19.3873C64.4506 19.2475 63.8447 19.131 63.0409 19.0611C62.2486 18.9912 61.6894 18.9213 61.3865 18.8514C60.4544 18.6184 59.7438 18.199 59.2544 17.5699C58.7651 16.9524 58.5205 16.2184 58.5205 15.3796C58.5205 14.1796 58.9632 13.1893 59.837 12.4087C60.7108 11.6281 61.8642 11.2437 63.2739 11.2437C64.6719 11.2437 65.8137 11.6165 66.7108 12.3738C67.6078 13.131 68.0622 14.098 68.0855 15.298H66.0933C66.07 14.6223 65.802 14.0747 65.2894 13.6903C64.7651 13.2941 64.101 13.0961 63.2739 13.0961C62.435 13.0961 61.7477 13.3058 61.235 13.7136C60.7108 14.1213 60.4544 14.6689 60.4544 15.3213C60.4544 16.1602 60.9438 16.731 61.9108 17.0456C62.2486 17.1504 62.8195 17.2437 63.6001 17.3252C64.3923 17.4068 64.9865 17.4883 65.4059 17.5815C66.3379 17.7912 67.0486 18.2106 67.5496 18.8281C68.0506 19.4456 68.3069 20.1912 68.3069 21.0767C68.3069 22.3349 67.8408 23.3602 66.9205 24.164C66.0001 24.9679 64.8001 25.3757 63.3321 25.3757C61.8991 25.3757 60.7108 24.9796 59.7671 24.199C58.8234 23.4068 58.3574 22.3932 58.3574 21.1349H60.3496Z" fill="white"/>
<path d="M93.9841 11.2554C95.5453 11.2554 96.8385 11.7796 97.8637 12.8165C98.889 13.8534 99.4132 15.1583 99.4132 16.7078V25.0845H97.4793V16.8942C97.4793 15.8224 97.1298 14.9253 96.4424 14.2262C95.755 13.5156 94.8463 13.166 93.7162 13.166C92.621 13.166 91.7472 13.5156 91.0715 14.2262C90.3958 14.9369 90.0696 15.8224 90.0696 16.8942V25.0845H88.1356V11.5466H90.0696V12.9447C91.0482 11.8146 92.3531 11.2554 93.9841 11.2554Z" fill="white"/>
<path d="M114 25.0846H111.39L105.449 18.5604V25.0846H103.515V4.61475H105.449V17.3487L111.39 11.5468H113.965L107.383 17.9196L114 25.0846Z" fill="white"/>
</svg>
