<svg width="18" height="23" viewBox="0 0 18 23" fill="none" xmlns="http://www.w3.org/2000/svg">
<path d="M16.5555 6.23333H12.1111C11.9211 6.23333 11.7667 6.07823 11.7667 5.88887V1.44446C11.7667 1.1439 11.5228 0.9 11.2222 0.9H2.33333C1.54298 0.9 0.9 1.54298 0.9 2.33333V21C0.9 21.7904 1.54298 22.4333 2.33333 22.4333H15.6667C16.457 22.4333 17.1 21.7904 17.1 21V6.77779C17.1 6.47723 16.8561 6.23333 16.5555 6.23333ZM16.0111 21C16.0111 21.1894 15.8566 21.3445 15.6667 21.3445H2.33333C2.14336 21.3445 1.98888 21.1894 1.98888 21V2.33333C1.98888 2.14398 2.14336 1.98887 2.33333 1.98887H10.6778V5.88887C10.6778 6.67923 11.3208 7.32221 12.1111 7.32221H16.0111V21Z" fill="#333333" stroke="#333333" stroke-width="0.2"/>
<path d="M16.17 7.1632L16.1703 7.16358C16.2768 7.26887 16.416 7.32229 16.5553 7.32229C16.6946 7.32229 16.8341 7.26897 16.9398 7.1632C17.1522 6.95082 17.1522 6.60571 16.9398 6.39332L11.6065 1.05999C11.3941 0.847605 11.049 0.847605 10.8366 1.05999C10.6242 1.27238 10.6242 1.61749 10.8366 1.82987L16.17 7.1632Z" fill="#333333" stroke="#333333" stroke-width="0.2"/>
<path d="M12.9991 8.9H4.99915C4.69858 8.9 4.45469 9.1439 4.45469 9.44446C4.45469 9.74502 4.69858 9.98892 4.99915 9.98892H12.9991C13.2997 9.98892 13.5436 9.74502 13.5436 9.44446C13.5436 9.1439 13.2997 8.9 12.9991 8.9Z" fill="#333333" stroke="#333333" stroke-width="0.2"/>
<path d="M12.9991 12.4555H4.99915C4.69858 12.4555 4.45469 12.6994 4.45469 13C4.45469 13.3006 4.69858 13.5445 4.99915 13.5445H12.9991C13.2997 13.5445 13.5436 13.3006 13.5436 13C13.5436 12.6994 13.2997 12.4555 12.9991 12.4555Z" fill="#333333" stroke="#333333" stroke-width="0.2"/>
<path d="M12.9991 16.0111H4.99915C4.69858 16.0111 4.45469 16.255 4.45469 16.5556C4.45469 16.8561 4.69858 17.1 4.99915 17.1H12.9991C13.2997 17.1 13.5436 16.8561 13.5436 16.5556C13.5436 16.255 13.2997 16.0111 12.9991 16.0111Z" fill="#333333" stroke="#333333" stroke-width="0.2"/>
</svg>
