<svg width="21" height="20" viewBox="0 0 21 20" fill="none" xmlns="http://www.w3.org/2000/svg">
<path d="M10.8015 0C10.8042 0 10.807 0 10.8101 0C10.8112 0 10.8125 0 10.814 0C10.8179 0 10.8218 0.000803212 10.8258 0.000803212C16.3437 0.0132932 20.812 4.48514 20.812 10C20.812 15.5133 16.3437 19.9859 10.8258 19.9992C10.8218 19.9992 10.8179 20 10.814 20C10.8125 20 10.8113 20 10.8101 20C10.807 20 10.8042 20 10.8015 20C5.27398 20 0.791153 15.5218 0.791153 10C0.791153 4.47735 5.27398 0 10.8015 0ZM10.4013 5.98438C9.34002 5.95546 8.30689 5.81562 7.31293 5.57345C7.01257 6.75237 6.8272 8.11096 6.79753 9.6H10.4013V5.98438H10.4013ZM10.4013 5.18438V0.863293C9.32124 1.16173 8.2279 2.59924 7.53103 4.80394C8.45548 5.02655 9.41508 5.15626 10.4013 5.18438ZM11.2019 0.853896V5.18438C12.1959 5.15626 13.1634 5.02422 14.0952 4.79767C13.3925 2.57968 12.2886 1.13671 11.2019 0.853896ZM11.2019 5.98357V9.59996H14.8303C14.801 8.10855 14.6145 6.74839 14.3146 5.56871C13.3124 5.81325 12.2718 5.95546 11.2019 5.98357ZM15.6363 9.6H20.001C19.9126 7.54377 19.1458 5.6594 17.918 4.16719C17.0264 4.65783 16.0805 5.0594 15.0896 5.3594C15.413 6.63514 15.6069 8.07341 15.6363 9.6ZM15.6363 10.4C15.6069 11.9258 15.413 13.3641 15.0895 14.6398C16.0801 14.9406 17.0264 15.3422 17.918 15.8328C19.1458 14.3406 19.9126 12.4563 20.001 10.4H15.6363ZM14.8303 10.4H11.2019V14.0117C12.2717 14.0398 13.3127 14.1829 14.3149 14.4281C14.6149 13.2492 14.801 11.8899 14.8303 10.4ZM11.2019 14.8109V19.1461C12.2894 18.8625 13.394 17.418 14.0963 15.1976C13.1642 14.9711 12.1963 14.8391 11.2019 14.8109ZM10.4013 19.1367V14.8109C9.41508 14.8391 8.45548 14.9695 7.53026 15.1922C8.22713 17.3984 9.32124 18.8383 10.4013 19.1367ZM10.4013 14.0117V10.4H6.79749C6.82716 11.8875 7.01258 13.2445 7.31132 14.4226C8.3069 14.1804 9.33922 14.0398 10.4013 14.0117ZM5.99195 10.4H1.6022C1.69052 12.4563 2.45698 14.3399 3.68481 15.832C4.5835 15.3383 5.53758 14.9336 6.53706 14.632C6.21411 13.3578 6.02094 11.9227 5.99195 10.4ZM5.99195 9.6C6.02094 8.07502 6.21488 6.63908 6.53782 5.36406C5.53911 5.06249 4.58495 4.65859 3.68714 4.16486C2.45775 5.65703 1.69052 7.54221 1.6022 9.6H5.99195ZM4.23852 3.5539C5.03541 3.97731 5.87621 4.32731 6.75447 4.59297C7.22291 3.08827 7.8799 1.86016 8.65726 1.0539C6.95235 1.46253 5.42968 2.34373 4.23852 3.5539ZM12.9776 1.06173C13.7507 1.86643 14.4049 3.08908 14.8714 4.58594C15.7411 4.32108 16.5747 3.97422 17.3642 3.5539C16.181 2.35157 14.67 1.47265 12.9776 1.06173ZM17.367 16.443C16.5767 16.0219 15.7426 15.675 14.8722 15.4102C14.4057 16.9086 13.7515 18.1328 12.9776 18.9383C14.6712 18.5266 16.1829 17.6469 17.367 16.443ZM8.65726 18.9453C7.87906 18.139 7.22215 16.9101 6.75367 15.4031C5.87464 15.6696 5.03312 16.0188 4.23615 16.4437C5.42731 17.6547 6.95078 18.5375 8.65726 18.9453Z" fill="white"/>
</svg>
