<svg width="21" height="19" viewBox="0 0 21 19" fill="none" xmlns="http://www.w3.org/2000/svg">
<path d="M11.8125 0C7.19322 0 3.37018 3.43058 2.72989 7.87501H0L3.28125 11.1563L6.5625 7.87501H4.05604C4.68388 4.15653 7.91803 1.31251 11.8125 1.31251C16.155 1.31251 19.6875 4.84498 19.6875 9.18752C19.6875 13.5301 16.1551 17.0625 11.8125 17.0625C9.37145 17.0625 7.10791 15.9577 5.60248 14.0312L4.56812 14.8387C6.32408 17.0856 8.96447 18.375 11.8125 18.375C16.8786 18.375 21 14.2529 21 9.18752C21 4.12212 16.8786 3.81035e-05 11.8125 0Z" fill="#333333"/>
</svg>
