<svg width="22" height="18" viewBox="0 0 22 18" fill="none" xmlns="http://www.w3.org/2000/svg">
<path d="M14.3263 10.2819C14.3263 12.2086 12.759 13.7759 10.8323 13.7759C8.90565 13.7759 7.33893 12.2086 7.33893 10.2819C7.33893 8.35526 8.90565 6.78794 10.8323 6.78794C12.759 6.78794 14.3263 8.35586 14.3263 10.2819ZM21.6646 5.32063V15.2444C21.6646 16.5674 20.592 17.64 19.269 17.64H2.3956C1.07263 17.64 0 16.5674 0 15.2444V5.32063C0 3.99766 1.07263 2.92503 2.3956 2.92503H5.34219V2.09615C5.34219 0.938477 6.28007 0 7.43834 0H14.2263C15.3846 0 16.3224 0.938477 16.3224 2.09615V2.92443H19.269C20.592 2.92503 21.6646 3.99766 21.6646 5.32063ZM16.123 10.2819C16.123 7.36468 13.7496 4.99124 10.8323 4.99124C7.91567 4.99124 5.54222 7.36468 5.54222 10.2819C5.54222 13.1992 7.91567 15.5726 10.8323 15.5726C13.7496 15.5726 16.123 13.1992 16.123 10.2819Z" fill="#14649C"/>
</svg>
