<svg width="23" height="23" viewBox="0 0 23 23" fill="none" xmlns="http://www.w3.org/2000/svg">
<path d="M22.6339 2.64017L20.3597 0.365764C20.1249 0.131534 19.8067 0 19.475 0C19.1433 0 18.8251 0.131534 18.5902 0.365764L18.4851 0.471049C18.2508 0.705908 18.1193 1.02409 18.1193 1.35582C18.1193 1.68755 18.2508 2.00573 18.4851 2.24059L18.8347 2.59005L16.9461 4.47835L14.9892 2.52195C14.7543 2.28772 14.4361 2.15619 14.1044 2.15619C13.7727 2.15619 13.4545 2.28772 13.2196 2.52195L13.1145 2.62724C12.9983 2.74342 12.9062 2.88136 12.8433 3.03317C12.7804 3.18498 12.748 3.34769 12.748 3.51201C12.748 3.67633 12.7804 3.83904 12.8433 3.99085C12.9062 4.14266 12.9983 4.2806 13.1145 4.39678L13.2193 4.50135L5.14437 12.5758C4.91729 12.8034 4.78976 13.1118 4.78976 13.4333C4.78976 13.7549 4.91729 14.0633 5.14437 14.2909L5.6115 14.758L2.45298 17.9169C2.39406 17.9759 2.36097 18.0558 2.36097 18.1392C2.36097 18.2225 2.39406 18.3025 2.45298 18.3614L3.32346 19.2319L0.0959413 22.4595C0.0659173 22.4885 0.0419716 22.5232 0.0255012 22.5615C0.0090308 22.5999 0.000365641 22.6412 1.13241e-05 22.6829C-0.000342993 22.7247 0.00762063 22.7661 0.0234375 22.8047C0.0392544 22.8433 0.0626078 22.8784 0.092135 22.908C0.121662 22.9375 0.156772 22.9608 0.195416 22.9766C0.234059 22.9924 0.275463 23.0004 0.317211 23C0.358958 22.9996 0.400214 22.9909 0.438571 22.9744C0.476927 22.958 0.511616 22.934 0.540614 22.904L3.76795 19.6766L4.63861 20.5471C4.66778 20.5763 4.70242 20.5995 4.74056 20.6153C4.7787 20.6311 4.81957 20.6392 4.86086 20.6392C4.90214 20.6392 4.94302 20.6311 4.98116 20.6153C5.01929 20.5995 5.05394 20.5763 5.08311 20.5471L8.24181 17.3885L8.70894 17.8557C8.93661 18.0827 9.24499 18.2101 9.56649 18.2101C9.88798 18.2101 10.1964 18.0827 10.424 17.8557L11.3763 16.9034L15.6942 12.5851L18.4984 9.7807L18.6031 9.88544C18.8379 10.1198 19.1561 10.2514 19.4879 10.2514C19.8197 10.2514 20.1379 10.1198 20.3727 9.88544L20.4778 9.78016C20.7121 9.54538 20.8437 9.2272 20.8437 8.89548C20.8437 8.56375 20.7121 8.24557 20.4778 8.01079L18.5216 6.05386L20.4099 4.16537L20.7593 4.515C20.9942 4.74928 21.3123 4.88084 21.6441 4.88084C21.9758 4.88084 22.294 4.74928 22.5288 4.515L22.6339 4.40972C22.8683 4.17493 23 3.85672 23 3.52495C23 3.19318 22.8683 2.87496 22.6339 2.64017ZM7.79714 16.944L4.86086 19.8802L3.99056 19.0099L3.12026 18.1397L6.05618 15.2029L6.92666 16.0734L7.79714 16.944ZM16.9114 10.4785L15.6934 9.26074C15.6645 9.2307 15.6298 9.20674 15.5914 9.19026C15.5531 9.17377 15.5118 9.16509 15.47 9.16472C15.4283 9.16435 15.3869 9.17229 15.3483 9.1881C15.3096 9.2039 15.2745 9.22724 15.245 9.25675C15.2154 9.28627 15.1921 9.32137 15.1763 9.36001C15.1605 9.39864 15.1525 9.44004 15.1528 9.48179C15.1532 9.52354 15.1619 9.5648 15.1783 9.60316C15.1948 9.64153 15.2188 9.67623 15.2488 9.70524L16.4669 10.9232L15.4728 11.9182L14.7691 11.2144C14.7101 11.1553 14.63 11.122 14.5464 11.1219C14.4628 11.1218 14.3827 11.1549 14.3235 11.2139C14.2643 11.2729 14.231 11.353 14.2309 11.4366C14.2308 11.5201 14.2639 11.6003 14.323 11.6595L15.0265 12.3632L14.0317 13.3582L12.8138 12.1397C12.7846 12.1105 12.7499 12.0874 12.7118 12.0716C12.6736 12.0558 12.6327 12.0476 12.5914 12.0476C12.5501 12.0476 12.5092 12.0558 12.4711 12.0716C12.433 12.0874 12.3983 12.1105 12.3691 12.1397C12.3399 12.1689 12.3167 12.2036 12.3009 12.2417C12.2851 12.2799 12.277 12.3208 12.277 12.3621C12.277 12.4034 12.2851 12.4442 12.3009 12.4824C12.3167 12.5205 12.3399 12.5552 12.3691 12.5844L13.587 13.8022L12.5922 14.7972L11.8885 14.0934C11.8593 14.0642 11.8246 14.0411 11.7865 14.0253C11.7483 14.0095 11.7074 14.0013 11.6662 14.0013C11.6249 14.0013 11.584 14.0095 11.5458 14.0253C11.5077 14.0411 11.473 14.0642 11.4438 14.0934C11.4146 14.1226 11.3915 14.1573 11.3757 14.1954C11.3599 14.2336 11.3517 14.2745 11.3517 14.3158C11.3517 14.3571 11.3599 14.398 11.3757 14.4361C11.3915 14.4742 11.4146 14.5089 11.4438 14.5381L12.149 15.2419L11.154 16.2369L9.93534 15.0193C9.8764 14.9603 9.79645 14.9272 9.71309 14.9272C9.62973 14.9272 9.54979 14.9603 9.49085 15.0193C9.4319 15.0782 9.39879 15.1581 9.39879 15.2415C9.39879 15.3249 9.4319 15.4048 9.49085 15.4638L10.7088 16.6819L9.97918 17.4114C9.86951 17.5208 9.72089 17.5823 9.56595 17.5823C9.411 17.5823 9.26239 17.5208 9.15272 17.4114L5.58922 13.8466C5.47973 13.7369 5.41823 13.5883 5.41823 13.4333C5.41823 13.2784 5.47973 13.1298 5.58922 13.0201L13.6638 4.94603L18.0537 9.3362L16.9114 10.4785ZM20.0333 9.33566L19.928 9.44095C19.8111 9.55742 19.6528 9.62282 19.4878 9.62282C19.3228 9.62282 19.1645 9.55742 19.0476 9.44095L13.5592 3.95175C13.5014 3.89396 13.4555 3.82534 13.4242 3.74981C13.3928 3.67428 13.3767 3.59332 13.3767 3.51156C13.3767 3.4298 13.3928 3.34884 13.4242 3.27331C13.4555 3.19778 13.5014 3.12916 13.5592 3.07138L13.6643 2.96609C13.7811 2.84953 13.9394 2.78407 14.1045 2.78407C14.2695 2.78407 14.4278 2.84953 14.5447 2.96609L16.7226 5.14456L17.8545 6.27646L20.0329 8.45493C20.1496 8.57176 20.2152 8.73011 20.2152 8.89522C20.2153 9.06034 20.1499 9.21873 20.0333 9.33566ZM18.0769 5.60972L17.3902 4.92303L19.2785 3.03472L19.9652 3.72141L18.0769 5.60972ZM22.1893 3.96558L22.0842 4.07087C21.9673 4.18743 21.809 4.25289 21.644 4.25289C21.4789 4.25289 21.3206 4.18743 21.2038 4.07087L20.6319 3.49898L19.5 2.36708L18.9291 1.79574C18.8124 1.67894 18.7469 1.52062 18.7469 1.35555C18.7469 1.19048 18.8124 1.03216 18.9291 0.915367L19.0342 0.810082C19.151 0.693521 19.3093 0.628061 19.4743 0.628061C19.6394 0.628061 19.7977 0.693521 19.9145 0.810082L22.1894 3.08521C22.3061 3.20203 22.3716 3.36036 22.3715 3.52543C22.3715 3.6905 22.3059 3.84881 22.1893 3.96558Z" fill="#6C6C6C"/>
</svg>
