<svg width="22" height="21" viewBox="0 0 22 21" fill="none" xmlns="http://www.w3.org/2000/svg">
<path fill-rule="evenodd" clip-rule="evenodd" d="M11 0C17.0711 0 22 4.7049 22 10.5C22 16.2951 17.0711 21 11 21C4.92895 21 0 16.2951 0 10.5C0 4.7049 4.92895 0 11 0ZM11 3.9375C9.13288 3.9375 8.89874 3.94505 8.16544 3.977C7.43368 4.00887 6.93391 4.11981 6.49657 4.28203C6.0445 4.44974 5.66109 4.67414 5.27888 5.03897C4.89668 5.40381 4.66159 5.76979 4.48589 6.20132C4.31595 6.61873 4.19977 7.09579 4.16634 7.79428C4.13291 8.49425 4.125 8.71775 4.125 10.5C4.125 12.2823 4.13291 12.5057 4.16634 13.2057C4.19977 13.9042 4.31595 14.3813 4.48589 14.7987C4.66159 15.2302 4.89668 15.5962 5.27888 15.9611C5.66109 16.3259 6.0445 16.5503 6.49657 16.718C6.93391 16.8802 7.43368 16.9911 8.16544 17.023C8.89874 17.055 9.13288 17.0625 11 17.0625C12.8671 17.0625 13.1013 17.055 13.8346 17.023C14.5663 16.9911 15.0661 16.8802 15.5034 16.718C15.9555 16.5503 16.3389 16.3259 16.7211 15.9611C17.1033 15.5962 17.3384 15.2302 17.5141 14.7987C17.684 14.3813 17.8002 13.9042 17.8336 13.2057C17.8671 12.5057 17.875 12.2823 17.875 10.5C17.875 8.71775 17.8671 8.49425 17.8336 7.79428C17.8002 7.09579 17.684 6.61873 17.5141 6.20132C17.3384 5.76979 17.1033 5.40381 16.7211 5.03897C16.3389 4.67414 15.9555 4.44974 15.5034 4.28203C15.0661 4.11981 14.5663 4.00887 13.8346 3.977C13.1013 3.94505 12.8671 3.9375 11 3.9375ZM11 5.11994C12.8357 5.11994 13.0531 5.12663 13.7781 5.15821C14.4484 5.18741 14.8124 5.2943 15.0547 5.38416C15.3756 5.50319 15.6046 5.64543 15.8452 5.87508C16.0858 6.10468 16.2348 6.32334 16.3594 6.62964C16.4536 6.86089 16.5656 7.20833 16.5962 7.84818C16.6292 8.54019 16.6363 8.74773 16.6363 10.5C16.6363 12.2523 16.6292 12.4598 16.5962 13.1518C16.5656 13.7917 16.4536 14.1391 16.3594 14.3704C16.2348 14.6767 16.0858 14.8953 15.8452 15.1249C15.6046 15.3546 15.3756 15.4968 15.0547 15.6158C14.8124 15.7057 14.4484 15.8126 13.7781 15.8418C13.0533 15.8734 12.8358 15.8801 11 15.8801C9.16416 15.8801 8.94678 15.8734 8.2219 15.8418C7.55159 15.8126 7.1876 15.7057 6.94534 15.6158C6.62441 15.4968 6.39538 15.3546 6.1548 15.1249C5.91422 14.8953 5.76525 14.6767 5.64055 14.3704C5.54641 14.1391 5.43439 13.7917 5.40379 13.1518C5.37071 12.4598 5.36375 12.2523 5.36375 10.5C5.36375 8.74773 5.37071 8.54019 5.40379 7.84818C5.43439 7.20833 5.54641 6.86089 5.64055 6.62964C5.76525 6.32334 5.91422 6.10468 6.1548 5.87508C6.39538 5.64543 6.62441 5.50319 6.94534 5.38416C7.1876 5.2943 7.55159 5.18741 8.2219 5.15821C8.94687 5.12663 9.16429 5.11994 11 5.11994ZM11 7.13007C9.05021 7.13007 7.4696 8.63883 7.4696 10.5C7.4696 12.3612 9.05021 13.8699 11 13.8699C12.9498 13.8699 14.5304 12.3612 14.5304 10.5C14.5304 8.63883 12.9498 7.13007 11 7.13007ZM11 12.6875C9.73435 12.6875 8.70835 11.7081 8.70835 10.5C8.70835 9.29188 9.73435 8.31251 11 8.31251C12.2656 8.31251 13.2917 9.29188 13.2917 10.5C13.2917 11.7081 12.2656 12.6875 11 12.6875ZM15.4949 6.99694C15.4949 7.43187 15.1255 7.7844 14.6699 7.7844C14.2143 7.7844 13.8449 7.43187 13.8449 6.99694C13.8449 6.56201 14.2143 6.20944 14.6699 6.20944C15.1255 6.20944 15.4949 6.56201 15.4949 6.99694Z" fill="white"/>
</svg>
