<svg width="14" height="18" viewBox="0 0 14 18" fill="none" xmlns="http://www.w3.org/2000/svg">
<path d="M1.54511 9.20542L1.545 9.20514L1.54453 9.204C1.51836 9.1409 1.03984 7.98706 1.03984 6.91047C1.03984 3.62375 3.7136 0.95 7.00032 0.95C10.287 0.95 12.9608 3.62375 12.9608 6.91047C12.9608 7.99475 12.4761 9.15695 12.4559 9.20526L12.4559 9.20542C12.2993 9.57714 11.9915 10.1528 11.7684 10.4912L11.7683 10.4913L7.7155 16.6319C7.7155 16.6319 7.7155 16.6319 7.7155 16.6319C7.54202 16.8948 7.282 17.05 7.00032 17.05C6.71864 17.05 6.45862 16.8948 6.28514 16.6315L1.54511 9.20542ZM1.54511 9.20542C1.70173 9.57716 2.00983 10.1528 2.23261 10.4912L2.23264 10.4913L6.28512 16.6315L1.54511 9.20542ZM11.7226 8.89687L11.7228 8.89633L11.7229 8.89621C11.723 8.89587 11.7234 8.89489 11.7241 8.89311L11.7281 8.8834L11.7426 8.84693C11.755 8.81536 11.7725 8.76966 11.7934 8.71217C11.8352 8.59716 11.8905 8.43506 11.9457 8.24442C12.0563 7.86239 12.1654 7.36879 12.1654 6.91047C12.1654 4.06247 9.84832 1.74535 7.00032 1.74535C4.15231 1.74535 1.83519 4.06247 1.83519 6.91047C1.83519 7.82766 2.27175 8.88046 2.27848 8.89668L2.27849 8.89671L2.2323 8.91586L2.27841 8.89652L11.7226 8.89687ZM11.7226 8.89687C11.5851 9.22458 11.3011 9.75483 11.1043 10.0534L7.05142 16.194L7.0514 16.194M11.7226 8.89687L7.0514 16.194M7.0514 16.194C7.03154 16.2242 7.01721 16.2434 7.006 16.2548C7.00379 16.2571 7.00196 16.2587 7.00049 16.26C6.99902 16.2587 6.99719 16.2571 6.99498 16.2548C6.98377 16.2434 6.96944 16.2242 6.94959 16.194L6.94957 16.194M7.0514 16.194L6.94957 16.194M6.94957 16.194L2.89673 10.0534L6.94957 16.194Z" fill="#333333" stroke="#333333" stroke-width="0.1"/>
<path d="M7.00016 3.73175C5.24704 3.73175 3.82109 5.15805 3.82109 6.91083C3.82109 8.6636 5.24704 10.0899 7.00016 10.0899C8.75329 10.0899 10.1792 8.6636 10.1792 6.91083C10.1792 5.15805 8.75329 3.73175 7.00016 3.73175ZM7.00016 9.29455C5.6861 9.29455 4.61644 8.22523 4.61644 6.91083C4.61644 5.59642 5.6861 4.5271 7.00016 4.5271C8.31423 4.5271 9.38389 5.59642 9.38389 6.91083C9.38389 8.22523 8.31423 9.29455 7.00016 9.29455Z" fill="#333333" stroke="#333333" stroke-width="0.1"/>
</svg>
