<svg width="20" height="20" viewBox="0 0 20 20" fill="none" xmlns="http://www.w3.org/2000/svg">
<path d="M13.6659 2.42956C13.2441 2.2453 12.7529 2.43784 12.5686 2.8596C12.3843 3.28136 12.5769 3.77261 12.9987 3.95687C15.7101 5.14141 17.4998 7.82319 17.4998 10.8333C17.4998 14.9753 14.1415 18.3334 9.99972 18.3334C5.85742 18.3334 2.49966 14.9756 2.49966 10.8333C2.49966 7.82386 4.28874 5.14208 6.99938 3.95676C7.42107 3.77238 7.61345 3.28105 7.42904 2.85937C7.24466 2.43768 6.75333 2.2453 6.33165 2.42971C3.01955 3.87797 0.833008 7.15557 0.833008 10.8333C0.833008 15.896 4.93699 20 9.99976 20C15.062 20 19.1665 15.8958 19.1665 10.8333C19.1665 7.15471 16.9791 3.87695 13.6659 2.42956Z" fill="#333333"/>
<path d="M9.99934 9.16675C10.4596 9.16675 10.8327 8.79366 10.8327 8.33342V0.833366C10.8327 0.373089 10.4596 0 9.99934 0C9.5391 0 9.16602 0.373089 9.16602 0.833327V8.33339C9.16602 8.79362 9.5391 9.16675 9.99934 9.16675Z" fill="#333333"/>
</svg>
