<svg width="137" height="41" viewBox="0 0 137 41" fill="none" xmlns="http://www.w3.org/2000/svg">
<path d="M80.968 40.674C81.9191 40.674 82.6901 40.392 82.6901 40.044C82.6901 39.696 81.9191 39.4139 80.968 39.4139C80.0169 39.4139 79.2458 39.696 79.2458 40.044C79.2458 40.392 80.0169 40.674 80.968 40.674Z" fill="#8C8C8C"/>
<path d="M80.9683 40.3239C81.3858 40.3239 81.7243 40.1985 81.7243 40.0438C81.7243 39.8892 81.3858 39.7638 80.9683 39.7638C80.5507 39.7638 80.2122 39.8892 80.2122 40.0438C80.2122 40.1985 80.5507 40.3239 80.9683 40.3239Z" fill="white"/>
<path d="M104.728 4.36942L100.332 1.79324C99.8697 1.52722 99.7157 0.925179 99.9817 0.477147C100.248 0.0291149 100.85 -0.138897 101.298 0.127122L105.694 2.70331C106.156 2.96932 106.31 3.57137 106.044 4.0194C105.778 4.46743 105.19 4.63544 104.728 4.36942Z" fill="#14649C"/>
<path d="M102.179 1.75136L99.6601 6.05237L101.327 7.02887L103.846 2.72787L102.179 1.75136Z" fill="#14649C"/>
<path d="M100.671 8.12477L99.0522 7.17657L96.4411 11.6346L98.06 12.5828L100.671 8.12477Z" fill="#ED1F23"/>
<path d="M100.299 11.9998L101.248 10.3809L96.7896 7.76983L95.8414 9.38875L100.299 11.9998Z" fill="#ED1F23"/>
<path d="M95.7496 12.7336L90.952 20.9248L92.6193 21.9013L97.4169 13.7101L95.7496 12.7336Z" fill="#14649C"/>
<path d="M89.54 19.1908L89.1084 19.9278L94.4001 23.0271L94.8317 22.2901L89.54 19.1908Z" fill="#14649C"/>
<path d="M88.9488 21.1427L86.4986 25.329C86.2606 25.749 90.7129 28.3532 90.9509 27.9332L93.4011 23.7469L88.9488 21.1427Z" fill="#ED1F23"/>
<path d="M87.1851 29.3896C86.135 28.7735 82.8168 26.6314 83.9369 24.7272L94.6476 6.4559L96.1318 7.32397L85.449 25.5533C85.505 25.8753 86.303 26.8694 88.0672 27.9055C89.8173 28.9275 91.0914 29.1516 91.3994 29.0396L102.054 10.8102L103.538 11.6783L92.8275 29.9496C91.7214 31.8538 88.2352 30.0056 87.1851 29.3896Z" fill="#14649C"/>
<path d="M95.3053 7.02982L93.5412 10.04C93.2892 10.012 93.0512 9.92803 92.8271 9.78802C91.9311 9.25598 91.6231 8.0939 92.1551 7.19784C92.6871 6.30177 93.8492 5.99375 94.7453 6.52579C94.9693 6.6518 95.1513 6.81981 95.3053 7.02982Z" fill="#14649C"/>
<path d="M104.126 14.2123C103.594 15.1223 102.432 15.4163 101.536 14.8843C101.298 14.7443 101.116 14.5763 100.962 14.3663L102.712 11.3701C102.964 11.3981 103.216 11.4821 103.44 11.6221C104.35 12.1541 104.658 13.3162 104.126 14.2123Z" fill="#14649C"/>
<path d="M88.529 29.5712L86.3729 28.3111L85.1828 31.1953L86.5969 32.0214L88.529 29.5712Z" fill="#14649C"/>
<path d="M80.9682 40.044L86.0086 30.9993L86.3726 31.2093L80.9682 40.044Z" fill="#14649C"/>
<path d="M15.8632 6.5817H18.4113L10.4028 30.1454H7.98058L0 6.5817H2.61819L9.24067 26.1831L15.8632 6.5817Z" fill="#14649C"/>
<path d="M24.908 13.5261C26.7141 13.5261 28.1982 14.0722 29.3463 15.1502C30.4944 16.2423 31.0684 17.6144 31.0684 19.2945V30.1453H28.7723V28.4372C27.6102 29.8093 26.0001 30.5094 23.9559 30.5094C22.3038 30.5094 20.9737 30.0613 19.9656 29.1513C18.9716 28.2412 18.4675 27.0791 18.4675 25.637C18.4675 24.2369 18.9576 23.1168 19.9236 22.2628C20.8897 21.4087 22.2618 20.8907 24.0259 20.6946L28.7723 20.1766V19.3646C28.7723 18.3565 28.4083 17.5024 27.6802 16.8164C26.9521 16.1303 26.0281 15.7803 24.908 15.7803C23.9139 15.7803 23.0739 16.0603 22.3598 16.6344C21.6458 17.2084 21.2257 17.9364 21.0997 18.8185H18.8456C18.9576 17.2924 19.5596 16.0323 20.6797 15.0242C21.7998 14.0162 23.1999 13.5261 24.908 13.5261ZM24.1659 28.4092C25.524 28.4092 26.6301 28.0172 27.4982 27.2191C28.3523 26.4211 28.7863 25.469 28.7863 24.3769V22.2068L24.334 22.6968C21.9818 22.9488 20.8197 23.9289 20.8197 25.637C20.8197 26.4351 21.1137 27.0931 21.7018 27.6251C22.2898 28.1432 23.1019 28.4092 24.1659 28.4092Z" fill="#14649C"/>
<path d="M37.2848 28.0592C35.7026 26.4351 34.9186 24.4189 34.9186 22.0107C34.9186 19.6026 35.7026 17.5864 37.2848 15.9623C38.8669 14.3382 40.869 13.5261 43.3052 13.5261C44.7053 13.5261 45.9794 13.8341 47.1415 14.4362C48.3036 15.0382 49.2556 15.8643 49.9837 16.9284L48.1775 18.2865C47.0575 16.6484 45.4333 15.8363 43.3052 15.8363C41.5131 15.8363 40.057 16.4243 38.9369 17.5864C37.8028 18.7485 37.2427 20.2326 37.2427 22.0387C37.2427 23.8449 37.8028 25.329 38.9369 26.4911C40.071 27.6532 41.5271 28.2412 43.3052 28.2412C45.4333 28.2412 47.0575 27.4291 48.1775 25.791L49.9837 27.1771C49.2556 28.2272 48.3036 29.0533 47.1415 29.6413C45.9794 30.2293 44.7053 30.5234 43.3052 30.5234C40.869 30.4954 38.8669 29.6833 37.2848 28.0592Z" fill="#14649C"/>
<path d="M54.856 28.0592C53.2739 26.4351 52.4898 24.4189 52.4898 22.0107C52.4898 19.6026 53.2739 17.5864 54.856 15.9623C56.4381 14.3382 58.4402 13.5261 60.8764 13.5261C62.2765 13.5261 63.5506 13.8341 64.7127 14.4362C65.8748 15.0382 66.8268 15.8643 67.5549 16.9284L65.7488 18.2865C64.6287 16.6484 63.0046 15.8363 60.8764 15.8363C59.0843 15.8363 57.6282 16.4243 56.5081 17.5864C55.374 18.7485 54.814 20.2326 54.814 22.0387C54.814 23.8449 55.374 25.329 56.5081 26.4911C57.6422 27.6532 59.0983 28.2412 60.8764 28.2412C63.0046 28.2412 64.6287 27.4291 65.7488 25.791L67.5549 27.1771C66.8268 28.2272 65.8748 29.0533 64.7127 29.6413C63.5506 30.2293 62.2765 30.5234 60.8764 30.5234C58.4402 30.4954 56.4381 29.6833 54.856 28.0592Z" fill="#14649C"/>
<path d="M72.5253 25.399C72.5253 26.2811 72.8614 26.9811 73.5194 27.4991C74.1915 28.0172 75.0595 28.2692 76.1376 28.2692C77.2157 28.2692 78.0837 28.0172 78.7558 27.4991C79.4278 26.9811 79.7499 26.3091 79.7499 25.497C79.7499 24.4469 79.1478 23.7049 77.9437 23.2988C77.4537 23.1308 76.7256 22.9908 75.7596 22.9068C74.8075 22.8228 74.1355 22.7388 73.7714 22.6548C72.6513 22.3748 71.7973 21.8707 71.2092 21.1147C70.6212 20.3726 70.3272 19.4906 70.3272 18.4825C70.3272 17.0404 70.8592 15.8503 71.9093 14.9122C72.9594 13.9741 74.3455 13.5121 76.0396 13.5121C77.7197 13.5121 79.0918 13.9601 80.1699 14.8702C81.248 15.7803 81.794 16.9424 81.822 18.3845H79.4278C79.3998 17.5724 79.0778 16.9144 78.4618 16.4523C77.8317 15.9763 77.0337 15.7383 76.0396 15.7383C75.0315 15.7383 74.2055 15.9903 73.5894 16.4803C72.9594 16.9704 72.6513 17.6284 72.6513 18.4125C72.6513 19.4205 73.2394 20.1066 74.4015 20.4846C74.8075 20.6106 75.4936 20.7226 76.4316 20.8207C77.3837 20.9187 78.0977 21.0167 78.6018 21.1287C79.7219 21.3807 80.5759 21.8847 81.178 22.6268C81.78 23.3688 82.088 24.2649 82.088 25.329C82.088 26.8411 81.528 28.0732 80.4219 29.0393C79.3158 30.0053 77.8737 30.4954 76.1096 30.4954C74.3875 30.4954 72.9594 30.0193 71.8253 29.0813C70.6912 28.1292 70.1312 26.9111 70.1312 25.399H72.5253Z" fill="#14649C"/>
<path d="M112.946 13.5261C114.822 13.5261 116.376 14.1562 117.608 15.4023C118.84 16.6483 119.47 18.2165 119.47 20.0786V30.1453H117.146V20.3026C117.146 19.0145 116.726 17.9364 115.9 17.0964C115.074 16.2423 113.982 15.8223 112.624 15.8223C111.308 15.8223 110.258 16.2423 109.446 17.0964C108.634 17.9504 108.242 19.0145 108.242 20.3026V30.1453H105.917V13.8761H108.242V15.5563C109.418 14.1982 110.986 13.5261 112.946 13.5261Z" fill="#14649C"/>
<path d="M137 30.1454H133.864L126.723 22.3049V30.1454H124.399V5.54565H126.723V20.8488L133.864 13.8763H136.958L129.047 21.5348L137 30.1454Z" fill="#14649C"/>
</svg>
