<svg width="25" height="19" viewBox="0 0 25 19" fill="none" xmlns="http://www.w3.org/2000/svg">
<path d="M22.7513 0H2.19231C0.98498 0 0 0.983908 0 2.19231V16.8077C0 18.012 0.980595 19 2.19231 19H22.7513C23.9556 19 24.9436 18.0194 24.9436 16.8077V2.19231C24.9436 0.988 23.963 0 22.7513 0ZM22.4486 1.46154L12.5183 11.3919L2.50211 1.46154H22.4486ZM1.46154 16.5051V2.48798L8.50026 9.46634L1.46154 16.5051ZM2.49499 17.5385L9.53815 10.4953L12.0061 12.942C12.2917 13.2253 12.7528 13.2243 13.0373 12.9398L15.4436 10.5335L22.4486 17.5385H2.49499ZM23.4821 16.505L16.477 9.5L23.4821 2.49494V16.505Z" fill="#14649C"/>
</svg>
