<svg width="717" height="461" viewBox="0 0 717 461" fill="none" xmlns="http://www.w3.org/2000/svg">
<path d="M-80.5452 456.998C-80.3658 453.475 -151.424 339.609 -77.0689 228.794C-2.71358 117.98 84.2336 177.693 102.07 99.7215C124.368 2.24233 235.272 -25.1831 290.054 23.6855C329.13 58.5431 379.505 49.6722 433.51 40.8009C479.767 33.2024 528.679 25.6045 575.45 45.4775C741.884 116.197 623.935 255.301 661.5 275.497C699.065 295.693 744.736 338.794 695.507 455.805L-80.5443 457" fill="#EBF3FA"/>
<path d="M80.9414 460.54C79.4193 460.541 77.912 460.241 76.5056 459.659C75.0993 459.077 73.8214 458.223 72.745 457.147C71.6686 456.071 70.8147 454.794 70.2321 453.387C69.6495 451.981 69.3497 450.474 69.3497 448.952V388.589C69.3499 387.067 69.6499 385.56 70.2325 384.154C70.8152 382.748 71.6691 381.471 72.7455 380.395C73.8219 379.319 75.0997 378.465 76.506 377.883C77.9123 377.301 79.4194 377.002 80.9414 377.002C84.0149 377.002 86.9625 378.223 89.1357 380.396C91.309 382.57 92.53 385.517 92.53 388.591V448.953C92.5296 452.027 91.3084 454.974 89.1352 457.147C86.962 459.32 84.0146 460.54 80.9414 460.54Z" fill="#515157"/>
<path d="M81.0075 396.65C87.5993 396.65 92.8576 391.823 92.5107 386.064C91.0218 361.306 83.2494 318.268 81.8758 316.629C80.0723 314.479 79.2663 319.084 79.2663 319.084L69.5958 385.218C68.6559 391.266 74.0303 396.65 81.0075 396.65Z" fill="#515157"/>
<path d="M190.479 460.54C193.553 460.54 196.5 459.32 198.674 457.146C200.847 454.973 202.068 452.025 202.068 448.952V388.589C202.068 385.516 200.846 382.569 198.673 380.396C196.5 378.223 193.553 377.002 190.479 377.002C188.958 377.002 187.451 377.302 186.045 377.884C184.639 378.467 183.361 379.32 182.285 380.396C181.209 381.473 180.355 382.75 179.773 384.156C179.19 385.562 178.891 387.069 178.891 388.591V448.953C178.891 452.027 180.112 454.974 182.286 457.147C184.459 459.32 187.406 460.54 190.479 460.54Z" fill="#515157"/>
<path d="M190.481 394.773C183.889 394.773 178.631 389.946 178.977 384.186C180.467 359.429 188.236 318.268 189.613 316.629C191.416 314.479 192.222 319.084 192.222 319.084L201.893 383.34C202.833 389.389 197.459 394.773 190.481 394.773Z" fill="#515157"/>
<path d="M136.567 315.795C146.321 315.497 153.899 308.535 153.631 300.122L152.569 266.869L118.806 265.253L117.715 299.699C117.445 308.707 126.123 316.114 136.567 315.795Z" fill="#FF9973" stroke="#ED714B" stroke-width="2.881" stroke-miterlimit="10"/>
<path d="M129.113 296.548C125.468 295.695 121.658 293.54 118.167 290.913L118.808 269.63L152.571 271.245L153.323 284.403C150.641 293.775 140.45 299.201 129.113 296.548Z" fill="#ED714B"/>
<path d="M165.006 306.151H107.44V435.167H165.006V306.151Z" fill="#E6E6E6"/>
<path d="M135.437 432.203L147.756 402.594L140.205 319.771L146.263 308.546L135.436 308.192L124.61 308.546L130.669 319.771L123.117 402.59L135.437 432.203Z" fill="#D1145A"/>
<path d="M133.944 308.191C133.944 308.191 138.796 307.479 144.023 311.392C147.382 313.954 150.505 316.811 153.356 319.929C153.356 319.929 159.703 301.789 159.33 298.944C158.957 296.099 154.575 285.444 154.575 285.444C154.575 285.444 154.851 293.608 145.89 299.299C136.929 304.989 133.944 308.191 133.944 308.191Z" fill="white"/>
<path d="M137.032 308.43C137.032 308.43 132.45 308.546 127.223 312.459C123.865 315.021 120.742 317.878 117.891 320.996C117.891 320.996 111.544 302.856 111.917 300.01C112.29 297.165 116.881 285.816 116.881 285.816C116.881 285.816 116.398 294.675 125.357 300.366C134.316 306.056 137.032 308.43 137.032 308.43Z" fill="white"/>
<path d="M86.5064 455.993H135.672V400.353L107.899 298.009L80.7675 316.057C80.7675 316.057 90.1289 368.689 90.9525 386.664C91.1125 390.158 86.1104 450.758 86.5064 455.993Z" fill="#58585E"/>
<path d="M135.672 399.412C129.272 370.951 113.483 307.66 112.147 304.289C109.97 298.797 112.839 288.984 112.839 288.984L91.5217 308.277L97.7921 310.776L86.5065 313.878L135.672 399.412Z" fill="#7A7A80"/>
<path d="M184.837 455.993H135.672V400.353L163.445 298.009L190.576 316.057C190.576 316.057 181.214 368.689 180.391 386.664C180.231 390.158 185.23 450.758 184.837 455.993Z" fill="#58585E"/>
<path d="M135.672 399.412C142.072 370.951 157.86 307.66 159.197 304.289C161.373 298.797 158.505 288.984 158.505 288.984L179.822 308.276L173.552 310.775L184.837 313.878L135.672 399.412Z" fill="#7A7A80"/>
<path d="M158.685 414.569H177.281" stroke="#383849" stroke-width="1.771" stroke-linecap="round" stroke-linejoin="round"/>
<path d="M96.9107 414.569H115.506" stroke="#383849" stroke-width="1.771" stroke-linecap="round" stroke-linejoin="round"/>
<path d="M187.921 327.835C186.383 339.109 182.052 378.45 180.514 389.724" stroke="#383849" stroke-width="1.771" stroke-linecap="round" stroke-linejoin="round"/>
<path d="M190.479 332.882L186.068 341.489" stroke="#383849" stroke-width="1.771" stroke-linecap="round" stroke-linejoin="round"/>
<path d="M102.356 254.452C103.039 255.914 108.269 263.262 110.047 260.212C110.943 258.674 110.269 254.869 110.124 253.15C109.924 250.733 109.508 248.339 108.88 245.997C108.429 244.315 107.811 242.576 106.486 241.447C103.823 239.178 101.164 241.206 100.542 244.087C99.784 247.608 100.891 251.318 102.356 254.452Z" fill="#FF9973" stroke="#ED714B" stroke-width="2.362" stroke-miterlimit="10"/>
<path d="M169.711 254.759C169.019 256.214 163.717 263.514 161.968 260.45C161.085 258.903 161.794 255.105 161.952 253.388C162.172 250.974 162.61 248.584 163.259 246.248C163.726 244.572 164.358 242.838 165.694 241.721C168.377 239.477 171.018 241.529 171.616 244.413C172.341 247.937 171.204 251.641 169.711 254.759Z" fill="#FF9973" stroke="#ED714B" stroke-width="2.362" stroke-miterlimit="10"/>
<path d="M164.515 244.732C164.551 246.755 164.3 248.785 164.147 250.813C163.681 256.981 162.638 263.107 159.576 268.674C156.598 274.088 151.998 279.166 146.65 281.728C142.367 283.778 137.594 284.582 132.876 284.049C128.158 283.516 123.685 281.667 119.968 278.713C114.496 274.367 111.004 267.845 109.3 261.011C107.71 255.367 107.206 249.473 107.817 243.642C107.817 243.642 109.627 225.515 113.38 217.724C117.132 209.933 123.803 198.327 135.169 198.778C153.656 199.517 165.875 208.827 164.515 244.732Z" fill="#FF9973" stroke="#ED714B" stroke-width="2.362" stroke-miterlimit="10"/>
<path d="M167.444 218.809C165.136 205.622 155.754 195.822 143.538 193.84C137.621 192.88 126.558 191.917 118.898 196.287C106.086 203.594 105.07 220.847 104.255 234.712C104.162 236.297 104.067 237.817 103.962 239.292C105.618 239.815 106.324 241.527 106.701 243.077C106.895 243.871 107.035 244.692 107.153 245.498C107.25 246.157 107.298 246.826 107.339 247.491C107.284 248.112 107.308 248.738 107.409 249.354C107.524 249.446 107.668 249.493 107.816 249.486C107.984 249.479 108.143 249.406 108.259 249.283C108.374 249.159 108.436 248.995 108.431 248.827C108.308 244.24 111.362 230.235 111.738 227.628C118.055 229.633 124.111 228.407 130.034 225.439L128.556 228.211C128.505 228.306 128.48 228.411 128.48 228.518C128.481 228.625 128.509 228.73 128.56 228.823C128.612 228.917 128.686 228.996 128.776 229.054C128.866 229.112 128.969 229.146 129.075 229.154C133.973 229.436 138.868 228.557 143.36 226.587C147.853 224.617 151.817 221.614 154.928 217.821C155.221 217.443 155.607 217.148 156.049 216.965C156.491 216.783 156.973 216.719 157.448 216.779C157.922 216.84 158.372 217.023 158.754 217.311C159.136 217.599 159.436 217.982 159.624 218.422L159.644 218.473C160.402 220.535 161.049 222.636 161.583 224.767C163.564 232.668 163.947 241.063 163.632 249.177C163.63 249.263 163.645 249.348 163.676 249.428C163.707 249.508 163.753 249.581 163.813 249.643C163.872 249.705 163.943 249.755 164.022 249.789C164.101 249.823 164.185 249.841 164.271 249.843C164.357 249.843 164.443 249.826 164.522 249.792C164.601 249.758 164.673 249.709 164.733 249.647C164.82 248.591 165.597 239.443 168.087 239.5C168.599 231.661 168.637 225.633 167.444 218.809Z" fill="#383849"/>
<path d="M148.283 266.239C145.287 263.339 141.394 261.543 137.243 261.146C136.919 261.116 134.936 261.107 134.608 261.134C130.454 261.494 126.545 263.254 123.523 266.127C113.14 263.282 107.064 245.768 107.064 245.105C107.182 250.417 107.667 255.715 108.515 260.96C108.581 261.367 108.646 261.771 108.711 262.173C109.378 266.249 110.141 270.08 112.409 273.7C114.652 277.121 117.467 280.13 120.731 282.596C123.443 284.866 126.563 286.598 129.925 287.697C131.836 288.234 133.819 288.465 135.802 288.382C137.783 288.483 139.769 288.27 141.684 287.751C145.055 286.682 148.191 284.978 150.924 282.733C154.21 280.297 157.053 277.313 159.326 273.913C161.627 270.314 162.425 266.492 163.128 262.42C163.197 262.019 163.266 261.615 163.335 261.209C164.335 254.884 164.972 248.507 165.241 242.109C165.239 242.772 160.552 263.911 148.283 266.239Z" fill="#383849"/>
<path d="M128.136 267.909C128.136 267.909 129.297 272.266 135.952 272.293C138.325 272.304 141.9 272.047 143.47 267.976C143.468 267.979 128.019 268.069 128.136 267.909Z" fill="#FF9973"/>
<path d="M127.999 233.349C124.261 232.36 120.311 232.525 116.669 233.822" stroke="#383849" stroke-width="3.341" stroke-linecap="round" stroke-linejoin="round"/>
<path d="M144.443 233.424C148.19 232.469 152.138 232.669 155.768 234" stroke="#383849" stroke-width="3.341" stroke-linecap="round" stroke-linejoin="round"/>
<path d="M150.045 247.108C149.483 247.117 148.932 246.959 148.46 246.653C147.989 246.348 147.62 245.909 147.399 245.393C147.178 244.876 147.116 244.306 147.221 243.754C147.326 243.202 147.593 242.694 147.987 242.295C148.382 241.896 148.887 241.623 149.437 241.511C149.988 241.4 150.559 241.455 151.078 241.67C151.597 241.884 152.04 242.249 152.351 242.716C152.662 243.184 152.827 243.734 152.824 244.295C152.82 245.034 152.527 245.743 152.008 246.268C151.488 246.794 150.784 247.095 150.045 247.108Z" fill="#383849"/>
<path d="M122.273 246.982C121.712 246.991 121.16 246.833 120.689 246.527C120.218 246.222 119.849 245.783 119.628 245.267C119.408 244.751 119.346 244.18 119.451 243.629C119.556 243.077 119.822 242.57 120.217 242.17C120.611 241.771 121.116 241.498 121.666 241.387C122.216 241.276 122.787 241.331 123.306 241.545C123.825 241.76 124.268 242.124 124.579 242.591C124.89 243.058 125.055 243.608 125.052 244.169C125.049 244.908 124.756 245.617 124.236 246.142C123.717 246.668 123.012 246.969 122.273 246.982Z" fill="#383849"/>
<path d="M130.683 238.23L133.701 244.796L133.645 257.003" stroke="#ED714B" stroke-width="1.989" stroke-linecap="round" stroke-linejoin="round"/>
<path d="M115.988 238.801L128.062 238.856C128.967 238.86 129.833 239.223 130.469 239.866C131.106 240.508 131.461 241.377 131.457 242.281L131.435 247.067C131.431 248.022 131.239 248.967 130.869 249.847C130.5 250.728 129.96 251.527 129.282 252.199C128.604 252.872 127.799 253.404 126.915 253.765C126.031 254.127 125.085 254.31 124.13 254.306L119.78 254.286C118.825 254.282 117.88 254.09 116.999 253.72C116.119 253.351 115.319 252.811 114.647 252.133C113.975 251.454 113.443 250.65 113.081 249.766C112.72 248.882 112.536 247.935 112.541 246.98L112.562 242.196C112.566 241.291 112.93 240.426 113.572 239.789C114.214 239.152 115.083 238.797 115.988 238.801V238.801Z" stroke="#383849" stroke-width="1.851" stroke-linecap="round" stroke-linejoin="round"/>
<path d="M144.193 238.929L156.268 238.983C157.172 238.987 158.038 239.351 158.675 239.993C159.311 240.636 159.667 241.505 159.663 242.409L159.641 247.194C159.636 248.149 159.444 249.094 159.075 249.975C158.705 250.855 158.166 251.655 157.487 252.327C156.809 252.999 156.005 253.531 155.121 253.893C154.237 254.254 153.29 254.438 152.335 254.434L147.985 254.414C147.03 254.409 146.086 254.217 145.205 253.848C144.324 253.478 143.525 252.939 142.853 252.26C142.18 251.582 141.648 250.777 141.287 249.893C140.925 249.009 140.742 248.063 140.746 247.108L140.768 242.323C140.772 241.419 141.135 240.553 141.778 239.916C142.42 239.28 143.289 238.924 144.193 238.929V238.929Z" stroke="#383849" stroke-width="1.851" stroke-linecap="round" stroke-linejoin="round"/>
<path d="M131.449 244.198L140.759 244.241" stroke="#383849" stroke-width="1.851" stroke-linecap="round" stroke-linejoin="round"/>
<path d="M112.368 244.111L103.002 238.742" stroke="#383849" stroke-width="1.851" stroke-linecap="round" stroke-linejoin="round"/>
<path d="M159.66 244.326L169.074 239.042" stroke="#383849" stroke-width="1.851" stroke-linecap="round" stroke-linejoin="round"/>
<path d="M168.047 238.4C164.439 243.453 160.45 250.038 156.841 255.09" stroke="white" stroke-width="1.989" stroke-linecap="round" stroke-linejoin="round"/>
<path d="M164.057 262.921L154.839 275.242" stroke="white" stroke-width="1.989" stroke-linecap="round" stroke-linejoin="round"/>
<path d="M103.828 238.105C107.391 243.19 111.319 249.811 114.882 254.897" stroke="white" stroke-width="1.989" stroke-linecap="round" stroke-linejoin="round"/>
<path d="M107.596 262.665L116.702 275.069" stroke="white" stroke-width="1.989" stroke-linecap="round" stroke-linejoin="round"/>
<path d="M115.928 251.416L156.001 251.598C156.829 251.601 157.621 251.934 158.204 252.522C158.787 253.11 159.112 253.905 159.108 254.733L159.063 264.686C159.038 270.14 156.848 275.361 152.974 279.2C149.1 283.038 143.86 285.181 138.406 285.156L133.218 285.133C127.764 285.108 122.543 282.918 118.704 279.044C114.866 275.17 112.723 269.93 112.747 264.476L112.793 254.523C112.796 253.695 113.129 252.902 113.717 252.32C114.305 251.737 115.1 251.412 115.928 251.416V251.416Z" fill="white"/>
<path d="M121.835 257.087L149.356 257.212" stroke="#CCCCCC" stroke-width="1.989" stroke-linecap="round" stroke-linejoin="round"/>
<path d="M121.809 262.73L149.33 262.854" stroke="#CCCCCC" stroke-width="1.989" stroke-linecap="round" stroke-linejoin="round"/>
<path d="M121.784 268.372L149.305 268.497" stroke="#CCCCCC" stroke-width="1.989" stroke-linecap="round" stroke-linejoin="round"/>
<path d="M121.758 274.014L149.279 274.139" stroke="#CCCCCC" stroke-width="1.989" stroke-linecap="round" stroke-linejoin="round"/>
<path d="M478.683 446.824L459.935 412.38L442.908 328.809L444.6 328.414C458.43 325.191 468.147 339.963 471.369 353.794L487.629 408.053L504.363 436.304C505.338 437.95 505.857 439.826 505.866 441.739C505.874 443.652 505.373 445.532 504.413 447.187C503.453 448.842 502.07 450.211 500.405 451.153C498.74 452.095 496.854 452.576 494.941 452.547L487.968 452.439C486.062 452.409 484.198 451.874 482.566 450.888C480.935 449.901 479.595 448.499 478.683 446.824Z" fill="#FF425B"/>
<path d="M463.113 336.612C457.92 330.998 452.785 326.507 444.602 328.415L442.91 328.809L459.935 412.381L465.886 423.315L463.113 336.612Z" fill="#383849"/>
<path d="M372.969 446.825L391.719 412.38L408.745 328.808L407.053 328.413C393.222 325.19 383.506 339.962 380.283 353.793L364.023 408.053L347.289 436.303C346.314 437.949 345.795 439.825 345.786 441.739C345.778 443.652 346.279 445.532 347.239 447.187C348.199 448.842 349.583 450.211 351.248 451.153C352.913 452.094 354.799 452.575 356.712 452.546L363.686 452.438C365.592 452.409 367.456 451.873 369.087 450.887C370.718 449.901 372.058 448.499 372.969 446.825Z" fill="#FF425B"/>
<path d="M388.54 336.612C393.733 330.998 398.868 326.507 407.052 328.414L408.744 328.809L391.719 412.38L385.767 423.314L388.54 336.612Z" fill="#383849"/>
<path d="M445.065 323.745C441.937 319.684 440.269 314.688 440.333 309.563V290.069H411.317V309.563C411.37 314.459 409.857 319.244 406.998 323.219V372.962H445.067L445.065 323.745Z" fill="#FF9973" stroke="#ED714B" stroke-width="2.362" stroke-miterlimit="10"/>
<path d="M426.777 315.691C431.23 315.399 435.524 313.92 439.212 311.408C439.903 310.937 440.56 310.417 441.178 309.853C441.178 309.756 441.17 309.66 441.17 309.562V289.028H410.479V309.562C410.479 310.055 410.46 310.543 410.43 311.028C415.006 314.931 421.742 315.911 426.777 315.691Z" fill="#ED714B"/>
<path d="M389.299 440.387C388.566 441.966 388.243 443.704 388.361 445.441C388.48 447.177 389.035 448.856 389.976 450.32C390.917 451.785 392.212 452.987 393.743 453.817C395.273 454.646 396.988 455.076 398.728 455.065L426.156 454.884L453.584 455.065C455.325 455.077 457.041 454.65 458.573 453.821C460.105 452.992 461.402 451.789 462.344 450.325C463.286 448.86 463.842 447.181 463.961 445.444C464.08 443.706 463.758 441.967 463.024 440.387C460.933 435.899 459.102 431.445 458.63 428.737C454.977 407.832 465.264 344.11 465.264 344.11C465.197 339.034 462.919 334.445 459.216 332.135C457.34 330.964 450.702 326.876 447.03 323.998C445.431 322.746 445.936 316.674 444.051 315.946C442.734 315.437 438.425 318.593 437.01 319.099C429.973 321.471 422.353 321.471 415.316 319.099C413.902 318.596 409.592 315.44 408.275 315.946C406.391 316.674 406.895 322.746 405.296 323.998C401.625 326.876 394.986 330.964 393.11 332.135C389.408 334.442 387.13 339.032 387.061 344.11C387.061 344.11 397.349 407.832 393.696 428.737C393.22 431.445 391.39 435.899 389.299 440.387Z" fill="#FF425B"/>
<path d="M427.155 207.317H427.154C412.468 207.317 400.563 219.222 400.563 233.907V252.316C400.563 267.002 412.468 278.907 427.154 278.907H427.155C441.84 278.907 453.745 267.002 453.745 252.316V233.907C453.745 219.222 441.84 207.317 427.155 207.317Z" fill="#383849"/>
<path d="M426.801 235.764C436.796 235.764 444.899 231.444 444.899 226.114C444.899 220.785 436.796 216.464 426.801 216.464C416.805 216.464 408.703 220.785 408.703 226.114C408.703 231.444 416.805 235.764 426.801 235.764Z" fill="#BD4444"/>
<path d="M392.416 283.517C393.099 284.978 398.329 292.326 400.107 289.276C401.003 287.738 400.329 283.933 400.183 282.214C399.984 279.797 399.568 277.403 398.94 275.061C398.488 273.38 397.872 271.641 396.546 270.512C393.883 268.243 391.224 270.271 390.602 273.152C389.847 276.671 390.951 280.382 392.416 283.517Z" fill="#FF9973" stroke="#ED714B" stroke-width="2.362" stroke-miterlimit="10"/>
<path d="M459.771 283.823C459.079 285.278 453.777 292.577 452.028 289.514C451.145 287.966 451.854 284.169 452.012 282.451C452.233 280.037 452.67 277.648 453.319 275.312C453.786 273.635 454.418 271.901 455.754 270.784C458.437 268.54 461.078 270.592 461.676 273.476C462.401 277 461.264 280.701 459.771 283.823Z" fill="#FF9973" stroke="#ED714B" stroke-width="2.362" stroke-miterlimit="10"/>
<path d="M454.575 273.796C454.611 275.818 454.361 277.849 454.207 279.877C453.741 286.045 452.698 292.171 449.636 297.738C446.658 303.152 442.058 308.229 436.71 310.791C432.427 312.842 427.654 313.646 422.936 313.114C418.218 312.581 413.745 310.732 410.028 307.778C404.556 303.433 401.064 296.91 399.36 290.076C397.77 284.433 397.266 278.539 397.877 272.708C397.877 272.708 399.688 254.581 403.44 246.79C407.191 238.999 413.863 227.392 425.229 227.844C443.72 228.58 455.935 237.891 454.575 273.796Z" fill="#FF9973" stroke="#ED714B" stroke-width="2.362" stroke-miterlimit="10"/>
<path d="M459.239 251.866C458.05 241.885 454.743 231.232 446.631 224.723C436.689 216.743 422.397 216.505 411.223 221.966C402.978 225.996 398.297 233.926 396.085 242.563C395.43 245.124 393.659 256.68 394.022 268.356C395.678 268.879 396.383 270.591 396.761 272.141C396.955 272.935 397.095 273.756 397.213 274.562C397.309 275.221 397.358 275.89 397.399 276.555C397.449 277.395 397.274 277.986 397.719 278.677C399.824 277.853 399.572 273.002 399.857 271.063L401.234 261.642C402.12 255.582 404.513 245.903 404.513 245.903L403.76 261.571L439.416 261.373L440.797 249.137L442.176 261.349C442.176 261.349 444.88 261.344 448.605 261.391C449.399 257.368 448.648 244.365 448.648 244.365C448.648 244.365 453.257 262.985 453.614 267.145C453.93 270.842 453.697 274.541 453.697 278.241C453.695 278.327 453.71 278.412 453.741 278.492C453.772 278.572 453.819 278.645 453.878 278.707C453.938 278.769 454.009 278.819 454.087 278.853C454.166 278.887 454.251 278.905 454.336 278.907C454.423 278.907 454.508 278.889 454.587 278.856C454.667 278.822 454.738 278.773 454.798 278.71C455.085 275.194 454.915 273.397 456.86 270.372C458.497 267.825 459.119 270.224 459.366 267.086C459.761 262.019 459.718 256.927 459.239 251.866Z" fill="#383849"/>
<path d="M418.059 266.15C414.321 265.161 410.371 265.326 406.729 266.623" stroke="#383849" stroke-width="1.458" stroke-linecap="round" stroke-linejoin="round"/>
<path d="M434.503 266.224C438.25 265.269 442.198 265.47 445.828 266.8" stroke="#383849" stroke-width="1.458" stroke-linecap="round" stroke-linejoin="round"/>
<path d="M440.139 277.052C439.403 277.065 438.679 276.858 438.061 276.457C437.443 276.057 436.958 275.481 436.669 274.804C436.379 274.127 436.298 273.379 436.435 272.655C436.572 271.932 436.921 271.266 437.439 270.741C437.956 270.217 438.618 269.859 439.34 269.713C440.062 269.566 440.811 269.638 441.491 269.919C442.172 270.2 442.754 270.678 443.162 271.291C443.57 271.904 443.787 272.624 443.784 273.361C443.779 274.33 443.395 275.26 442.714 275.95C442.033 276.639 441.109 277.035 440.139 277.052Z" fill="#383849"/>
<path d="M411.916 276.899C411.185 276.911 410.467 276.705 409.853 276.307C409.24 275.91 408.759 275.338 408.471 274.666C408.184 273.993 408.103 273.251 408.24 272.532C408.376 271.814 408.724 271.153 409.238 270.633C409.752 270.113 410.409 269.757 411.125 269.612C411.842 269.467 412.586 269.539 413.261 269.819C413.937 270.098 414.514 270.572 414.919 271.181C415.324 271.79 415.539 272.505 415.535 273.237C415.53 274.199 415.149 275.121 414.472 275.806C413.796 276.49 412.878 276.883 411.916 276.899Z" fill="#383849"/>
<path d="M420.743 267.294L423.784 271.173L423.729 283.38" stroke="#ED714B" stroke-width="1.989" stroke-linecap="round" stroke-linejoin="round"/>
<path d="M419.195 296.717H433.125" stroke="#ED714B" stroke-width="1.989" stroke-linecap="round" stroke-linejoin="round"/>
<path d="M458.107 267.464C454.499 272.516 450.51 279.102 446.901 284.154" stroke="white" stroke-width="1.989" stroke-linecap="round" stroke-linejoin="round"/>
<path d="M454.117 291.985L444.899 304.306" stroke="white" stroke-width="1.989" stroke-linecap="round" stroke-linejoin="round"/>
<path d="M393.888 267.177C397.451 272.262 401.379 278.883 404.942 283.968" stroke="white" stroke-width="1.989" stroke-linecap="round" stroke-linejoin="round"/>
<path d="M397.655 291.729L406.761 304.133" stroke="white" stroke-width="1.989" stroke-linecap="round" stroke-linejoin="round"/>
<path d="M405.988 280.479L446.061 280.661C446.889 280.665 447.681 280.997 448.264 281.585C448.847 282.173 449.172 282.968 449.168 283.796L449.123 293.75C449.098 299.203 446.908 304.424 443.034 308.263C439.16 312.102 433.92 314.245 428.466 314.22L423.278 314.196C417.824 314.172 412.603 311.981 408.764 308.107C404.925 304.234 402.783 298.993 402.807 293.539L402.853 283.586C402.856 282.758 403.189 281.966 403.777 281.383C404.365 280.801 405.16 280.475 405.988 280.479V280.479Z" fill="white"/>
<path d="M411.895 286.152L439.416 286.276" stroke="#CCCCCC" stroke-width="1.989" stroke-linecap="round" stroke-linejoin="round"/>
<path d="M411.869 291.793L439.39 291.918" stroke="#CCCCCC" stroke-width="1.989" stroke-linecap="round" stroke-linejoin="round"/>
<path d="M411.844 297.436L439.365 297.56" stroke="#CCCCCC" stroke-width="1.989" stroke-linecap="round" stroke-linejoin="round"/>
<path d="M411.818 303.078L439.339 303.203" stroke="#CCCCCC" stroke-width="1.989" stroke-linecap="round" stroke-linejoin="round"/>
<path d="M622.818 339.194L618.995 261.423C618.344 255.355 615.473 249.742 610.934 245.664C606.394 241.585 600.507 239.329 594.405 239.329H579.626C573.524 239.329 567.637 241.585 563.097 245.664C558.558 249.742 555.687 255.355 555.036 261.423L551.21 339.194H622.818Z" fill="#664431"/>
<path d="M551.21 413.792C547.76 413.792 544.451 412.422 542.012 409.982C539.573 407.543 538.202 404.234 538.202 400.785L544.181 346.233C544.181 346.233 549.909 328.438 564.218 328.438V400.785C564.218 402.493 563.882 404.184 563.228 405.762C562.574 407.341 561.616 408.775 560.408 409.983C559.2 411.19 557.766 412.149 556.188 412.802C554.61 413.456 552.918 413.792 551.21 413.792Z" fill="#14649C"/>
<path d="M560.613 328.695L548.136 413.411C550.049 413.886 552.046 413.917 553.974 413.504C555.901 413.09 557.709 412.242 559.26 411.025C560.811 409.807 562.063 408.252 562.923 406.478C563.782 404.703 564.225 402.756 564.218 400.785V328.438C563.012 328.44 561.808 328.526 560.613 328.695Z" fill="#383849"/>
<path d="M624.432 414.108C627.882 414.108 631.19 412.737 633.629 410.298C636.069 407.858 637.439 404.55 637.439 401.1L631.46 346.548C631.46 346.548 625.732 328.753 611.423 328.753V401.1C611.423 404.55 612.794 407.858 615.233 410.298C617.673 412.738 620.982 414.108 624.432 414.108Z" fill="#14649C"/>
<path d="M615.028 329.011L627.505 413.727C625.591 414.202 623.595 414.233 621.667 413.82C619.739 413.406 617.931 412.558 616.38 411.341C614.83 410.123 613.577 408.568 612.718 406.793C611.859 405.018 611.416 403.071 611.423 401.1V328.753C612.629 328.755 613.834 328.841 615.028 329.011Z" fill="#0D4F7D"/>
<path d="M610.788 329.549L610.255 329.233C605.165 326.212 601.992 320.359 601.992 313.992V297.208H573.886V313.988C573.886 320.355 570.712 326.208 565.623 329.229L564.182 330.084V368.564H610.789L610.788 329.549Z" fill="#FFAB73" stroke="#ED864B" stroke-width="2.251" stroke-miterlimit="10"/>
<path d="M588.861 319.264C593.116 319.03 597.25 317.765 600.907 315.576C601.571 315.174 602.207 314.727 602.811 314.238C602.811 314.154 602.803 314.072 602.803 313.988V296.314H573.074V313.988C573.074 314.412 573.056 314.834 573.027 315.25C577.459 318.609 583.984 319.452 588.861 319.264Z" fill="#ED864B"/>
<path d="M588.269 454.801L622.826 455.068L618.631 399.062V335.364C617.857 331.887 617.431 329.91 617.431 329.91C617.431 329.91 615.124 328.551 609.299 324.88C607.959 333.98 597.508 341.484 588.269 341.703V341.696L588.154 341.701L588.039 341.696V341.701C578.8 341.483 568.351 333.979 567.009 324.878C561.18 328.549 558.979 329.443 558.979 329.443C558.979 329.443 558.452 331.885 557.677 335.365V399.063L553.481 455.065L588.038 454.798H588.268L588.269 454.801Z" fill="#14649C"/>
<path d="M629.258 393.23L571.981 375.645L571.94 375.633C570.097 375.053 568.134 374.978 566.252 375.413C564.37 375.849 562.64 376.78 561.24 378.111L546.864 393.472L549.402 399.471L567.901 393.792L623.813 410.958C624.977 411.316 626.2 411.44 627.412 411.325C628.625 411.21 629.802 410.857 630.878 410.287C631.954 409.717 632.907 408.94 633.683 408.001C634.458 407.063 635.041 405.98 635.399 404.816" fill="#FFAB73"/>
<path d="M629.258 393.23L571.981 375.645L571.94 375.633C570.097 375.053 568.134 374.978 566.252 375.413C564.37 375.849 562.64 376.78 561.24 378.111L546.864 393.472L549.402 399.471L567.901 393.792L623.813 410.958C624.977 411.316 626.2 411.44 627.412 411.325C628.625 411.21 629.802 410.857 630.878 410.287C631.954 409.717 632.907 408.94 633.682 408.001C634.458 407.063 635.041 405.98 635.399 404.816" stroke="#ED864B" stroke-width="2.362" stroke-miterlimit="10"/>
<path d="M593.174 379.01L604.14 375.643L604.182 375.631C606.024 375.052 607.988 374.976 609.869 375.412C611.751 375.848 613.482 376.779 614.882 378.109L629.258 393.471L627.192 391.869L608.689 386.189L597.624 391.05" fill="#FFAB73"/>
<path d="M577.223 376.314L629.276 389.35C632.548 390.444 635.251 392.794 636.79 395.881C638.33 398.969 638.58 402.541 637.485 405.813C636.943 407.433 636.087 408.93 634.967 410.22C633.846 411.509 632.482 412.565 630.953 413.327C629.425 414.089 627.761 414.543 626.057 414.662C624.352 414.781 622.641 414.563 621.021 414.021L570.288 394.393C573.553 386.334 574.985 384.686 577.223 376.314Z" fill="#14649C"/>
<path d="M553.439 280.851C554.122 282.312 559.354 289.66 561.13 286.61C562.027 285.072 561.353 281.267 561.211 279.548C561.011 277.131 560.595 274.737 559.967 272.395C559.515 270.713 558.898 268.974 557.573 267.845C554.91 265.577 552.25 267.605 551.629 270.486C550.871 274.006 551.974 277.713 553.439 280.851Z" fill="#FFAB73" stroke="#ED864B" stroke-width="2.362" stroke-miterlimit="10"/>
<path d="M620.795 281.157C620.102 282.612 614.801 289.912 613.052 286.848C612.169 285.301 612.878 281.503 613.036 279.786C613.257 277.372 613.694 274.982 614.343 272.646C614.81 270.97 615.443 269.236 616.778 268.119C619.463 265.875 622.104 267.926 622.7 270.811C623.425 274.335 622.288 278.035 620.795 281.157Z" fill="#FFAB73" stroke="#ED864B" stroke-width="2.362" stroke-miterlimit="10"/>
<path d="M615.599 271.13C615.635 273.153 615.385 275.183 615.232 277.211C614.766 283.38 613.722 289.505 610.66 295.072C607.682 300.486 603.082 305.564 597.733 308.126C593.451 310.176 588.678 310.981 583.96 310.448C579.242 309.915 574.769 308.066 571.052 305.112C565.579 300.767 562.088 294.244 560.384 287.41C558.794 281.767 558.29 275.874 558.901 270.043C558.901 270.043 560.712 251.915 564.464 244.125C568.217 236.334 574.887 224.727 586.253 225.179C604.741 225.915 616.958 235.225 615.599 271.13Z" fill="#FFAB73" stroke="#ED864B" stroke-width="2.362" stroke-miterlimit="10"/>
<path d="M618.528 245.207C616.221 232.021 606.838 222.22 594.623 220.238C588.705 219.278 577.642 218.315 569.982 222.685C557.169 229.992 556.154 247.245 555.34 261.11C555.246 262.694 555.151 264.215 555.045 265.69C556.702 266.213 557.407 267.925 557.785 269.475C557.979 270.27 558.119 271.09 558.237 271.896C558.334 272.555 558.382 273.224 558.422 273.889C558.368 274.51 558.392 275.136 558.492 275.752C558.608 275.844 558.753 275.891 558.9 275.884C559.068 275.877 559.226 275.805 559.341 275.683C559.456 275.56 559.519 275.398 559.515 275.23C559.438 271.209 560.454 267.401 561.053 263.463C561.236 262.262 561.097 260.87 561.573 259.759C562.258 258.16 564.012 256.656 564.965 255.158C569.058 248.73 571.097 241.208 570.81 233.593C574.215 241.937 580.262 248.935 588.024 253.513C595.787 258.092 604.836 259.998 613.786 258.941C614.802 258.796 614.763 274.254 614.709 275.576C614.707 275.662 614.722 275.747 614.753 275.827C614.784 275.907 614.83 275.98 614.89 276.042C614.949 276.104 615.02 276.154 615.099 276.188C615.177 276.222 615.262 276.24 615.348 276.242C615.434 276.242 615.519 276.225 615.599 276.191C615.678 276.157 615.75 276.108 615.809 276.045C615.895 274.99 616.674 265.842 619.163 265.899C619.682 258.059 619.72 252.031 618.528 245.207Z" fill="#664431"/>
<path d="M579.079 262.737C575.342 261.747 571.392 261.912 567.75 263.21" stroke="#664431" stroke-width="1.458" stroke-linecap="round" stroke-linejoin="round"/>
<path d="M595.527 262.812C599.273 261.856 603.222 262.057 606.852 263.388" stroke="#664431" stroke-width="1.458" stroke-linecap="round" stroke-linejoin="round"/>
<path d="M601.129 273.506C600.567 273.515 600.016 273.357 599.545 273.051C599.073 272.746 598.704 272.307 598.483 271.791C598.263 271.274 598.201 270.704 598.305 270.152C598.41 269.6 598.677 269.092 599.072 268.693C599.467 268.294 599.971 268.021 600.522 267.909C601.072 267.798 601.643 267.853 602.162 268.068C602.681 268.282 603.124 268.647 603.435 269.114C603.746 269.582 603.911 270.132 603.908 270.693C603.905 271.432 603.612 272.14 603.092 272.666C602.573 273.192 601.868 273.493 601.129 273.506Z" fill="#664431"/>
<path d="M573.357 273.38C572.796 273.389 572.245 273.231 571.773 272.926C571.302 272.62 570.933 272.182 570.712 271.665C570.492 271.149 570.43 270.579 570.534 270.027C570.639 269.476 570.906 268.968 571.3 268.569C571.695 268.169 572.199 267.897 572.75 267.785C573.3 267.674 573.871 267.729 574.39 267.943C574.909 268.158 575.352 268.522 575.663 268.989C575.974 269.457 576.139 270.006 576.136 270.567C576.132 271.306 575.839 272.014 575.32 272.54C574.8 273.066 574.096 273.367 573.357 273.38Z" fill="#664431"/>
<path d="M581.767 264.629L584.781 271.194L580.921 283.404" stroke="#ED864B" stroke-width="1.989" stroke-linecap="round" stroke-linejoin="round"/>
<path d="M619.387 264.799C615.779 269.851 611.789 276.436 608.181 281.488" stroke="white" stroke-width="1.989" stroke-linecap="round" stroke-linejoin="round"/>
<path d="M615.397 289.319L606.179 301.64" stroke="white" stroke-width="1.989" stroke-linecap="round" stroke-linejoin="round"/>
<path d="M555.168 264.507C558.73 269.592 562.659 276.214 566.222 281.299" stroke="white" stroke-width="1.989" stroke-linecap="round" stroke-linejoin="round"/>
<path d="M558.935 289.063L568.041 301.467" stroke="white" stroke-width="1.989" stroke-linecap="round" stroke-linejoin="round"/>
<path d="M567.266 277.815L607.341 278.016C608.169 278.02 608.961 278.353 609.543 278.941C610.126 279.529 610.45 280.325 610.446 281.152L610.397 291.106C610.369 296.56 608.177 301.779 604.301 305.617C600.425 309.454 595.184 311.594 589.73 311.567L584.542 311.541C579.088 311.514 573.868 309.321 570.031 305.445C566.194 301.57 564.053 296.328 564.081 290.874L564.13 280.92C564.134 280.092 564.467 279.3 565.055 278.718C565.643 278.136 566.439 277.811 567.266 277.815V277.815Z" fill="white"/>
<path d="M573.174 283.486L600.695 283.61" stroke="#CCCCCC" stroke-width="1.989" stroke-linecap="round" stroke-linejoin="round"/>
<path d="M573.149 289.128L600.67 289.252" stroke="#CCCCCC" stroke-width="1.989" stroke-linecap="round" stroke-linejoin="round"/>
<path d="M573.123 294.77L600.645 294.894" stroke="#CCCCCC" stroke-width="1.989" stroke-linecap="round" stroke-linejoin="round"/>
<path d="M573.097 300.413L600.618 300.537" stroke="#CCCCCC" stroke-width="1.989" stroke-linecap="round" stroke-linejoin="round"/>
<path d="M598.631 374.717L546.596 388.907C545.01 389.54 543.564 390.48 542.341 391.673C541.118 392.866 540.141 394.288 539.468 395.858C538.795 397.427 538.437 399.115 538.416 400.823C538.394 402.531 538.71 404.227 539.344 405.813C540.624 409.016 543.124 411.58 546.295 412.94C549.465 414.3 553.046 414.345 556.25 413.065L605.779 390.563C602.055 382.705 601.345 382.947 598.631 374.717Z" fill="#14649C"/>
<path d="M538.933 396.485C540.248 394.253 542.056 392.352 544.217 390.924C546.379 389.497 548.838 388.583 551.408 388.25" stroke="#383849" stroke-width="1.89" stroke-linecap="round" stroke-linejoin="round"/>
<path d="M239.886 409.313C241.763 409.346 243.627 408.997 245.366 408.288C247.105 407.579 248.681 406.524 249.999 405.187C251.318 403.85 252.351 402.259 253.037 400.511C253.722 398.763 254.045 396.894 253.986 395.017C253.022 364.504 245.884 318.151 243.942 316.118C242.507 314.614 240.328 317.766 238.673 320.865C237.342 323.389 236.263 326.037 235.451 328.772C234.404 332.222 229.257 371.35 226.369 393.675C226.119 395.61 226.28 397.576 226.841 399.444C227.403 401.312 228.353 403.041 229.628 404.517C230.904 405.993 232.477 407.183 234.244 408.009C236.011 408.836 237.933 409.28 239.883 409.313H239.886Z" fill="#383849"/>
<path d="M253.377 455.065H226.453V394.932C226.452 393.164 226.8 391.414 227.476 389.78C228.152 388.147 229.144 386.663 230.393 385.412C231.643 384.162 233.127 383.17 234.76 382.494C236.393 381.817 238.144 381.469 239.912 381.469C241.68 381.468 243.431 381.816 245.064 382.493C246.698 383.169 248.182 384.161 249.433 385.411C250.683 386.661 251.674 388.146 252.351 389.779C253.027 391.413 253.375 393.164 253.375 394.932L253.377 455.065Z" fill="#383849"/>
<path d="M357.894 409.328C356.017 409.354 354.154 408.998 352.418 408.282C350.682 407.566 349.109 406.505 347.796 405.163C346.482 403.822 345.455 402.227 344.776 400.476C344.098 398.726 343.782 396.855 343.848 394.979C344.924 364.469 352.239 318.147 354.19 316.118C355.631 314.62 357.799 317.78 359.441 320.886C360.761 323.416 361.829 326.069 362.631 328.808C363.664 332.262 368.665 371.409 371.468 393.746C371.711 395.682 371.542 397.647 370.974 399.513C370.405 401.379 369.449 403.104 368.167 404.575C366.886 406.046 365.309 407.23 363.539 408.05C361.768 408.87 359.845 409.307 357.894 409.332V409.328Z" fill="#383849"/>
<path d="M371.983 455.065H345.058V394.932C345.057 393.164 345.405 391.414 346.081 389.78C346.757 388.147 347.748 386.663 348.998 385.412C350.248 384.162 351.732 383.17 353.365 382.494C354.998 381.817 356.749 381.469 358.517 381.469C360.285 381.468 362.036 381.816 363.669 382.493C365.303 383.169 366.787 384.161 368.037 385.411C369.288 386.661 370.279 388.146 370.956 389.779C371.632 391.413 371.98 393.164 371.979 394.932L371.983 455.065Z" fill="#383849"/>
<path d="M299.234 319.482C294.706 319.482 290.363 317.683 287.161 314.481C283.959 311.279 282.16 306.937 282.16 302.408V263.552H316.307V302.409C316.307 306.937 314.508 311.28 311.306 314.482C308.105 317.683 303.762 319.482 299.234 319.482Z" fill="#92604E" stroke="#804533" stroke-width="2.362" stroke-miterlimit="10"/>
<path d="M282.161 263.552V284.886C282.161 289.414 283.96 293.757 287.162 296.959C290.364 300.161 294.707 301.96 299.235 301.96C303.763 301.96 308.106 300.161 311.308 296.959C314.51 293.757 316.308 289.414 316.308 284.886V263.552H282.161Z" fill="#804533"/>
<path d="M330.682 389.712V304.343H316.122C314.204 304.343 312.318 304.844 310.652 305.796C308.986 306.747 307.598 308.117 306.623 309.77L299.755 321.419L291.305 307.295C290.766 306.395 290.004 305.65 289.091 305.133C288.179 304.616 287.148 304.343 286.099 304.343H267.445V389.712H330.682Z" fill="white"/>
<path d="M330.682 389.712V304.343H316.122C314.204 304.343 312.318 304.844 310.652 305.796C308.986 306.747 307.598 308.117 306.623 309.77L299.755 321.419L291.305 307.295C290.766 306.395 290.004 305.65 289.091 305.133C288.179 304.616 287.148 304.343 286.099 304.343H267.445V389.712H330.682Z" fill="#E6E6E6"/>
<path d="M346.286 455.064H298.387V391.085L318.331 292.084L354.94 315.695C354.94 315.695 345.807 373.233 344.734 386.438C344.525 389.006 346.286 455.064 346.286 455.064Z" fill="#FDF079"/>
<path d="M251.765 455.064H299.663V391.084L279.72 292.084L243.111 315.695C243.111 315.695 252.243 373.233 253.316 386.438C253.525 389.005 251.765 455.064 251.765 455.064Z" fill="#FDF079"/>
<path d="M334.712 399.179C328.042 411.798 316.391 427.517 316.391 427.517" stroke="#383849" stroke-width="1.673" stroke-linecap="round" stroke-linejoin="round"/>
<path d="M300.38 383.4H297.699C296.731 383.4 295.946 384.185 295.946 385.153V389.28C295.946 390.249 296.731 391.034 297.699 391.034H300.38C301.348 391.034 302.133 390.249 302.133 389.28V385.153C302.133 384.185 301.348 383.4 300.38 383.4Z" fill="#3C333F"/>
<path d="M299.234 386.438L299.183 380.205" stroke="#3C333F" stroke-width="4.112" stroke-miterlimit="10"/>
<path d="M293.484 309.206C289.528 308.572 285.474 309.055 281.778 310.601C277.803 312.337 273.988 314.42 270.378 316.825C270.378 316.825 270.702 296.136 272.003 293.281C273.303 290.425 281.335 279.928 281.335 279.928C281.335 279.928 280.366 290.219 284.153 297.483C290.413 305.961 293.484 309.206 293.484 309.206Z" fill="#383849"/>
<path d="M307.121 309.092C307.121 309.092 310.654 307.906 316.745 310.488C320.721 312.224 324.536 314.306 328.147 316.712C328.147 316.712 327.822 296.023 326.521 293.168C325.22 290.312 317.333 279.923 317.333 279.923C317.333 279.923 318.157 290.106 314.37 297.37C308.111 305.85 307.121 309.092 307.121 309.092Z" fill="#383849"/>
<path d="M290.092 306.213C292.404 308.407 294.448 310.866 296.183 313.539C297.672 315.834 299.637 318.601 299.443 321.364C298.924 328.754 299.52 336.367 299.624 343.782" stroke="#3C333F" stroke-width="4.112" stroke-miterlimit="10"/>
<path d="M310.842 304.803L299.664 319.923" stroke="#3C333F" stroke-width="4.112" stroke-miterlimit="10"/>
<path d="M302.871 336.811V336.678" stroke="#3C333F" stroke-width="4.112" stroke-miterlimit="10"/>
<path d="M265.269 264.379C265.951 265.84 271.182 273.188 272.959 270.138C273.856 268.6 273.182 264.795 273.036 263.076C272.837 260.659 272.421 258.265 271.793 255.923C271.341 254.242 270.724 252.503 269.399 251.374C266.736 249.105 264.076 251.132 263.455 254.013C262.7 257.533 263.803 261.244 265.269 264.379Z" fill="#92604E" stroke="#804533" stroke-width="2.362" stroke-miterlimit="10"/>
<path d="M332.894 264.776C332.202 266.231 326.901 273.531 325.152 270.467C324.268 268.92 324.977 265.122 325.135 263.405C325.356 260.991 325.794 258.601 326.443 256.265C326.909 254.589 327.542 252.855 328.877 251.739C331.561 249.494 334.202 251.546 334.799 254.43C335.527 257.954 334.39 261.654 332.894 264.776Z" fill="#92604E" stroke="#804533" stroke-width="2.362" stroke-miterlimit="10"/>
<path d="M327.428 254.658C327.464 256.681 327.213 258.711 327.06 260.74C326.594 266.908 325.551 273.034 322.489 278.601C319.51 284.015 314.911 289.092 309.563 291.654C305.28 293.704 300.507 294.509 295.789 293.976C291.071 293.443 286.598 291.595 282.881 288.641C277.409 284.296 273.916 277.772 272.213 270.939C270.622 265.296 270.119 259.402 270.73 253.571C270.73 253.571 272.54 235.444 276.293 227.653C280.045 219.862 286.716 208.255 298.082 208.707C316.569 209.443 328.787 218.754 327.428 254.658Z" fill="#92604E" stroke="#804533" stroke-width="2.362" stroke-miterlimit="10"/>
<path d="M332.295 228.705C331.396 211.679 318.392 198.525 301.215 197.973C291.755 197.666 282.078 201.341 275.691 208.433C270.661 214.018 268.442 221.371 267.539 228.697C267.118 232.415 266.905 236.152 266.901 239.893C266.892 240.797 266.398 249.069 266.874 249.219C268.531 249.742 269.236 251.455 269.614 253.004C269.808 253.798 269.948 254.619 270.066 255.425C270.162 256.084 270.211 256.753 270.251 257.417C270.197 258.039 270.22 258.665 270.321 259.281C270.436 259.373 270.581 259.42 270.728 259.413C270.897 259.406 271.056 259.333 271.172 259.21C271.287 259.086 271.349 258.922 271.344 258.753C271.203 253.514 272.595 248.405 273.785 243.381C275.105 237.806 275.2 234.299 277.034 228.864C277.411 227.986 277.967 227.197 278.665 226.545C279.363 225.893 280.189 225.393 281.09 225.077C282.674 224.524 284.364 225.369 285.889 226.07C289.697 227.8 293.81 228.761 297.991 228.897C302.172 229.033 306.338 228.342 310.251 226.862C313.189 225.734 316.347 224.138 319.318 225.17C320.273 225.562 321.137 226.147 321.855 226.888C322.574 227.629 323.131 228.511 323.492 229.477C324.203 231.413 324.639 233.438 324.79 235.495C325.388 240.472 326.036 243.042 326.461 248.005C326.778 251.703 326.545 255.402 326.545 259.102C326.543 259.188 326.557 259.273 326.588 259.353C326.619 259.433 326.666 259.506 326.725 259.568C326.785 259.63 326.856 259.68 326.935 259.714C327.013 259.748 327.098 259.767 327.184 259.768C327.27 259.768 327.356 259.751 327.435 259.717C327.514 259.683 327.586 259.634 327.645 259.571C327.917 256.248 328.227 252.522 330.221 249.78C332.827 246.194 332.338 240.331 332.392 236.131C332.422 233.754 332.433 231.242 332.295 228.705Z" fill="#383849"/>
<path d="M290.911 241.781C287.174 240.792 283.224 240.957 279.582 242.254" stroke="#383849" stroke-width="6.802" stroke-linecap="round" stroke-linejoin="round"/>
<path d="M307.356 241.856C311.103 240.9 315.051 241.101 318.681 242.432" stroke="#383849" stroke-width="6.802" stroke-linecap="round" stroke-linejoin="round"/>
<path d="M312.957 257.034C312.396 257.044 311.844 256.886 311.373 256.58C310.902 256.275 310.532 255.836 310.312 255.32C310.091 254.803 310.029 254.233 310.134 253.681C310.238 253.129 310.505 252.622 310.9 252.222C311.295 251.823 311.799 251.55 312.35 251.438C312.9 251.327 313.471 251.382 313.99 251.596C314.509 251.811 314.952 252.175 315.263 252.643C315.575 253.11 315.739 253.66 315.737 254.221C315.733 254.96 315.44 255.668 314.92 256.194C314.401 256.72 313.696 257.022 312.957 257.034Z" fill="#383849"/>
<path d="M285.186 256.909C284.624 256.918 284.073 256.76 283.601 256.454C283.13 256.149 282.761 255.71 282.54 255.194C282.319 254.677 282.257 254.107 282.362 253.555C282.467 253.004 282.733 252.496 283.128 252.096C283.523 251.697 284.027 251.424 284.578 251.312C285.128 251.201 285.699 251.256 286.218 251.47C286.737 251.685 287.181 252.049 287.492 252.517C287.803 252.984 287.968 253.534 287.965 254.095C287.962 254.834 287.669 255.543 287.149 256.069C286.63 256.595 285.925 256.896 285.186 256.909Z" fill="#383849"/>
<path d="M293.594 248.157L296.636 252.036L296.58 264.243" stroke="#804533" stroke-width="1.989" stroke-linecap="round" stroke-linejoin="round"/>
<path d="M292.047 277.581H305.978" stroke="#ED714B" stroke-width="1.989" stroke-linecap="round" stroke-linejoin="round"/>
<path d="M330.96 248.326C327.352 253.379 323.363 259.965 319.754 265.016" stroke="white" stroke-width="1.989" stroke-linecap="round" stroke-linejoin="round"/>
<path d="M326.97 272.848L317.752 285.169" stroke="white" stroke-width="1.989" stroke-linecap="round" stroke-linejoin="round"/>
<path d="M266.741 248.035C270.303 253.12 274.232 259.742 277.795 264.827" stroke="white" stroke-width="1.989" stroke-linecap="round" stroke-linejoin="round"/>
<path d="M270.508 272.592L279.614 284.996" stroke="white" stroke-width="1.989" stroke-linecap="round" stroke-linejoin="round"/>
<path d="M278.841 261.342L318.915 261.524C319.743 261.528 320.535 261.86 321.117 262.448C321.7 263.036 322.025 263.831 322.021 264.658L321.976 274.612C321.951 280.066 319.761 285.287 315.887 289.126C312.013 292.965 306.773 295.107 301.319 295.083L296.131 295.059C290.677 295.034 285.456 292.844 281.617 288.97C277.778 285.096 275.636 279.856 275.66 274.402L275.705 264.449C275.709 263.621 276.042 262.829 276.63 262.246C277.218 261.663 278.013 261.338 278.841 261.342V261.342Z" fill="white"/>
<path d="M284.748 267.013L312.269 267.138" stroke="#CCCCCC" stroke-width="1.989" stroke-linecap="round" stroke-linejoin="round"/>
<path d="M284.722 272.656L312.243 272.781" stroke="#CCCCCC" stroke-width="1.989" stroke-linecap="round" stroke-linejoin="round"/>
<path d="M284.696 278.299L312.217 278.423" stroke="#CCCCCC" stroke-width="1.989" stroke-linecap="round" stroke-linejoin="round"/>
<path d="M284.671 283.94L312.192 284.065" stroke="#CCCCCC" stroke-width="1.989" stroke-linecap="round" stroke-linejoin="round"/>
<path d="M323.638 252.591L330.895 249.949C331.138 249.86 331.347 249.699 331.495 249.488C331.644 249.276 331.723 249.024 331.723 248.766C331.723 248.584 331.684 248.404 331.608 248.239C331.532 248.074 331.421 247.927 331.283 247.809C331.145 247.691 330.983 247.604 330.808 247.554C330.633 247.504 330.45 247.493 330.27 247.52L323.642 248.547L323.638 252.591Z" fill="#383849"/>
<path d="M302.111 255.452C301.56 254.385 299.826 254.005 298.508 254.004H298.5C296.66 254.004 295.089 254.967 294.917 255.374L292.852 254.502C293.544 252.862 296.329 251.762 298.502 251.762H298.51C301.153 251.762 303.244 252.762 304.104 254.425L302.111 255.452Z" fill="#383849"/>
<path d="M306.598 248.47H291.927V250.712H306.598V248.47Z" fill="#383849"/>
<path d="M274.041 248.47H292.433C292.785 248.47 293.134 248.539 293.46 248.674C293.785 248.809 294.081 249.006 294.33 249.255C294.58 249.504 294.778 249.8 294.912 250.125C295.047 250.451 295.117 250.8 295.117 251.152V258.762C295.117 260.781 294.315 262.718 292.887 264.146C291.459 265.573 289.522 266.376 287.503 266.376H278.974C276.954 266.376 275.018 265.573 273.59 264.146C272.162 262.718 271.36 260.781 271.36 258.762V251.152C271.36 250.441 271.642 249.759 272.145 249.256C272.648 248.753 273.33 248.47 274.041 248.47Z" fill="#383849"/>
<path d="M280.813 265.254L293.629 252.438V251.936C293.629 251.558 293.537 251.186 293.362 250.851C293.186 250.516 292.932 250.229 292.621 250.013L287.338 255.296L283.207 259.426L277.651 264.983C278.254 265.161 278.88 265.252 279.509 265.254H280.813Z" fill="url(#paint0_linear)"/>
<path d="M276.213 263.93C280.992 259.15 285.771 254.371 290.551 249.592H284.961L273.367 261.184C273.929 262.498 274.9 263.595 276.136 264.313C276.107 264.249 276.099 264.178 276.113 264.109C276.126 264.04 276.161 263.978 276.213 263.93Z" fill="url(#paint1_linear)"/>
<path d="M304.793 248.47H323.184C323.536 248.47 323.885 248.539 324.211 248.674C324.537 248.809 324.832 249.006 325.082 249.255C325.331 249.504 325.529 249.8 325.664 250.125C325.799 250.451 325.868 250.8 325.868 251.152V258.762C325.868 260.781 325.066 262.718 323.638 264.146C322.21 265.573 320.273 266.376 318.254 266.376H309.725C307.706 266.376 305.769 265.573 304.341 264.146C302.913 262.718 302.111 260.781 302.111 258.762V251.152C302.111 250.441 302.393 249.759 302.896 249.256C303.399 248.753 304.081 248.47 304.793 248.47Z" fill="#383849"/>
<path d="M311.565 265.253L324.381 252.44V251.938C324.38 251.56 324.289 251.188 324.113 250.853C323.938 250.518 323.684 250.231 323.373 250.015L318.09 255.297L313.959 259.428L308.403 264.985C309.006 265.163 309.631 265.254 310.26 265.256L311.565 265.253Z" fill="url(#paint2_linear)"/>
<path d="M306.964 263.93L321.302 249.592H315.713L304.12 261.184C304.683 262.498 305.654 263.595 306.889 264.313C306.86 264.25 306.852 264.178 306.865 264.11C306.879 264.041 306.913 263.978 306.964 263.93Z" fill="url(#paint3_linear)"/>
<path d="M273.416 252.591L266.163 249.948C265.92 249.86 265.711 249.699 265.562 249.487C265.414 249.276 265.335 249.023 265.335 248.765C265.335 248.583 265.374 248.404 265.45 248.239C265.526 248.073 265.637 247.927 265.775 247.808C265.913 247.69 266.075 247.603 266.249 247.553C266.424 247.503 266.608 247.492 266.787 247.52L273.416 248.547V252.591Z" fill="#383849"/>
<path d="M391.44 314.666C390.482 310.372 388.472 306.384 385.591 303.06C377.025 293.264 361.527 289.805 350.22 296.907C343.956 300.843 340.27 306.91 337.985 313.614V357.852H391.406C391.417 357.588 391.428 357.325 391.44 357.062V314.666Z" fill="#664431"/>
<path d="M328.43 433.715L348.657 374.82L347.701 374.491C345.843 373.852 343.877 373.586 341.916 373.708C339.956 373.829 338.038 374.336 336.273 375.198C334.507 376.061 332.93 377.263 331.629 378.735C330.328 380.207 329.33 381.922 328.692 383.78L314.426 425.311C313.965 426.651 313.817 428.08 313.992 429.486C314.168 430.893 314.662 432.241 315.438 433.428C316.214 434.615 317.251 435.608 318.469 436.333C319.688 437.058 321.056 437.494 322.469 437.61C323.754 437.716 325.038 437.39 326.117 436.685C327.197 435.98 328.011 434.935 328.43 433.715Z" fill="#C4FFDD"/>
<path d="M397.384 433.064L377.157 374.168L378.113 373.839C381.865 372.55 385.976 372.805 389.541 374.547C393.106 376.289 395.833 379.375 397.122 383.128L411.388 424.658C411.849 425.999 411.998 427.428 411.823 428.835C411.647 430.242 411.153 431.591 410.377 432.778C409.6 433.965 408.563 434.959 407.344 435.683C406.126 436.408 404.757 436.845 403.344 436.96C402.059 437.065 400.775 436.739 399.696 436.034C398.616 435.328 397.803 434.283 397.384 433.064Z" fill="#C4FFDD"/>
<path d="M432.799 379.233C431.73 380.644 430.164 382.575 430.164 382.575C428.486 386.367 427.537 388.459 425.582 390.002C424.637 390.757 423.999 392.878 423.824 393.984C423.647 394.846 423.235 395.643 422.635 396.286C422.034 396.929 421.268 397.395 420.42 397.631L420.278 397.678C416.248 398.954 412.224 395.766 413.296 392.116C413.995 389.739 413.804 388.842 413.62 388.314C412.955 386.35 409.794 384.835 409.419 381.035C409.048 377.22 406.465 372.611 406.465 372.611C406.465 372.611 407.85 370.897 409.406 372.341C410.974 373.802 411.502 376.884 412.423 377.34C412.606 377.433 412.798 377.505 412.997 377.557C413.014 377.561 413.03 377.569 413.044 377.58C413.728 377.811 414.474 377.766 415.125 377.455C415.175 377.443 415.221 377.42 415.261 377.387C417.273 375.975 418.722 371.08 419.131 368.85C419.693 365.753 420.741 361.52 422.719 362.595C424.697 363.669 421.753 367.891 421.204 374.711C421.25 375.22 426.012 368.481 427.615 364.32C428.727 361.46 431.183 363.339 430.682 364.781C430.332 365.787 426.01 375.326 425.737 376.192C430.213 371.589 432.091 366.975 434.043 367.4C435.4 367.695 435.312 369.861 433.906 371.343C433.302 371.987 429.879 377.165 428.892 378.467C433.095 375.535 434.178 373.225 435.715 373.709C437.301 374.22 434.148 377.457 432.799 379.233Z" fill="#FF9973" stroke="#ED714B" stroke-width="1.619" stroke-linecap="round" stroke-linejoin="round"/>
<path d="M417.979 382.824C417.42 379.8 413.532 377.815 413.046 377.582C413.73 377.813 414.477 377.768 415.128 377.457C418.863 379.751 417.979 382.824 417.979 382.824Z" fill="#EC6E4B"/>
<path d="M402.561 438.375C403.516 438.686 404.522 438.805 405.522 438.726C406.522 438.647 407.497 438.372 408.391 437.916C409.285 437.461 410.08 436.833 410.732 436.07C411.383 435.307 411.878 434.423 412.187 433.469L426.031 392.916L411.504 388.197L397.66 428.749C397.35 429.703 397.23 430.709 397.309 431.709C397.387 432.709 397.662 433.684 398.117 434.578C398.572 435.472 399.199 436.267 399.961 436.919C400.724 437.57 401.608 438.065 402.561 438.375Z" fill="#C4FFDD"/>
<path d="M293.324 379.233C294.393 380.645 295.959 382.576 295.959 382.576C297.637 386.368 298.587 388.459 300.541 390.003C301.486 390.757 302.124 392.879 302.299 393.985C302.476 394.847 302.888 395.643 303.488 396.287C304.089 396.93 304.855 397.396 305.703 397.632L305.846 397.678C309.876 398.955 313.9 395.767 312.827 392.116C312.128 389.74 312.32 388.843 312.503 388.315C313.168 386.35 316.329 384.836 316.704 381.036C317.075 377.221 319.658 372.611 319.658 372.611C319.658 372.611 318.273 370.898 316.717 372.341C315.15 373.803 314.621 376.884 313.7 377.341C313.517 377.433 313.325 377.506 313.126 377.557C313.109 377.562 313.093 377.57 313.079 377.58C312.397 377.81 311.652 377.766 311.002 377.456C310.952 377.444 310.906 377.42 310.866 377.387C308.854 375.975 307.405 371.081 306.996 368.851C306.434 365.753 305.386 361.521 303.408 362.596C301.429 363.67 304.374 367.892 304.923 374.712C304.877 375.221 300.115 368.482 298.512 364.321C297.399 361.46 294.944 363.34 295.445 364.782C295.795 365.788 300.117 375.326 300.39 376.192C295.914 371.589 294.037 366.976 292.084 367.401C290.727 367.695 290.815 369.862 292.22 371.344C292.825 371.988 296.247 377.166 297.235 378.467C293.032 375.535 291.949 373.226 290.413 373.71C288.826 374.22 291.979 377.458 293.324 379.233Z" fill="#FF9973" stroke="#ED714B" stroke-width="1.619" stroke-linecap="round" stroke-linejoin="round"/>
<path d="M308.147 382.824C308.705 379.8 312.594 377.815 313.079 377.582C312.397 377.812 311.652 377.767 311.002 377.457C307.262 379.751 308.147 382.824 308.147 382.824Z" fill="#EC6E4B"/>
<path d="M323.564 438.375C321.637 439.001 319.541 438.836 317.736 437.916C315.932 436.996 314.566 435.397 313.94 433.471L300.097 392.918L314.625 388.199L328.468 428.752C329.094 430.678 328.929 432.774 328.009 434.579C327.089 436.384 325.49 437.749 323.564 438.375Z" fill="#C4FFDD"/>
<path d="M387.25 373.676C387.25 373.676 385.261 372.841 383.297 372.049C379.212 370.403 374.99 368.7 371.848 366.624L371.64 366.487H354.371L354.164 366.624C350.658 368.939 346.403 370.795 342.286 372.589C340.919 373.185 339.585 373.766 338.327 374.344C337.5 374.725 332.821 455.068 332.821 455.068H392.786L387.25 373.676Z" fill="#C4FFDD"/>
<path d="M373.548 368.584C373.288 363.495 373.365 358.394 373.779 353.315C373.777 353.067 373.678 352.831 373.503 352.655C373.328 352.48 373.091 352.381 372.843 352.379L354.45 352.687C354.31 352.688 354.172 352.72 354.046 352.781C353.874 352.838 353.726 352.953 353.629 353.107C353.532 353.26 353.492 353.442 353.514 353.623C353.845 358.474 353.758 363.346 353.257 368.183L353.144 368.247C351.243 369.318 346.182 371.897 346.182 371.897L346.226 371.979C347.914 375.149 350.429 377.802 353.503 379.658C356.577 381.514 360.096 382.503 363.687 382.521C367.278 382.539 370.807 381.584 373.9 379.759C376.992 377.933 379.533 375.305 381.252 372.152C381.252 372.152 376.004 369.886 373.548 368.584Z" fill="#FF9973" stroke="#ED714B" stroke-width="2.449" stroke-miterlimit="10"/>
<path d="M352.665 363.344C352.679 363.375 352.691 363.407 352.7 363.44C353.33 367.913 360.367 368.991 364.075 368.934C367.817 368.89 371.44 367.612 374.381 365.297C374.288 361.325 374.401 357.351 374.719 353.39C374.735 353.146 374.7 352.901 374.616 352.67C374.532 352.44 374.401 352.23 374.231 352.053C374.055 351.863 373.842 351.71 373.605 351.604C373.368 351.499 373.113 351.442 372.853 351.438H372.828L354.44 351.75C354.195 351.748 353.952 351.799 353.728 351.899C353.364 352.027 353.053 352.272 352.844 352.596C352.635 352.92 352.54 353.305 352.575 353.689C352.782 356.903 352.812 360.126 352.665 363.344Z" fill="#ED714B"/>
<path d="M337.231 338.65C337.853 339.967 342.606 346.578 344.197 343.818C345.001 342.424 344.376 338.993 344.241 337.442C344.05 335.262 343.664 333.104 343.087 330.993C342.788 329.439 342.028 328.012 340.908 326.896C338.494 324.858 336.102 326.7 335.552 329.303C334.885 332.482 335.894 335.826 337.231 338.65Z" fill="#FF9973" stroke="#ED714B" stroke-width="2.449" stroke-miterlimit="10"/>
<path d="M392.636 338.65C392.013 339.967 387.261 346.578 385.669 343.818C384.866 342.424 385.49 338.993 385.625 337.442C385.816 335.262 386.202 333.104 386.779 330.993C387.079 329.439 387.838 328.012 388.959 326.896C391.372 324.858 393.765 326.7 394.314 329.303C394.982 332.482 393.971 335.826 392.636 338.65Z" fill="#FF9973" stroke="#ED714B" stroke-width="2.449" stroke-miterlimit="10"/>
<path d="M361.989 291.773C345.269 291.604 340.006 309.882 339.261 323.536C338.446 338.474 346.317 362.13 364.628 361.787C377.791 361.54 385.739 347.554 388.981 336.387C389.839 333.476 390.41 330.488 390.687 327.465C390.687 327.465 394.67 292.104 361.989 291.773Z" fill="#FF9973" stroke="#ED714B" stroke-width="2.449" stroke-miterlimit="10"/>
<path d="M392.293 309.52C390.777 296.214 378.116 284.744 365.375 284.721C356.306 284.706 347.771 290.412 342.867 297.79C339.576 302.744 338.192 308.677 337.913 314.556C337.791 317.477 337.889 320.403 338.207 323.309C338.427 325.414 338.297 329.374 340.249 330.77C341.782 331.863 345.51 329.947 347.017 329.366C349.54 328.386 351.967 327.176 354.268 325.751C358.884 322.894 362.959 319.242 366.302 314.964C367.97 312.833 369.44 310.553 370.693 308.155C371.445 306.714 374.055 302.586 373.646 300.957C375.841 309.638 379.749 317.794 385.14 324.945C386.489 326.733 388.554 330.187 390.61 331.02C391.666 329.198 391.909 326.524 392.202 324.46C392.865 319.504 392.896 314.484 392.293 309.52Z" fill="#664431"/>
<path d="M371.136 322.005C374.049 321.248 377.122 321.391 379.953 322.413" stroke="#383849" stroke-width="2.6" stroke-linecap="round" stroke-linejoin="round"/>
<path d="M375.545 332.637C375.108 332.646 374.678 332.525 374.31 332.289C373.942 332.053 373.653 331.713 373.479 331.311C373.305 330.91 373.255 330.466 373.334 330.036C373.414 329.606 373.62 329.21 373.926 328.898C374.232 328.585 374.624 328.371 375.052 328.282C375.48 328.194 375.925 328.234 376.329 328.4C376.734 328.565 377.081 328.847 377.324 329.21C377.568 329.573 377.698 330 377.698 330.437C377.698 331.012 377.472 331.565 377.07 331.976C376.667 332.387 376.12 332.624 375.545 332.637Z" fill="#664431"/>
<path d="M358.336 322.005C355.423 321.248 352.349 321.391 349.519 322.414" stroke="#383849" stroke-width="2.6" stroke-linecap="round" stroke-linejoin="round"/>
<path d="M353.927 332.637C353.49 332.646 353.06 332.525 352.692 332.289C352.324 332.053 352.035 331.713 351.861 331.311C351.688 330.91 351.637 330.466 351.717 330.036C351.796 329.606 352.002 329.21 352.308 328.898C352.614 328.585 353.006 328.371 353.434 328.282C353.862 328.194 354.307 328.234 354.712 328.4C355.117 328.565 355.463 328.847 355.707 329.21C355.951 329.573 356.081 330 356.081 330.437C356.081 331.013 355.855 331.565 355.453 331.976C355.05 332.387 354.503 332.624 353.927 332.637Z" fill="#664431"/>
<path d="M368.082 325.795C367.516 326.942 367.132 328.171 366.946 329.436C366.544 332.647 366.767 341.179 366.767 341.179" stroke="#ED714B" stroke-width="2.062" stroke-linecap="round" stroke-linejoin="round"/>
<path d="M369.075 349.699C366.351 350.361 363.514 350.409 360.769 349.838" stroke="#ED714B" stroke-width="2.062" stroke-linecap="round" stroke-linejoin="round"/>
<path d="M392.16 324.738C389.196 328.804 384.298 334.846 381.335 338.912" stroke="white" stroke-width="1.611" stroke-linecap="round" stroke-linejoin="round"/>
<path d="M387.119 345.311L379.555 355.22" stroke="white" stroke-width="1.611" stroke-linecap="round" stroke-linejoin="round"/>
<path d="M338.52 324.739C341.365 328.886 344.497 334.281 347.344 338.428" stroke="white" stroke-width="1.611" stroke-linecap="round" stroke-linejoin="round"/>
<path d="M341.38 344.662L348.66 354.782" stroke="white" stroke-width="1.611" stroke-linecap="round" stroke-linejoin="round"/>
<path d="M348.217 335.614L380.68 336.074C381.012 336.079 381.34 336.148 381.645 336.28C381.95 336.411 382.226 336.601 382.458 336.839C382.69 337.077 382.872 337.359 382.995 337.667C383.118 337.976 383.179 338.306 383.174 338.638L383.059 346.702C383.028 348.889 382.567 351.049 381.701 353.059C380.835 355.068 379.582 356.887 378.013 358.412C374.845 361.491 370.583 363.186 366.165 363.124L361.961 363.064C357.543 363.001 353.331 361.186 350.251 358.018C347.172 354.849 345.477 350.587 345.539 346.169L345.654 338.105C345.663 337.435 345.939 336.796 346.42 336.329C346.9 335.861 347.547 335.604 348.217 335.614Z" fill="white"/>
<path d="M352.959 340.255L375.254 340.572" stroke="#CCCCCC" stroke-width="1.611" stroke-linecap="round" stroke-linejoin="round"/>
<path d="M352.895 344.825L375.19 345.142" stroke="#CCCCCC" stroke-width="1.611" stroke-linecap="round" stroke-linejoin="round"/>
<path d="M352.829 349.397L375.124 349.714" stroke="#CCCCCC" stroke-width="1.611" stroke-linecap="round" stroke-linejoin="round"/>
<path d="M352.765 353.968L375.06 354.284" stroke="#CCCCCC" stroke-width="1.611" stroke-linecap="round" stroke-linejoin="round"/>
<path d="M542.587 409.094C539.534 409.058 536.588 407.963 534.253 405.996C531.917 404.029 530.337 401.312 529.782 398.31L517.744 333.223L519.282 332.894C522.264 332.256 525.343 332.212 528.342 332.763C531.341 333.315 534.203 334.452 536.763 336.11C539.322 337.767 541.531 339.913 543.261 342.424C544.992 344.935 546.211 347.762 546.849 350.744L555.655 393.237C556.055 395.167 556.017 397.163 555.544 399.077C555.071 400.991 554.174 402.774 552.921 404.295C551.667 405.817 550.088 407.038 548.3 407.868C546.512 408.699 544.561 409.118 542.589 409.094H542.587Z" fill="#FFEBB1"/>
<path d="M537.381 391.608L558.992 352.133C560.684 349.044 563.533 346.753 566.914 345.764C570.294 344.776 573.929 345.171 577.018 346.862C580.108 348.553 582.398 351.403 583.387 354.783C584.376 358.163 583.981 361.798 582.29 364.888L560.678 404.363C558.987 407.452 556.137 409.743 552.757 410.731C549.376 411.72 545.742 411.325 542.652 409.634C539.563 407.942 537.272 405.093 536.284 401.713C535.295 398.332 535.69 394.697 537.381 391.608Z" fill="#FFEBB1"/>
<path d="M590.941 337.865C589.744 338.999 588.011 340.536 588.011 340.536C585.891 343.766 584.7 345.545 582.669 346.666C581.685 347.216 580.776 349.069 580.447 350.059C580.153 350.824 579.653 351.494 579.004 351.994C578.354 352.494 577.579 352.806 576.764 352.894L576.625 352.914C572.727 353.475 569.512 349.931 571.054 346.74C572.054 344.663 572.018 343.808 571.93 343.294C571.618 341.388 568.942 339.514 569.176 335.964C569.415 332.401 567.742 327.772 567.742 327.772C567.742 327.772 569.28 326.407 570.486 327.971C571.705 329.552 571.722 332.465 572.498 333.025C572.652 333.139 572.818 333.236 572.994 333.313C573.009 333.32 573.022 333.33 573.034 333.341C573.626 333.658 574.319 333.73 574.965 333.543C575.013 333.54 575.059 333.525 575.1 333.501C577.165 332.509 579.241 328.23 579.956 326.246C580.944 323.484 582.551 319.753 584.206 321.041C585.861 322.33 582.514 325.763 580.97 331.949C580.934 332.424 586.338 326.95 588.444 323.372C589.901 320.911 591.873 323.014 591.193 324.262C590.719 325.133 585.294 333.243 584.912 333.998C589.727 330.447 592.154 326.492 593.887 327.18C595.089 327.658 594.679 329.634 593.161 330.784C592.507 331.284 588.573 335.523 587.469 336.569C591.776 334.514 593.126 332.555 594.468 333.234C595.84 333.941 592.449 336.437 590.941 337.865Z" fill="#FF9973"/>
<path d="M565.949 350.371L580.482 356.601C582.521 357.476 584.883 356.531 585.757 354.492L585.857 354.258C586.731 352.219 585.787 349.857 583.748 348.983L569.215 342.752C567.176 341.878 564.814 342.822 563.94 344.861L563.839 345.095C562.965 347.135 563.909 349.496 565.949 350.371Z" fill="#D6C28B"/>
<path d="M576.772 338.911C576.72 336.045 573.447 333.629 573.037 333.342C573.63 333.658 574.322 333.73 574.968 333.543C578.05 336.22 576.772 338.911 576.772 338.911Z" fill="#ED714B"/>
<path d="M479.135 410.442L495.423 333.482L493.282 333.081C475.789 329.804 458.784 340.488 455.301 356.944L445.489 403.32C444.959 405.825 444.995 408.417 445.594 410.907C446.193 413.396 447.341 415.72 448.953 417.709C450.566 419.699 452.602 421.303 454.913 422.405C457.225 423.507 459.753 424.079 462.313 424.079C466.256 424.078 470.078 422.723 473.14 420.24C476.202 417.758 478.319 414.299 479.135 410.442Z" fill="#FFEBB1"/>
<path d="M467.597 454.042H491.977C494.019 451.6 495.28 448.602 495.597 445.435C495.914 442.268 495.272 439.079 493.754 436.282L474.49 400.796C473.495 398.962 472.148 397.343 470.527 396.029C468.906 394.716 467.042 393.735 465.041 393.142C463.041 392.55 460.943 392.357 458.869 392.575C456.794 392.793 454.782 393.417 452.948 394.413C451.115 395.408 449.495 396.755 448.182 398.376C446.869 399.997 445.888 401.861 445.295 403.862C444.702 405.862 444.509 407.96 444.727 410.035C444.945 412.109 445.569 414.121 446.565 415.955L465.829 451.44C466.331 452.363 466.923 453.235 467.597 454.042Z" fill="#FFEBB1"/>
<path d="M518.223 329.67C516.426 325.607 514.432 315.826 514.404 311.407C514.382 308.034 513.076 298.64 501.011 298.717C488.946 298.794 487.916 311.796 487.916 311.796C488.554 317.76 486.52 326.266 484.772 329.894C484.772 329.896 499.973 341.637 518.223 329.67Z" fill="#FF9973" stroke="#ED714B" stroke-width="2.092" stroke-miterlimit="10"/>
<path d="M503.767 317.678C507.854 317.234 511.62 315.255 514.304 312.141C514.611 311.794 514.902 311.436 515.188 311.075C515.178 310.916 515.167 310.758 515.157 310.6C514.913 306.555 513.229 302.607 509.887 300.281C505.172 297 497.646 296.961 493.028 300.435C489.91 302.779 488.037 306.573 487.336 310.414C487.162 311.522 487.1 312.645 487.151 313.766C491.523 317.505 498.423 318.343 503.767 317.678Z" fill="#ED714B"/>
<path d="M536.62 454.266L469.478 454.72C468.393 454.714 467.354 454.276 466.591 453.505C465.828 452.733 465.403 451.689 465.408 450.604L465.324 437.53L540.55 437.022L540.633 450.096C540.653 451.181 540.241 452.23 539.489 453.012C538.736 453.793 537.704 454.245 536.62 454.266Z" fill="#D6C28B"/>
<path d="M540.174 347.594C540.064 343.05 538.031 338.967 534.775 336.941C533.535 336.045 532.224 335.253 530.853 334.574C529.556 334.005 528.302 333.457 527.181 332.833C520.235 328.972 527.608 323.96 521.444 318.941L521.175 318.721L518.868 318.737C514.146 322.529 508.282 324.615 502.226 324.656C496.17 324.697 490.278 322.69 485.505 318.962L483.198 318.977L482.932 319.201C476.831 324.302 484.267 329.215 477.37 333.169C476.258 333.808 475.01 334.374 473.721 334.959C472.362 335.648 471.063 336.45 469.837 337.356C466.6 339.428 464.608 343.542 464.549 348.096L463.285 444.989L542.501 444.455L540.174 347.594Z" fill="#FFEBB1"/>
<path d="M468.077 298.061C468.76 299.522 473.99 306.87 475.768 303.82C476.665 302.282 475.99 298.477 475.845 296.758C475.645 294.341 475.229 291.947 474.601 289.605C474.15 287.924 473.533 286.185 472.208 285.056C469.544 282.787 466.885 284.815 466.263 287.696C465.508 291.215 466.612 294.926 468.077 298.061Z" fill="#FF9973" stroke="#ED714B" stroke-width="2.362" stroke-miterlimit="10"/>
<path d="M535.432 298.367C534.74 299.822 529.439 307.121 527.69 304.058C526.806 302.511 527.515 298.713 527.673 296.996C527.894 294.581 528.332 292.192 528.98 289.856C529.447 288.179 530.08 286.446 531.415 285.328C534.099 283.084 536.74 285.136 537.337 288.02C538.062 291.544 536.926 295.248 535.432 298.367Z" fill="#FF9973" stroke="#ED714B" stroke-width="2.362" stroke-miterlimit="10"/>
<path d="M530.236 288.34C530.272 290.363 530.022 292.393 529.869 294.421C529.403 300.59 528.36 306.715 525.297 312.282C522.319 317.696 517.719 322.774 512.371 325.336C508.088 327.386 503.315 328.19 498.597 327.657C493.879 327.124 489.406 325.274 485.689 322.32C480.217 317.975 476.725 311.452 475.021 304.618C473.431 298.975 472.928 293.081 473.538 287.25C474.802 270.112 477.241 250.274 497.911 247.329C506.184 246.151 515.338 247.04 521.612 252.685C529.546 259.821 530.386 269.894 530.289 279.979C530.262 282.767 530.186 285.554 530.236 288.34Z" fill="#FF9973" stroke="#ED714B" stroke-width="2.362" stroke-miterlimit="10"/>
<path d="M474.577 290.878C475.766 285.3 475.665 279.342 477.784 273.982C478.714 271.631 481.067 269.419 481.048 266.778C481.034 264.903 479.766 263.431 478.887 261.821C478.768 261.729 478.656 261.632 478.534 261.54C477.996 261.123 476.089 262.061 475.606 262.327C474.674 262.84 473.862 263.546 473.222 264.396C471.993 265.961 471.018 267.709 470.332 269.577C469.926 271.13 469.703 272.726 469.665 274.331C469.581 275.67 469.498 277.008 469.415 278.347C469.349 279.992 469.174 281.63 468.892 283.252C469.872 283.951 471.584 284.73 472.194 285.783C472.698 286.648 472.732 288.14 472.874 289.107C472.97 289.766 473.018 290.435 473.059 291.099C473.005 291.721 473.028 292.346 473.129 292.962C473.723 293.414 474.206 292.429 474.576 291.045C474.564 290.99 474.564 290.933 474.577 290.878Z" fill="white"/>
<path d="M526.601 262.093C527.054 261.778 527.524 261.478 527.985 261.181C528.836 261.189 529.67 261.418 530.406 261.845C531.142 262.272 531.755 262.883 532.183 263.618C532.831 264.841 533.263 266.166 533.46 267.536C534.172 271.245 534.561 275.009 534.623 278.786C534.645 280.144 535.001 282.243 534.407 283.456C533.786 284.727 532.297 285.335 531.804 286.775C531.54 287.548 531.326 288.35 531.136 289.145C530.982 289.793 530.871 290.452 530.771 291.113C530.769 291.736 530.689 292.356 530.534 292.959C528.988 293.93 528.889 286.402 528.813 285.484C528.505 281.716 528.139 277.783 526.116 274.589C524.792 272.497 522.732 270.63 522.628 268.157C522.638 266.599 523.254 265.107 524.346 263.997C525.023 263.279 525.779 262.64 526.601 262.093Z" fill="white"/>
<path d="M493.72 276.958C489.982 275.968 486.033 276.133 482.39 277.431" stroke="white" stroke-width="8.746" stroke-linecap="round" stroke-linejoin="round"/>
<path d="M487.994 290.589C487.433 290.599 486.881 290.441 486.41 290.135C485.939 289.83 485.569 289.391 485.348 288.874C485.128 288.358 485.066 287.788 485.17 287.236C485.275 286.684 485.542 286.176 485.937 285.777C486.332 285.377 486.836 285.104 487.387 284.993C487.937 284.882 488.508 284.937 489.027 285.152C489.546 285.366 489.989 285.73 490.301 286.198C490.612 286.666 490.776 287.215 490.774 287.777C490.77 288.516 490.477 289.224 489.957 289.75C489.438 290.276 488.733 290.577 487.994 290.589Z" fill="#383849"/>
<path d="M488.007 292.298C490.091 292.298 491.872 291.08 492.173 287.89" stroke="#ED714B" stroke-width="2.296" stroke-linecap="round" stroke-linejoin="round"/>
<path d="M510.164 277.032C513.911 276.076 517.859 276.277 521.489 277.608" stroke="white" stroke-width="8.746" stroke-linecap="round" stroke-linejoin="round"/>
<path d="M515.766 290.716C515.204 290.725 514.653 290.567 514.181 290.262C513.71 289.956 513.341 289.517 513.12 289.001C512.899 288.484 512.837 287.914 512.942 287.362C513.047 286.811 513.314 286.303 513.709 285.903C514.103 285.504 514.608 285.231 515.158 285.12C515.709 285.008 516.28 285.063 516.799 285.278C517.318 285.493 517.761 285.857 518.072 286.325C518.383 286.792 518.548 287.342 518.545 287.903C518.541 288.642 518.248 289.35 517.729 289.876C517.209 290.402 516.505 290.703 515.766 290.716Z" fill="#383849"/>
<path d="M510.975 288.989C511.108 289.853 511.545 290.641 512.208 291.21C512.871 291.779 513.716 292.093 514.59 292.093" stroke="#ED714B" stroke-width="1.989" stroke-linecap="round" stroke-linejoin="round"/>
<path d="M496.402 281.838L499.417 288.404L495.683 300.611" stroke="#ED714B" stroke-width="1.989" stroke-linecap="round" stroke-linejoin="round"/>
<path d="M494.454 312.493H505.063" stroke="#ED714B" stroke-width="1.989" stroke-linecap="round" stroke-linejoin="round"/>
<path d="M512.588 269.921C514.95 269.115 517.528 269.228 519.81 270.235" stroke="#ED714B" stroke-width="1.989" stroke-linecap="round" stroke-linejoin="round"/>
<path d="M511.323 265.011C514.429 264.216 517.706 264.41 520.698 265.565" stroke="#ED714B" stroke-width="1.989" stroke-linecap="round" stroke-linejoin="round"/>
<path d="M496.765 270.989C498.975 272.002 501.452 272.28 503.832 271.781" stroke="#ED714B" stroke-width="1.989" stroke-linecap="round" stroke-linejoin="round"/>
<path d="M482.193 271.658C483.156 270.967 484.269 270.516 485.442 270.342C486.614 270.168 487.811 270.277 488.933 270.659" stroke="#ED714B" stroke-width="1.989" stroke-linecap="round" stroke-linejoin="round"/>
<path d="M482.713 266.407C484.016 265.818 485.423 265.491 486.853 265.448C488.282 265.404 489.707 265.644 491.043 266.153" stroke="#ED714B" stroke-width="1.989" stroke-linecap="round" stroke-linejoin="round"/>
<path d="M533.914 282.008C530.305 287.06 526.317 293.646 522.708 298.697" stroke="white" stroke-width="1.989" stroke-linecap="round" stroke-linejoin="round"/>
<path d="M529.924 306.529L520.706 318.85" stroke="white" stroke-width="1.989" stroke-linecap="round" stroke-linejoin="round"/>
<path d="M469.694 281.717C473.258 286.802 477.186 293.423 480.748 298.508" stroke="white" stroke-width="1.989" stroke-linecap="round" stroke-linejoin="round"/>
<path d="M473.462 306.273L482.568 318.677" stroke="white" stroke-width="1.989" stroke-linecap="round" stroke-linejoin="round"/>
<path d="M481.794 295.023L521.868 295.205C522.696 295.209 523.488 295.541 524.071 296.129C524.653 296.717 524.979 297.512 524.975 298.34L524.93 308.294C524.905 313.747 522.715 318.968 518.841 322.807C514.967 326.646 509.726 328.789 504.273 328.764L499.084 328.74C493.631 328.716 488.41 326.525 484.571 322.651C480.732 318.777 478.589 313.537 478.614 308.083L478.659 298.13C478.663 297.302 478.995 296.51 479.583 295.927C480.171 295.345 480.967 295.019 481.794 295.023V295.023Z" fill="white"/>
<path d="M487.702 300.695L515.223 300.819" stroke="#CCCCCC" stroke-width="1.989" stroke-linecap="round" stroke-linejoin="round"/>
<path d="M487.676 306.338L515.197 306.462" stroke="#CCCCCC" stroke-width="1.989" stroke-linecap="round" stroke-linejoin="round"/>
<path d="M487.65 311.98L515.171 312.105" stroke="#CCCCCC" stroke-width="1.989" stroke-linecap="round" stroke-linejoin="round"/>
<path d="M487.625 317.623L515.146 317.747" stroke="#CCCCCC" stroke-width="1.989" stroke-linecap="round" stroke-linejoin="round"/>
<path d="M266.579 300.582C266.566 299.382 266.189 298.215 265.498 297.235C263.306 294.205 258.956 294.165 256.14 296.21C254.958 292.679 255.632 288.095 255.217 284.359C254.657 279.311 254.15 274.257 253.698 269.198C253.236 264.056 252.833 258.908 252.489 253.755C252.438 252.991 252.576 250.712 252.412 248.987H190.321C190.159 250.71 190.298 252.986 190.244 253.755C189.313 267.633 187.452 281.385 185.903 295.217C185.267 294.561 184.503 294.041 183.659 293.69C182.815 293.339 181.908 293.164 180.994 293.176C180.08 293.187 179.178 293.386 178.343 293.758C177.509 294.131 176.759 294.67 176.14 295.343C175.521 296.016 175.046 296.808 174.744 297.671C174.442 298.534 174.32 299.449 174.384 300.361C174.448 301.273 174.698 302.162 175.118 302.974C175.539 303.786 176.12 304.503 176.827 305.083C174.01 306.646 171.872 309.199 170.829 312.247C169.785 315.296 169.909 318.623 171.177 321.585C172.445 324.547 174.767 326.934 177.693 328.283C180.619 329.632 183.942 329.848 187.018 328.888C185.459 333.087 188.347 337.619 191.618 340.681C206 354.14 230.61 355.204 242.819 338.418C244.36 340.502 246.572 341.992 249.082 342.639C251.592 343.285 254.248 343.049 256.605 341.969C258.961 340.889 260.875 339.032 262.024 336.708C263.173 334.385 263.488 331.737 262.916 329.209C265.427 328.579 267.662 327.142 269.277 325.118C270.891 323.094 271.796 320.596 271.852 318.008C271.908 315.419 271.113 312.884 269.587 310.792C268.062 308.701 265.891 307.168 263.41 306.43C264.415 305.831 265.241 304.971 265.798 303.942C266.356 302.912 266.626 301.752 266.579 300.582Z" fill="#BD4444"/>
<path d="M182.204 411.349C180.986 411.349 179.78 411.109 178.655 410.643C177.53 410.177 176.508 409.493 175.647 408.632C174.785 407.771 174.102 406.749 173.637 405.623C173.171 404.498 172.931 403.292 172.931 402.074V358.413C172.931 355.954 173.908 353.596 175.647 351.857C177.386 350.118 179.745 349.141 182.204 349.141C183.422 349.141 184.627 349.381 185.752 349.847C186.877 350.313 187.899 350.996 188.76 351.857C189.621 352.718 190.304 353.74 190.77 354.865C191.236 355.99 191.476 357.196 191.476 358.413V402.074C191.476 403.292 191.237 404.498 190.771 405.623C190.305 406.749 189.622 407.771 188.761 408.632C187.9 409.493 186.878 410.177 185.753 410.643C184.628 411.109 183.422 411.349 182.204 411.349Z" fill="#FFAE90" stroke="#FF906E" stroke-width="2.076" stroke-miterlimit="10"/>
<path d="M196.712 328.438V364.976H170.696V354.454C170.696 347.554 173.437 340.937 178.316 336.058C183.195 331.179 189.812 328.438 196.712 328.438V328.438Z" fill="#FFF9C7"/>
<path d="M259.587 411.349C260.804 411.349 262.01 411.109 263.135 410.643C264.261 410.177 265.283 409.493 266.144 408.632C267.005 407.771 267.688 406.749 268.154 405.623C268.62 404.498 268.86 403.292 268.859 402.074V358.413C268.859 355.954 267.882 353.596 266.143 351.857C264.404 350.118 262.046 349.141 259.587 349.141C257.127 349.141 254.769 350.118 253.03 351.857C251.291 353.596 250.314 355.954 250.314 358.413V402.074C250.314 403.292 250.554 404.498 251.02 405.623C251.485 406.749 252.168 407.771 253.029 408.632C253.89 409.493 254.913 410.177 256.038 410.643C257.163 411.109 258.369 411.349 259.587 411.349Z" fill="#FFAE90" stroke="#FF906E" stroke-width="2.076" stroke-miterlimit="10"/>
<path d="M271.094 364.976H245.079V328.438C248.495 328.438 251.878 329.111 255.035 330.418C258.191 331.726 261.059 333.642 263.475 336.058C265.891 338.474 267.807 341.342 269.114 344.499C270.422 347.655 271.095 351.038 271.094 354.455V364.976Z" fill="#FFF9C7"/>
<path d="M244.208 329.549L243.664 329.233C241.057 327.643 238.909 325.402 237.432 322.729C235.956 320.056 235.201 317.045 235.244 313.992V297.208H206.601V313.988C206.644 317.041 205.889 320.053 204.413 322.725C202.936 325.398 200.788 327.64 198.18 329.229L196.713 330.084V368.564H244.208V329.549Z" fill="#FFAE90" stroke="#FF906E" stroke-width="2.236" stroke-miterlimit="10"/>
<path d="M221.862 319.264C226.19 319.033 230.399 317.768 234.138 315.576C234.814 315.174 235.463 314.727 236.079 314.238C236.079 314.154 236.071 314.072 236.071 313.988V296.314H205.774V313.988C205.774 314.412 205.755 314.834 205.726 315.25C210.243 318.609 216.892 319.452 221.862 319.264Z" fill="#FF906E"/>
<path d="M221.056 454.801L261.635 455.067C261.635 455.067 251.381 408.504 251.862 397.4C251.975 394.793 253.213 390.863 254.895 386.638C260.603 372.293 261.202 371.718 256.688 356.951C256.669 356.889 256.65 356.827 256.633 356.767C254.609 350.045 250.158 329.445 250.158 329.445C250.158 329.445 247.957 328.551 242.128 324.88C240.786 333.995 230.305 341.509 221.055 341.705C211.806 341.509 201.324 333.995 199.982 324.88C194.153 328.551 191.952 329.445 191.952 329.445C191.952 329.445 187.502 350.045 185.478 356.767C185.46 356.827 185.442 356.889 185.423 356.951C180.907 371.718 181.507 372.294 187.215 386.638C188.897 390.868 190.138 394.79 190.249 397.4C190.729 408.504 180.476 455.067 180.476 455.067L221.056 454.801Z" fill="#FFF9C7"/>
<path d="M209.335 390.451C213.014 388.799 217.011 387.973 221.044 388.031C225.076 388.09 229.047 389.031 232.677 390.788" stroke="#383849" stroke-width="1.89" stroke-linecap="round" stroke-linejoin="round"/>
<path d="M262.233 393.23L204.957 375.643L204.915 375.631C203.073 375.052 201.109 374.976 199.227 375.412C197.346 375.847 195.615 376.779 194.215 378.109L179.838 393.471L182.376 399.47L200.874 393.79L256.787 410.957C257.951 411.314 259.174 411.439 260.386 411.324C261.599 411.208 262.776 410.855 263.852 410.285C264.928 409.715 265.881 408.938 266.656 408C267.432 407.061 268.015 405.979 268.373 404.815" fill="#FFAE90"/>
<path d="M262.233 393.23L204.957 375.643L204.915 375.631C203.073 375.052 201.109 374.976 199.227 375.412C197.346 375.847 195.615 376.779 194.215 378.109L179.838 393.471L182.376 399.47L200.874 393.79L256.787 410.957C257.951 411.314 259.174 411.439 260.386 411.324C261.599 411.208 262.776 410.855 263.852 410.285C264.928 409.715 265.881 408.938 266.656 408C267.432 407.061 268.015 405.979 268.373 404.815" stroke="#FF906E" stroke-width="2.076" stroke-linecap="round" stroke-linejoin="round"/>
<path d="M179.838 393.23L237.115 375.645L237.157 375.633C238.999 375.053 240.963 374.978 242.844 375.413C244.726 375.849 246.456 376.78 247.857 378.111L262.233 393.472L260.167 391.87L241.668 386.191L185.281 410.955C184.117 411.313 182.894 411.437 181.682 411.322C180.47 411.207 179.292 410.854 178.216 410.284C177.141 409.713 176.188 408.937 175.412 407.998C174.636 407.06 174.053 405.977 173.696 404.813" fill="#FFAE90"/>
<path d="M179.838 393.23L237.115 375.645L237.157 375.633C238.999 375.053 240.963 374.978 242.844 375.413C244.726 375.849 246.456 376.78 247.857 378.111L262.233 393.472L260.167 391.87L241.668 386.191L185.281 410.955C184.117 411.313 182.894 411.437 181.682 411.322C180.47 411.207 179.292 410.854 178.216 410.284C177.141 409.713 176.188 408.937 175.412 407.998C174.636 407.06 174.053 405.977 173.696 404.813" stroke="#FF906E" stroke-width="2.076" stroke-linecap="round" stroke-linejoin="round"/>
<path d="M187.203 285.404C187.886 286.865 193.117 294.212 194.894 291.163C195.792 289.625 195.117 285.819 194.971 284.1C194.772 281.684 194.355 279.29 193.726 276.948C193.275 275.267 192.658 273.527 191.333 272.399C188.67 270.129 186.01 272.157 185.389 275.038C184.635 278.559 185.739 282.271 187.203 285.404Z" fill="#FFAE90" stroke="#FF906E" stroke-width="2.362" stroke-miterlimit="10"/>
<path d="M254.559 285.712C253.867 287.167 248.565 294.467 246.816 291.403C245.933 289.855 246.642 286.058 246.8 284.34C247.021 281.926 247.458 279.537 248.107 277.202C248.574 275.524 249.207 273.791 250.542 272.674C253.226 270.429 255.867 272.481 256.464 275.366C257.189 278.889 256.052 282.589 254.559 285.712Z" fill="#FFAE90" stroke="#FF906E" stroke-width="2.362" stroke-miterlimit="10"/>
<path d="M249.507 274.302C249.55 276.26 249.307 278.224 249.16 280.187C248.716 286.155 247.693 292.08 244.65 297.458C241.691 302.688 237.113 307.587 231.773 310.049C227.471 312.019 222.715 312.78 218.014 312.25C213.313 311.721 208.845 309.921 205.09 307.043C199.605 302.818 196.091 296.493 194.366 289.874C192.76 284.423 192.238 278.711 192.828 273.059C192.828 273.059 194.578 255.524 198.303 247.995C202.027 240.467 208.657 229.256 220.02 229.731C238.501 230.504 250.746 239.556 249.507 274.302Z" fill="#FFAE90" stroke="#FF906E" stroke-width="2.324" stroke-miterlimit="10"/>
<path d="M252.294 249.761C249.987 236.575 240.604 226.775 228.389 224.792C216.761 222.906 202.701 224.036 195.8 234.944C190.12 243.922 189.71 255.376 189.109 265.664C189.047 266.694 188.603 268.376 188.871 269.361C189.183 270.514 189.651 270.237 190.239 271.249C191.065 272.672 191.474 274.989 191.986 276.585C193.379 280.924 194.666 286.053 194.406 290.65C194.839 282.977 194.483 274.759 195.726 267.181C196.654 261.529 202.546 258.792 206.923 256.016C213.621 251.754 219.116 245.847 222.883 238.858C224.323 244.893 227.35 250.435 231.65 254.909C235.949 259.383 241.366 262.627 247.34 264.306C247.723 272.684 248.108 281.061 248.493 289.438C248.587 285.923 249.005 282.424 249.741 278.986C250.442 275.708 251.972 272.818 252.977 269.927C253.982 267.037 253.339 262.35 253.251 259.292C253.162 256.096 252.842 252.911 252.294 249.761Z" fill="#BD4444"/>
<path d="M212.846 264.302C209.108 263.312 205.159 263.477 201.517 264.775" stroke="#BD4444" stroke-width="2.915" stroke-miterlimit="10"/>
<path d="M229.291 264.376C233.038 263.421 236.986 263.621 240.616 264.952" stroke="#BD4444" stroke-width="2.915" stroke-miterlimit="10"/>
<path d="M234.889 278.943C234.152 278.956 233.429 278.748 232.811 278.348C232.193 277.948 231.708 277.372 231.418 276.695C231.129 276.018 231.047 275.27 231.184 274.546C231.322 273.823 231.671 273.156 232.189 272.632C232.706 272.108 233.368 271.75 234.09 271.604C234.811 271.457 235.56 271.529 236.241 271.81C236.922 272.091 237.503 272.569 237.912 273.182C238.32 273.795 238.536 274.515 238.534 275.252C238.529 276.221 238.145 277.151 237.464 277.841C236.783 278.531 235.858 278.927 234.889 278.943Z" fill="#383849"/>
<path d="M206.666 278.789C205.935 278.802 205.217 278.596 204.604 278.198C203.99 277.8 203.509 277.229 203.221 276.557C202.934 275.885 202.853 275.142 202.989 274.424C203.126 273.705 203.473 273.044 203.987 272.524C204.501 272.003 205.158 271.648 205.874 271.503C206.591 271.358 207.335 271.429 208.01 271.709C208.686 271.988 209.263 272.462 209.669 273.071C210.074 273.679 210.288 274.395 210.285 275.126C210.28 276.089 209.899 277.011 209.222 277.695C208.546 278.38 207.629 278.773 206.666 278.789Z" fill="#383849"/>
<path d="M215.532 269.182L218.546 275.748L217.038 288.609" stroke="#ED714B" stroke-width="1.989" stroke-linecap="round" stroke-linejoin="round"/>
<path d="M253.149 268.666C249.539 273.718 245.551 280.304 241.942 285.355" stroke="white" stroke-width="1.989" stroke-linecap="round" stroke-linejoin="round"/>
<path d="M249.159 293.187L239.94 305.508" stroke="white" stroke-width="1.989" stroke-linecap="round" stroke-linejoin="round"/>
<path d="M188.928 268.375C192.491 273.46 196.42 280.081 199.983 285.166" stroke="white" stroke-width="1.989" stroke-linecap="round" stroke-linejoin="round"/>
<path d="M192.696 292.931L201.802 305.335" stroke="white" stroke-width="1.989" stroke-linecap="round" stroke-linejoin="round"/>
<path d="M201.028 281.681L241.103 281.863C241.93 281.867 242.722 282.199 243.305 282.787C243.887 283.374 244.212 284.17 244.209 284.997L244.163 294.951C244.139 300.405 241.948 305.626 238.075 309.465C234.201 313.304 228.96 315.446 223.507 315.422L218.318 315.398C212.864 315.373 207.644 313.183 203.805 309.309C199.966 305.435 197.823 300.195 197.848 294.741L197.893 284.788C197.897 283.96 198.229 283.168 198.817 282.585C199.405 282.002 200.2 281.677 201.028 281.681V281.681Z" fill="white"/>
<path d="M206.936 287.353L234.457 287.478" stroke="#CCCCCC" stroke-width="1.989" stroke-linecap="round" stroke-linejoin="round"/>
<path d="M206.91 292.996L234.431 293.12" stroke="#CCCCCC" stroke-width="1.989" stroke-linecap="round" stroke-linejoin="round"/>
<path d="M206.884 298.637L234.405 298.762" stroke="#CCCCCC" stroke-width="1.989" stroke-linecap="round" stroke-linejoin="round"/>
<path d="M206.859 304.28L234.38 304.405" stroke="#CCCCCC" stroke-width="1.989" stroke-linecap="round" stroke-linejoin="round"/>
<defs>
<linearGradient id="paint0_linear" x1="302.529" y1="241.647" x2="278.133" y2="268.753" gradientUnits="userSpaceOnUse">
<stop stop-color="white"/>
<stop offset="1" stop-color="white" stop-opacity="0"/>
</linearGradient>
<linearGradient id="paint1_linear" x1="299.057" y1="238.197" x2="277.84" y2="267.401" gradientUnits="userSpaceOnUse">
<stop stop-color="white"/>
<stop offset="1" stop-color="white" stop-opacity="0"/>
</linearGradient>
<linearGradient id="paint2_linear" x1="333.28" y1="241.648" x2="308.883" y2="268.754" gradientUnits="userSpaceOnUse">
<stop stop-color="white"/>
<stop offset="1" stop-color="white" stop-opacity="0"/>
</linearGradient>
<linearGradient id="paint3_linear" x1="329.807" y1="238.197" x2="308.589" y2="267.398" gradientUnits="userSpaceOnUse">
<stop stop-color="white"/>
<stop offset="1" stop-color="white" stop-opacity="0"/>
</linearGradient>
</defs>
</svg>
