<svg width="18" height="19" viewBox="0 0 18 19" fill="none" xmlns="http://www.w3.org/2000/svg">
<path d="M14.8333 8.5H3.16667C2.24619 8.5 1.5 9.24619 1.5 10.1667V16C1.5 16.9205 2.24619 17.6667 3.16667 17.6667H14.8333C15.7538 17.6667 16.5 16.9205 16.5 16V10.1667C16.5 9.24619 15.7538 8.5 14.8333 8.5Z" stroke="#333333" stroke-width="1.5" stroke-linecap="round" stroke-linejoin="round"/>
<path d="M4.83337 8.5V5.16667C4.83337 4.0616 5.27236 3.00179 6.05376 2.22039C6.83516 1.43899 7.89497 1 9.00004 1C10.1051 1 11.1649 1.43899 11.9463 2.22039C12.7277 3.00179 13.1667 4.0616 13.1667 5.16667V8.5" stroke="#333333" stroke-width="1.5" stroke-linecap="round" stroke-linejoin="round"/>
</svg>
