<svg width="440" height="433" viewBox="0 0 440 433" fill="none" xmlns="http://www.w3.org/2000/svg">
<path d="M123.74 0.575012H35.2246V147.092H123.74V0.575012Z" fill="#E0E0E0"/>
<path d="M120.796 0.575012H32.2812V147.092H120.796V0.575012Z" fill="#EBEBEB"/>
<path d="M117.028 3.54601H36.0508V144.121H117.028V3.54601Z" fill="#FAFAFA"/>
<path d="M101.261 21.812H51.4668V125.854H101.261V21.812Z" fill="#EBEBEB"/>
<path d="M51.466 89.037C51.351 79.318 60.09 69.83 69.714 68.473C74.303 67.826 79.179 68.737 83.468 66.979C91.122 63.84 93.561 53.671 101.261 50.654L101.613 125.854H51.466V89.037Z" fill="#E0E0E0"/>
<path d="M321.463 420.74C319.699 419.227 315.763 414.433 318.798 408.857C319.911 406.812 322.274 405.801 324.413 404.9C326.616 404.157 328.692 403.082 330.57 401.711C333.908 398.871 334.829 394.153 337.045 390.364C339.589 386.015 344.337 382.757 349.354 382.984C355.099 383.246 359.889 387.938 362.061 393.284C364.233 398.63 364.309 404.574 364.354 410.351C364.379 413.545 364.237 417.146 361.891 419.304C359.729 421.293 356.474 421.317 353.543 421.227L322.15 420.263" fill="#F5F5F5"/>
<path d="M381.511 334.413H298.951L313.823 423.087C314.13 424.936 314.955 426.66 316.202 428.058C317.45 429.457 319.069 430.472 320.871 430.987C320.971 431.017 321.064 431.039 321.161 431.066C321.406 431.129 321.643 431.212 321.896 431.256C322.45 431.366 323.011 431.431 323.575 431.449L323.588 431.534L323.988 431.47H360.788C361.467 431.47 362.144 431.403 362.81 431.27C364.958 430.937 366.938 429.909 368.447 428.344C369.955 426.779 370.909 424.762 371.162 422.603L378.331 361.503L378.654 359.074H378.616L381.455 334.874L381.511 334.413ZM365.936 390.979H357.462L358.317 365.243H368.133L365.936 390.979ZM368.957 365.243H377.068L374.048 390.979H366.762L368.957 365.243ZM344.752 419.509L344.237 397.151H356.437L355.694 419.509H344.752ZM331.562 397.151H343.418L343.932 419.509H333.299L331.562 397.151ZM332.478 419.509H322.539C321.594 413.473 320.365 405.627 319.034 397.151H330.741L332.478 419.509ZM331.078 390.979L329.078 365.243H342.678L343.27 390.979H331.078ZM344.091 390.979L343.498 365.243H357.498L356.643 390.979H344.091ZM343.356 359.071L342.807 335.237H358.491L357.7 359.071H343.356ZM342.537 359.071H328.602L326.749 335.237H341.991L342.537 359.071ZM327.777 359.071H313.033C312.512 355.779 312.016 352.663 311.569 349.86C310.031 340.224 309.452 336.6 309.132 335.237H325.932L327.777 359.071ZM328.257 365.243L330.257 390.979H318.062C317.652 388.368 317.237 385.726 316.821 383.079C315.865 377.004 314.908 370.931 314.008 365.24L328.257 365.243ZM317.232 390.979H309.265L304.949 365.243H313.177C314.438 373.196 315.832 382.048 317.235 390.979H317.232ZM318.201 397.151C319.416 404.888 320.611 412.516 321.701 419.509H314.046L310.296 397.151H318.201ZM356.512 419.509L357.262 397.151H365.412L363.502 419.509H356.512ZM358.52 359.071L359.312 335.237H370.695L368.662 359.071H358.52ZM308.35 335.237C308.678 336.96 310.185 346.337 312.203 359.071H303.916L299.916 335.237H308.35ZM370.701 419.509H364.32L366.231 397.151H373.324L370.701 419.509ZM377.792 359.071H369.484L371.52 335.237H380.589L377.792 359.071Z" fill="#E0E0E0"/>
<path d="M428.498 432.4C428.498 432.544 332.568 432.66 214.26 432.66C95.91 432.66 0 432.544 0 432.4C0 432.256 95.91 432.14 214.26 432.14C332.568 432.14 428.498 432.256 428.498 432.4Z" fill="#263238"/>
<path d="M104.911 205.75C103.502 204.738 101.76 204.328 100.191 203.587C98.6221 202.846 97.0971 201.552 96.9531 199.823C96.7401 197.269 99.5631 195.339 99.7291 192.782C99.9611 189.182 95.0861 187.208 94.3721 183.668C93.7791 180.729 96.2721 177.955 96.1721 174.959C96.0721 171.963 93.4721 169.729 92.2911 166.984C89.5371 160.604 94.6181 152.376 90.7711 146.589C89.6026 145.131 88.294 143.791 86.8641 142.589C85.5461 141.265 84.4001 139.54 84.5571 137.678L77.3331 134.396C74.9141 130.696 69.4331 130.556 65.3011 132.132C61.1691 133.708 57.5481 136.549 53.2621 137.608C51.1821 138.122 51.4801 135.036 49.3811 135.464C46.6201 136.026 43.2241 139.258 42.4371 141.937C41.5931 144.811 41.0071 147.988 39.9861 150.804C38.8591 153.916 35.5211 156.09 35.2091 159.385C34.8451 163.23 38.8201 166.363 38.8261 170.226C38.8341 174.382 34.2451 178.095 35.7071 181.985C36.5431 184.209 39.1071 185.4 40.0011 187.601C41.2341 190.642 38.7841 193.975 39.0081 197.248C39.2301 200.48 41.9441 202.913 44.5181 204.879C54.3073 212.522 65.2618 218.542 76.9621 222.708C82.0321 224.45 87.3731 225.78 92.7121 225.295C98.0511 224.81 103.422 222.256 106.218 217.681C108.516 213.924 108.487 208.319 104.911 205.75Z" fill="#263238"/>
<path d="M84.2626 135.88C83.6044 133.255 82.2595 130.853 80.3659 128.919C78.4724 126.986 76.0984 125.591 73.4877 124.879C70.877 124.166 68.1237 124.161 65.5104 124.864C62.8972 125.568 60.5182 126.954 58.6176 128.88C57.0776 130.442 55.8546 132.352 54.0346 133.58C51.9796 134.963 51.6796 134.557 49.3746 135.464C47.0696 136.371 42.8486 142.792 42.9196 145.264L41.7656 156.119C41.8596 158.662 45.1266 160.093 47.5326 159.265C49.9386 158.437 51.5326 156.186 52.8086 153.982C54.0846 151.778 55.2746 149.396 57.3556 147.932C60.8076 145.504 65.4866 146.339 69.6206 147.185C73.7546 148.031 78.5376 148.635 81.7636 145.915C84.5476 143.576 85.1516 139.406 84.2626 135.88Z" fill="#263238"/>
<path d="M86.5392 151.378C86.0783 144.311 81.3762 135.65 74.3392 136.41L52.3572 142.017C51.3252 142.128 50.3724 142.622 49.6872 143.402C49.0021 144.182 48.6345 145.19 48.6572 146.228L51.1282 199.25L50.9762 199.283C50.9762 199.283 59.9172 218.234 74.4492 213.665C77.3312 212.759 74.7153 205.612 75.2863 202.37L75.4352 202.388C75.4412 202.003 75.4463 201.645 75.4513 201.278C75.7352 198.861 75.764 196.42 75.5373 193.997C75.5783 189.716 75.5733 187.96 75.5763 187.997C75.5763 187.997 84.6022 186.478 86.4472 174.697C87.3632 168.835 87.0513 159.229 86.5392 151.378Z" fill="#FFBE9D"/>
<path d="M84.7203 160.457C84.7257 160.852 84.5761 161.234 84.3036 161.52C84.031 161.806 83.6572 161.973 83.2623 161.987C83.0701 162.003 82.8767 161.98 82.6935 161.92C82.5103 161.86 82.341 161.764 82.1955 161.637C82.0501 161.511 81.9314 161.356 81.8465 161.183C81.7616 161.01 81.7122 160.822 81.7013 160.629C81.6965 160.235 81.8456 159.855 82.1168 159.57C82.3879 159.284 82.7598 159.116 83.1533 159.1C83.3458 159.084 83.5397 159.106 83.7235 159.165C83.9073 159.225 84.0772 159.321 84.2233 159.448C84.3694 159.574 84.4886 159.729 84.574 159.902C84.6593 160.075 84.7091 160.264 84.7203 160.457Z" fill="#263238"/>
<path d="M84.4627 156.38C84.2757 156.58 83.1297 155.733 81.5037 155.74C79.8797 155.725 78.6877 156.564 78.5107 156.365C78.4237 156.278 78.6107 155.921 79.1327 155.542C79.8351 155.053 80.6717 154.793 81.5277 154.798C82.3734 154.793 83.1987 155.057 83.8837 155.553C84.3877 155.935 84.5577 156.287 84.4627 156.38Z" fill="#263238"/>
<path d="M69.354 160.962C69.3584 161.356 69.209 161.736 68.9374 162.021C68.6658 162.307 68.2936 162.475 67.9 162.49C67.7078 162.506 67.5144 162.483 67.3313 162.422C67.1481 162.362 66.9789 162.266 66.8335 162.139C66.6881 162.013 66.5696 161.858 66.4848 161.685C66.4 161.512 66.3508 161.324 66.34 161.131C66.3352 160.737 66.4843 160.357 66.7555 160.072C67.0267 159.787 67.3986 159.618 67.792 159.603C67.9843 159.587 68.1778 159.61 68.3611 159.67C68.5444 159.73 68.7139 159.827 68.8594 159.953C69.005 160.08 69.1237 160.234 69.2087 160.408C69.2936 160.581 69.343 160.769 69.354 160.962Z" fill="#263238"/>
<path d="M68.4858 156.718C68.2988 156.918 67.1508 156.071 65.5258 156.08C63.9028 156.064 62.7108 156.903 62.5338 156.704C62.4478 156.616 62.6338 156.26 63.1558 155.881C63.8596 155.391 64.6981 155.131 65.5558 155.137C66.4015 155.132 67.2268 155.396 67.9118 155.892C68.4068 156.274 68.5778 156.63 68.4858 156.718Z" fill="#263238"/>
<path d="M74.4118 168.763C75.2684 168.493 76.1552 168.331 77.0518 168.281C77.4668 168.237 77.8598 168.153 77.9288 167.87C77.9631 167.441 77.8654 167.012 77.6488 166.64L76.4148 163.481C74.6998 158.981 73.4568 155.281 73.6388 155.218C73.8208 155.155 75.3578 158.741 77.0728 163.239C77.4861 164.348 77.8804 165.407 78.2558 166.416C78.5182 166.916 78.5958 167.493 78.4748 168.045C78.4149 168.192 78.3225 168.323 78.2045 168.428C78.0865 168.534 77.9461 168.611 77.7938 168.654C77.5641 168.717 77.3271 168.751 77.0888 168.754C76.2004 168.87 75.3009 168.873 74.4118 168.763Z" fill="#263238"/>
<path d="M75.578 188C70.0308 188.097 64.5655 186.652 59.791 183.826C59.791 183.826 63.637 191.911 75.425 190.782L75.578 188Z" fill="#EB996E"/>
<path d="M73.735 172.687C73.4247 172.298 73.0205 171.995 72.5605 171.806C72.1006 171.616 71.6 171.547 71.106 171.605C70.7473 171.638 70.399 171.743 70.0819 171.914C69.7649 172.084 69.4856 172.318 69.261 172.599C69.0445 172.871 68.9165 173.202 68.8941 173.549C68.8718 173.896 68.9562 174.241 69.136 174.538C69.398 174.829 69.7409 175.036 70.1209 175.131C70.5009 175.226 70.9007 175.205 71.269 175.072C72.0361 174.798 72.7413 174.375 73.344 173.827C73.5272 173.696 73.6845 173.533 73.808 173.345C73.868 173.256 73.9 173.15 73.9 173.043C73.9 172.935 73.868 172.829 73.808 172.74" fill="#EB996E"/>
<path d="M69.6292 169.898C69.8932 169.882 69.9012 171.647 71.4142 172.898C72.9272 174.149 74.8062 173.949 74.8202 174.198C74.8452 174.309 74.4022 174.542 73.6082 174.565C72.5743 174.582 71.5676 174.233 70.7652 173.581C69.9954 172.954 69.4992 172.053 69.3812 171.067C69.3132 170.326 69.5082 169.887 69.6292 169.898Z" fill="#263238"/>
<path d="M69.2106 153.87C69.0516 154.313 67.4276 154.107 65.5206 154.341C63.6086 154.541 62.0726 155.098 61.8206 154.703C61.7066 154.513 61.9736 154.097 62.5946 153.667C63.4238 153.141 64.3619 152.81 65.3379 152.7C66.3139 152.59 67.3021 152.704 68.2276 153.033C68.9266 153.314 69.2796 153.66 69.2106 153.87Z" fill="#263238"/>
<path d="M83.8632 151.676C83.5782 152.045 82.4572 151.665 81.1102 151.65C79.7642 151.587 78.6232 151.903 78.3602 151.518C78.2442 151.33 78.4232 150.96 78.9212 150.609C79.5898 150.189 80.3682 149.976 81.1577 149.999C81.9471 150.022 82.712 150.279 83.3552 150.737C83.8272 151.115 83.9842 151.495 83.8632 151.676Z" fill="#263238"/>
<path d="M73.9473 133.397L72.9473 132.119C66.1414 132.898 59.4731 134.599 53.1263 137.177C50.5933 138.207 48.0263 139.441 46.2943 141.557C43.9083 144.471 43.5293 148.486 43.2573 152.242C42.2253 166.537 41.3693 181.261 45.8693 194.869C46.9503 193.128 49.0693 192.346 51.0813 191.957C53.0933 191.568 55.2053 191.438 57.0283 190.504C58.0214 189.972 58.8923 189.238 59.5853 188.35C60.2782 187.462 60.7779 186.439 61.0523 185.346C61.5832 183.14 61.3253 180.818 60.3233 178.783C59.2313 176.517 57.2813 174.331 57.7573 171.861C58.2573 169.276 61.2263 167.794 61.9223 165.255C63.1223 160.867 56.9653 156.926 58.2123 152.549C58.5028 151.759 58.9523 151.037 59.533 150.427C60.1136 149.818 60.8132 149.334 61.5883 149.005C63.0883 148.257 64.7413 147.838 66.2643 147.13C68.7917 145.897 70.8819 143.92 72.255 141.466C73.6281 139.012 74.2186 136.196 73.9473 133.397Z" fill="#263238"/>
<path d="M133.418 223.215L119.639 244.658C120.173 245.44 120.9 246.071 121.748 246.491C122.597 246.911 123.539 247.106 124.485 247.058C127.797 246.919 132.36 238.638 132.904 236.958C133.448 235.278 132.704 233.67 133.204 232.558C133.704 231.446 133.504 228.376 133.504 228.376C133.428 228.555 136.478 224.473 133.418 223.215Z" fill="#FFBE9D"/>
<path d="M115.834 244.646L123.013 216.26C123.12 215.839 123.31 215.444 123.573 215.098C123.836 214.752 124.166 214.463 124.544 214.248L134.976 208.301C135.282 208.126 135.641 208.07 135.985 208.144C136.33 208.218 136.635 208.416 136.842 208.701C136.965 208.871 137.049 209.065 137.088 209.271C137.128 209.477 137.121 209.689 137.07 209.892L129.47 239.771L115.834 244.646Z" fill="#263238"/>
<path d="M112.211 266.648L128.884 235.859L122.607 227.725L99.1465 245.531L105.291 262.45L112.211 266.648Z" fill="#FF725E"/>
<path d="M129.085 242.534C129.23 242.122 129.337 241.697 129.405 241.266C129.515 240.07 129.397 238.863 129.056 237.711L129.036 237.638L129.074 237.571C129.219 237.337 129.31 237.075 129.344 236.802C129.377 236.529 129.351 236.253 129.267 235.991C129.041 235.398 128.634 234.891 128.104 234.542L127.921 234.413L128.046 234.227L129.933 231.408C130.105 231.181 130.252 230.937 130.372 230.68C130.446 230.435 130.426 230.171 130.317 229.939C130.047 229.406 129.644 228.952 129.148 228.618L128.913 228.446L129.102 228.231C129.615 227.646 130.182 227.069 130.757 226.479C131.732 225.474 132.65 224.416 133.506 223.309C133.896 222.798 134.238 222.251 134.525 221.676C134.655 221.421 134.74 221.145 134.776 220.861C134.798 220.599 134.676 220.455 134.522 220.424L134.464 220.412C134.143 220.372 133.817 220.423 133.522 220.557C133.196 220.683 132.876 220.829 132.566 220.992C131.954 221.313 131.388 221.66 130.866 221.992C129.815 222.669 128.922 223.308 128.186 223.838L126.486 225.086C126.294 225.25 126.083 225.39 125.857 225.503C126.011 225.302 126.191 225.123 126.393 224.971C126.761 224.646 127.309 224.182 128.022 223.616C128.735 223.05 129.611 222.379 130.657 221.669C131.18 221.315 131.746 220.951 132.371 220.607C132.695 220.429 133.029 220.27 133.371 220.132C133.762 219.946 134.2 219.888 134.625 219.966L134.566 219.954C134.78 219.987 134.972 220.101 135.103 220.273C135.234 220.445 135.292 220.662 135.266 220.876C135.233 221.224 135.137 221.562 134.983 221.876C134.687 222.487 134.333 223.068 133.924 223.61C133.063 224.739 132.135 225.816 131.146 226.836C130.571 227.426 130 228.005 129.495 228.577L129.45 228.191C130.028 228.581 130.492 229.117 130.795 229.745C130.948 230.088 130.97 230.476 130.857 230.834C130.726 231.132 130.558 231.412 130.357 231.669L128.417 234.484L128.358 234.169C128.963 234.582 129.419 235.178 129.658 235.869C129.752 236.184 129.776 236.516 129.729 236.841C129.682 237.166 129.565 237.477 129.386 237.753L129.405 237.614C129.728 238.814 129.796 240.069 129.605 241.297C129.546 241.627 129.44 241.947 129.291 242.248C129.162 242.446 129.1 242.543 129.085 242.534Z" fill="#EB996E"/>
<path d="M136.842 208.705C136.583 208.941 136.295 209.143 135.984 209.305C135.414 209.666 134.584 210.173 133.545 210.79L129.894 212.934L127.727 214.182C126.945 214.567 126.213 215.046 125.548 215.609C124.975 216.241 124.593 217.023 124.448 217.863C124.23 218.698 124.02 219.504 123.818 220.281L122.724 224.369C122.405 225.531 122.138 226.469 121.942 227.114C121.866 227.458 121.747 227.79 121.586 228.103C121.594 227.751 121.648 227.402 121.745 227.064C121.881 226.403 122.093 225.452 122.367 224.278L123.353 220.163C123.546 219.385 123.746 218.574 123.953 217.736C124.112 216.802 124.538 215.934 125.18 215.236C125.879 214.64 126.652 214.136 127.48 213.736L129.659 212.517L133.359 210.472C134.417 209.896 135.277 209.438 135.878 209.132C136.179 208.949 136.503 208.805 136.842 208.705Z" fill="#455A64"/>
<path d="M129.929 218.411C129.67 219.028 129.64 219.604 129.862 219.698C130.084 219.792 130.474 219.366 130.733 218.748C130.992 218.13 131.022 217.554 130.8 217.461C130.578 217.368 130.188 217.793 129.929 218.411Z" fill="white"/>
<path d="M78.0098 201.196C85.2477 203.809 91.1522 209.188 94.4258 216.152L116.81 263.763L136.089 271.582L119.114 276.474L103.994 265.387L78.0098 201.196Z" fill="#FF725E"/>
<path d="M119.114 276.474L110.992 282.735L70.4745 241.059L47.3105 199.22L49.9885 191.438L67.8965 198.897L74.3095 208.374L75.7395 196.346L76.8895 197.975L78.7585 203.042C78.7585 203.042 96.3435 217.672 100.138 229.271C103.305 238.953 102.313 258.956 104.238 264.392L119.114 276.474Z" fill="#FAFAFA"/>
<path d="M42.9743 198.677C42.7033 199.491 25.6543 206.34 24.8393 212.31C24.0243 218.28 37.0923 264.438 37.0923 264.438L57.8043 282.738H110.992L94.1193 251.149C90.4854 244.337 85.887 238.085 80.4663 232.587C75.4733 227.528 69.4303 221.268 66.3203 217.532C62.9493 213.482 48.6563 194.577 48.6563 194.577L42.9743 198.677Z" fill="#FF725E"/>
<path d="M53.6445 200.566C54.6833 200.937 55.6911 201.389 56.6585 201.919C58.4895 202.814 61.0025 204.082 63.7585 205.511L66.8915 207.147L66.5315 207.384C66.4142 205.519 66.5274 203.646 66.8685 201.809C66.9622 201.082 67.1589 200.372 67.4525 199.701C67.3981 200.424 67.3046 201.144 67.1725 201.857C66.9381 203.678 66.8885 205.518 67.0245 207.349L67.0585 207.788L66.6645 207.588L63.5195 205.975C60.7585 204.546 58.2715 203.226 56.4835 202.248C55.494 201.764 54.5446 201.201 53.6445 200.566Z" fill="#263238"/>
<path d="M94.6451 242.666C94.3236 242.24 94.0389 241.788 93.7941 241.314C93.2361 240.344 92.5051 239.076 91.6241 237.546C89.8001 234.361 87.2671 229.97 84.4001 225.161C81.5331 220.352 78.8721 216.034 76.9381 212.915C76.0121 211.415 75.2431 210.167 74.6561 209.215C74.3551 208.774 74.0925 208.309 73.8711 207.823C74.2254 208.222 74.5449 208.651 74.8261 209.104C75.4131 209.947 76.2421 211.181 77.2491 212.717C79.2641 215.788 81.9751 220.079 84.8491 224.894C87.7231 229.709 90.2031 234.134 91.9491 237.367C92.8211 238.983 93.5131 240.299 93.9751 241.217C94.2392 241.68 94.4633 242.165 94.6451 242.666Z" fill="#263238"/>
<g opacity="0.3">
<g opacity="0.3">
<path opacity="0.3" d="M86.4497 274.842C89.5397 275.367 92.7087 275.891 95.7877 275.304C98.8667 274.717 101.888 272.777 102.852 269.795C103.005 268.824 103.402 267.907 104.006 267.131C105.195 266.031 107.089 266.707 108.706 266.56C109.602 266.422 110.454 266.08 111.197 265.56C111.939 265.039 112.552 264.355 112.988 263.56C113.845 261.963 114.449 260.242 114.778 258.46C115.034 257.603 115.141 256.708 115.094 255.814C115.065 255.367 114.923 254.935 114.681 254.558C114.439 254.181 114.105 253.871 113.711 253.659C112.493 253.11 111.12 253.909 110.036 254.69C101.268 261.007 93.2747 268.324 85.3047 275.623" fill="black"/>
</g>
</g>
<path d="M106.318 239.607C106.318 239.607 109.367 232.607 110.994 231.637C112.621 230.667 120.706 225.952 120.706 225.952L119.665 229.8L127.565 224.311C128.537 223.658 134.182 218.528 135.183 220.53C135.903 221.971 131.295 225.769 130.677 226.614C129.133 228.727 129.646 228.532 129.646 228.532C129.646 228.532 131.32 229.539 130.48 231.032C129.795 232.184 129.041 233.294 128.222 234.356C128.222 234.356 130.422 235.14 129.138 237.999C129.511 239.186 129.588 240.446 129.361 241.67C128.998 243.803 125.142 247.858 125.142 247.858L105.904 257.021L98.1465 243.853L106.318 239.607Z" fill="#FFBE9D"/>
<path d="M61.5146 226.449L73.8506 252.787L101.21 240.901C101.21 240.901 112.566 247.526 110.993 254.765L86.3426 275.014C84.0327 276.912 81.3614 278.32 78.4907 279.155C75.6201 279.989 72.6098 280.232 69.6426 279.868C66.4616 279.479 63.4035 278.401 60.6809 276.711C57.9583 275.02 55.6364 272.757 53.8766 270.079L36.0376 242.926L26.0616 226.619C24.4587 224.078 23.6432 221.12 23.7176 218.117C23.7919 215.114 24.7529 212.2 26.4796 209.742C27.4254 208.419 28.6234 207.295 30.0046 206.436C34.4566 203.724 47.6936 202.549 61.5146 226.449Z" fill="#FF725E"/>
<path d="M122.196 227.97C120.952 229.023 119.606 229.95 118.178 230.736C116.835 231.66 115.404 232.448 113.904 233.088C115.149 232.035 116.494 231.108 117.922 230.322C119.265 229.398 120.697 228.61 122.196 227.97Z" fill="#EB996E"/>
<path d="M129.904 227.729C128.828 229.129 127.626 230.426 126.313 231.606C125.112 232.901 123.796 234.082 122.379 235.136C123.455 233.737 124.658 232.439 125.971 231.259C127.171 229.964 128.488 228.783 129.904 227.729Z" fill="#EB996E"/>
<path d="M128.875 233.663C127.884 235.327 126.62 236.812 125.135 238.055C126.126 236.391 127.39 234.906 128.875 233.663Z" fill="#EB996E"/>
<path d="M129.226 237.663C129.326 237.752 128.904 238.402 128.363 239.178C127.822 239.954 127.356 240.578 127.236 240.51C127.116 240.442 127.403 239.699 127.964 238.899C128.525 238.099 129.127 237.575 129.226 237.663Z" fill="#EB996E"/>
<path d="M82.1377 277.627C82.1377 277.622 82.1768 277.581 82.2627 277.506L82.6557 277.178L84.2057 275.927L90.1198 271.242L111.213 254.704L111.125 254.874C111.134 253.492 110.87 252.122 110.35 250.842C109.757 249.513 108.993 248.266 108.079 247.134C106.082 244.768 103.719 242.738 101.079 241.122L101.308 241.135L87.1417 247.297L73.9518 253.022L73.7318 253.122L73.6237 252.908C69.9907 245.765 66.6437 239.041 63.2407 233.208C61.5547 230.28 59.8797 227.563 58.3037 225.041C56.7277 222.519 55.2838 220.17 53.8148 218.149C51.6195 214.895 48.7028 212.191 45.2917 210.249C44.6997 209.899 44.1518 209.632 43.6768 209.403C43.2018 209.174 42.7988 208.983 42.4668 208.844L41.7178 208.513C41.6304 208.48 41.5469 208.437 41.4688 208.386C42.8222 208.832 44.1312 209.404 45.3787 210.093C46.8735 210.884 48.2743 211.841 49.5547 212.946C51.2511 214.437 52.7702 216.118 54.0817 217.957C55.5817 219.979 57.0417 222.323 58.6357 224.834C60.2297 227.345 61.9227 230.061 63.6247 232.987C67.0637 238.825 70.4368 245.552 74.0778 252.687L73.7487 252.569L86.9378 246.833L101.109 240.683L101.232 240.63L101.339 240.697C104.027 242.349 106.431 244.423 108.458 246.841C109.398 248.012 110.181 249.301 110.788 250.675C111.329 252.02 111.6 253.458 111.583 254.908V255.008L111.495 255.075L90.2868 271.465L84.2937 276.049C83.6157 276.559 83.0848 276.959 82.7008 277.249L82.2868 277.549C82.241 277.582 82.1908 277.608 82.1377 277.627Z" fill="#263238"/>
<path d="M72.1877 261.07C72.0447 261.009 72.8007 259.128 73.2317 256.693C73.6807 254.259 73.6317 252.234 73.7867 252.226C74.2777 255.27 73.7131 258.391 72.1867 261.07H72.1877Z" fill="#263238"/>
<path d="M222.724 338.441L237.052 356.391C237.052 356.391 260.11 347.856 263.081 350.915L229.275 379.947L205.801 352.895L222.724 338.441Z" fill="#FF725E"/>
<g opacity="0.6">
<g opacity="0.6">
<g opacity="0.6">
<g opacity="0.6">
<g opacity="0.6">
<path opacity="0.6" d="M225.342 363.904C225.1 364.283 225.008 364.738 225.081 365.181C225.155 365.624 225.39 366.024 225.742 366.304C226.111 366.558 226.563 366.661 227.005 366.591C227.448 366.522 227.847 366.285 228.12 365.93C228.373 365.529 228.469 365.047 228.389 364.579C228.309 364.111 228.058 363.69 227.685 363.396C227.273 363.17 226.789 363.113 226.336 363.237C225.883 363.361 225.495 363.655 225.255 364.059" fill="white"/>
</g>
</g>
</g>
</g>
</g>
<g opacity="0.6">
<g opacity="0.6">
<g opacity="0.6">
<g opacity="0.6">
<path opacity="0.6" d="M229.276 379.947L227.016 377.128L260.274 350.347C260.274 350.347 262.341 349.709 263.082 350.915L229.276 379.947Z" fill="white"/>
</g>
</g>
</g>
</g>
<path d="M237.453 355.749C237.59 355.919 236.829 356.702 236.472 357.931C236.084 359.15 236.279 360.224 236.072 360.289C235.892 360.389 235.291 359.189 235.749 357.71C236.207 356.231 237.362 355.567 237.453 355.749Z" fill="#263238"/>
<path d="M242.262 354.17C242.437 354.298 241.962 355.193 242.002 356.37C242.002 357.551 242.513 358.427 242.343 358.561C242.21 358.721 241.265 357.852 241.243 356.384C241.221 354.916 242.12 354.016 242.262 354.17Z" fill="#263238"/>
<path d="M247.916 356.687C247.796 356.851 246.858 356.223 246.506 354.955C246.154 353.687 246.616 352.664 246.806 352.742C247.016 352.797 246.931 353.713 247.237 354.75C247.516 355.787 248.061 356.528 247.916 356.687Z" fill="#263238"/>
<path d="M233.733 352.02C233.793 352.23 232.84 352.653 231.962 353.52C231.062 354.367 230.608 355.304 230.401 355.236C230.201 355.199 230.387 353.979 231.436 352.975C232.485 351.971 233.703 351.821 233.733 352.02Z" fill="#263238"/>
<g opacity="0.3">
<g opacity="0.3">
<g opacity="0.3">
<g opacity="0.3">
<path opacity="0.3" d="M225.561 342L228.119 345.2L211.374 359.317L208.951 356.539L225.561 342Z" fill="black"/>
</g>
</g>
</g>
</g>
<path d="M230.776 348.452C230.836 348.519 230.271 349.181 229.076 349.898C228.372 350.313 227.621 350.641 226.838 350.875C226.374 351.013 225.901 351.12 225.422 351.194C225.141 351.252 224.854 351.265 224.569 351.235C224.36 351.211 224.165 351.117 224.015 350.97C223.864 350.823 223.767 350.63 223.739 350.421C223.723 350.235 223.75 350.047 223.82 349.873C223.889 349.7 223.999 349.545 224.139 349.421C224.353 349.235 224.592 349.081 224.85 348.963C225.287 348.741 225.742 348.559 226.212 348.42C227.004 348.187 227.828 348.081 228.654 348.104C229.415 348.05 230.175 348.232 230.83 348.624C230.802 348.743 229.976 348.554 228.663 348.64C227.9 348.692 227.147 348.842 226.423 349.086C225.999 349.231 225.588 349.409 225.193 349.621C224.754 349.834 224.448 350.093 224.493 350.331C224.512 350.421 224.528 350.449 224.693 350.489C224.902 350.508 225.112 350.497 225.318 350.457C225.767 350.397 226.213 350.312 226.652 350.2C227.4 350.009 228.128 349.749 228.827 349.422C229.453 349.053 230.104 348.729 230.776 348.452Z" fill="#263238"/>
<path d="M230.76 348.874C230.723 348.949 229.888 348.639 228.909 347.622C228.342 347.02 227.882 346.326 227.548 345.57C227.351 345.12 227.2 344.651 227.097 344.17C226.996 343.868 226.975 343.546 227.036 343.234C227.096 342.921 227.237 342.63 227.443 342.388C227.597 342.262 227.783 342.183 227.98 342.159C228.177 342.135 228.376 342.168 228.555 342.253C228.812 342.376 229.05 342.535 229.262 342.724C229.645 343.052 229.975 343.437 230.242 343.864C230.693 344.578 230.96 345.392 231.021 346.234C231.09 346.613 231.083 347.002 230.999 347.378C230.915 347.754 230.756 348.109 230.532 348.422C230.559 347.714 230.545 347.005 230.49 346.298C230.365 345.562 230.082 344.862 229.659 344.247C229.415 343.891 229.122 343.57 228.788 343.295C228.426 342.981 228.043 342.807 227.94 342.96C227.845 343.118 227.785 343.295 227.765 343.479C227.745 343.662 227.765 343.848 227.824 344.023C227.908 344.459 228.032 344.886 228.192 345.3C228.471 346.007 228.85 346.671 229.315 347.272C230.124 348.305 230.831 348.771 230.76 348.874Z" fill="#263238"/>
<path d="M207.152 393.774L206.262 417.257C206.262 417.257 229.833 426.049 230.091 430.405L184.491 430.315L184.377 393.667L207.152 393.774Z" fill="#FF725E"/>
<g opacity="0.6">
<g opacity="0.6">
<g opacity="0.6">
<g opacity="0.6">
<g opacity="0.6">
<path opacity="0.6" d="M192.161 415.254C191.722 415.387 191.348 415.677 191.109 416.068C190.871 416.46 190.786 416.925 190.869 417.376C190.985 417.82 191.267 418.202 191.656 418.443C192.046 418.685 192.513 418.769 192.962 418.676C193.427 418.534 193.823 418.226 194.073 417.809C194.323 417.393 194.411 416.899 194.318 416.422C194.149 415.972 193.812 415.605 193.378 415.398C192.945 415.191 192.447 415.16 191.991 415.312" fill="white"/>
</g>
</g>
</g>
</g>
</g>
<g opacity="0.6">
<g opacity="0.6">
<g opacity="0.6">
<g opacity="0.6">
<path opacity="0.6" d="M184.494 430.315L184.627 426.621L228.294 428.089C228.294 428.089 230.322 428.976 230.094 430.405L184.494 430.315Z" fill="white"/>
</g>
</g>
</g>
</g>
<path d="M207 417.027C206.992 417.25 205.879 417.349 204.782 418.062C203.666 418.747 203.1 419.71 202.895 419.622C202.69 419.578 203.025 418.248 204.368 417.407C205.711 416.566 207.049 416.823 207 417.027Z" fill="#263238"/>
<path d="M211.781 419.015C211.831 419.23 210.866 419.607 210.108 420.547C209.322 421.465 209.129 422.483 208.908 422.473C208.699 422.508 208.547 421.203 209.508 420.052C210.469 418.901 211.776 418.802 211.781 419.015Z" fill="#263238"/>
<path d="M214.484 424.743C214.284 424.791 213.974 423.678 214.549 422.46C215.124 421.242 216.165 420.76 216.259 420.944C216.384 421.127 215.707 421.78 215.251 422.787C214.771 423.787 214.705 424.722 214.484 424.743Z" fill="#263238"/>
<path d="M206.61 411.653C206.516 411.853 205.496 411.546 204.237 411.629C202.977 411.687 201.997 412.107 201.881 411.916C201.752 411.755 202.71 410.933 204.194 410.856C205.678 410.779 206.72 411.478 206.61 411.653Z" fill="#263238"/>
<g opacity="0.3">
<g opacity="0.3">
<g opacity="0.3">
<g opacity="0.3">
<path opacity="0.3" d="M206.97 398.425L206.817 402.61L184.408 402.362L184.387 398.591L206.97 398.425Z" fill="black"/>
</g>
</g>
</g>
</g>
<path d="M206.702 406.912C205.954 407.113 205.165 407.107 204.419 406.895C203.596 406.747 202.794 406.499 202.031 406.157C201.579 405.954 201.141 405.72 200.721 405.457C200.465 405.315 200.233 405.133 200.033 404.919C199.888 404.761 199.799 404.558 199.781 404.344C199.763 404.129 199.816 403.915 199.933 403.734C200.045 403.579 200.192 403.453 200.362 403.364C200.531 403.276 200.719 403.229 200.91 403.227C201.2 403.225 201.488 403.266 201.766 403.347C202.253 403.467 202.728 403.631 203.184 403.837C203.953 404.186 204.661 404.654 205.284 405.223C206.339 406.205 206.699 407.037 206.622 407.08C206.522 407.154 206.008 406.456 204.933 405.645C204.307 405.176 203.624 404.788 202.899 404.493C202.474 404.323 202.036 404.187 201.589 404.086C201.106 403.959 200.695 403.954 200.571 404.169C200.526 404.251 200.52 404.283 200.62 404.425C200.771 404.579 200.941 404.711 201.127 404.818C201.515 405.072 201.918 405.303 202.332 405.51C203.039 405.862 203.777 406.146 204.537 406.36C205.271 406.493 205.995 406.677 206.702 406.912Z" fill="#263238"/>
<path d="M206.413 407.23C205.981 406.578 205.77 405.805 205.813 405.024C205.75 403.671 206.061 402.327 206.713 401.139C206.836 400.838 207.035 400.573 207.291 400.372C207.546 400.17 207.85 400.038 208.172 399.989C208.375 399.994 208.572 400.056 208.741 400.17C208.909 400.283 209.042 400.442 209.124 400.628C209.24 400.895 209.319 401.176 209.357 401.465C209.435 401.975 209.435 402.493 209.357 403.003C209.229 403.857 208.892 404.667 208.377 405.36C207.484 406.54 206.554 406.804 206.536 406.729C206.462 406.617 207.236 406.188 207.923 405.054C208.317 404.401 208.565 403.669 208.649 402.91C208.698 402.471 208.685 402.027 208.61 401.591C208.54 401.106 208.359 400.714 208.177 400.764C207.95 400.764 207.564 401.124 207.377 401.51C207.15 401.904 206.96 402.318 206.809 402.747C206.552 403.481 206.402 404.248 206.362 405.024C206.298 406.363 206.534 407.197 206.413 407.23Z" fill="#263238"/>
<path d="M184.029 282.735L229.152 342.7L208.046 360.829L186.317 332.417L184.029 282.735Z" fill="#263238"/>
<path d="M88.4941 285.602C88.4941 285.602 161.087 263.489 167.737 263.766C174.387 264.043 187.008 288.054 187.008 288.054L166.629 287.317C161.4 300.146 151.74 313.352 140.861 326.661L99.1881 324.722L88.4941 285.602Z" fill="#263238"/>
<path d="M147.834 268.129C147.875 268.267 140.413 270.606 131.17 273.353C121.927 276.1 114.397 278.216 114.356 278.079C114.315 277.942 121.775 275.602 131.021 272.854C140.267 270.106 147.793 267.987 147.834 268.129Z" fill="#263238"/>
<path d="M164.703 286.93H185.084C190.047 286.93 194.887 288.47 198.937 291.338C202.987 294.206 206.047 298.261 207.695 302.942C209.284 307.458 209.983 312.239 209.752 317.021L208.161 399.936H180.726L180.234 373.436L176.761 323.063L153.009 324.063L139.549 323.225L164.703 286.93Z" fill="#263238"/>
<path d="M165.308 286.517C165.225 287.11 165.096 287.696 164.924 288.269C164.526 289.852 164.045 291.413 163.483 292.945C162.643 295.219 161.631 297.425 160.456 299.545C159.008 302.139 157.348 304.609 155.493 306.929C152.039 311.056 148.337 314.968 144.408 318.645L140.888 322.028C140.473 322.461 140.027 322.862 139.553 323.228C139.915 322.752 140.313 322.304 140.744 321.889C141.533 321.047 142.701 319.855 144.144 318.389C147.021 315.441 151.136 311.489 155.081 306.61C158.441 302.439 161.156 297.787 163.134 292.81C163.857 290.889 164.411 289.317 164.724 288.21C164.876 287.632 165.071 287.066 165.308 286.517Z" fill="#455A64"/>
<path d="M190.235 287.487C190.225 287.566 188.814 287.436 186.535 287.309C184.256 287.182 181.097 287.084 177.611 287.158C174.125 287.232 170.97 287.431 168.687 287.586C167.458 287.726 166.22 287.789 164.982 287.776C165.297 287.663 165.627 287.593 165.96 287.569C166.594 287.469 167.514 287.348 168.654 287.22C170.934 286.97 174.096 286.704 177.6 286.637C180.591 286.565 183.584 286.665 186.563 286.937C187.706 287.046 188.627 287.166 189.263 287.27C189.596 287.299 189.922 287.372 190.235 287.487Z" fill="#455A64"/>
<path d="M180.61 384.787C180.562 384.56 180.538 384.328 180.536 384.096C180.508 383.59 180.471 382.931 180.425 382.112C180.345 380.328 180.235 377.85 180.099 374.812C179.829 368.65 179.456 360.14 178.867 350.75C178.278 341.36 177.576 332.867 177.072 326.72C176.825 323.692 176.624 321.22 176.48 319.44C176.422 318.622 176.38 317.964 176.341 317.458C176.313 317.228 176.309 316.995 176.328 316.764C176.39 316.987 176.429 317.217 176.445 317.448C176.506 317.948 176.584 318.606 176.682 319.421C176.867 321.197 177.124 323.664 177.438 326.687C178.038 332.827 178.793 341.318 179.387 350.718C179.981 360.118 180.287 368.632 180.467 374.799C180.534 377.837 180.588 380.317 180.628 382.099C180.628 382.919 180.637 383.579 180.641 384.086C180.654 384.32 180.644 384.555 180.61 384.787Z" fill="#263238"/>
<path d="M209.796 313.826C209.94 313.826 209.843 332.826 209.58 356.256C209.317 379.686 208.986 398.685 208.842 398.683C208.698 398.681 208.795 379.683 209.059 356.25C209.323 332.817 209.653 313.825 209.796 313.826Z" fill="#455A64"/>
<path d="M187.406 310.728C185.396 311.516 183.44 312.439 181.554 313.491C179.762 314.696 178.053 316.021 176.439 317.457C176.748 316.888 177.154 316.377 177.639 315.948C179.831 313.716 182.536 312.056 185.517 311.113C186.12 310.875 186.759 310.745 187.406 310.728Z" fill="#263238"/>
<g opacity="0.3">
<g opacity="0.3">
<path opacity="0.3" d="M139.553 323.238C145.086 324.259 151.165 322.565 155.905 319.607C160.65 316.642 164.084 311.977 165.505 306.564C166.111 304.175 166.295 301.7 166.898 299.311C167.382 296.857 168.691 294.642 170.609 293.036C172.932 291.306 178.647 290.205 180.35 287.892C180.35 287.543 173.575 288.328 171.301 288.453C168.826 288.588 164.675 289.217 164.76 288.925C164.104 291.328 163.305 293.69 162.367 295.997C157.418 304.485 146.567 316.956 139.554 323.238" fill="black"/>
</g>
</g>
<path d="M26.4219 381.932L34.1359 432.4H41.7909L38.0209 382.123L26.4219 381.932Z" fill="#263238"/>
<path d="M162.211 382.123V432.4H170.292L173.3 381.932L162.211 382.123Z" fill="#263238"/>
<path d="M25.0542 225.952C25.0542 225.952 14.2452 226.381 10.9352 230.915C5.10016 238.906 8.37916 245.835 8.05416 248.198C7.72916 250.561 26.4222 381.932 26.4222 381.932H34.1222L173.303 383.216L179.981 366.976L176.761 323.063L139.549 323.229C139.549 323.229 124.311 279.488 110.988 276.564C101.966 274.583 80.7752 275.285 68.0322 275.944C64.9073 276.109 61.7942 275.446 59.0068 274.024C56.2194 272.602 53.8561 270.471 52.1552 267.844L25.0542 225.952Z" fill="#455A64"/>
<path d="M148.407 376.771C148.407 376.771 147.641 376.871 146.161 376.941C144.683 376.984 142.499 377.052 139.678 377.076C134.036 377.153 125.842 377.176 115.639 377.169C95.2311 377.153 66.7851 376.992 34.6231 376.713H34.4151L34.3731 376.513C33.7951 373.759 33.2011 370.933 32.5981 368.058C32.0211 365.178 31.4341 362.251 30.8431 359.3C23.8551 323.675 19.7611 291.039 17.5611 267.37C16.4541 255.533 15.7911 245.936 15.3711 239.302C15.1901 235.995 15.0481 233.424 14.9511 231.659C14.9111 230.797 14.8801 230.136 14.8581 229.67C14.8401 229.222 14.8441 228.992 14.8441 228.992C14.8441 228.992 14.8751 229.22 14.9111 229.667C14.9451 230.132 14.9931 230.792 15.0561 231.653C15.1761 233.416 15.3501 235.985 15.5741 239.288C16.0551 245.917 16.7741 255.507 17.9281 267.335C20.2231 290.986 24.3731 323.595 31.3571 359.196C31.9471 362.145 32.5331 365.071 33.1101 367.95C33.7101 370.823 34.3041 373.65 34.8801 376.401L34.6311 376.201L115.643 376.829L139.68 376.893L146.161 376.848C146.9 376.848 147.461 376.793 147.836 376.786C148.211 376.779 148.407 376.771 148.407 376.771Z" fill="#263238"/>
<path d="M146.94 382.973C146.937 382.763 146.956 382.554 146.998 382.348C147.066 381.887 147.153 381.3 147.261 380.575C147.387 379.807 147.536 378.868 147.661 377.769C147.786 376.67 147.981 375.429 148.078 374.042C148.204 372.658 148.346 371.142 148.404 369.51C148.514 367.88 148.519 366.134 148.543 364.298C148.523 360.315 148.29 356.337 147.843 352.379C147.359 348.425 146.672 344.498 145.784 340.615C144.943 337.038 144.036 333.854 143.174 331.215C142.774 329.883 142.326 328.708 141.974 327.662C141.622 326.616 141.283 325.725 141.004 324.999L140.383 323.318C140.3 323.126 140.238 322.924 140.199 322.718C140.313 322.894 140.407 323.082 140.48 323.278L141.192 324.925C141.501 325.64 141.869 326.525 142.248 327.561C142.627 328.597 143.104 329.77 143.526 331.1C144.436 333.736 145.384 336.923 146.254 340.509C147.173 344.405 147.877 348.349 148.363 352.323C148.811 356.301 149.031 360.301 149.022 364.304C148.984 366.148 148.964 367.904 148.834 369.538C148.757 371.177 148.593 372.697 148.444 374.084C148.322 375.473 148.101 376.717 147.944 377.814C147.787 378.911 147.616 379.849 147.46 380.614C147.312 381.333 147.193 381.914 147.1 382.372C147.07 382.578 147.016 382.779 146.94 382.973Z" fill="#263238"/>
<path d="M44.9531 288.856C45.1249 288.68 45.3131 288.522 45.5151 288.382L47.1951 287.1L48.4191 286.182C48.8861 285.882 49.4131 285.575 49.9701 285.235C51.215 284.437 52.5066 283.716 53.8381 283.073L56.1591 281.946C56.9591 281.546 57.8521 281.255 58.7451 280.886C59.6451 280.547 60.5621 280.133 61.5451 279.825L64.5721 278.869C69.0924 277.537 73.7137 276.576 78.3901 275.995C83.0607 275.381 87.7686 275.095 92.4791 275.14C94.6511 275.103 96.7101 275.278 98.6381 275.349C100.56 275.527 102.355 275.649 103.981 275.882C106.553 276.205 109.104 276.673 111.623 277.282L113.659 277.846C113.899 277.9 114.134 277.977 114.359 278.077C114.113 278.056 113.87 278.013 113.632 277.947L111.578 277.479C109.79 277.101 107.185 276.619 103.937 276.245C102.316 276.039 100.526 275.936 98.6121 275.778C96.6911 275.726 94.6401 275.567 92.4781 275.618C87.7901 275.6 83.1062 275.898 78.4581 276.509C73.8085 277.087 69.2114 278.03 64.7091 279.327L61.6941 280.257C60.7151 280.557 59.8061 280.957 58.9041 281.286C58.0141 281.644 57.1251 281.925 56.3231 282.311L54.0041 283.401C52.672 284.02 51.3763 284.715 50.1231 285.482C49.5621 285.808 49.0301 286.097 48.5571 286.388L47.3141 287.264L45.5821 288.464C45.3852 288.614 45.1746 288.745 44.9531 288.856Z" fill="#263238"/>
<path d="M127.668 295.966C127.647 296.079 127.613 296.189 127.568 296.295C127.493 296.508 127.394 296.832 127.23 297.243C126.709 298.429 126.017 299.533 125.176 300.519C123.819 302.062 122.188 303.342 120.367 304.295C119.229 304.882 118.043 305.373 116.823 305.762C115.449 306.179 114.038 306.468 112.61 306.624C109.331 306.903 106.029 306.717 102.803 306.069C99.3211 305.446 95.6841 304.441 91.8401 303.517C87.8513 302.461 83.7442 301.919 79.6181 301.902C77.4494 301.929 75.2951 302.26 73.2181 302.885C71.087 303.55 69.0818 304.567 67.2851 305.892C63.7875 308.607 60.8395 311.965 58.5991 315.784C56.3141 319.42 54.4991 323.169 52.5721 326.636C50.8179 329.97 48.7205 333.113 46.3141 336.012C44.2126 338.565 41.5888 340.637 38.6191 342.091C36.15 343.249 33.4673 343.881 30.7411 343.947C28.6844 343.998 26.64 343.616 24.7411 342.824C24.0551 342.527 23.396 342.171 22.7711 341.761C22.2561 341.367 21.8181 341.032 21.4931 340.734L20.8001 340.003C20.7171 339.924 20.6427 339.837 20.5781 339.742C20.6722 339.808 20.7597 339.883 20.8391 339.966L21.5631 340.656C21.8971 340.939 22.3401 341.256 22.8561 341.632C23.482 342.021 24.1389 342.357 24.8201 342.638C26.7014 343.382 28.7163 343.729 30.7381 343.656C33.417 343.56 36.0473 342.914 38.4651 341.756C41.3731 340.304 43.9384 338.25 45.9901 335.729C48.3608 332.841 50.4268 329.716 52.1551 326.403C54.0661 322.944 55.8711 319.184 58.1701 315.512C60.4392 311.633 63.4305 308.224 66.9821 305.47C68.8227 304.11 70.8777 303.068 73.0621 302.387C75.1865 301.749 77.3901 301.412 79.6081 301.387C83.7771 301.409 87.9261 301.966 91.9531 303.045C95.8061 303.985 99.4291 305.002 102.882 305.639C106.068 306.296 109.33 306.503 112.573 306.253C115.244 306.002 117.843 305.249 120.233 304.032C122.037 303.113 123.66 301.876 125.025 300.381C126.163 299.079 127.058 297.584 127.668 295.966Z" fill="white"/>
<path d="M178.53 359.937C178.53 359.937 178.382 359.981 178.091 360.043L176.8 360.302C176.109 360.474 175.428 360.685 174.76 360.934C174.332 361.088 173.916 361.27 173.512 361.479C173.037 361.681 172.576 361.915 172.131 362.179C169.828 363.533 167.69 365.148 165.759 366.994C163.439 369.087 160.959 371.66 157.917 374.194C156.336 375.541 154.613 376.712 152.779 377.686C151.799 378.203 150.781 378.645 149.734 379.008L148.081 379.451C147.515 379.584 146.942 379.684 146.365 379.751C143.959 380.045 141.52 379.921 139.156 379.385C136.662 378.805 134.252 377.909 131.985 376.718C127.159 374.123 122.696 370.904 118.709 367.145C114.509 363.345 110.223 359.305 105.218 356.012C102.771 354.362 100.119 353.039 97.3282 352.078C94.6205 351.16 91.7634 350.764 88.9082 350.911C86.1539 351.103 83.4505 351.751 80.9082 352.828C78.4634 353.865 76.1067 355.099 73.8612 356.517C69.4402 359.249 65.4182 362.169 61.3272 364.397C57.5276 366.452 53.4808 368.013 49.2852 369.042C43.2111 370.544 36.9138 370.924 30.7032 370.163C28.4318 369.901 26.1868 369.446 23.9922 368.805C23.9922 368.805 24.1452 368.822 24.4362 368.882L25.7262 369.158C26.8592 369.399 28.5422 369.707 30.7262 369.958C36.9104 370.639 43.1666 370.209 49.1992 368.687C53.3553 367.642 57.362 366.074 61.1232 364.02C65.1722 361.794 69.1762 358.868 73.6122 356.11C75.8769 354.673 78.2548 353.422 80.7222 352.37C83.3134 351.267 86.07 350.603 88.8792 350.404C91.7989 350.25 94.7213 350.652 97.4912 351.588C100.325 352.562 103.018 353.904 105.503 355.578C110.561 358.907 114.864 362.962 119.053 366.77C123.002 370.504 127.423 373.705 132.202 376.292C134.433 377.47 136.805 378.358 139.26 378.936C141.572 379.469 143.958 379.599 146.313 379.321C146.877 379.26 147.437 379.165 147.99 379.038L149.608 378.613C150.635 378.262 151.635 377.833 152.597 377.331C154.412 376.378 156.119 375.231 157.687 373.911C160.722 371.418 163.22 368.863 165.567 366.783C167.527 364.941 169.698 363.338 172.035 362.007C172.486 361.746 172.954 361.515 173.435 361.316C173.846 361.112 174.27 360.936 174.704 360.789C175.381 360.55 176.073 360.353 176.774 360.2L178.081 359.99C178.378 359.946 178.53 359.937 178.53 359.937Z" fill="white"/>
<path d="M39.3615 250.707C39.324 251.138 39.2326 251.563 39.0895 251.971C38.7558 253.102 38.3082 254.196 37.7535 255.237C35.9327 258.726 33.0862 261.574 29.5976 263.396C26.1089 265.219 22.1456 265.928 18.2415 265.429C17.0707 265.29 15.9172 265.032 14.7985 264.66C14.3816 264.543 13.9809 264.375 13.6055 264.16C15.1419 264.566 16.7042 264.866 18.2815 265.06C22.1019 265.451 25.9531 264.712 29.3573 262.934C32.7615 261.156 35.569 258.419 37.4315 255.06C38.1726 253.654 38.8174 252.2 39.3615 250.707Z" fill="white"/>
<path d="M352.305 119.306H163.254C159.419 119.306 156.311 122.415 156.311 126.249V177.424C156.311 181.259 159.419 184.367 163.254 184.367H352.305C356.139 184.367 359.248 181.259 359.248 177.424V126.249C359.248 122.415 356.139 119.306 352.305 119.306Z" fill="white"/>
<path d="M352.305 184.367C352.754 184.338 353.201 184.285 353.645 184.208C354.942 183.941 356.136 183.307 357.084 182.382C357.782 181.707 358.327 180.891 358.684 179.988C359.09 178.889 359.256 177.715 359.171 176.546C359.164 173.992 359.156 171.046 359.147 167.734C359.134 161.101 359.12 152.99 359.102 143.574C359.096 138.865 359.089 133.837 359.082 128.49C359.167 127.152 359.085 125.808 358.839 124.49C358.479 123.153 357.718 121.959 356.658 121.069C355.598 120.179 354.29 119.636 352.912 119.513C351.499 119.453 350.012 119.499 348.537 119.486L163.262 119.567C161.618 119.563 160.031 120.166 158.804 121.26C157.577 122.354 156.796 123.862 156.612 125.495C156.521 126.554 156.587 127.717 156.567 128.82C156.567 133.287 156.567 137.723 156.567 142.13C156.567 150.94 156.567 159.614 156.567 168.151C156.567 170.284 156.567 172.407 156.567 174.52C156.573 175.572 156.554 176.64 156.579 177.673C156.63 179.196 157.202 180.656 158.199 181.808C159.197 182.961 160.56 183.736 162.06 184.004C163.072 184.12 164.092 184.158 165.11 184.118H168.195L192.272 184.126L275.565 184.182L331.718 184.265L346.985 184.314L350.956 184.34C351.85 184.348 352.308 184.366 352.308 184.366C352.308 184.366 351.85 184.384 350.956 184.393L346.985 184.419L331.718 184.467L275.565 184.55L192.272 184.606L168.195 184.615H165.11C164.062 184.657 163.012 184.617 161.971 184.495C160.357 184.207 158.891 183.375 157.817 182.136C156.743 180.897 156.127 179.327 156.071 177.689C156.044 176.62 156.063 175.578 156.057 174.518C156.057 172.405 156.057 170.282 156.057 168.149C156.057 159.619 156.057 150.945 156.057 142.128C156.057 137.723 156.057 133.287 156.057 128.818C156.079 127.689 156.009 126.61 156.106 125.435C156.305 123.677 157.145 122.054 158.465 120.875C159.785 119.697 161.492 119.046 163.262 119.046L348.533 119.122C350.021 119.138 351.464 119.093 352.94 119.159C354.39 119.291 355.764 119.865 356.878 120.803C357.991 121.742 358.789 122.999 359.165 124.406C359.343 125.08 359.426 125.776 359.412 126.473C359.412 127.15 359.412 127.823 359.412 128.49C359.404 133.829 359.397 138.857 359.392 143.574C359.374 152.99 359.359 161.101 359.347 167.734C359.338 171.048 359.33 173.992 359.323 176.546C359.401 177.733 359.223 178.924 358.803 180.037C358.364 181.114 357.663 182.065 356.764 182.803C355.865 183.54 354.795 184.042 353.653 184.261C353.32 184.322 352.982 184.355 352.644 184.361C352.42 184.37 352.305 184.367 352.305 184.367Z" fill="#263238"/>
<path d="M344.637 132.661C344.587 132.661 344.538 132.646 344.497 132.618C344.455 132.59 344.423 132.551 344.405 132.504C344.386 132.458 344.382 132.407 344.392 132.358C344.403 132.309 344.428 132.265 344.464 132.23L349.464 127.44C349.512 127.394 349.576 127.369 349.643 127.371C349.709 127.373 349.772 127.401 349.818 127.449C349.864 127.497 349.888 127.561 349.887 127.627C349.885 127.693 349.857 127.756 349.809 127.802L344.809 132.591C344.763 132.636 344.702 132.661 344.637 132.661Z" fill="#263238"/>
<path d="M349.613 132.681C349.547 132.681 349.484 132.656 349.438 132.61L344.488 127.779C344.464 127.756 344.444 127.729 344.431 127.698C344.418 127.668 344.411 127.635 344.41 127.602C344.41 127.569 344.416 127.536 344.428 127.505C344.44 127.475 344.458 127.447 344.482 127.423C344.505 127.399 344.532 127.381 344.563 127.368C344.594 127.355 344.626 127.348 344.659 127.348C344.693 127.348 344.725 127.354 344.756 127.367C344.787 127.38 344.814 127.398 344.838 127.422L349.788 132.252C349.823 132.287 349.848 132.331 349.858 132.38C349.868 132.429 349.863 132.479 349.845 132.525C349.826 132.572 349.794 132.611 349.752 132.639C349.711 132.666 349.662 132.681 349.613 132.681Z" fill="#263238"/>
<path d="M200.043 164.477L198.002 161.587C196.772 159.845 196.112 157.765 196.111 155.632V149.138C196.11 146.607 195.203 144.16 193.555 142.239C191.907 140.319 189.625 139.051 187.124 138.666V135.566C187.124 135.188 186.973 134.825 186.706 134.558C186.438 134.29 186.075 134.14 185.697 134.14C185.319 134.141 184.956 134.291 184.689 134.559C184.422 134.826 184.271 135.189 184.271 135.567V138.619C181.693 138.924 179.318 140.164 177.593 142.104C175.869 144.044 174.917 146.55 174.917 149.145V155.873C174.918 158.186 174.143 160.432 172.717 162.252L170.961 164.487L200.043 164.477Z" fill="#14649C"/>
<path d="M183.971 169.2C184.762 169.517 185.625 169.609 186.464 169.464C187.304 169.32 188.087 168.945 188.726 168.382C189.274 167.878 189.686 167.244 189.926 166.539L181.455 166.479C181.663 167.082 181.994 167.635 182.427 168.104C182.86 168.572 183.386 168.945 183.971 169.2Z" fill="#14649C"/>
<path d="M314.213 141.287C314.213 141.431 291.48 141.547 263.444 141.547C235.408 141.547 212.67 141.431 212.67 141.287C212.67 141.143 235.398 141.026 263.444 141.026C291.49 141.026 314.213 141.143 314.213 141.287Z" fill="#263238"/>
<path d="M338.141 153.575C338.141 153.719 310.051 153.836 275.408 153.836C240.765 153.836 212.67 153.719 212.67 153.575C212.67 153.431 240.754 153.315 275.408 153.315C310.062 153.315 338.141 153.431 338.141 153.575Z" fill="#E0E0E0"/>
<path d="M338.141 160.935C338.141 161.078 310.051 161.195 275.408 161.195C240.765 161.195 212.67 161.078 212.67 160.935C212.67 160.792 240.754 160.674 275.408 160.674C310.062 160.674 338.141 160.787 338.141 160.935Z" fill="#E0E0E0"/>
<path d="M319.838 194.524H194.291C190.456 194.524 187.348 197.633 187.348 201.467V232.283C187.348 236.118 190.456 239.226 194.291 239.226H319.838C323.672 239.226 326.781 236.118 326.781 232.283V201.467C326.781 197.633 323.672 194.524 319.838 194.524Z" fill="#FAFAFA"/>
<path d="M319.837 239.225C319.837 239.207 320.151 239.213 320.751 239.131C321.641 239.012 322.497 238.713 323.268 238.252C324.299 237.653 325.156 236.796 325.756 235.765C326.355 234.734 326.676 233.565 326.686 232.372C326.686 231.372 326.684 230.309 326.679 229.183C326.667 224.671 326.652 219.156 326.635 212.756C326.628 209.556 326.622 206.137 326.615 202.499C326.662 201.593 326.588 200.685 326.394 199.799C326.04 198.414 325.255 197.177 324.153 196.266C323.051 195.355 321.689 194.817 320.262 194.729L194.3 194.784C192.816 194.785 191.375 195.279 190.203 196.189C189.031 197.099 188.194 198.372 187.825 199.809C187.649 200.525 187.576 201.262 187.608 201.999V208.775C187.608 214.765 187.608 220.663 187.608 226.468C187.608 227.918 187.608 229.362 187.608 230.799C187.614 231.512 187.59 232.248 187.64 232.924C187.713 233.608 187.884 234.279 188.146 234.915C188.691 236.173 189.605 237.235 190.768 237.96C191.931 238.686 193.288 239.04 194.657 238.976L211.028 238.985L267.663 239.041L305.844 239.124L316.225 239.173L318.925 239.199C319.533 239.207 319.844 239.225 319.844 239.225C319.844 239.225 319.533 239.243 318.925 239.252L316.225 239.278L305.844 239.327L267.663 239.409L211.028 239.465L194.657 239.474C193.189 239.539 191.737 239.157 190.491 238.378C189.246 237.599 188.266 236.461 187.682 235.113C187.399 234.429 187.215 233.708 187.136 232.972C187.081 232.221 187.108 231.521 187.101 230.799C187.101 229.362 187.101 227.918 187.101 226.468C187.101 220.668 187.101 214.77 187.101 208.775C187.101 207.277 187.101 205.774 187.101 204.266V201.999C187.068 201.219 187.147 200.438 187.333 199.68C187.725 198.134 188.623 196.764 189.883 195.787C191.149 194.802 192.707 194.265 194.312 194.263L320.297 194.363C321.799 194.457 323.232 195.027 324.39 195.989C325.547 196.951 326.369 198.255 326.737 199.715C326.935 200.629 327.01 201.566 326.959 202.5C326.952 206.13 326.946 209.549 326.939 212.757C326.922 219.157 326.907 224.672 326.895 229.184C326.889 230.311 326.883 231.374 326.878 232.375C326.859 233.593 326.521 234.784 325.899 235.831C325.277 236.878 324.393 237.744 323.333 238.344C322.547 238.801 321.674 239.087 320.771 239.185C320.461 239.224 320.149 239.238 319.837 239.225Z" fill="#263238"/>
<path d="M316.742 203.777C316.692 203.777 316.643 203.762 316.602 203.734C316.561 203.706 316.529 203.667 316.51 203.62C316.492 203.574 316.487 203.523 316.498 203.475C316.508 203.426 316.533 203.382 316.569 203.347L320.005 200.056C320.053 200.014 320.116 199.993 320.18 199.996C320.244 199.999 320.304 200.026 320.349 200.073C320.393 200.119 320.418 200.181 320.418 200.245C320.418 200.309 320.394 200.37 320.35 200.417L316.915 203.708C316.868 203.752 316.806 203.777 316.742 203.777Z" fill="#263238"/>
<path d="M320.162 203.787C320.097 203.787 320.034 203.761 319.987 203.715L316.587 200.396C316.562 200.374 316.541 200.346 316.526 200.316C316.512 200.285 316.503 200.252 316.502 200.218C316.501 200.184 316.506 200.15 316.519 200.118C316.531 200.086 316.549 200.057 316.573 200.033C316.597 200.009 316.625 199.99 316.657 199.977C316.688 199.964 316.722 199.957 316.756 199.958C316.79 199.959 316.823 199.966 316.854 199.98C316.885 199.994 316.913 200.014 316.936 200.039L320.336 203.358C320.372 203.393 320.396 203.437 320.406 203.486C320.417 203.535 320.412 203.585 320.393 203.631C320.374 203.678 320.342 203.717 320.301 203.745C320.26 203.772 320.211 203.787 320.161 203.787H320.162Z" fill="#263238"/>
<path d="M217.396 225.559L215.996 223.573C215.15 222.377 214.696 220.947 214.696 219.482V215.02C214.697 213.28 214.074 211.597 212.941 210.277C211.809 208.956 210.241 208.085 208.521 207.82V205.691C208.521 205.431 208.417 205.182 208.233 204.998C208.049 204.814 207.8 204.711 207.54 204.711C207.28 204.711 207.031 204.814 206.847 204.998C206.663 205.182 206.56 205.431 206.56 205.691V207.791C204.789 208 203.156 208.852 201.971 210.185C200.787 211.518 200.133 213.24 200.133 215.023V219.646C200.133 221.235 199.6 222.778 198.62 224.028L197.42 225.564L217.396 225.559Z" fill="#455A64"/>
<path d="M206.352 228.804C206.895 229.022 207.489 229.085 208.066 228.986C208.643 228.887 209.181 228.629 209.62 228.242C209.997 227.896 210.28 227.46 210.445 226.976L204.625 226.935C204.768 227.349 204.995 227.729 205.292 228.051C205.59 228.373 205.95 228.629 206.352 228.804Z" fill="#455A64"/>
<path d="M295.838 209.626C295.838 209.77 280.218 209.886 260.956 209.886C241.694 209.886 226.07 209.77 226.07 209.626C226.07 209.482 241.686 209.365 260.956 209.365C280.226 209.365 295.838 209.482 295.838 209.626Z" fill="#263238"/>
<path d="M312.278 218.069C312.278 218.213 292.978 218.329 269.178 218.329C245.378 218.329 226.072 218.213 226.072 218.069C226.072 217.925 245.372 217.809 269.178 217.809C292.984 217.809 312.278 217.925 312.278 218.069Z" fill="#E0E0E0"/>
<path d="M312.278 223.125C312.278 223.269 292.978 223.386 269.178 223.386C245.378 223.386 226.072 223.269 226.072 223.125C226.072 222.981 245.372 222.865 269.178 222.865C292.984 222.865 312.278 222.982 312.278 223.125Z" fill="#E0E0E0"/>
<path d="M319.309 246.181H194.814C190.98 246.181 187.871 249.29 187.871 253.124V283.602C187.871 287.437 190.98 290.545 194.814 290.545H319.309C323.144 290.545 326.252 287.437 326.252 283.602V253.124C326.252 249.29 323.144 246.181 319.309 246.181Z" fill="#FAFAFA"/>
<path d="M319.309 290.545C319.309 290.527 319.62 290.532 320.215 290.452C321.098 290.334 321.948 290.04 322.715 289.587C323.74 288.996 324.594 288.15 325.197 287.132C325.799 286.114 326.128 284.958 326.153 283.775C326.153 282.784 326.153 281.73 326.153 280.612C326.141 276.135 326.126 270.663 326.109 264.312C326.103 261.134 326.096 257.742 326.089 254.135C326.135 253.236 326.061 252.335 325.869 251.455C325.517 250.081 324.742 248.853 323.653 247.943C322.565 247.034 321.218 246.49 319.803 246.389L194.825 246.44C193.354 246.444 191.924 246.932 190.758 247.828C189.591 248.724 188.751 249.979 188.367 251.399C188.181 252.106 188.103 252.836 188.134 253.566V260.287C188.134 266.231 188.134 272.083 188.134 277.842C188.134 279.281 188.134 280.714 188.134 282.142C188.134 282.851 188.117 283.579 188.167 284.25C188.24 284.929 188.409 285.594 188.667 286.226C189.205 287.475 190.107 288.532 191.256 289.258C192.405 289.984 193.747 290.346 195.106 290.296L211.35 290.305L267.543 290.361L305.427 290.444L315.727 290.493L318.405 290.518C319.005 290.527 319.318 290.545 319.318 290.545C319.318 290.545 319.009 290.563 318.405 290.572L315.727 290.598L305.427 290.646L267.543 290.729L211.35 290.785L195.106 290.794C193.65 290.845 192.212 290.455 190.981 289.675C189.75 288.895 188.783 287.762 188.206 286.424C187.927 285.745 187.745 285.029 187.665 284.299C187.61 283.554 187.635 282.859 187.629 282.142C187.629 280.716 187.629 279.283 187.629 277.842C187.629 272.087 187.629 266.235 187.629 260.287V253.567C187.599 252.792 187.683 252.017 187.879 251.267C188.293 249.736 189.198 248.383 190.456 247.417C191.714 246.451 193.254 245.926 194.84 245.921L319.845 246.021C321.334 246.132 322.75 246.708 323.893 247.669C325.036 248.629 325.848 249.925 326.214 251.372C326.411 252.279 326.485 253.208 326.435 254.135C326.428 257.735 326.421 261.127 326.415 264.312C326.398 270.662 326.383 276.134 326.371 280.612C326.364 281.731 326.357 282.786 326.35 283.779C326.317 284.987 325.971 286.165 325.346 287.199C324.721 288.233 323.839 289.088 322.785 289.679C322.003 290.128 321.136 290.409 320.24 290.506C319.931 290.544 319.62 290.557 319.309 290.545Z" fill="#263238"/>
<path d="M316.289 255.366C316.239 255.366 316.19 255.351 316.149 255.323C316.108 255.295 316.076 255.256 316.057 255.209C316.039 255.163 316.034 255.112 316.045 255.064C316.055 255.015 316.08 254.971 316.116 254.936L319.526 251.67C319.549 251.647 319.577 251.629 319.608 251.618C319.638 251.606 319.671 251.6 319.704 251.601C319.737 251.601 319.769 251.608 319.799 251.622C319.829 251.635 319.856 251.654 319.879 251.678C319.902 251.701 319.92 251.729 319.932 251.76C319.943 251.79 319.949 251.823 319.949 251.856C319.948 251.889 319.941 251.921 319.927 251.951C319.914 251.981 319.895 252.008 319.872 252.031L316.462 255.297C316.415 255.341 316.353 255.366 316.289 255.366Z" fill="#263238"/>
<path d="M319.682 255.381C319.617 255.381 319.554 255.355 319.507 255.31L316.132 252.016C316.085 251.97 316.059 251.907 316.059 251.841C316.058 251.775 316.084 251.712 316.13 251.665C316.176 251.617 316.238 251.59 316.304 251.589C316.37 251.588 316.433 251.613 316.481 251.658L319.856 254.952C319.892 254.987 319.916 255.031 319.926 255.08C319.936 255.128 319.932 255.179 319.913 255.225C319.894 255.271 319.862 255.31 319.821 255.338C319.78 255.366 319.732 255.381 319.682 255.381Z" fill="#263238"/>
<path d="M217.692 276.982L216.301 275.011C215.462 273.823 215.011 272.405 215.011 270.951V266.522C215.011 264.796 214.392 263.128 213.268 261.818C212.144 260.509 210.589 259.644 208.883 259.382V257.268C208.883 257.01 208.78 256.763 208.598 256.581C208.416 256.398 208.168 256.296 207.91 256.296C207.783 256.296 207.656 256.321 207.538 256.37C207.42 256.419 207.313 256.491 207.222 256.581C207.132 256.671 207.06 256.779 207.011 256.897C206.962 257.015 206.937 257.141 206.937 257.269V259.35C205.18 259.558 203.56 260.403 202.384 261.726C201.208 263.049 200.559 264.757 200.559 266.527V271.115C200.56 272.692 200.032 274.224 199.059 275.465L197.861 276.987L217.692 276.982Z" fill="#E0E0E0"/>
<path d="M206.734 280.202C207.273 280.419 207.861 280.482 208.434 280.383C209.007 280.285 209.541 280.029 209.977 279.645C210.35 279.301 210.631 278.869 210.796 278.388L205.02 278.347C205.161 278.758 205.387 279.135 205.682 279.455C205.977 279.774 206.335 280.028 206.734 280.202Z" fill="#E0E0E0"/>
<path d="M295.544 261.169C295.544 261.313 280.044 261.429 260.925 261.429C241.806 261.429 226.303 261.313 226.303 261.169C226.303 261.025 241.803 260.909 260.925 260.909C280.047 260.909 295.544 261.025 295.544 261.169Z" fill="#263238"/>
<path d="M311.861 269.548C311.861 269.692 292.706 269.809 269.084 269.809C245.462 269.809 226.303 269.692 226.303 269.548C226.303 269.404 245.453 269.288 269.084 269.288C292.715 269.288 311.861 269.404 311.861 269.548Z" fill="#E0E0E0"/>
<path d="M311.861 274.566C311.861 274.71 292.706 274.827 269.084 274.827C245.462 274.827 226.303 274.71 226.303 274.566C226.303 274.422 245.453 274.306 269.084 274.306C292.715 274.306 311.861 274.423 311.861 274.566Z" fill="#E0E0E0"/>
<path d="M421.722 233.72C411.369 239.083 403.431 248.32 397.722 258.482C392.013 268.644 388.335 279.803 384.691 290.882L381.502 347.999C393.548 327.506 403.216 303.416 405.828 279.789L397.812 279.075C403.187 278.255 407.698 274.36 410.569 269.743C413.44 265.126 414.917 259.801 416.359 254.559L406.579 256.012C414.304 250.804 419.727 242.821 421.722 233.72Z" fill="#455A64"/>
<path d="M421.722 233.72C411.369 239.083 403.431 248.32 397.722 258.482C392.013 268.644 388.335 279.803 384.691 290.882L381.502 347.999C393.548 327.506 403.216 303.416 405.828 279.789L397.812 279.075C403.187 278.255 407.698 274.36 410.569 269.743C413.44 265.126 414.917 259.801 416.359 254.559L406.579 256.012C414.304 250.804 419.727 242.821 421.722 233.72Z" fill="#14649C"/>
<g opacity="0.3">
<g opacity="0.3">
<path opacity="0.3" d="M421.722 233.72C411.369 239.083 403.431 248.32 397.722 258.482C392.013 268.644 388.335 279.803 384.691 290.882L381.502 347.999C393.548 327.506 403.216 303.416 405.828 279.789L397.812 279.075C403.187 278.255 407.698 274.36 410.569 269.743C413.44 265.126 414.917 259.801 416.359 254.559L406.579 256.012C414.304 250.804 419.727 242.821 421.722 233.72Z" fill="black"/>
</g>
</g>
<path d="M379.72 361.377C379.72 361.377 353.574 330.077 353.876 300.208H364.438C364.438 300.208 352.966 292.664 353.873 288.439C354.78 284.214 355.083 268.221 355.083 268.221L364.739 270.635C364.739 270.635 357.497 267.014 356.592 261.28C355.687 255.546 358.704 228.992 358.704 228.992C358.704 228.992 370.473 241.364 374.094 254.038C377.715 266.712 387.22 281.499 384.429 320.124C381.638 358.749 379.72 361.377 379.72 361.377Z" fill="#14649C"/>
<path d="M392.975 364.331C392.975 364.331 421.301 345.461 427.595 321.376L419.103 319.065C419.103 319.065 429.977 315.51 430.171 311.915C430.365 308.32 433.622 295.396 433.622 295.396L425.331 295.224C425.331 295.224 431.946 293.897 433.931 289.486C435.916 285.075 439.297 263.064 439.297 263.064C439.297 263.064 427.128 270.436 421.444 279.834C415.76 289.232 404.883 299.039 398.676 330.704C392.469 362.369 392.975 364.331 392.975 364.331Z" fill="#14649C"/>
<path d="M365.848 256.277C365.894 256.381 365.927 256.489 365.948 256.601C366.007 256.847 366.083 257.165 366.179 257.563C366.379 258.449 366.659 259.692 367.015 261.276C367.38 262.887 367.803 264.864 368.262 267.166C368.721 269.468 369.273 272.083 369.805 274.99C370.928 280.79 372.112 287.729 373.33 295.446C374.511 303.17 375.689 311.68 376.73 320.636C377.755 329.598 378.55 338.154 379.163 345.945C379.738 353.738 380.168 360.763 380.398 366.668C380.543 369.619 380.611 372.291 380.681 374.637C380.751 376.983 380.798 379.004 380.811 380.656C380.825 382.279 380.836 383.556 380.844 384.456C380.844 384.865 380.844 385.192 380.838 385.445C380.88 385.452 380.917 385.475 380.944 385.508C380.97 385.542 380.982 385.584 380.979 385.627C380.975 385.669 380.956 385.709 380.924 385.738C380.893 385.767 380.852 385.783 380.809 385.783C380.767 385.783 380.725 385.767 380.694 385.738C380.663 385.709 380.643 385.669 380.64 385.627C380.636 385.584 380.649 385.542 380.675 385.508C380.701 385.475 380.739 385.452 380.781 385.445C380.768 385.192 380.752 384.866 380.731 384.457C380.698 383.55 380.652 382.277 380.593 380.657C380.546 379.006 380.476 376.986 380.368 374.643C380.26 372.3 380.168 369.63 380.003 366.681C379.722 360.781 379.251 353.765 378.648 345.981C378.008 338.199 377.198 329.651 376.174 320.697C375.129 311.748 373.967 303.243 372.815 295.521C371.626 287.804 370.483 280.865 369.415 275.058C368.908 272.149 368.391 269.528 367.954 267.223C367.517 264.918 367.132 262.934 366.801 261.316C366.488 259.724 366.243 258.474 366.068 257.583C365.994 257.183 365.936 256.859 365.891 256.609C365.864 256.5 365.85 256.389 365.848 256.277Z" fill="#263238"/>
<path d="M376.094 380.54C376.094 380.54 352.163 353.387 344.739 336.981L350.347 334.581C346.282 335.252 342.117 333.505 338.965 330.851C335.813 328.197 333.497 324.708 331.228 321.27L338.616 320.021C331.829 318.083 326.048 313.607 322.473 307.521C331.192 308.954 339.079 313.743 345.579 319.729C350.74 324.689 355.427 330.12 359.579 335.951C361.669 338.753 363.49 341.746 365.017 344.891C369.038 353.203 376.108 370.57 376.094 380.54Z" fill="#14649C"/>
<path d="M427.971 278.866C427.946 278.963 427.91 279.056 427.864 279.144L427.499 279.934L426.048 282.949C424.769 285.557 422.956 289.349 420.76 294.056C416.36 303.465 410.569 316.598 404.848 331.376C399.127 346.154 394.589 359.776 391.512 369.699C389.971 374.658 388.762 378.684 387.954 381.474C387.548 382.834 387.229 383.907 386.999 384.68C386.892 385.019 386.805 385.292 386.737 385.51C386.712 385.607 386.676 385.7 386.629 385.788C386.634 385.689 386.652 385.59 386.681 385.495C386.736 385.273 386.805 384.995 386.89 384.65C387.096 383.869 387.381 382.788 387.744 381.414C388.488 378.605 389.644 374.561 391.134 369.583C394.115 359.627 398.609 345.976 404.325 331.174C410.041 316.372 415.91 303.259 420.402 293.887C422.645 289.199 424.514 285.431 425.853 282.852C426.509 281.592 427.026 280.599 427.398 279.883L427.812 279.118C427.854 279.027 427.907 278.943 427.971 278.866Z" fill="#263238"/>
<path d="M378.124 392.174C378.059 392.014 378.018 391.846 378.002 391.674C377.937 391.281 377.857 390.806 377.762 390.234C377.576 388.982 377.262 387.176 376.819 384.957C376.376 382.738 375.769 380.113 374.984 377.229C374.174 374.351 373.184 371.216 371.971 367.985C370.743 364.76 369.416 361.751 368.123 359.055C366.805 356.371 365.535 353.994 364.392 352.042C363.249 350.09 362.299 348.521 361.611 347.458L360.84 346.219C360.739 346.08 360.659 345.927 360.602 345.765C360.618 345.754 360.732 345.888 360.933 346.155L361.793 347.337C362.538 348.365 363.549 349.901 364.732 351.837C365.915 353.773 367.232 356.137 368.586 358.825C369.912 361.525 371.261 364.541 372.495 367.784C373.712 371.033 374.695 374.191 375.482 377.09C376.244 379.997 376.824 382.642 377.208 384.881C377.592 387.12 377.858 388.938 377.978 390.203C378.032 390.78 378.078 391.26 378.114 391.658C378.142 391.829 378.145 392.002 378.124 392.174Z" fill="#263238"/>
<path d="M409.695 385.788H357.328V396.47H409.695V385.788Z" fill="#455A64"/>
<path d="M362.318 396.47L367.982 432.4H399.625L404.905 396.47H362.318Z" fill="#455A64"/>
<path d="M406.483 396.47C406.483 396.625 396.577 396.75 384.36 396.75C372.143 396.75 362.234 396.625 362.234 396.47C362.234 396.315 372.134 396.19 384.36 396.19C396.586 396.19 406.483 396.315 406.483 396.47Z" fill="#263238"/>
<path d="M98.8844 131.078L99.9724 118.157C93.689 113.981 89.1947 107.606 87.3729 100.285C85.5511 92.9641 86.5336 85.2263 90.1273 78.5928C93.7211 71.9593 99.666 66.9099 106.794 64.4372C113.921 61.9644 121.716 62.2472 128.646 65.2298C135.576 68.2125 141.139 73.6793 144.243 80.5557C147.347 87.4321 147.766 95.2208 145.419 102.391C143.071 109.561 138.127 115.593 131.557 119.303C124.988 123.012 117.268 124.13 109.916 122.437L109.931 122.445L98.8844 131.078Z" fill="white"/>
<path d="M98.8836 131.078L109.984 122.518L110.098 122.431L109.97 122.363L109.955 122.355L109.891 122.528C112.251 123.076 114.668 123.344 117.091 123.328C119.972 123.295 122.835 122.851 125.591 122.008C127.12 121.546 128.606 120.95 130.031 120.227C130.757 119.841 131.509 119.472 132.246 119.055L134.4 117.637C140.674 113.102 144.985 106.347 146.456 98.747C147.28 94.5369 147.194 90.1993 146.205 86.025C145.137 81.6245 143.11 77.5141 140.271 73.987C137.313 70.294 133.518 67.3589 129.2 65.425L127.513 64.71C126.954 64.466 126.358 64.327 125.784 64.13C125.201 63.964 124.637 63.73 124.042 63.62L122.273 63.243C121.687 63.1102 121.094 63.019 120.496 62.97L118.717 62.77L116.935 62.734C116.345 62.7053 115.753 62.7136 115.165 62.759C110.552 63.0148 106.056 64.3057 102.01 66.536C98.1769 68.6306 94.8522 71.5432 92.2716 75.067C87.6451 81.4078 85.631 89.2836 86.6456 97.067C87.131 100.351 88.1153 103.542 89.5646 106.529C90.8464 109.111 92.4933 111.494 94.4546 113.606C96.0897 115.358 97.925 116.911 99.9226 118.235L99.8826 118.153C99.2446 126.412 98.9326 130.448 98.8826 131.082C98.9396 130.449 99.3076 126.417 100.06 118.168L100.065 118.116L100.021 118.086C98.0448 116.758 96.2308 115.205 94.6156 113.456C92.68 111.352 91.0564 108.981 89.7946 106.415C88.3697 103.449 87.4046 100.284 86.9326 97.028C85.9497 89.3227 87.9586 81.5338 92.5456 75.265C95.1024 71.7866 98.3923 68.9126 102.183 66.846C106.182 64.6463 110.625 63.3739 115.183 63.123C115.764 63.0788 116.349 63.0711 116.932 63.1L118.692 63.136L120.449 63.336C121.04 63.3845 121.626 63.4747 122.205 63.606L123.952 63.979C124.54 64.088 125.096 64.319 125.672 64.484C126.239 64.678 126.828 64.815 127.38 65.056L129.046 65.763C133.311 67.6725 137.06 70.5705 139.983 74.217C142.795 77.7005 144.804 81.7617 145.866 86.111C146.848 90.2358 146.937 94.5228 146.129 98.685C144.684 106.207 140.433 112.897 134.238 117.401L132.109 118.811C131.38 119.226 130.637 119.594 129.918 119.979C128.506 120.701 127.034 121.297 125.518 121.76C122.786 122.605 119.948 123.058 117.089 123.104C114.682 123.132 112.28 122.879 109.932 122.35L109.868 122.522L109.883 122.53L109.869 122.375C102.878 127.914 99.4036 130.665 98.8836 131.078Z" fill="#263238"/>
<path d="M112.419 77.666L113.355 95.223C113.392 95.9167 113.681 96.5731 114.169 97.0683C114.656 97.5636 115.307 97.8637 116 97.912C116.729 97.9626 117.449 97.7314 118.012 97.2661C118.574 96.8008 118.937 96.137 119.024 95.412L121.148 77.797C121.186 77.4827 121.156 77.1639 121.062 76.8619C120.967 76.5598 120.809 76.2814 120.598 76.045C120.388 75.8086 120.129 75.6197 119.84 75.4907C119.551 75.3618 119.238 75.2957 118.921 75.297L114.64 75.314C114.338 75.3152 114.039 75.3778 113.761 75.4982C113.483 75.6185 113.233 75.7939 113.025 76.0139C112.818 76.2338 112.657 76.4937 112.553 76.7777C112.448 77.0617 112.403 77.3639 112.419 77.666Z" fill="#14649C"/>
<path d="M120.596 106.741C120.329 107.545 119.829 108.251 119.161 108.771C118.493 109.291 117.685 109.601 116.84 109.662C115.996 109.723 115.152 109.532 114.416 109.114C113.679 108.695 113.084 108.068 112.704 107.311C112.325 106.554 112.178 105.701 112.283 104.861C112.388 104.02 112.74 103.23 113.294 102.59C113.848 101.949 114.579 101.487 115.396 101.263C116.212 101.038 117.077 101.06 117.881 101.327C118.415 101.504 118.908 101.785 119.334 102.152C119.759 102.52 120.108 102.969 120.36 103.471C120.612 103.974 120.763 104.522 120.803 105.083C120.844 105.644 120.773 106.207 120.596 106.741Z" fill="#14649C"/>
</svg>
