<svg width="24" height="28" viewBox="0 0 24 28" fill="none" xmlns="http://www.w3.org/2000/svg">
<path d="M9.14062 22.975H9.09062V23.025V23.6728C9.09062 25.5125 10.4863 26.9617 12.2656 26.9617C14.0449 26.9617 15.4406 25.5125 15.4406 23.6728V23.025V22.975H15.3906H9.14062ZM12.2656 25.5661C11.4986 25.5661 10.8458 25.0915 10.5855 24.3706H13.9457C13.6855 25.0915 13.0327 25.5661 12.2656 25.5661Z" fill="#333333" stroke="#333333" stroke-width="0.1"/>
<path d="M10.3406 2.94338C10.3406 4.07054 11.1738 4.93676 12.2656 4.93676C13.3574 4.93676 14.1906 4.07054 14.1906 2.94338C14.1906 1.81622 13.3574 0.95 12.2656 0.95C11.1738 0.95 10.3406 1.81622 10.3406 2.94338ZM11.6906 2.94338C11.6906 2.75988 11.7495 2.61107 11.8485 2.50845C11.9473 2.40598 12.09 2.34559 12.2656 2.34559C12.4412 2.34559 12.5839 2.40598 12.6828 2.50845C12.7818 2.61107 12.8406 2.75988 12.8406 2.94338C12.8406 3.12688 12.7818 3.27569 12.6828 3.37831C12.5839 3.48078 12.4412 3.54117 12.2656 3.54117C12.09 3.54117 11.9473 3.48078 11.8485 3.37831C11.7495 3.27569 11.6906 3.12688 11.6906 2.94338Z" fill="#333333" stroke="#333333" stroke-width="0.1"/>
<path d="M14.7156 8.12574C14.7156 9.96547 16.1113 11.4147 17.8906 11.4147C19.6699 11.4147 21.0656 9.96547 21.0656 8.12574C21.0656 6.28601 19.6699 4.83678 17.8906 4.83678C16.1113 4.83678 14.7156 6.28601 14.7156 8.12574ZM16.0656 8.12574C16.0656 7.05041 16.8574 6.23237 17.8906 6.23237C18.9238 6.23237 19.7156 7.05041 19.7156 8.12574C19.7156 9.20108 18.9238 10.0191 17.8906 10.0191C16.8574 10.0191 16.0656 9.20108 16.0656 8.12574Z" fill="#333333" stroke="#333333" stroke-width="0.1"/>
<path d="M0.965756 22.1117H0.965754L0.965707 22.1121C0.902107 22.6394 1.02794 23.3044 1.41686 23.7075C1.79939 24.104 2.31177 24.3706 2.89035 24.3706H21.6404C22.2222 24.3706 22.7344 24.036 23.1138 23.6427C23.5026 23.2398 23.6285 22.6399 23.5651 22.048L23.5653 22.0479L23.5643 22.0432C23.3724 21.1147 22.5408 20.3838 21.5779 20.3838C20.6071 20.3838 19.8154 19.5658 19.8154 18.5552V11.6238C19.8154 11.2317 19.7525 10.7755 19.6902 10.3238L19.6899 10.3214L19.5649 9.4145L19.5552 9.34435L19.4923 9.37693L18.7423 9.76561L18.7423 9.76547L18.7389 9.76754C18.4342 9.95703 18.1934 10.0191 17.8904 10.0191C16.8571 10.0191 16.0654 9.20107 16.0654 8.12574C16.0654 7.43029 16.3691 6.86352 16.979 6.48411C16.9791 6.48405 16.9792 6.48399 16.9793 6.48393L17.7287 6.03081L17.7882 5.99484L17.7352 5.94989L17.0486 5.36763C17.0484 5.3675 17.0483 5.36738 17.0481 5.36725C15.7272 4.19391 14.0908 3.54119 12.3903 3.54119H12.3903H12.3903H12.3903H12.3903H12.3903H12.3903H12.3903H12.3902H12.3902H12.3902H12.3902H12.3902H12.3901H12.3901H12.3901H12.3901H12.39H12.39H12.39H12.3899H12.3899H12.3899H12.3898H12.3898H12.3898H12.3897H12.3897H12.3896H12.3896H12.3895H12.3895H12.3894H12.3894H12.3893H12.3893H12.3892H12.3892H12.3891H12.3891H12.389H12.3889H12.3889H12.3888H12.3888H12.3887H12.3886H12.3886H12.3885H12.3884H12.3883H12.3883H12.3882H12.3881H12.388H12.388H12.3879H12.3878H12.3877H12.3876H12.3875H12.3875H12.3874H12.3873H12.3872H12.3871H12.387H12.3869H12.3868H12.3867H12.3866H12.3865H12.3864H12.3863H12.3862H12.3861H12.386H12.3859H12.3858H12.3857H12.3856H12.3855H12.3854H12.3852H12.3851H12.385H12.3849H12.3848H12.3847H12.3845H12.3844H12.3843H12.3842H12.384H12.3839H12.3838H12.3837H12.3835H12.3834H12.3833H12.3831H12.383H12.3829H12.3827H12.3826H12.3825H12.3823H12.3822H12.382H12.3819H12.3817H12.3816H12.3815H12.3813H12.3812H12.381H12.3809H12.3807H12.3806H12.3804H12.3802H12.3801H12.3799H12.3798H12.3796H12.3794H12.3793H12.3791H12.379H12.3788H12.3786H12.3785H12.3783H12.3781H12.378H12.3778H12.3776H12.3774H12.3773H12.3771H12.3769H12.3767H12.3766H12.3764H12.3762H12.376H12.3758H12.3756H12.3755H12.3753H12.3751H12.3749H12.3747H12.3745H12.3743H12.3741H12.3739H12.3738H12.3736H12.3734H12.3732H12.373H12.3728H12.3726H12.3724H12.3722H12.372H12.3718H12.3716H12.3714H12.3711H12.3709H12.3707H12.3705H12.3703H12.3701H12.3699H12.3697H12.3695H12.3693H12.369H12.3688H12.3686H12.3684H12.3682H12.3679H12.3677H12.3675H12.3673H12.3671H12.3668H12.3666H12.3664H12.3662H12.3659H12.3657H12.3655H12.3652H12.365H12.3648H12.3645H12.3643H12.3641H12.3638H12.3636H12.3634H12.3631H12.3629H12.3626H12.3624H12.3622H12.3619H12.3617H12.3614H12.3612H12.3609H12.3607H12.3604H12.3602H12.3599H12.3597H12.3594H12.3592H12.3589H12.3587H12.3584H12.3582H12.3579H12.3577H12.3574H12.3572H12.3569H12.3566H12.3564H12.3561H12.3559H12.3556H12.3553H12.3551H12.3548H12.3545H12.3543H12.354H12.3537H12.3535H12.3532H12.3529H12.3527H12.3524H12.3521H12.3518H12.3516H12.3513H12.351H12.3507H12.3505H12.3502H12.3499H12.3496H12.3493H12.3491H12.3488H12.3485H12.3482H12.3479H12.3477H12.3474H12.3471H12.3468H12.3465H12.3462H12.3459H12.3457H12.3454H12.3451H12.3448H12.3445H12.3442H12.3439H12.3436H12.3433H12.343H12.3427H12.3424H12.3421H12.3419H12.3416H12.3413H12.341H12.3407H12.3404H12.3401H12.3398H12.3395H12.3392H12.3389H12.3386H12.3382H12.3379H12.3376H12.3373H12.337H12.3367H12.3364H12.3361H12.3358H12.3355H12.3352H12.3349H12.3346H12.3342H12.3339H12.3336H12.3333H12.333H12.3327H12.3324H12.3321H12.3317H12.3314H12.3311H12.3308H12.3305H12.3302H12.3298H12.3295H12.3292H12.3289H12.3286H12.3282H12.3279H12.3276H12.3273H12.3269H12.3266H12.3263H12.326H12.3256H12.3253H12.325H12.3247H12.3243H12.324H12.3237H12.3234H12.323H12.3227H12.3224H12.322H12.3217H12.3214H12.321H12.3207H12.3204H12.32H12.3197H12.3194H12.319H12.3187H12.3184H12.318H12.3177H12.3174H12.317H12.3167H12.3164H12.316H12.3157H12.3153H12.315H12.3147H12.3143H12.314H12.3136H12.3133H12.313H12.3126H12.3123H12.3119H12.3116H12.3112H12.3109H12.3106H12.3102H12.3099H12.3095H12.3092H12.3088H12.3085H12.3081H12.3078H12.3075H12.3071H12.3068H12.3064H12.3061H12.3057H12.3054H12.305H12.3047H12.3043H12.304H12.3036H12.3033H12.3029H12.3026H12.3022H12.3019H12.3015H12.3012H12.3008H12.3004H12.3001H12.2997H12.2994H12.299H12.2987H12.2983H12.298H12.2976H12.2973H12.2969H12.2965H12.2962H12.2958H12.2955H12.2951H12.2948H12.2944H12.2941H12.2937H12.2933H12.293H12.2926H12.2923H12.2919H12.2915H12.2912H12.2908H12.2905H12.2901H12.2897H12.2894H12.289H12.2887H12.2883H12.2879H12.2876H12.2872H12.2869H12.2865H12.2861H12.2858H12.2854H12.2851H12.2847H12.2843H12.284H12.2836H12.2832H12.2829H12.2825H12.2822H12.2818H12.2814H12.2811H12.2807H12.2803H12.28H12.2796H12.2792H12.2789H12.2785H12.2781H12.2778H12.2774H12.2771H12.2767H12.2763H12.276H12.2756H12.2752H12.2749H12.2745H12.2741H12.2738H12.2734H12.273H12.2727H12.2723H12.2719H12.2716H12.2712H12.2708H12.2705H12.2701H12.2697H12.2694H12.269H12.2686H12.2683H12.2679H12.2675H12.2672H12.2668H12.2664H12.2661H12.2657H12.2654C10.2515 3.54119 8.42656 4.32419 6.98015 5.75817L6.98014 5.75817L6.97937 5.75897C5.53289 7.2582 4.71535 9.27879 4.71535 11.3647V18.62C4.71535 19.567 3.98493 20.3838 3.01535 20.3838C1.99259 20.3838 1.09426 21.1128 0.965756 22.1117ZM2.50045 22.7505L2.49689 22.7395L2.48883 22.7311C2.43554 22.6759 2.4073 22.6055 2.39272 22.5224C2.37799 22.4384 2.37785 22.3458 2.37785 22.2476C2.37785 22.1073 2.45857 21.9915 2.58226 21.9086C2.70631 21.8254 2.86837 21.7794 3.01535 21.7794C4.66897 21.7794 6.06535 20.3956 6.06535 18.62V11.3647C6.06535 9.62912 6.74747 8.02195 7.92633 6.80009C9.10444 5.57902 10.654 4.93677 12.2654 4.93677H12.2657H12.2661H12.2664H12.2668H12.2672H12.2675H12.2679H12.2682H12.2686H12.2689H12.2693H12.2696H12.27H12.2703H12.2707H12.271H12.2714H12.2717H12.2721H12.2724H12.2727H12.2731H12.2734H12.2737H12.2741H12.2744H12.2747H12.2751H12.2754H12.2757H12.276H12.2764H12.2767H12.277H12.2773H12.2777H12.278H12.2783H12.2786H12.2789H12.2792H12.2795H12.2798H12.2802H12.2805H12.2808H12.2811H12.2814H12.2817H12.282H12.2823H12.2826H12.2829H12.2832H12.2835H12.2838H12.2841H12.2844H12.2847H12.2849H12.2852H12.2855H12.2858H12.2861H12.2864H12.2867H12.287H12.2872H12.2875H12.2878H12.2881H12.2884H12.2886H12.2889H12.2892H12.2895H12.2897H12.29H12.2903H12.2905H12.2908H12.2911H12.2914H12.2916H12.2919H12.2921H12.2924H12.2927H12.2929H12.2932H12.2935H12.2937H12.294H12.2942H12.2945H12.2947H12.295H12.2952H12.2955H12.2958H12.296H12.2963H12.2965H12.2967H12.297H12.2972H12.2975H12.2977H12.298H12.2982H12.2985H12.2987H12.2989H12.2992H12.2994H12.2997H12.2999H12.3001H12.3004H12.3006H12.3008H12.3011H12.3013H12.3015H12.3018H12.302H12.3022H12.3025H12.3027H12.3029H12.3031H12.3034H12.3036H12.3038H12.304H12.3043H12.3045H12.3047H12.3049H12.3052H12.3054H12.3056H12.3058H12.306H12.3063H12.3065H12.3067H12.3069H12.3071H12.3073H12.3075H12.3078H12.308H12.3082H12.3084H12.3086H12.3088H12.309H12.3092H12.3094H12.3097H12.3099H12.3101H12.3103H12.3105H12.3107H12.3109H12.3111H12.3113H12.3115H12.3117H12.3119H12.3121H12.3123H12.3125H12.3127H12.3129H12.3131H12.3133H12.3135H12.3137H12.3139H12.3141H12.3143H12.3145H12.3147H12.3149H12.3151H12.3153H12.3155H12.3157H12.3159H12.3161H12.3163H12.3165H12.3167H12.3169H12.317H12.3172H12.3174H12.3176H12.3178H12.318H12.3182H12.3184H12.3186H12.3188H12.319H12.3191H12.3193H12.3195H12.3197H12.3199H12.3201H12.3203H12.3205H12.3207H12.3208H12.321H12.3212H12.3214H12.3216H12.3218H12.322H12.3221H12.3223H12.3225H12.3227H12.3229H12.3231H12.3233H12.3234H12.3236H12.3238H12.324H12.3242H12.3244H12.3245H12.3247H12.3249H12.3251H12.3253H12.3255H12.3257H12.3258H12.326H12.3262H12.3264H12.3266H12.3268H12.3269H12.3271H12.3273H12.3275H12.3277H12.3279H12.328H12.3282H12.3284H12.3286H12.3288H12.3289H12.3291H12.3293H12.3295H12.3297H12.3299H12.33H12.3302H12.3304H12.3306H12.3308H12.331H12.3312H12.3313H12.3315H12.3317H12.3319H12.3321H12.3323H12.3324H12.3326H12.3328H12.333H12.3332H12.3334H12.3336H12.3337H12.3339H12.3341H12.3343H12.3345H12.3347H12.3349H12.335H12.3352H12.3354H12.3356H12.3358H12.336H12.3362H12.3364H12.3366H12.3367H12.3369H12.3371H12.3373H12.3375H12.3377H12.3379H12.3381H12.3383H12.3385H12.3387H12.3388H12.339H12.3392H12.3394H12.3396H12.3398H12.34H12.3402H12.3404H12.3406H12.3408H12.341H12.3412H12.3414H12.3416H12.3418H12.342H12.3422H12.3424H12.3426H12.3428H12.343H12.3432H12.3434H12.3436H12.3438H12.344H12.3442H12.3444H12.3446H12.3448H12.345H12.3452H12.3454H12.3456H12.3458H12.346H12.3463H12.3465H12.3467H12.3469H12.3471H12.3473H12.3475H12.3477H12.3479H12.3482H12.3484H12.3486H12.3488H12.349H12.3492H12.3494H12.3497H12.3499H12.3501H12.3503H12.3505H12.3508H12.351H12.3512H12.3514H12.3517H12.3519H12.3521H12.3523H12.3526H12.3528H12.353H12.3532H12.3535H12.3537H12.3539H12.3542H12.3544H12.3546H12.3549H12.3551H12.3553H12.3556H12.3558H12.356H12.3563H12.3565H12.3568H12.357H12.3572H12.3575H12.3577H12.358H12.3582H12.3585H12.3587H12.359H12.3592H12.3595H12.3597H12.36H12.3602H12.3605H12.3607H12.361H12.3612H12.3615H12.3617H12.362H12.3622H12.3625H12.3628H12.363H12.3633H12.3636H12.3638H12.3641H12.3643H12.3646H12.3649H12.3652H12.3654H12.3657H12.366H12.3662H12.3665H12.3668H12.3671H12.3673H12.3676H12.3679H12.3682H12.3685H12.3687H12.369H12.3693H12.3696H12.3699H12.3702H12.3705H12.3708H12.371H12.3713H12.3716H12.3719H12.3722H12.3725H12.3728H12.3731H12.3734H12.3737H12.374H12.3743H12.3746H12.3749H12.3752H12.3755H12.3759H12.3762H12.3765H12.3768H12.3771H12.3774H12.3777H12.378H12.3784H12.3787H12.379H12.3793H12.3797H12.38H12.3803H12.3806H12.381H12.3813H12.3816H12.382H12.3823H12.3826H12.383H12.3833H12.3836H12.384H12.3843H12.3847H12.385H12.3854H12.3857H12.3861H12.3864H12.3868H12.3871H12.3875H12.3878H12.3882H12.3885H12.3889H12.3893H12.3896H12.39H12.3904C13.486 4.93677 14.5831 5.30928 15.504 5.93328C15.0175 6.52 14.7154 7.29155 14.7154 8.12574C14.7154 9.96547 16.1111 11.4147 17.8904 11.4147H17.8948C18.0593 11.4147 18.2808 11.4147 18.4654 11.367V11.3675V11.3681V11.3687V11.3694V11.37V11.3707V11.3713V11.3719V11.3726V11.3732V11.3738V11.3745V11.3751V11.3757V11.3764V11.377V11.3776V11.3783V11.3789V11.3795V11.3801V11.3808V11.3814V11.382V11.3826V11.3833V11.3839V11.3845V11.3851V11.3857V11.3864V11.387V11.3876V11.3882V11.3888V11.3894V11.39V11.3907V11.3913V11.3919V11.3925V11.3931V11.3937V11.3943V11.3949V11.3955V11.3961V11.3967V11.3974V11.398V11.3986V11.3992V11.3998V11.4004V11.401V11.4016V11.4022V11.4028V11.4034V11.404V11.4046V11.4052V11.4058V11.4064V11.407V11.4075V11.4081V11.4087V11.4093V11.4099V11.4105V11.4111V11.4117V11.4123V11.4129V11.4135V11.4141V11.4147V11.4152V11.4158V11.4164V11.417V11.4176V11.4182V11.4188V11.4193V11.4199V11.4205V11.4211V11.4217V11.4223V11.4229V11.4234V11.424V11.4246V11.4252V11.4258V11.4263V11.4269V11.4275V11.4281V11.4287V11.4292V11.4298V11.4304V11.431V11.4316V11.4321V11.4327V11.4333V11.4339V11.4344V11.435V11.4356V11.4362V11.4367V11.4373V11.4379V11.4385V11.439V11.4396V11.4402V11.4408V11.4413V11.4419V11.4425V11.443V11.4436V11.4442V11.4448V11.4453V11.4459V11.4465V11.4471V11.4476V11.4482V11.4488V11.4493V11.4499V11.4505V11.451V11.4516V11.4522V11.4528V11.4533V11.4539V11.4545V11.455V11.4556V11.4562V11.4567V11.4573V11.4579V11.4585V11.459V11.4596V11.4602V11.4607V11.4613V11.4619V11.4624V11.463V11.4636V11.4641V11.4647V11.4653V11.4659V11.4664V11.467V11.4676V11.4681V11.4687V11.4693V11.4698V11.4704V11.471V11.4716V11.4721V11.4727V11.4733V11.4738V11.4744V11.475V11.4755V11.4761V11.4767V11.4773V11.4778V11.4784V11.479V11.4795V11.4801V11.4807V11.4813V11.4818V11.4824V11.483V11.4836V11.4841V11.4847V11.4853V11.4859V11.4864V11.487V11.4876V11.4882V11.4887V11.4893V11.4899V11.4905V11.491V11.4916V11.4922V11.4928V11.4933V11.4939V11.4945V11.4951V11.4957V11.4962V11.4968V11.4974V11.498V11.4986V11.4991V11.4997V11.5003V11.5009V11.5015V11.5021V11.5026V11.5032V11.5038V11.5044V11.505V11.5056V11.5062V11.5067V11.5073V11.5079V11.5085V11.5091V11.5097V11.5103V11.5109V11.5114V11.512V11.5126V11.5132V11.5138V11.5144V11.515V11.5156V11.5162V11.5168V11.5174V11.518V11.5186V11.5192V11.5198V11.5204V11.521V11.5216V11.5222V11.5228V11.5234V11.524V11.5246V11.5252V11.5258V11.5264V11.527V11.5276V11.5282V11.5288V11.5294V11.53V11.5306V11.5312V11.5319V11.5325V11.5331V11.5337V11.5343V11.5349V11.5355V11.5362V11.5368V11.5374V11.538V11.5386V11.5392V11.5399V11.5405V11.5411V11.5417V11.5424V11.543V11.5436V11.5442V11.5449V11.5455V11.5461V11.5467V11.5474V11.548V11.5486V11.5493V11.5499V11.5505V11.5512V11.5518V11.5524V11.5531V11.5537V11.5544V11.555V11.5556V11.5563V11.5569V11.5576V11.5582V11.5589V11.5595V11.5601V11.5608V11.5614V11.5621V11.5627V11.5634V11.5641V11.5647V11.5654V11.566V11.5667V11.5673V11.568V11.5687V11.5693V11.57V11.5706V11.5713V11.572V11.5726V11.5733V11.574V11.5747V11.5753V11.576V11.5767V11.5773V11.578V11.5787V11.5794V11.5801V11.5807V11.5814V11.5821V11.5828V11.5835V11.5841V11.5848V11.5855V11.5862V11.5869V11.5876V11.5883V11.589V11.5897V11.5904V11.5911V11.5918V11.5925V11.5932V11.5939V11.5946V11.5953V11.596V11.5967V11.5974V11.5981V11.5988V11.5995V11.6003V11.601V11.6017V11.6024V11.6031V11.6038V11.6046V11.6053V11.606V11.6067V11.6075V11.6082V11.6089V11.6097V11.6104V11.6111V11.6119V11.6126V11.6133V11.6141V11.6148V11.6156V11.6163V11.617V11.6178V11.6185V11.6193V11.62V11.6208V11.6215V11.6223V11.6231V11.6238V18.5552C18.4654 20.3302 19.8611 21.7794 21.5779 21.7794C21.8728 21.7794 22.1594 21.9625 22.2163 22.2571L22.2159 22.2572L22.2178 22.2629C22.2739 22.4376 22.2182 22.6132 22.1044 22.7311L22.1037 22.7305L22.0983 22.7388C21.9848 22.9153 21.8156 22.975 21.6404 22.975H2.89035C2.7108 22.975 2.55288 22.9136 2.50045 22.7505Z" fill="#333333" stroke="#333333" stroke-width="0.1"/>
</svg>
