<svg width="18" height="33" viewBox="0 0 18 33" fill="none" xmlns="http://www.w3.org/2000/svg">
<path d="M10.4 30.0415C10.4017 29.8605 10.3672 29.6811 10.2987 29.5136C10.2302 29.346 10.1288 29.1938 10.0007 29.0658C9.87252 28.9378 9.72011 28.8367 9.55238 28.7684C9.39782 28.7055 9.23312 28.6716 9.06651 28.6682L9.06524 28.6669L9.02384 28.667C8.75218 28.6674 8.48675 28.7484 8.26108 28.8996C8.03541 29.0508 7.85963 29.2656 7.75597 29.5167C7.65231 29.7678 7.62541 30.044 7.67867 30.3104C7.73193 30.5768 7.86296 30.8214 8.0552 31.0133C8.24744 31.2053 8.49227 31.3359 8.75874 31.3888C9.02521 31.4416 9.30136 31.4143 9.5523 31.3102C9.80324 31.2061 10.0177 31.03 10.1686 30.8041C10.3194 30.5784 10.3999 30.313 10.4 30.0415ZM10.4 30.0415C10.4 30.0416 10.4 30.0418 10.4 30.042L10.3 30.041H10.4C10.4 30.0412 10.4 30.0413 10.4 30.0415ZM3.93 0.899999L3.92946 0.900001C3.12734 0.904346 2.3593 1.22492 1.79211 1.79211C1.22491 2.3593 0.904346 3.12734 0.9 3.92946V3.93L0.899999 29.4L0.900001 29.4005C0.904346 30.2027 1.22491 30.9707 1.79211 31.5379C2.3593 32.1051 3.12734 32.4257 3.92946 32.43H3.93L14.12 32.43L14.1205 32.43C14.9227 32.4257 15.6907 32.1051 16.2579 31.5379C16.8251 30.9707 17.1457 30.2027 17.15 29.4005V29.4L17.15 3.93L17.15 3.92946C17.1457 3.12734 16.8251 2.3593 16.2579 1.79211C15.6907 1.22492 14.9227 0.904346 14.1205 0.9H14.12L3.93 0.899999ZM1.864 29.4V28.612H16.185V29.4L16.185 29.4003C16.1858 29.6719 16.1329 29.941 16.0294 30.1921C15.926 30.4433 15.774 30.6715 15.5822 30.8638C15.3903 31.0561 15.1624 31.2086 14.9115 31.3126C14.6606 31.4166 14.3917 31.4701 14.12 31.47H14.12H3.93H3.92991C3.65822 31.4703 3.38915 31.4169 3.13814 31.3129C2.88713 31.2089 2.65911 31.0564 2.46718 30.8641C2.27524 30.6718 2.12316 30.4435 2.01965 30.1923C1.91614 29.9411 1.86325 29.672 1.864 29.4003V29.4ZM9.0252 29.632L9.05183 29.6319C9.12293 29.6368 9.19171 29.6602 9.25123 29.6999C9.31849 29.7449 9.37091 29.8087 9.40187 29.8835C9.43282 29.9582 9.44092 30.0405 9.42514 30.1198C9.40936 30.1991 9.37041 30.272 9.31321 30.3292C9.25601 30.3864 9.18313 30.4254 9.10379 30.4411C9.02446 30.4569 8.94222 30.4488 8.86748 30.4179C8.79275 30.3869 8.72887 30.3345 8.68393 30.2672C8.63905 30.2001 8.61507 30.1211 8.615 30.0403C8.6157 29.932 8.65917 29.8283 8.73594 29.7518C8.81278 29.6753 8.91675 29.6322 9.0252 29.632ZM3.93017 1.864H14.1198C14.6049 1.86575 15.0742 2.0366 15.4469 2.34712C15.7886 2.63176 16.0294 3.01744 16.136 3.447H1.91403C2.02058 3.01744 2.26143 2.63176 2.60307 2.34712C2.97576 2.0366 3.44507 1.86575 3.93017 1.864ZM7.751 2.173C7.62317 2.173 7.50057 2.22378 7.41017 2.31417C7.31978 2.40457 7.269 2.52717 7.269 2.655C7.269 2.78283 7.31978 2.90543 7.41017 2.99583C7.50057 3.08622 7.62317 3.137 7.751 3.137H10.3C10.4278 3.137 10.5504 3.08622 10.6408 2.99583C10.7312 2.90543 10.782 2.78283 10.782 2.655C10.782 2.52717 10.7312 2.40457 10.6408 2.31417C10.5504 2.22378 10.4278 2.173 10.3 2.173H7.751ZM1.864 4.412H16.185V27.649H1.864V4.412Z" fill="#333333" stroke="#333333" stroke-width="0.2"/>
</svg>
