<svg width="59" height="59" viewBox="0 0 59 59" fill="none" xmlns="http://www.w3.org/2000/svg">
<path d="M43.2294 29.1019C40.8262 29.1026 38.4588 29.6846 36.3293 30.7984C34.1997 31.9123 32.3713 33.5247 30.9999 35.4982C30.7656 35.4262 30.5439 35.3561 30.3349 35.288L29.4905 32.893C32.1004 30.9377 32.8153 27.8844 33.0104 26.4055C34.7656 25.9293 36.3774 23.8671 37.0232 21.1342C37.3712 19.6561 36.8616 18.28 35.7547 17.7096C35.448 17.5517 35.108 17.4692 34.763 17.469C34.8201 17.0401 34.8798 16.5155 34.9416 15.8713C35.086 14.3642 35.1777 12.8418 35.1777 12.456C35.1777 12.1826 35.1832 11.9008 35.1889 11.6023C35.235 9.22245 35.2923 6.26079 32.6672 3.6056C30.3113 1.22285 26.976 -0.0906986 23.5178 0.00487505C20.0728 0.0990816 16.8423 1.5691 14.6545 4.03798C14.5873 4.11396 14.5192 4.19044 14.4499 4.26741C13.1303 5.7419 11.3228 7.76138 11.4526 12.9329C11.465 13.4391 11.9497 15.759 12.4517 17.527C12.159 17.5561 11.8753 17.6438 11.6172 17.7848C10.5547 18.359 10.0675 19.705 10.4049 21.1344C11.0511 23.8719 12.6682 25.9367 14.4273 26.4076C14.6376 27.8579 15.3737 30.881 17.917 32.838L16.8031 35.1287C16.0077 35.3781 15.1112 35.625 14.1859 35.8843C8.20554 37.5605 0 39.8559 0 47.3132V55.1105C0 56.9525 0.985191 58.9102 2.75361 58.9102H43.2814C43.2895 58.9102 43.2974 58.9092 43.3053 58.9089C47.2497 58.8863 51.0242 57.3009 53.8018 54.5003C56.5794 51.6996 58.1334 47.912 58.1234 43.9676C58.1133 40.0231 56.54 36.2435 53.7482 33.457C50.9564 30.6706 47.1738 29.1044 43.2294 29.1019ZM15.7467 5.42734C15.8177 5.34797 15.8879 5.26926 15.9571 5.19121C17.8268 3.08113 20.5999 1.8245 23.5656 1.74347C26.5455 1.6607 29.4115 2.78645 31.4301 4.8283C33.5386 6.96087 33.4913 9.40838 33.4495 11.5678C33.4436 11.875 33.438 12.1652 33.438 12.4553C33.438 12.6397 33.4193 13.0224 33.3875 13.5092C32.9668 11.9454 32.3786 10.435 31.5686 9.5518L31.5043 9.42304C31.4308 9.27607 31.3172 9.1529 31.1767 9.0678C31.0361 8.9827 30.8743 8.93914 30.71 8.94217C30.5457 8.9452 30.3857 8.99469 30.2483 9.08492C30.111 9.17515 30.0021 9.30242 29.9341 9.452C28.5323 12.5353 27.1437 12.4112 24.8432 12.206C24.5761 12.1821 24.3044 12.1579 24.0283 12.1388C23.1529 12.0766 22.8363 12.5882 22.7407 12.8099C22.4571 13.4686 22.8512 14.1799 23.5726 15.0232C21.276 14.7491 20.6939 13.0693 20.1694 11.554C19.8054 10.5023 19.3929 9.3102 18.1933 9.3102C17.6153 9.29887 17.0415 9.41136 16.5106 9.64011C15.9796 9.86886 15.5037 10.2086 15.1149 10.6364C14.2234 11.5934 13.7211 12.9578 13.4415 14.2948C13.3283 13.832 13.2452 13.3623 13.1929 12.8887C13.0794 8.40753 14.4964 6.82416 15.7467 5.42734ZM16.0881 25.604C16.0776 25.3798 15.9815 25.1683 15.8196 25.013C15.6577 24.8576 15.4424 24.7703 15.2181 24.769C15.2057 24.769 15.1932 24.769 15.1802 24.769C13.906 24.769 12.5607 22.6905 12.098 20.7342C11.9209 19.9835 12.1534 19.4723 12.4443 19.315C12.7733 19.1375 13.1242 19.4501 13.2596 19.5929C13.3734 19.7126 13.5188 19.7975 13.679 19.8377C13.8392 19.8778 14.0075 19.8715 14.1642 19.8196C14.321 19.7676 14.4597 19.6721 14.5642 19.5442C14.6687 19.4163 14.7346 19.2613 14.7543 19.0974C14.84 18.9481 14.8793 18.7767 14.8672 18.6051C14.7748 17.2706 14.8681 13.4507 16.3885 11.8215C16.6035 11.5829 16.8655 11.3914 17.1581 11.259C17.4507 11.1266 17.7675 11.0562 18.0887 11.0521C18.2194 11.2409 18.3939 11.7449 18.5248 12.1233C19.1695 13.9861 20.3696 17.4526 25.6879 16.6938C25.851 16.6706 26.0041 16.6015 26.1294 16.4947C26.2548 16.3878 26.3472 16.2476 26.396 16.0903C26.4448 15.933 26.4479 15.7651 26.4051 15.6061C26.3622 15.447 26.275 15.3035 26.1537 15.192C25.732 14.8043 25.3317 14.3939 24.9545 13.9626C26.9999 14.1402 29.0862 14.2071 30.8105 11.4938C31.9002 13.5376 32.4676 17.6015 32.6065 19.2153C32.6252 19.4322 32.7245 19.6342 32.8848 19.7814C33.0451 19.9287 33.2547 20.0105 33.4724 20.0107C33.4973 20.0107 33.5221 20.0096 33.5478 20.0074C33.7054 19.9938 33.8564 19.9376 33.9844 19.8446C34.1123 19.7517 34.2125 19.6256 34.2742 19.4799C34.4459 19.3101 34.7079 19.1269 34.9577 19.2553C35.2769 19.4198 35.507 19.9806 35.3297 20.7343C34.8672 22.691 33.522 24.7694 32.2475 24.7694H32.2257C32.0569 24.7667 31.8908 24.8127 31.7475 24.9021C31.6259 24.9779 31.5251 25.0826 31.4539 25.2069C31.3827 25.3312 31.3434 25.4712 31.3395 25.6144C31.3022 26.3258 30.9652 29.9634 28.0011 31.8057C27.9962 31.8085 27.9918 31.8118 27.987 31.8147C26.833 32.5268 25.3953 32.8879 23.7138 32.8879C22.037 32.8879 20.6025 32.5186 19.4497 31.7898C16.5277 29.9448 16.1367 26.3132 16.0879 25.604H16.0881ZM18.2047 36.2249L19.4103 33.7462C20.6587 34.3311 22.1013 34.6276 23.7139 34.6276C25.3033 34.6276 26.7267 34.346 27.9619 33.791L28.8352 36.2678C28.8789 36.3919 28.9501 36.5045 29.0436 36.597C29.1371 36.6896 29.2504 36.7598 29.3749 36.8022C29.5917 36.8761 29.8211 36.9516 30.0633 37.0285C29.637 37.8291 29.2851 38.6671 29.0121 39.5321C28.207 40.4856 26.5174 41.9441 23.7139 41.9441C22.7679 41.9543 21.8303 41.765 20.9624 41.3885C20.0945 41.012 19.3157 40.4567 18.6768 39.7589C17.7591 38.7746 17.2397 37.6773 17.0646 36.8692C17.278 36.8037 17.4871 36.7381 17.6914 36.6717C17.8026 36.6356 17.9053 36.5773 17.9935 36.5006C18.0817 36.4238 18.1535 36.3301 18.2046 36.2249H18.2047ZM1.73996 55.1105V47.3132C1.73996 41.1752 8.90799 39.1706 14.6552 37.5597C14.8984 37.4915 15.1459 37.4243 15.3825 37.3575C16.012 40.002 18.8478 43.6835 23.7095 43.6835C25.3756 43.7046 27.0115 43.2385 28.4163 42.3425C28.084 45.3144 28.6531 48.3176 30.0497 50.9619C31.4464 53.6062 33.606 55.7693 36.248 57.1702H2.75361C2.19981 57.1702 1.73996 56.063 1.73996 55.1105ZM43.2294 57.1702C40.6258 57.1702 38.0807 56.3981 35.9159 54.9516C33.7511 53.5051 32.0638 51.4492 31.0675 49.0438C30.0711 46.6384 29.8104 43.9915 30.3184 41.438C30.8263 38.8844 32.0801 36.5388 33.9211 34.6978C35.7621 32.8568 38.1077 31.603 40.6613 31.0951C43.2148 30.5871 45.8617 30.8478 48.2671 31.8441C50.6725 32.8405 52.7285 34.5277 54.175 36.6925C55.6215 38.8573 56.3935 41.4024 56.3936 44.006C56.3897 47.4962 55.0015 50.8423 52.5336 53.3102C50.0656 55.7782 46.7195 57.1663 43.2294 57.1702Z" fill="#14649C"/>
</svg>
