<svg width="55" height="55" viewBox="0 0 55 55" fill="none" xmlns="http://www.w3.org/2000/svg">
<path d="M54.0833 16.5H53.1667V6.41667C53.1667 5.91044 52.7562 5.5 52.25 5.5H36.6667V0.916667C36.6667 0.410441 36.2562 0 35.75 0H19.25C18.7438 0 18.3333 0.410441 18.3333 0.916667V5.5H2.75C2.24377 5.5 1.83333 5.91044 1.83333 6.41667V16.5H0.916667C0.410441 16.5 0 16.9104 0 17.4167V21.0833C0 21.5896 0.410441 22 0.916667 22H1.83333V54.0833C1.83333 54.5896 2.24377 55 2.75 55H52.25C52.7562 55 53.1667 54.5896 53.1667 54.0833V22H54.0833C54.5896 22 55 21.5896 55 21.0833V17.4167C55 16.9104 54.5896 16.5 54.0833 16.5ZM36.6667 7.33333H51.3333V16.5H36.6667V7.33333ZM20.1667 1.83333H34.8333V16.5H20.1667V1.83333ZM3.66667 7.33333H18.3333V16.5H3.66667V7.33333ZM44.9167 53.1667H33V45.8333H44.9167V53.1667ZM44.9167 44H33V34.8333H44.9167V44ZM44.9167 33H33V28.4167H44.9167V33ZM51.3333 53.1667H46.75V27.5C46.75 26.9938 46.3396 26.5833 45.8333 26.5833H32.0833C31.5771 26.5833 31.1667 26.9938 31.1667 27.5V53.1667H3.66667V22H51.3333V53.1667ZM53.1667 20.1667H1.83333V18.3333H53.1667V20.1667Z" fill="#14649C"/>
<path d="M9.16667 46.75H25.6667C26.1729 46.75 26.5833 46.3395 26.5833 45.8333V41.25C26.5833 40.7438 26.1729 40.3333 25.6667 40.3333H24.75V27.5C24.75 26.9938 24.3396 26.5833 23.8333 26.5833H11C10.4938 26.5833 10.0833 26.9938 10.0833 27.5V40.3333H9.16667C8.66044 40.3333 8.25 40.7438 8.25 41.25V45.8333C8.25 46.3395 8.66044 46.75 9.16667 46.75ZM11.9167 28.4166H22.9167V40.3333H11.9167V28.4166ZM10.0833 42.1666H24.75V44.9166H10.0833V42.1666Z" fill="#14649C"/>
<path d="M42.1667 40.3333C42.6729 40.3333 43.0833 39.9229 43.0833 39.4167V38.5C43.0833 37.9938 42.6729 37.5833 42.1667 37.5833C41.6604 37.5833 41.25 37.9938 41.25 38.5V39.4167C41.25 39.9229 41.6604 40.3333 42.1667 40.3333Z" fill="#14649C"/>
<path d="M32.0833 6.41666H30.25V4.58332C30.25 4.0771 29.8396 3.66666 29.3333 3.66666H25.6667C25.1604 3.66666 24.75 4.0771 24.75 4.58332V6.41666H22.9167C22.4104 6.41666 22 6.8271 22 7.33332V11C22 11.5062 22.4104 11.9167 22.9167 11.9167H24.75V13.75C24.75 14.2562 25.1604 14.6667 25.6667 14.6667H29.3333C29.8396 14.6667 30.25 14.2562 30.25 13.75V11.9167H32.0833C32.5896 11.9167 33 11.5062 33 11V7.33332C33 6.8271 32.5896 6.41666 32.0833 6.41666ZM31.1667 10.0833H29.3333C28.8271 10.0833 28.4167 10.4938 28.4167 11V12.8333H26.5833V11C26.5833 10.4938 26.1729 10.0833 25.6667 10.0833H23.8333V8.24999H25.6667C26.1729 8.24999 26.5833 7.83955 26.5833 7.33332V5.49999H28.4167V7.33332C28.4167 7.83955 28.8271 8.24999 29.3333 8.24999H31.1667V10.0833Z" fill="#14649C"/>
<path d="M15.3148 34.5648L18.0648 31.8148C18.4121 31.4549 18.4072 30.8833 18.0536 30.5297C17.7 30.1761 17.1284 30.1712 16.7686 30.5185L14.0186 33.2685C13.7805 33.4986 13.6847 33.8397 13.7688 34.1602C13.8525 34.4806 14.1027 34.7308 14.4232 34.8145C14.7437 34.8987 15.0847 34.8029 15.3148 34.5648Z" fill="#14649C"/>
<path d="M19.5186 32.3519L14.9352 36.9352C14.6971 37.1653 14.6013 37.5064 14.6855 37.8268C14.7692 38.1473 15.0194 38.3975 15.3398 38.4812C15.6603 38.5654 16.0014 38.4696 16.2314 38.2315L20.8148 33.6481C21.1621 33.2883 21.1572 32.7167 20.8036 32.3631C20.45 32.0095 19.8784 32.0046 19.5186 32.3519Z" fill="#14649C"/>
</svg>
