<svg width="18" height="19" viewBox="0 0 18 19" fill="none" xmlns="http://www.w3.org/2000/svg">
<path d="M9.00002 10.5711C6.40638 10.5711 4.37976 11.1844 3.00027 12.3694C1.61837 13.5565 0.9 15.3049 0.9 17.5431C0.9 17.9445 1.22529 18.2698 1.62663 18.2698H16.3734C16.7747 18.2698 17.1 17.9445 17.1 17.5431C17.1 15.305 16.3817 13.5566 14.9998 12.3695C13.6203 11.1845 11.5937 10.5711 9.00002 10.5711ZM15.6157 16.8165H2.38454C2.52468 15.2368 3.13709 14.0536 4.20816 13.2582C5.30706 12.4421 6.902 12.0243 9.00002 12.0243C11.098 12.0243 12.693 12.4421 13.7919 13.2582C14.863 14.0536 15.4755 15.2368 15.6157 16.8165Z" fill="#14649C" stroke="#14649C" stroke-width="0.2"/>
<path d="M8.99942 0.9C6.57261 0.9 4.74277 2.76953 4.74277 5.24002C4.74277 7.7753 6.64465 9.85176 8.99942 9.85176C11.3542 9.85176 13.2561 7.77531 13.2561 5.24022C13.2561 2.76953 11.4262 0.9 8.99942 0.9ZM8.99942 8.39871C7.46415 8.39871 6.19603 6.9929 6.19603 5.24022C6.19603 3.562 7.37501 2.35326 8.99942 2.35326C10.5969 2.35326 11.8028 3.58976 11.8028 5.24022C11.8028 6.9929 10.5347 8.39871 8.99942 8.39871Z" fill="#14649C" stroke="#14649C" stroke-width="0.2"/>
</svg>
