<svg width="100" height="100" viewBox="0 0 100 100" fill="none" xmlns="http://www.w3.org/2000/svg">
<circle cx="50" cy="50" r="50" fill="#184274" fill-opacity="0.1"/>
<path d="M70.6249 51.4453C69.4642 51.1777 68.2577 51.0312 67.0155 51.0312C66.6685 51.0312 66.3257 51.0462 65.9844 51.0679C58.2381 51.5618 51.9944 57.5698 51.1354 65.211C51.0689 65.8034 51.0312 66.4051 51.0312 67.0156C51.0312 68.1654 51.1555 69.2859 51.3859 70.3672C52.9267 77.5854 59.3374 83 67.0155 83C75.8436 83 83 75.8436 83 67.0156C83 59.4297 77.7137 53.0824 70.6249 51.4453ZM67.0155 77.586C61.1777 77.586 56.4452 72.8535 56.4452 67.0156C56.4452 61.1777 61.1777 56.4453 67.0155 56.4453C72.8534 56.4453 77.5859 61.1777 77.5859 67.0156C77.5859 72.8535 72.8534 77.586 67.0155 77.586Z" fill="#14649C"/>
<path d="M71.4015 60.7106L67.391 64.7211L63.3804 60.7106L60.8281 63.2629L64.8387 67.2735L60.8281 71.2839L63.3804 73.8362L67.391 69.8258L71.4015 73.8362L73.9539 71.2839L69.9435 67.2735L73.9539 63.2629L71.4015 60.7106Z" fill="#14649C"/>
<path d="M28.8593 17C27.8642 17 27.0547 17.8096 27.0547 18.8046V22.9296V27.3125C27.0547 28.3077 27.8642 29.1171 28.8593 29.1171H30.4062C31.4014 29.1171 32.2109 28.3076 32.2109 27.3125V22.9296V18.8046C32.2109 17.8096 31.4014 17 30.4061 17H28.8593Z" fill="#14649C"/>
<path d="M57.2188 29.1171H58.7657C59.7609 29.1171 60.5704 28.3076 60.5704 27.3125V22.9296V18.8046C60.5704 17.8096 59.7608 17 58.7656 17H57.2187C56.2235 17 55.4141 17.8096 55.4141 18.8046V22.9296V27.3125C55.4141 28.3077 56.2236 29.1171 57.2188 29.1171Z" fill="#14649C"/>
<path d="M21.125 70.3671H46.1329C45.8813 69.1162 45.7476 67.8236 45.7476 66.5C45.7476 66.0664 45.7667 65.6374 45.7945 65.2109H24.7344C23.0256 65.2109 21.6406 63.8259 21.6406 62.1171V37.3671H65.9844V46.9336C66.3257 46.916 66.6696 46.9063 67.0156 46.9063C68.249 46.9063 69.4539 47.0259 70.625 47.245V27.0546C70.625 24.7766 68.7781 22.9296 66.5 22.9296H63.1485V27.3125C63.1485 29.7293 61.1825 31.6953 58.7656 31.6953H57.2187C54.8019 31.6953 52.8358 29.7293 52.8358 27.3125V22.9296H34.789V27.3125C34.789 29.7293 32.823 31.6953 30.4062 31.6953H28.8593C26.4425 31.6953 24.4764 29.7293 24.4764 27.3125V22.9296H21.125C18.8469 22.9296 17 24.7767 17 27.0546V66.2421C17 68.5202 18.8469 70.3671 21.125 70.3671Z" fill="#14649C"/>
<path d="M31.5345 49.1946C33.795 49.1946 35.6276 47.3621 35.6276 45.1015C35.6276 42.841 33.795 41.0085 31.5345 41.0085C29.2739 41.0085 27.4414 42.841 27.4414 45.1015C27.4414 47.3621 29.2739 49.1946 31.5345 49.1946Z" fill="#14649C"/>
<path d="M43.8128 49.1946C46.0733 49.1946 47.9059 47.3621 47.9059 45.1015C47.9059 42.841 46.0733 41.0085 43.8128 41.0085C41.5523 41.0085 39.7197 42.841 39.7197 45.1015C39.7197 47.3621 41.5523 49.1946 43.8128 49.1946Z" fill="#14649C"/>
<path d="M56.0911 49.1946C58.3517 49.1946 60.1842 47.3621 60.1842 45.1015C60.1842 42.841 58.3517 41.0085 56.0911 41.0085C53.8306 41.0085 51.998 42.841 51.998 45.1015C51.998 47.3621 53.8306 49.1946 56.0911 49.1946Z" fill="#14649C"/>
<path d="M43.8127 61.5695C46.0732 61.5695 47.9057 59.737 47.9057 57.4766C47.9057 55.2161 46.0732 53.3836 43.8127 53.3836C41.5522 53.3836 39.7197 55.2161 39.7197 57.4766C39.7197 59.737 41.5522 61.5695 43.8127 61.5695Z" fill="#14649C"/>
<path d="M31.5344 61.5695C33.7949 61.5695 35.6273 59.737 35.6273 57.4766C35.6273 55.2161 33.7949 53.3836 31.5344 53.3836C29.2739 53.3836 27.4414 55.2161 27.4414 57.4766C27.4414 59.737 29.2739 61.5695 31.5344 61.5695Z" fill="#14649C"/>
</svg>
