<svg width="43" height="43" viewBox="0 0 43 43" fill="none" xmlns="http://www.w3.org/2000/svg">
<path d="M19.6917 30.8958C19.6917 37.0737 24.7179 42.1 30.8958 42.1C37.0737 42.1 42.1 37.0737 42.1 30.8958C42.1 24.7179 37.0737 19.6916 30.8958 19.6916C24.7179 19.6916 19.6917 24.7179 19.6917 30.8958ZM21.6 30.8958C21.6 25.7713 25.7697 21.6 30.8958 21.6C36.022 21.6 40.1917 25.7713 40.1917 30.8958C40.1917 36.0202 36.022 40.1916 30.8958 40.1916C25.7697 40.1916 21.6 36.0202 21.6 30.8958Z" fill="#14649C" stroke="#14649C" stroke-width="0.2"/>
<path d="M28.512 34.9879L28.5124 34.9883L34.5226 26.9171L34.4474 26.8513L34.4473 26.8513C34.4473 26.8514 34.4472 26.8514 34.4472 26.8514L29.1399 32.9174L26.4446 30.2221C26.0724 29.8499 25.4676 29.8499 25.0954 30.2221C24.7232 30.5942 24.7232 31.1991 25.0954 31.5713L28.512 34.9879Z" fill="#14649C" stroke="#14649C" stroke-width="0.2"/>
<path d="M5.27084 36.975H17.2292C17.7559 36.975 18.1833 36.5476 18.1833 36.0208C18.1833 35.4941 17.7559 35.0667 17.2292 35.0667H5.27084C3.91328 35.0667 2.80834 33.9617 2.80834 32.6042V10.3958C2.80834 9.03827 3.91328 7.93333 5.27084 7.93333H8.68751C9.21424 7.93333 9.64168 7.50589 9.64168 6.97917C9.64168 6.45244 9.21424 6.025 8.68751 6.025H5.27084C2.86156 6.025 0.900011 7.98479 0.900011 10.3958V32.6042C0.900011 35.0152 2.86156 36.975 5.27084 36.975Z" fill="#14649C" stroke="#14649C" stroke-width="0.2"/>
<path d="M28.2333 15.5208C28.2333 16.0476 28.6608 16.475 29.1875 16.475C29.7142 16.475 30.1417 16.0476 30.1417 15.5208V10.3958C30.1417 7.98479 28.1801 6.025 25.7708 6.025H22.3542C21.8274 6.025 21.4 6.45244 21.4 6.97917C21.4 7.50589 21.8274 7.93333 22.3542 7.93333H25.7708C27.1284 7.93333 28.2333 9.03827 28.2333 10.3958V15.5208Z" fill="#14649C" stroke="#14649C" stroke-width="0.2"/>
<path d="M10.3958 11.35H20.6458C22.1139 11.35 23.3083 10.1555 23.3083 8.6875V5.27083C23.3083 4.7441 22.8809 4.31667 22.3542 4.31667H19.7871C19.3495 2.36357 17.6047 0.9 15.5208 0.9C13.4369 0.9 11.6922 2.36357 11.2546 4.31667H8.68751C8.16078 4.31667 7.73334 4.7441 7.73334 5.27083V8.6875C7.73334 10.1555 8.92782 11.35 10.3958 11.35ZM9.64168 8.6875V6.225H12.1042C12.6309 6.225 13.0583 5.79756 13.0583 5.27083C13.0583 3.91327 14.1633 2.80833 15.5208 2.80833C16.8784 2.80833 17.9833 3.91327 17.9833 5.27083C17.9833 5.79756 18.4108 6.225 18.9375 6.225H21.4V8.6875C21.4 9.10219 21.062 9.44166 20.6458 9.44166H10.3958C9.9797 9.44166 9.64168 9.10219 9.64168 8.6875Z" fill="#14649C" stroke="#14649C" stroke-width="0.2"/>
<path d="M6.97918 16.475H24.0625C24.5892 16.475 25.0167 16.0475 25.0167 15.5208C25.0167 14.9941 24.5892 14.5666 24.0625 14.5666H6.97918C6.45245 14.5666 6.02501 14.9941 6.02501 15.5208C6.02501 16.0475 6.45245 16.475 6.97918 16.475Z" fill="#14649C" stroke="#14649C" stroke-width="0.2"/>
<path d="M6.97918 21.6H18.9375C19.4642 21.6 19.8917 21.1725 19.8917 20.6458C19.8917 20.1191 19.4642 19.6916 18.9375 19.6916H6.97918C6.45245 19.6916 6.02501 20.1191 6.02501 20.6458C6.02501 21.1725 6.45245 21.6 6.97918 21.6Z" fill="#14649C" stroke="#14649C" stroke-width="0.2"/>
<path d="M6.97918 26.725H15.5208C16.0476 26.725 16.475 26.2975 16.475 25.7708C16.475 25.2441 16.0476 24.8166 15.5208 24.8166H6.97918C6.45245 24.8166 6.02501 25.2441 6.02501 25.7708C6.02501 26.2975 6.45245 26.725 6.97918 26.725Z" fill="#14649C" stroke="#14649C" stroke-width="0.2"/>
</svg>
