<svg width="21" height="20" viewBox="0 0 21 20" fill="none" xmlns="http://www.w3.org/2000/svg">
<path d="M4.68468 0.903745L4.77811 0.901102C5.40254 0.88344 5.97614 1.07821 6.38143 1.50621M4.68468 0.903745L6.30072 1.92661L6.37006 1.99867C6.40296 1.96701 6.42932 1.92917 6.44765 1.88733C6.46598 1.84549 6.47595 1.80046 6.477 1.75478C6.47805 1.70911 6.47017 1.66366 6.45378 1.62102C6.4374 1.57838 6.41283 1.53936 6.38143 1.50621M4.68468 0.903745L4.68462 0.905386C4.3383 0.92668 3.97724 1.01188 3.61921 1.15801L3.65692 1.25039L3.61921 1.15801C3.09923 1.37024 2.61323 1.6946 2.19961 2.09368C1.78598 2.49276 1.44352 2.96773 1.21088 3.48163C0.746982 4.50636 0.785992 5.59213 1.43903 6.27416L4.68468 0.903745ZM6.38143 1.50621L6.30882 1.57497L6.38142 1.5062C6.38142 1.5062 6.38143 1.50621 6.38143 1.50621ZM4.14698 4.13829L4.07744 4.06642L4.14679 4.13847M4.14698 4.13829L1.51126 6.205C1.53373 6.22852 1.56058 6.24735 1.59028 6.26041C1.61997 6.27348 1.65192 6.28051 1.68432 6.28113C1.71671 6.28174 1.7489 6.27592 1.77906 6.26399C1.80922 6.25206 1.83675 6.23426 1.86008 6.2116L1.92962 6.28347L1.92964 6.28345C1.92968 6.28341 1.92971 6.28338 1.92974 6.28335L4.14679 4.13847M4.14698 4.13829L4.14679 4.13847M4.14698 4.13829L4.14679 4.13847M4.90727 1.60537L4.9073 1.60537M4.90727 1.60537C4.90728 1.60537 4.90729 1.60536 4.9073 1.60537M4.90727 1.60537C4.60058 1.59135 4.25265 1.65214 3.87968 1.80438C3.44983 1.97982 3.03665 2.2577 2.68217 2.59973L4.90727 1.60537ZM4.9073 1.60537L4.90738 1.60537C5.16521 1.61716 5.39395 1.68158 5.58522 1.78875M4.9073 1.60537L5.58522 1.78875M5.58522 1.78875L3.67813 3.62418L3.67723 3.62464L3.66635 3.63516L1.75374 5.48584C1.53891 5.05504 1.53395 4.45044 1.84161 3.77081C1.84161 3.77081 1.84161 3.77081 1.84161 3.77081L1.75051 3.72957L5.58522 1.78875ZM10.5001 9.12998L10.5003 9.12998C10.7279 9.12984 10.9509 9.19106 11.1464 9.30654L15.144 5.43132C15.1442 5.43114 15.1444 5.43095 15.1446 5.43077C15.2007 5.37505 15.2739 5.34039 15.3519 5.33214L15.3543 5.33052L15.3844 5.33022C15.4544 5.32953 15.523 5.35016 15.581 5.38932C15.639 5.42847 15.6839 5.48428 15.7097 5.54935C15.7356 5.61442 15.7414 5.6858 15.7264 5.7542C15.7114 5.82237 15.6764 5.88452 15.6258 5.93254C15.6256 5.9327 15.6254 5.93287 15.6253 5.93303L11.6263 9.81037C11.7246 9.99523 11.7767 10.2019 11.7775 10.4124V10.4125C11.7783 10.753 11.645 11.08 11.4066 11.3217C11.1682 11.5634 10.8442 11.6999 10.5057 11.701C10.5057 11.701 10.5057 11.701 10.5057 11.701L10.5054 11.601L10.5001 9.12998ZM10.5001 9.12998C10.2772 9.13055 10.0588 9.18993 9.86653 9.30151L6.71093 6.18292L6.71089 6.18288M10.5001 9.12998L6.71089 6.18288M6.71089 6.18288C6.67838 6.15079 6.63988 6.12543 6.59756 6.10828C6.55525 6.09113 6.50996 6.08254 6.46431 6.08302L6.46537 6.18302M6.71089 6.18288L6.46537 6.18302M6.46537 6.18302L6.46431 6.08302C6.41866 6.08351 6.37357 6.09305 6.33162 6.11109M6.46537 6.18302L6.33162 6.11109M6.33162 6.11109C6.28967 6.12913 6.25172 6.15529 6.21989 6.18806M6.33162 6.11109L6.21989 6.18806M6.21989 6.18806C6.18807 6.22082 6.163 6.25953 6.14608 6.30197M6.21989 6.18806L6.14608 6.30197M6.14608 6.30197C6.12915 6.34441 6.1207 6.38976 6.12117 6.43546M6.14608 6.30197L6.12117 6.43546M6.12117 6.43546C6.12165 6.48115 6.13105 6.52632 6.14885 6.56839M6.12117 6.43546L6.14885 6.56839M6.14885 6.56839C6.16665 6.61045 6.1925 6.64862 6.22499 6.6807M6.14885 6.56839L6.22499 6.6807M6.22499 6.6807C6.225 6.68071 6.22501 6.68072 6.22503 6.68073M6.22499 6.6807L6.22503 6.68073M6.22503 6.68073L9.38236 9.80104L6.22503 6.68073ZM15.8545 0.916157C15.3747 0.970675 14.9423 1.16418 14.6183 1.50627L14.546 1.62109C14.5296 1.66373 14.5217 1.70918 14.5228 1.75485C14.5238 1.80053 14.5338 1.84557 14.5521 1.8874C14.5705 1.92924 14.5968 1.96708 14.6297 1.99875L14.6297 1.99878L14.699 1.92669L14.6298 1.9988L14.6298 1.99884L14.63 1.99904L14.6308 1.99981L14.634 2.00289L14.6466 2.01497L14.6949 2.06144L14.8731 2.23273L15.4639 2.80097C15.9272 3.24669 16.483 3.7816 16.8529 4.13846C17.2227 4.49531 17.7771 5.03156 18.2391 5.47863L18.828 6.04871L19.0056 6.22061L19.0537 6.26726L19.0662 6.27938L19.0694 6.28247L19.0702 6.28325L19.0704 6.28344L19.0705 6.28349L19.1401 6.21167L19.0705 6.2835C19.1367 6.34758 19.2255 6.38273 19.3175 6.38098C19.4096 6.37924 19.497 6.34075 19.5607 6.27423L19.4885 6.20507L19.5607 6.27422C20.2137 5.59208 20.2532 4.50639 19.7893 3.4817C19.3246 2.45528 18.4195 1.58197 17.3809 1.15806C17.071 1.03157 16.7588 0.950737 16.4559 0.917482L16.466 0.908089L16.222 0.901181C16.0972 0.897645 15.9744 0.902532 15.8545 0.916157ZM16.076 1.59736L16.0958 1.59663C16.4037 1.5886 16.7518 1.65358 17.1204 1.804C17.9823 2.1558 18.7727 2.91868 19.1585 3.77092C19.4661 4.45032 19.4608 5.05467 19.246 5.48548C18.8908 5.14154 17.9372 4.21829 17.3329 3.63517L17.2634 3.70713L17.3329 3.63517C16.7272 3.05083 15.7681 2.12889 15.4133 1.78799C15.5696 1.69531 15.7436 1.62887 15.9448 1.60694L15.934 1.50757L15.9448 1.60694C15.9878 1.60224 16.0315 1.59898 16.076 1.59736ZM10.4999 1.73459C5.7448 1.73459 1.88592 5.62544 1.88592 10.4171C1.88592 15.2087 5.7446 19.1 10.4999 19.1C15.2551 19.1 19.114 15.2089 19.114 10.4171C19.114 5.62524 15.2553 1.73459 10.4999 1.73459ZM10.4999 2.43194C14.8765 2.43194 18.4206 6.00316 18.4206 10.4171C18.4206 14.831 14.8765 18.4026 10.4999 18.4026C6.12338 18.4026 2.57928 14.831 2.57928 10.4171C2.57928 6.00316 6.12338 2.43194 10.4999 2.43194Z" fill="#333333" stroke="#333333" stroke-width="0.2"/>
</svg>
