<svg width="737" height="490" viewBox="0 0 737 490" fill="none" xmlns="http://www.w3.org/2000/svg">
<path d="M32.4042 485.998C32.5951 482.251 -43.0119 361.159 36.103 243.313C115.218 125.467 207.73 188.969 226.709 106.05C250.434 2.38463 368.437 -26.7812 426.725 25.1885C468.303 62.2581 521.902 52.8243 579.364 43.39C628.582 35.3093 680.624 27.2292 730.39 48.3634C907.477 123.571 781.978 271.502 821.947 292.979C861.917 314.456 910.512 360.293 858.131 484.729L32.4051 486" fill="#EBF3FA"/>
<path d="M117.941 489.54C116.419 489.541 114.912 489.241 113.506 488.659C112.099 488.077 110.821 487.223 109.745 486.147C108.669 485.071 107.815 483.794 107.232 482.387C106.649 480.981 106.35 479.474 106.35 477.952V417.589C106.35 416.067 106.65 414.56 107.232 413.154C107.815 411.748 108.669 410.471 109.745 409.395C110.822 408.319 112.1 407.465 113.506 406.883C114.912 406.301 116.419 406.002 117.941 406.002C121.015 406.002 123.962 407.223 126.136 409.396C128.309 411.57 129.53 414.517 129.53 417.591V477.953C129.53 481.027 128.308 483.974 126.135 486.147C123.962 488.32 121.015 489.54 117.941 489.54Z" fill="#515157"/>
<path d="M118.007 425.65C124.599 425.65 129.858 420.823 129.511 415.064C128.022 390.306 120.249 347.268 118.876 345.629C117.072 343.479 116.266 348.084 116.266 348.084L106.596 414.218C105.656 420.266 111.03 425.65 118.007 425.65Z" fill="#515157"/>
<path d="M227.479 489.54C230.553 489.54 233.501 488.32 235.674 486.146C237.847 483.973 239.068 481.025 239.068 477.952V417.589C239.068 414.516 237.846 411.569 235.673 409.396C233.5 407.223 230.553 406.002 227.479 406.002C225.958 406.002 224.451 406.302 223.045 406.884C221.639 407.467 220.361 408.32 219.285 409.396C218.209 410.473 217.355 411.75 216.773 413.156C216.191 414.562 215.891 416.069 215.891 417.591V477.953C215.891 481.027 217.112 483.974 219.286 486.147C221.459 488.32 224.406 489.54 227.479 489.54Z" fill="#515157"/>
<path d="M227.481 423.773C220.889 423.773 215.631 418.946 215.977 413.186C217.467 388.429 225.236 347.268 226.613 345.629C228.416 343.479 229.222 348.084 229.222 348.084L238.893 412.34C239.833 418.389 234.459 423.773 227.481 423.773Z" fill="#515157"/>
<path d="M173.567 344.795C183.321 344.497 190.899 337.535 190.631 329.122L189.569 295.869L155.806 294.253L154.715 328.699C154.445 337.707 163.123 345.114 173.567 344.795Z" fill="#FF9973" stroke="#ED714B" stroke-width="2.881" stroke-miterlimit="10"/>
<path d="M166.113 325.548C162.468 324.695 158.658 322.54 155.167 319.913L155.808 298.63L189.571 300.245L190.323 313.403C187.641 322.775 177.45 328.201 166.113 325.548Z" fill="#ED714B"/>
<path d="M202.006 335.151H144.44V464.167H202.006V335.151Z" fill="#E6E6E6"/>
<path d="M172.437 461.203L184.756 431.594L177.205 348.771L183.263 337.546L172.436 337.192L161.61 337.546L167.669 348.771L160.117 431.59L172.437 461.203Z" fill="#D1145A"/>
<path d="M170.944 337.191C170.944 337.191 175.796 336.479 181.023 340.392C184.382 342.954 187.505 345.811 190.356 348.929C190.356 348.929 196.703 330.789 196.33 327.944C195.957 325.099 191.575 314.444 191.575 314.444C191.575 314.444 191.851 322.608 182.89 328.299C173.929 333.989 170.944 337.191 170.944 337.191Z" fill="white"/>
<path d="M174.032 337.43C174.032 337.43 169.45 337.546 164.223 341.459C160.865 344.021 157.742 346.878 154.891 349.996C154.891 349.996 148.544 331.856 148.917 329.01C149.29 326.165 153.881 314.816 153.881 314.816C153.881 314.816 153.398 323.675 162.357 329.366C171.316 335.056 174.032 337.43 174.032 337.43Z" fill="white"/>
<path d="M123.506 484.993H172.672V429.353L144.899 327.009L117.768 345.057C117.768 345.057 127.129 397.689 127.953 415.664C128.113 419.158 123.11 479.758 123.506 484.993Z" fill="#58585E"/>
<path d="M172.672 428.412C166.272 399.951 150.483 336.66 149.147 333.289C146.97 327.797 149.839 317.984 149.839 317.984L128.522 337.277L134.792 339.776L123.507 342.878L172.672 428.412Z" fill="#7A7A80"/>
<path d="M221.837 484.993H172.672V429.353L200.444 327.009L227.576 345.057C227.576 345.057 218.214 397.689 217.391 415.664C217.231 419.158 222.23 479.758 221.837 484.993Z" fill="#58585E"/>
<path d="M172.672 428.412C179.072 399.951 194.86 336.66 196.197 333.289C198.373 327.797 195.505 317.984 195.505 317.984L216.822 337.276L210.552 339.775L221.837 342.878L172.672 428.412Z" fill="#7A7A80"/>
<path d="M195.685 443.569H214.281" stroke="#383849" stroke-width="1.771" stroke-linecap="round" stroke-linejoin="round"/>
<path d="M133.911 443.569H152.506" stroke="#383849" stroke-width="1.771" stroke-linecap="round" stroke-linejoin="round"/>
<path d="M224.921 356.835C223.383 368.109 219.052 407.45 217.514 418.724" stroke="#383849" stroke-width="1.771" stroke-linecap="round" stroke-linejoin="round"/>
<path d="M227.479 361.882L223.068 370.489" stroke="#383849" stroke-width="1.771" stroke-linecap="round" stroke-linejoin="round"/>
<path d="M139.356 283.452C140.039 284.914 145.269 292.262 147.047 289.212C147.943 287.674 147.269 283.869 147.124 282.15C146.924 279.733 146.508 277.339 145.88 274.997C145.429 273.315 144.811 271.576 143.486 270.447C140.823 268.178 138.164 270.206 137.542 273.087C136.784 276.608 137.891 280.318 139.356 283.452Z" fill="#FF9973" stroke="#ED714B" stroke-width="2.362" stroke-miterlimit="10"/>
<path d="M206.711 283.759C206.019 285.214 200.717 292.514 198.968 289.45C198.085 287.903 198.794 284.105 198.952 282.388C199.172 279.974 199.61 277.584 200.259 275.248C200.726 273.572 201.358 271.838 202.694 270.721C205.377 268.477 208.018 270.529 208.616 273.413C209.341 276.937 208.204 280.641 206.711 283.759Z" fill="#FF9973" stroke="#ED714B" stroke-width="2.362" stroke-miterlimit="10"/>
<path d="M201.515 273.732C201.551 275.755 201.3 277.785 201.147 279.813C200.681 285.981 199.638 292.107 196.576 297.674C193.598 303.088 188.998 308.166 183.65 310.728C179.367 312.778 174.594 313.582 169.876 313.049C165.158 312.516 160.685 310.667 156.968 307.713C151.496 303.367 148.004 296.845 146.3 290.011C144.71 284.367 144.206 278.473 144.817 272.642C144.817 272.642 146.627 254.515 150.38 246.724C154.132 238.933 160.803 227.327 172.169 227.778C190.656 228.517 202.875 237.827 201.515 273.732Z" fill="#FF9973" stroke="#ED714B" stroke-width="2.362" stroke-miterlimit="10"/>
<path d="M204.444 247.809C202.136 234.622 192.754 224.822 180.538 222.84C174.621 221.88 163.558 220.917 155.898 225.287C143.086 232.594 142.07 249.847 141.255 263.712C141.162 265.297 141.067 266.817 140.962 268.292C142.618 268.815 143.324 270.527 143.701 272.077C143.895 272.871 144.035 273.692 144.153 274.498C144.249 275.157 144.298 275.826 144.339 276.491C144.284 277.112 144.308 277.738 144.409 278.354C144.524 278.446 144.668 278.493 144.816 278.486C144.984 278.479 145.143 278.406 145.259 278.283C145.374 278.159 145.436 277.995 145.431 277.827C145.308 273.24 148.362 259.235 148.738 256.628C155.055 258.633 161.111 257.407 167.034 254.439L165.556 257.211C165.505 257.306 165.48 257.411 165.48 257.518C165.481 257.625 165.509 257.73 165.56 257.823C165.612 257.917 165.686 257.996 165.776 258.054C165.866 258.112 165.969 258.146 166.075 258.154C170.973 258.436 175.868 257.557 180.36 255.587C184.853 253.617 188.817 250.614 191.928 246.821C192.221 246.443 192.607 246.148 193.049 245.965C193.491 245.783 193.973 245.719 194.448 245.779C194.922 245.84 195.372 246.023 195.754 246.311C196.136 246.599 196.436 246.982 196.624 247.422L196.644 247.473C197.402 249.535 198.049 251.636 198.583 253.767C200.564 261.668 200.947 270.063 200.632 278.177C200.63 278.263 200.645 278.348 200.676 278.428C200.707 278.508 200.753 278.581 200.813 278.643C200.872 278.705 200.943 278.755 201.022 278.789C201.101 278.823 201.185 278.841 201.271 278.843C201.357 278.843 201.443 278.826 201.522 278.792C201.601 278.758 201.673 278.709 201.733 278.647C201.82 277.591 202.597 268.443 205.087 268.5C205.599 260.661 205.637 254.633 204.444 247.809Z" fill="#383849"/>
<path d="M185.283 295.239C182.287 292.339 178.394 290.543 174.243 290.146C173.919 290.116 171.936 290.107 171.608 290.134C167.454 290.494 163.545 292.254 160.523 295.127C150.14 292.282 144.064 274.768 144.064 274.105C144.182 279.417 144.667 284.715 145.515 289.96C145.581 290.367 145.646 290.771 145.711 291.173C146.378 295.249 147.141 299.08 149.409 302.7C151.652 306.121 154.467 309.13 157.731 311.596C160.443 313.866 163.563 315.598 166.925 316.697C168.836 317.234 170.819 317.465 172.802 317.382C174.784 317.483 176.769 317.27 178.684 316.751C182.055 315.682 185.191 313.978 187.924 311.733C191.21 309.297 194.053 306.313 196.326 302.913C198.627 299.314 199.425 295.492 200.128 291.42C200.198 291.019 200.266 290.615 200.335 290.209C201.335 283.884 201.972 277.507 202.241 271.109C202.239 271.772 197.552 292.911 185.283 295.239Z" fill="#383849"/>
<path d="M165.136 296.909C165.136 296.909 166.297 301.266 172.952 301.293C175.325 301.304 178.9 301.047 180.47 296.976C180.468 296.979 165.019 297.069 165.136 296.909Z" fill="#FF9973"/>
<path d="M164.999 262.349C161.261 261.36 157.311 261.525 153.669 262.822" stroke="#383849" stroke-width="3.341" stroke-linecap="round" stroke-linejoin="round"/>
<path d="M181.443 262.424C185.19 261.469 189.138 261.669 192.768 263" stroke="#383849" stroke-width="3.341" stroke-linecap="round" stroke-linejoin="round"/>
<path d="M187.045 276.108C186.483 276.117 185.932 275.959 185.46 275.653C184.989 275.348 184.62 274.909 184.399 274.393C184.178 273.876 184.116 273.306 184.221 272.754C184.326 272.202 184.593 271.694 184.987 271.295C185.382 270.896 185.887 270.623 186.437 270.511C186.988 270.4 187.559 270.455 188.078 270.67C188.597 270.884 189.04 271.249 189.351 271.716C189.662 272.184 189.827 272.734 189.824 273.295C189.82 274.034 189.527 274.743 189.008 275.268C188.488 275.794 187.784 276.095 187.045 276.108Z" fill="#383849"/>
<path d="M159.273 275.982C158.712 275.991 158.16 275.833 157.689 275.527C157.218 275.222 156.849 274.783 156.628 274.267C156.408 273.751 156.346 273.18 156.451 272.629C156.556 272.077 156.822 271.57 157.217 271.17C157.611 270.771 158.116 270.498 158.666 270.387C159.216 270.276 159.787 270.331 160.306 270.545C160.825 270.76 161.268 271.124 161.579 271.591C161.89 272.058 162.055 272.608 162.052 273.169C162.049 273.908 161.756 274.617 161.236 275.142C160.717 275.668 160.012 275.969 159.273 275.982Z" fill="#383849"/>
<path d="M167.683 267.23L170.701 273.796L170.645 286.003" stroke="#ED714B" stroke-width="1.989" stroke-linecap="round" stroke-linejoin="round"/>
<path d="M152.988 267.801L165.062 267.856C165.967 267.86 166.833 268.223 167.469 268.866C168.106 269.508 168.461 270.377 168.457 271.281L168.435 276.067C168.431 277.022 168.239 277.967 167.869 278.847C167.5 279.728 166.96 280.527 166.282 281.199C165.604 281.872 164.799 282.404 163.915 282.765C163.031 283.127 162.085 283.31 161.13 283.306L156.78 283.286C155.825 283.282 154.88 283.09 153.999 282.72C153.119 282.351 152.319 281.811 151.647 281.133C150.975 280.454 150.443 279.65 150.081 278.766C149.72 277.882 149.536 276.935 149.541 275.98L149.562 271.196C149.566 270.291 149.93 269.426 150.572 268.789C151.214 268.152 152.083 267.797 152.988 267.801V267.801Z" stroke="#383849" stroke-width="1.851" stroke-linecap="round" stroke-linejoin="round"/>
<path d="M181.193 267.929L193.268 267.983C194.172 267.987 195.038 268.351 195.675 268.993C196.311 269.636 196.667 270.505 196.663 271.409L196.641 276.194C196.637 277.149 196.444 278.094 196.075 278.975C195.705 279.855 195.166 280.655 194.487 281.327C193.809 281.999 193.005 282.531 192.121 282.893C191.237 283.254 190.29 283.438 189.335 283.434L184.986 283.414C184.03 283.409 183.086 283.217 182.205 282.848C181.324 282.478 180.525 281.939 179.853 281.26C179.18 280.582 178.648 279.777 178.287 278.893C177.925 278.009 177.742 277.063 177.746 276.108L177.768 271.323C177.772 270.419 178.135 269.553 178.778 268.916C179.42 268.28 180.289 267.924 181.193 267.929V267.929Z" stroke="#383849" stroke-width="1.851" stroke-linecap="round" stroke-linejoin="round"/>
<path d="M168.449 273.198L177.759 273.241" stroke="#383849" stroke-width="1.851" stroke-linecap="round" stroke-linejoin="round"/>
<path d="M149.368 273.111L140.002 267.742" stroke="#383849" stroke-width="1.851" stroke-linecap="round" stroke-linejoin="round"/>
<path d="M196.66 273.326L206.074 268.042" stroke="#383849" stroke-width="1.851" stroke-linecap="round" stroke-linejoin="round"/>
<path d="M205.047 267.4C201.439 272.453 197.45 279.038 193.841 284.09" stroke="white" stroke-width="1.989" stroke-linecap="round" stroke-linejoin="round"/>
<path d="M201.057 291.921L191.839 304.242" stroke="white" stroke-width="1.989" stroke-linecap="round" stroke-linejoin="round"/>
<path d="M140.828 267.105C144.391 272.19 148.319 278.811 151.882 283.897" stroke="white" stroke-width="1.989" stroke-linecap="round" stroke-linejoin="round"/>
<path d="M144.596 291.665L153.702 304.069" stroke="white" stroke-width="1.989" stroke-linecap="round" stroke-linejoin="round"/>
<path d="M152.928 280.416L193.001 280.598C193.829 280.601 194.621 280.934 195.204 281.522C195.787 282.11 196.112 282.905 196.108 283.733L196.063 293.686C196.038 299.14 193.848 304.361 189.974 308.2C186.1 312.038 180.86 314.181 175.406 314.156L170.218 314.133C164.764 314.108 159.543 311.918 155.704 308.044C151.866 304.17 149.723 298.93 149.747 293.476L149.793 283.523C149.796 282.695 150.129 281.902 150.717 281.32C151.305 280.737 152.1 280.412 152.928 280.416V280.416Z" fill="white"/>
<path d="M158.835 286.087L186.356 286.212" stroke="#CCCCCC" stroke-width="1.989" stroke-linecap="round" stroke-linejoin="round"/>
<path d="M158.809 291.73L186.33 291.854" stroke="#CCCCCC" stroke-width="1.989" stroke-linecap="round" stroke-linejoin="round"/>
<path d="M158.784 297.372L186.305 297.497" stroke="#CCCCCC" stroke-width="1.989" stroke-linecap="round" stroke-linejoin="round"/>
<path d="M158.758 303.014L186.279 303.139" stroke="#CCCCCC" stroke-width="1.989" stroke-linecap="round" stroke-linejoin="round"/>
<path d="M515.683 475.824L496.935 441.38L479.908 357.809L481.6 357.414C495.43 354.191 505.147 368.963 508.369 382.794L524.629 437.053L541.363 465.304C542.338 466.95 542.857 468.826 542.866 470.739C542.874 472.652 542.373 474.532 541.413 476.187C540.453 477.842 539.07 479.211 537.405 480.153C535.74 481.095 533.854 481.576 531.941 481.547L524.968 481.439C523.062 481.409 521.198 480.874 519.566 479.888C517.935 478.901 516.595 477.499 515.683 475.824Z" fill="#FF425B"/>
<path d="M500.113 365.612C494.92 359.998 489.785 355.507 481.602 357.415L479.91 357.809L496.935 441.381L502.886 452.315L500.113 365.612Z" fill="#383849"/>
<path d="M409.969 475.825L428.719 441.38L445.745 357.808L444.053 357.413C430.222 354.19 420.506 368.962 417.283 382.793L401.023 437.053L384.289 465.303C383.314 466.949 382.795 468.825 382.786 470.739C382.778 472.652 383.279 474.532 384.239 476.187C385.199 477.842 386.583 479.211 388.248 480.153C389.913 481.094 391.799 481.575 393.712 481.546L400.686 481.438C402.592 481.409 404.456 480.873 406.087 479.887C407.718 478.901 409.058 477.499 409.969 475.825Z" fill="#FF425B"/>
<path d="M425.54 365.612C430.733 359.998 435.868 355.507 444.052 357.414L445.744 357.809L428.719 441.38L422.767 452.314L425.54 365.612Z" fill="#383849"/>
<path d="M482.065 352.745C478.937 348.684 477.269 343.688 477.333 338.563V319.069H448.317V338.563C448.37 343.459 446.857 348.244 443.998 352.219V401.962H482.067L482.065 352.745Z" fill="#FF9973" stroke="#ED714B" stroke-width="2.362" stroke-miterlimit="10"/>
<path d="M463.777 344.691C468.23 344.399 472.524 342.92 476.212 340.408C476.903 339.937 477.56 339.417 478.178 338.853C478.178 338.756 478.17 338.66 478.17 338.562V318.028H447.479V338.562C447.479 339.055 447.46 339.543 447.43 340.028C452.006 343.931 458.742 344.911 463.777 344.691Z" fill="#ED714B"/>
<path d="M426.299 469.387C425.566 470.966 425.243 472.704 425.361 474.441C425.48 476.177 426.035 477.856 426.976 479.32C427.917 480.785 429.212 481.987 430.743 482.817C432.273 483.646 433.988 484.076 435.728 484.065L463.156 483.884L490.584 484.065C492.325 484.077 494.041 483.65 495.573 482.821C497.105 481.992 498.402 480.789 499.344 479.325C500.286 477.86 500.842 476.181 500.961 474.444C501.08 472.706 500.758 470.967 500.024 469.387C497.933 464.899 496.102 460.445 495.63 457.737C491.977 436.832 502.264 373.11 502.264 373.11C502.197 368.034 499.919 363.445 496.216 361.135C494.34 359.964 487.702 355.876 484.03 352.998C482.431 351.746 482.936 345.674 481.051 344.946C479.734 344.437 475.425 347.593 474.01 348.099C466.973 350.471 459.353 350.471 452.316 348.099C450.902 347.596 446.592 344.44 445.275 344.946C443.391 345.674 443.895 351.746 442.296 352.998C438.625 355.876 431.986 359.964 430.11 361.135C426.408 363.442 424.13 368.032 424.061 373.11C424.061 373.11 434.349 436.832 430.696 457.737C430.22 460.445 428.39 464.899 426.299 469.387Z" fill="#FF425B"/>
<path d="M464.155 236.317H464.154C449.468 236.317 437.563 248.222 437.563 262.907V281.316C437.563 296.002 449.468 307.907 464.154 307.907H464.155C478.84 307.907 490.745 296.002 490.745 281.316V262.907C490.745 248.222 478.84 236.317 464.155 236.317Z" fill="#383849"/>
<path d="M463.801 264.764C473.796 264.764 481.899 260.444 481.899 255.114C481.899 249.785 473.796 245.464 463.801 245.464C453.805 245.464 445.703 249.785 445.703 255.114C445.703 260.444 453.805 264.764 463.801 264.764Z" fill="#BD4444"/>
<path d="M429.416 312.517C430.099 313.978 435.329 321.326 437.107 318.276C438.003 316.738 437.329 312.933 437.183 311.214C436.984 308.797 436.568 306.403 435.94 304.061C435.488 302.38 434.872 300.641 433.546 299.512C430.883 297.243 428.224 299.271 427.602 302.152C426.847 305.671 427.951 309.382 429.416 312.517Z" fill="#FF9973" stroke="#ED714B" stroke-width="2.362" stroke-miterlimit="10"/>
<path d="M496.771 312.823C496.079 314.278 490.777 321.577 489.028 318.514C488.145 316.966 488.854 313.169 489.012 311.451C489.233 309.037 489.67 306.648 490.319 304.312C490.786 302.635 491.418 300.901 492.754 299.784C495.437 297.54 498.078 299.592 498.676 302.476C499.401 306 498.264 309.701 496.771 312.823Z" fill="#FF9973" stroke="#ED714B" stroke-width="2.362" stroke-miterlimit="10"/>
<path d="M491.575 302.796C491.611 304.818 491.361 306.849 491.207 308.877C490.741 315.045 489.698 321.171 486.636 326.738C483.658 332.152 479.058 337.229 473.71 339.791C469.427 341.842 464.654 342.646 459.936 342.114C455.218 341.581 450.745 339.732 447.028 336.778C441.556 332.433 438.064 325.91 436.36 319.076C434.77 313.433 434.266 307.539 434.877 301.708C434.877 301.708 436.688 283.581 440.44 275.79C444.191 267.999 450.863 256.392 462.229 256.844C480.72 257.58 492.935 266.891 491.575 302.796Z" fill="#FF9973" stroke="#ED714B" stroke-width="2.362" stroke-miterlimit="10"/>
<path d="M496.239 280.866C495.05 270.885 491.743 260.232 483.631 253.723C473.689 245.743 459.397 245.505 448.223 250.966C439.978 254.996 435.297 262.926 433.085 271.563C432.43 274.124 430.659 285.68 431.022 297.356C432.678 297.879 433.383 299.591 433.761 301.141C433.955 301.935 434.095 302.756 434.213 303.562C434.309 304.221 434.358 304.89 434.399 305.555C434.449 306.395 434.274 306.986 434.719 307.677C436.824 306.853 436.572 302.002 436.857 300.063L438.234 290.642C439.12 284.582 441.513 274.903 441.513 274.903L440.76 290.571L476.416 290.373L477.797 278.137L479.176 290.349C479.176 290.349 481.88 290.344 485.605 290.391C486.399 286.368 485.648 273.365 485.648 273.365C485.648 273.365 490.257 291.985 490.614 296.145C490.93 299.842 490.697 303.541 490.697 307.241C490.695 307.327 490.71 307.412 490.741 307.492C490.772 307.572 490.819 307.645 490.878 307.707C490.938 307.769 491.009 307.819 491.087 307.853C491.166 307.887 491.251 307.905 491.336 307.907C491.423 307.907 491.508 307.889 491.587 307.856C491.667 307.822 491.738 307.773 491.798 307.71C492.085 304.194 491.915 302.397 493.86 299.372C495.497 296.825 496.119 299.224 496.366 296.086C496.761 291.019 496.718 285.927 496.239 280.866Z" fill="#383849"/>
<path d="M455.059 295.15C451.321 294.161 447.371 294.326 443.729 295.623" stroke="#383849" stroke-width="1.458" stroke-linecap="round" stroke-linejoin="round"/>
<path d="M471.503 295.224C475.25 294.269 479.198 294.47 482.828 295.8" stroke="#383849" stroke-width="1.458" stroke-linecap="round" stroke-linejoin="round"/>
<path d="M477.139 306.052C476.403 306.065 475.679 305.858 475.061 305.457C474.443 305.057 473.958 304.481 473.669 303.804C473.379 303.127 473.298 302.379 473.435 301.655C473.572 300.932 473.921 300.266 474.439 299.741C474.956 299.217 475.618 298.859 476.34 298.713C477.062 298.566 477.811 298.638 478.491 298.919C479.172 299.2 479.754 299.678 480.162 300.291C480.57 300.904 480.787 301.624 480.784 302.361C480.779 303.33 480.395 304.26 479.714 304.95C479.033 305.639 478.109 306.035 477.139 306.052Z" fill="#383849"/>
<path d="M448.916 305.899C448.185 305.911 447.467 305.705 446.853 305.307C446.24 304.91 445.759 304.338 445.471 303.666C445.184 302.993 445.103 302.251 445.24 301.532C445.376 300.814 445.724 300.153 446.238 299.633C446.752 299.113 447.409 298.757 448.125 298.612C448.842 298.467 449.586 298.539 450.261 298.819C450.937 299.098 451.514 299.572 451.919 300.181C452.324 300.79 452.539 301.505 452.535 302.237C452.53 303.199 452.149 304.121 451.472 304.806C450.796 305.49 449.878 305.883 448.916 305.899Z" fill="#383849"/>
<path d="M457.743 296.294L460.784 300.173L460.729 312.38" stroke="#ED714B" stroke-width="1.989" stroke-linecap="round" stroke-linejoin="round"/>
<path d="M456.195 325.717H470.125" stroke="#ED714B" stroke-width="1.989" stroke-linecap="round" stroke-linejoin="round"/>
<path d="M495.107 296.464C491.499 301.516 487.51 308.102 483.901 313.154" stroke="white" stroke-width="1.989" stroke-linecap="round" stroke-linejoin="round"/>
<path d="M491.117 320.985L481.899 333.306" stroke="white" stroke-width="1.989" stroke-linecap="round" stroke-linejoin="round"/>
<path d="M430.888 296.177C434.451 301.262 438.379 307.883 441.942 312.968" stroke="white" stroke-width="1.989" stroke-linecap="round" stroke-linejoin="round"/>
<path d="M434.655 320.729L443.761 333.133" stroke="white" stroke-width="1.989" stroke-linecap="round" stroke-linejoin="round"/>
<path d="M442.988 309.479L483.061 309.661C483.889 309.665 484.681 309.997 485.264 310.585C485.847 311.173 486.172 311.968 486.168 312.796L486.123 322.75C486.098 328.203 483.908 333.424 480.034 337.263C476.16 341.102 470.92 343.245 465.466 343.22L460.278 343.196C454.824 343.172 449.603 340.981 445.764 337.107C441.925 333.234 439.783 327.993 439.807 322.539L439.853 312.586C439.856 311.758 440.189 310.966 440.777 310.383C441.365 309.801 442.16 309.475 442.988 309.479V309.479Z" fill="white"/>
<path d="M448.895 315.152L476.416 315.276" stroke="#CCCCCC" stroke-width="1.989" stroke-linecap="round" stroke-linejoin="round"/>
<path d="M448.869 320.793L476.39 320.918" stroke="#CCCCCC" stroke-width="1.989" stroke-linecap="round" stroke-linejoin="round"/>
<path d="M448.844 326.436L476.365 326.56" stroke="#CCCCCC" stroke-width="1.989" stroke-linecap="round" stroke-linejoin="round"/>
<path d="M448.818 332.078L476.339 332.203" stroke="#CCCCCC" stroke-width="1.989" stroke-linecap="round" stroke-linejoin="round"/>
<path d="M659.818 368.194L655.995 290.423C655.344 284.355 652.473 278.742 647.934 274.664C643.394 270.585 637.507 268.329 631.405 268.329H616.626C610.524 268.329 604.636 270.585 600.097 274.664C595.558 278.742 592.687 284.355 592.036 290.423L588.21 368.194H659.818Z" fill="#664431"/>
<path d="M588.21 442.792C584.76 442.792 581.451 441.422 579.012 438.982C576.573 436.543 575.202 433.234 575.202 429.785L581.181 375.233C581.181 375.233 586.909 357.438 601.218 357.438V429.785C601.218 431.493 600.882 433.184 600.228 434.762C599.574 436.341 598.616 437.775 597.408 438.983C596.2 440.19 594.766 441.149 593.188 441.802C591.61 442.456 589.918 442.792 588.21 442.792Z" fill="#14649C"/>
<path d="M597.613 357.695L585.136 442.411C587.049 442.886 589.046 442.917 590.974 442.504C592.901 442.09 594.709 441.242 596.26 440.025C597.811 438.807 599.063 437.252 599.923 435.478C600.782 433.703 601.225 431.756 601.218 429.785V357.438C600.012 357.44 598.808 357.526 597.613 357.695Z" fill="#383849"/>
<path d="M661.432 443.108C664.881 443.108 668.19 441.737 670.629 439.298C673.069 436.858 674.439 433.55 674.439 430.1L668.46 375.548C668.46 375.548 662.732 357.753 648.423 357.753V430.1C648.423 433.55 649.794 436.858 652.233 439.298C654.673 441.738 657.982 443.108 661.432 443.108Z" fill="#14649C"/>
<path d="M652.028 358.011L664.505 442.727C662.591 443.202 660.594 443.233 658.667 442.82C656.739 442.406 654.931 441.558 653.38 440.341C651.83 439.123 650.577 437.568 649.718 435.793C648.859 434.018 648.416 432.071 648.423 430.1V357.753C649.629 357.755 650.834 357.841 652.028 358.011Z" fill="#0D4F7D"/>
<path d="M647.788 358.549L647.255 358.233C642.165 355.212 638.992 349.359 638.992 342.992V326.208H610.886V342.988C610.886 349.355 607.712 355.208 602.622 358.229L601.182 359.084V397.564H647.789L647.788 358.549Z" fill="#FFAB73" stroke="#ED864B" stroke-width="2.251" stroke-miterlimit="10"/>
<path d="M625.86 348.264C630.116 348.03 634.25 346.765 637.907 344.576C638.571 344.174 639.207 343.727 639.811 343.238C639.811 343.154 639.803 343.072 639.803 342.988V325.314H610.074V342.988C610.074 343.412 610.056 343.834 610.026 344.25C614.459 347.609 620.984 348.452 625.86 348.264Z" fill="#ED864B"/>
<path d="M625.269 483.801L659.826 484.068L655.631 428.062V364.364C654.857 360.887 654.431 358.91 654.431 358.91C654.431 358.91 652.124 357.551 646.299 353.88C644.959 362.98 634.508 370.484 625.269 370.703V370.696L625.154 370.701L625.039 370.696V370.701C615.8 370.483 605.351 362.979 604.009 353.878C598.18 357.549 595.979 358.443 595.979 358.443C595.979 358.443 595.452 360.885 594.677 364.365V428.063L590.481 484.065L625.038 483.798H625.268L625.269 483.801Z" fill="#14649C"/>
<path d="M666.258 422.23L608.981 404.645L608.94 404.633C607.097 404.053 605.134 403.978 603.252 404.413C601.37 404.849 599.64 405.78 598.24 407.111L583.864 422.472L586.402 428.471L604.901 422.792L660.813 439.958C661.977 440.316 663.2 440.44 664.412 440.325C665.625 440.21 666.802 439.857 667.878 439.287C668.954 438.717 669.907 437.94 670.683 437.001C671.458 436.063 672.041 434.98 672.399 433.816" fill="#FFAB73"/>
<path d="M666.258 422.23L608.981 404.645L608.94 404.633C607.097 404.053 605.134 403.978 603.252 404.413C601.37 404.849 599.64 405.78 598.24 407.111L583.864 422.472L586.402 428.471L604.901 422.792L660.813 439.958C661.977 440.316 663.2 440.44 664.412 440.325C665.625 440.21 666.802 439.857 667.878 439.287C668.954 438.717 669.907 437.94 670.682 437.001C671.458 436.063 672.041 434.98 672.399 433.816" stroke="#ED864B" stroke-width="2.362" stroke-miterlimit="10"/>
<path d="M630.174 408.01L641.14 404.643L641.182 404.631C643.024 404.052 644.988 403.976 646.869 404.412C648.751 404.848 650.482 405.779 651.882 407.109L666.258 422.471L664.192 420.869L645.689 415.189L634.624 420.05" fill="#FFAB73"/>
<path d="M614.223 405.314L666.276 418.35C669.548 419.444 672.251 421.794 673.79 424.881C675.33 427.969 675.58 431.541 674.485 434.813C673.943 436.433 673.087 437.93 671.967 439.22C670.846 440.509 669.482 441.565 667.953 442.327C666.425 443.089 664.761 443.543 663.056 443.662C661.352 443.781 659.641 443.563 658.021 443.021L607.288 423.393C610.553 415.334 611.985 413.686 614.223 405.314Z" fill="#14649C"/>
<path d="M590.439 309.851C591.122 311.312 596.354 318.66 598.13 315.61C599.027 314.072 598.353 310.267 598.211 308.548C598.011 306.131 597.595 303.737 596.967 301.395C596.515 299.713 595.898 297.974 594.573 296.845C591.91 294.577 589.25 296.605 588.629 299.486C587.871 303.006 588.974 306.713 590.439 309.851Z" fill="#FFAB73" stroke="#ED864B" stroke-width="2.362" stroke-miterlimit="10"/>
<path d="M657.795 310.157C657.102 311.612 651.801 318.912 650.052 315.848C649.169 314.301 649.878 310.503 650.036 308.786C650.257 306.372 650.694 303.982 651.343 301.646C651.81 299.97 652.443 298.236 653.778 297.119C656.462 294.875 659.104 296.926 659.7 299.811C660.425 303.335 659.288 307.035 657.795 310.157Z" fill="#FFAB73" stroke="#ED864B" stroke-width="2.362" stroke-miterlimit="10"/>
<path d="M652.599 300.13C652.635 302.153 652.385 304.183 652.232 306.211C651.766 312.38 650.722 318.505 647.66 324.072C644.682 329.486 640.082 334.564 634.733 337.126C630.451 339.176 625.678 339.981 620.96 339.448C616.242 338.915 611.769 337.066 608.052 334.112C602.579 329.767 599.088 323.244 597.384 316.41C595.794 310.767 595.29 304.874 595.901 299.043C595.901 299.043 597.712 280.915 601.464 273.125C605.217 265.334 611.887 253.727 623.253 254.179C641.741 254.915 653.958 264.225 652.599 300.13Z" fill="#FFAB73" stroke="#ED864B" stroke-width="2.362" stroke-miterlimit="10"/>
<path d="M655.528 274.207C653.221 261.021 643.838 251.22 631.622 249.238C625.705 248.278 614.642 247.315 606.982 251.685C594.169 258.992 593.153 276.245 592.34 290.11C592.246 291.694 592.151 293.215 592.045 294.69C593.702 295.213 594.407 296.925 594.785 298.475C594.979 299.27 595.119 300.09 595.237 300.896C595.334 301.555 595.382 302.224 595.422 302.889C595.368 303.51 595.392 304.136 595.492 304.752C595.608 304.844 595.752 304.891 595.9 304.884C596.068 304.877 596.226 304.805 596.341 304.683C596.456 304.56 596.519 304.398 596.515 304.23C596.438 300.209 597.454 296.401 598.053 292.463C598.236 291.262 598.097 289.87 598.572 288.759C599.258 287.16 601.012 285.656 601.965 284.158C606.058 277.73 608.097 270.208 607.81 262.593C611.215 270.937 617.262 277.935 625.024 282.513C632.787 287.092 641.836 288.998 650.786 287.941C651.802 287.796 651.763 303.254 651.709 304.576C651.707 304.662 651.721 304.747 651.753 304.827C651.784 304.907 651.83 304.98 651.89 305.042C651.949 305.104 652.02 305.154 652.099 305.188C652.177 305.222 652.262 305.24 652.348 305.242C652.434 305.242 652.519 305.225 652.599 305.191C652.678 305.157 652.75 305.108 652.809 305.045C652.895 303.99 653.674 294.842 656.163 294.899C656.682 287.059 656.72 281.031 655.528 274.207Z" fill="#664431"/>
<path d="M616.079 291.737C612.342 290.747 608.392 290.912 604.75 292.21" stroke="#664431" stroke-width="1.458" stroke-linecap="round" stroke-linejoin="round"/>
<path d="M632.527 291.812C636.273 290.856 640.222 291.057 643.852 292.388" stroke="#664431" stroke-width="1.458" stroke-linecap="round" stroke-linejoin="round"/>
<path d="M638.129 302.506C637.567 302.515 637.016 302.357 636.545 302.051C636.073 301.746 635.704 301.307 635.483 300.791C635.262 300.274 635.201 299.704 635.305 299.152C635.41 298.6 635.677 298.092 636.072 297.693C636.466 297.294 636.971 297.021 637.522 296.909C638.072 296.798 638.643 296.853 639.162 297.068C639.681 297.282 640.124 297.647 640.435 298.114C640.746 298.582 640.911 299.132 640.908 299.693C640.905 300.432 640.611 301.14 640.092 301.666C639.572 302.192 638.868 302.493 638.129 302.506Z" fill="#664431"/>
<path d="M610.357 302.38C609.796 302.389 609.245 302.231 608.773 301.926C608.302 301.62 607.933 301.182 607.712 300.665C607.491 300.149 607.43 299.579 607.534 299.027C607.639 298.476 607.906 297.968 608.3 297.569C608.695 297.169 609.199 296.897 609.75 296.785C610.3 296.674 610.871 296.729 611.39 296.943C611.908 297.158 612.352 297.522 612.663 297.989C612.974 298.457 613.138 299.006 613.136 299.567C613.132 300.306 612.839 301.014 612.32 301.54C611.8 302.066 611.096 302.367 610.357 302.38Z" fill="#664431"/>
<path d="M618.767 293.629L621.781 300.194L617.921 312.404" stroke="#ED864B" stroke-width="1.989" stroke-linecap="round" stroke-linejoin="round"/>
<path d="M656.387 293.799C652.779 298.851 648.789 305.436 645.181 310.488" stroke="white" stroke-width="1.989" stroke-linecap="round" stroke-linejoin="round"/>
<path d="M652.397 318.319L643.179 330.64" stroke="white" stroke-width="1.989" stroke-linecap="round" stroke-linejoin="round"/>
<path d="M592.168 293.507C595.73 298.592 599.659 305.214 603.222 310.299" stroke="white" stroke-width="1.989" stroke-linecap="round" stroke-linejoin="round"/>
<path d="M595.935 318.063L605.041 330.467" stroke="white" stroke-width="1.989" stroke-linecap="round" stroke-linejoin="round"/>
<path d="M604.266 306.815L644.341 307.016C645.169 307.02 645.961 307.353 646.543 307.941C647.126 308.529 647.45 309.325 647.446 310.152L647.396 320.106C647.369 325.56 645.177 330.779 641.301 334.617C637.425 338.454 632.184 340.594 626.73 340.567L621.542 340.541C616.088 340.514 610.868 338.321 607.031 334.445C603.194 330.57 601.053 325.328 601.081 319.874L601.13 309.92C601.134 309.092 601.467 308.3 602.055 307.718C602.643 307.136 603.439 306.811 604.266 306.815V306.815Z" fill="white"/>
<path d="M610.174 312.486L637.695 312.61" stroke="#CCCCCC" stroke-width="1.989" stroke-linecap="round" stroke-linejoin="round"/>
<path d="M610.149 318.128L637.67 318.252" stroke="#CCCCCC" stroke-width="1.989" stroke-linecap="round" stroke-linejoin="round"/>
<path d="M610.123 323.77L637.645 323.894" stroke="#CCCCCC" stroke-width="1.989" stroke-linecap="round" stroke-linejoin="round"/>
<path d="M610.097 329.413L637.618 329.537" stroke="#CCCCCC" stroke-width="1.989" stroke-linecap="round" stroke-linejoin="round"/>
<path d="M635.631 403.717L583.596 417.907C582.01 418.54 580.564 419.48 579.341 420.673C578.118 421.866 577.141 423.288 576.468 424.858C575.795 426.427 575.437 428.115 575.416 429.823C575.394 431.531 575.71 433.227 576.344 434.813C577.624 438.016 580.124 440.58 583.295 441.94C586.465 443.3 590.046 443.345 593.25 442.065L642.779 419.563C639.055 411.705 638.345 411.947 635.631 403.717Z" fill="#14649C"/>
<path d="M575.933 425.485C577.248 423.253 579.056 421.352 581.217 419.924C583.379 418.497 585.838 417.583 588.407 417.25" stroke="#383849" stroke-width="1.89" stroke-linecap="round" stroke-linejoin="round"/>
<path d="M276.886 438.313C278.763 438.346 280.627 437.997 282.366 437.288C284.105 436.579 285.681 435.524 287 434.187C288.318 432.85 289.351 431.259 290.037 429.511C290.722 427.763 291.045 425.894 290.986 424.017C290.022 393.504 282.884 347.151 280.943 345.118C279.507 343.614 277.328 346.766 275.673 349.865C274.342 352.389 273.263 355.037 272.451 357.772C271.404 361.222 266.257 400.35 263.369 422.675C263.119 424.61 263.28 426.576 263.841 428.444C264.403 430.312 265.353 432.041 266.628 433.517C267.904 434.993 269.477 436.183 271.244 437.009C273.011 437.836 274.933 438.28 276.883 438.313H276.886Z" fill="#383849"/>
<path d="M290.377 484.065H263.453V423.932C263.452 422.164 263.8 420.414 264.476 418.78C265.152 417.147 266.144 415.663 267.393 414.412C268.643 413.162 270.127 412.17 271.76 411.494C273.393 410.817 275.144 410.469 276.912 410.469C278.68 410.468 280.431 410.816 282.064 411.493C283.698 412.169 285.182 413.161 286.433 414.411C287.683 415.661 288.674 417.146 289.351 418.779C290.027 420.413 290.375 422.164 290.375 423.932L290.377 484.065Z" fill="#383849"/>
<path d="M394.894 438.328C393.017 438.354 391.154 437.998 389.418 437.282C387.682 436.566 386.11 435.505 384.796 434.163C383.482 432.822 382.455 431.227 381.777 429.476C381.098 427.726 380.782 425.855 380.848 423.979C381.924 393.469 389.239 347.147 391.19 345.118C392.631 343.62 394.799 346.78 396.441 349.886C397.761 352.416 398.829 355.069 399.631 357.808C400.664 361.262 405.665 400.409 408.468 422.746C408.711 424.682 408.542 426.647 407.974 428.513C407.405 430.379 406.449 432.104 405.167 433.575C403.886 435.046 402.309 436.23 400.539 437.05C398.768 437.87 396.845 438.307 394.894 438.332V438.328Z" fill="#383849"/>
<path d="M408.983 484.065H382.058V423.932C382.057 422.164 382.405 420.414 383.081 418.78C383.757 417.147 384.748 415.663 385.998 414.412C387.248 413.162 388.732 412.17 390.365 411.494C391.998 410.817 393.749 410.469 395.517 410.469C397.285 410.468 399.036 410.816 400.669 411.493C402.303 412.169 403.787 413.161 405.037 414.411C406.288 415.661 407.279 417.146 407.956 418.779C408.632 420.413 408.98 422.164 408.979 423.932L408.983 484.065Z" fill="#383849"/>
<path d="M336.234 348.482C331.706 348.482 327.363 346.683 324.161 343.481C320.959 340.279 319.16 335.937 319.16 331.408V292.552H353.308V331.409C353.307 335.937 351.508 340.28 348.306 343.482C345.105 346.683 340.762 348.482 336.234 348.482Z" fill="#92604E" stroke="#804533" stroke-width="2.362" stroke-miterlimit="10"/>
<path d="M319.161 292.552V313.886C319.161 318.414 320.96 322.757 324.162 325.959C327.364 329.161 331.707 330.96 336.235 330.96C340.763 330.96 345.106 329.161 348.308 325.959C351.51 322.757 353.309 318.414 353.309 313.886V292.552H319.161Z" fill="#804533"/>
<path d="M367.683 418.712V333.343H353.122C351.204 333.343 349.318 333.844 347.652 334.796C345.986 335.747 344.598 337.117 343.623 338.77L336.755 350.419L328.305 336.295C327.766 335.395 327.004 334.65 326.091 334.133C325.179 333.616 324.148 333.343 323.099 333.343H304.445V418.712H367.683Z" fill="white"/>
<path d="M367.683 418.712V333.343H353.122C351.204 333.343 349.318 333.844 347.652 334.796C345.986 335.747 344.598 337.117 343.623 338.77L336.755 350.419L328.305 336.295C327.766 335.395 327.004 334.65 326.091 334.133C325.179 333.616 324.148 333.343 323.099 333.343H304.445V418.712H367.683Z" fill="#E6E6E6"/>
<path d="M383.286 484.064H335.387V420.085L355.331 321.084L391.94 344.695C391.94 344.695 382.807 402.233 381.734 415.438C381.525 418.006 383.286 484.064 383.286 484.064Z" fill="#FDF079"/>
<path d="M288.765 484.064H336.663V420.084L316.72 321.084L280.111 344.695C280.111 344.695 289.243 402.233 290.316 415.438C290.525 418.005 288.765 484.064 288.765 484.064Z" fill="#FDF079"/>
<path d="M371.712 428.179C365.042 440.798 353.391 456.517 353.391 456.517" stroke="#383849" stroke-width="1.673" stroke-linecap="round" stroke-linejoin="round"/>
<path d="M337.38 412.4H334.699C333.731 412.4 332.946 413.185 332.946 414.153V418.28C332.946 419.249 333.731 420.034 334.699 420.034H337.38C338.348 420.034 339.133 419.249 339.133 418.28V414.153C339.133 413.185 338.348 412.4 337.38 412.4Z" fill="#3C333F"/>
<path d="M336.234 415.438L336.183 409.205" stroke="#3C333F" stroke-width="4.112" stroke-miterlimit="10"/>
<path d="M330.484 338.206C326.528 337.572 322.474 338.055 318.779 339.601C314.803 341.337 310.988 343.42 307.378 345.825C307.378 345.825 307.702 325.136 309.003 322.281C310.303 319.425 318.335 308.928 318.335 308.928C318.335 308.928 317.366 319.219 321.153 326.483C327.413 334.961 330.484 338.206 330.484 338.206Z" fill="#383849"/>
<path d="M344.121 338.092C344.121 338.092 347.654 336.906 353.745 339.488C357.721 341.224 361.536 343.306 365.147 345.712C365.147 345.712 364.822 325.023 363.521 322.168C362.22 319.312 354.333 308.923 354.333 308.923C354.333 308.923 355.157 319.106 351.37 326.37C345.111 334.85 344.121 338.092 344.121 338.092Z" fill="#383849"/>
<path d="M327.092 335.213C329.404 337.407 331.448 339.866 333.183 342.539C334.672 344.834 336.637 347.601 336.443 350.364C335.924 357.754 336.52 365.367 336.624 372.782" stroke="#3C333F" stroke-width="4.112" stroke-miterlimit="10"/>
<path d="M347.842 333.803L336.664 348.923" stroke="#3C333F" stroke-width="4.112" stroke-miterlimit="10"/>
<path d="M339.871 365.811V365.678" stroke="#3C333F" stroke-width="4.112" stroke-miterlimit="10"/>
<path d="M302.269 293.379C302.951 294.84 308.182 302.188 309.959 299.138C310.856 297.6 310.182 293.795 310.036 292.076C309.837 289.659 309.421 287.265 308.793 284.923C308.341 283.242 307.724 281.503 306.399 280.374C303.736 278.105 301.076 280.132 300.455 283.013C299.7 286.533 300.803 290.244 302.269 293.379Z" fill="#92604E" stroke="#804533" stroke-width="2.362" stroke-miterlimit="10"/>
<path d="M369.894 293.776C369.202 295.231 363.901 302.531 362.152 299.467C361.268 297.92 361.977 294.122 362.135 292.405C362.356 289.991 362.794 287.601 363.443 285.265C363.909 283.589 364.542 281.855 365.877 280.739C368.561 278.494 371.202 280.546 371.799 283.43C372.527 286.954 371.39 290.654 369.894 293.776Z" fill="#92604E" stroke="#804533" stroke-width="2.362" stroke-miterlimit="10"/>
<path d="M364.428 283.658C364.464 285.681 364.213 287.711 364.06 289.74C363.594 295.908 362.551 302.034 359.489 307.601C356.51 313.015 351.911 318.092 346.563 320.654C342.28 322.704 337.507 323.509 332.789 322.976C328.071 322.443 323.598 320.595 319.881 317.641C314.409 313.296 310.916 306.772 309.213 299.939C307.622 294.296 307.119 288.402 307.73 282.571C307.73 282.571 309.54 264.444 313.293 256.653C317.045 248.862 323.716 237.255 335.082 237.707C353.569 238.443 365.787 247.754 364.428 283.658Z" fill="#92604E" stroke="#804533" stroke-width="2.362" stroke-miterlimit="10"/>
<path d="M369.295 257.705C368.396 240.679 355.392 227.525 338.215 226.973C328.755 226.666 319.078 230.341 312.691 237.433C307.661 243.018 305.442 250.371 304.539 257.697C304.118 261.415 303.905 265.152 303.901 268.893C303.892 269.797 303.398 278.069 303.874 278.219C305.531 278.742 306.236 280.455 306.614 282.004C306.808 282.798 306.948 283.619 307.066 284.425C307.162 285.084 307.211 285.753 307.251 286.417C307.197 287.039 307.22 287.665 307.321 288.281C307.436 288.373 307.581 288.42 307.728 288.413C307.897 288.406 308.056 288.333 308.172 288.21C308.287 288.086 308.349 287.922 308.344 287.753C308.203 282.514 309.595 277.405 310.785 272.381C312.105 266.806 312.2 263.299 314.034 257.864C314.411 256.986 314.967 256.197 315.665 255.545C316.363 254.893 317.189 254.393 318.09 254.077C319.674 253.524 321.364 254.369 322.889 255.07C326.697 256.8 330.81 257.761 334.991 257.897C339.172 258.033 343.338 257.342 347.251 255.862C350.189 254.734 353.347 253.138 356.318 254.17C357.273 254.562 358.137 255.147 358.855 255.888C359.574 256.629 360.131 257.511 360.492 258.477C361.203 260.413 361.639 262.438 361.79 264.495C362.388 269.472 363.036 272.042 363.461 277.005C363.778 280.703 363.545 284.402 363.545 288.102C363.543 288.188 363.557 288.273 363.588 288.353C363.619 288.433 363.666 288.506 363.725 288.568C363.785 288.63 363.856 288.68 363.935 288.714C364.013 288.748 364.098 288.767 364.184 288.768C364.27 288.768 364.356 288.751 364.435 288.717C364.514 288.683 364.586 288.634 364.645 288.571C364.917 285.248 365.227 281.522 367.221 278.78C369.827 275.194 369.338 269.331 369.392 265.131C369.422 262.754 369.433 260.242 369.295 257.705Z" fill="#383849"/>
<path d="M327.911 270.781C324.174 269.792 320.224 269.957 316.582 271.254" stroke="#383849" stroke-width="6.802" stroke-linecap="round" stroke-linejoin="round"/>
<path d="M344.356 270.856C348.103 269.9 352.051 270.101 355.681 271.432" stroke="#383849" stroke-width="6.802" stroke-linecap="round" stroke-linejoin="round"/>
<path d="M349.957 286.034C349.396 286.044 348.844 285.886 348.373 285.58C347.902 285.275 347.532 284.836 347.312 284.32C347.091 283.803 347.029 283.233 347.134 282.681C347.238 282.129 347.505 281.622 347.9 281.222C348.295 280.823 348.799 280.55 349.35 280.438C349.9 280.327 350.471 280.382 350.99 280.596C351.509 280.811 351.952 281.175 352.263 281.643C352.575 282.11 352.739 282.66 352.737 283.221C352.733 283.96 352.44 284.668 351.92 285.194C351.401 285.72 350.696 286.022 349.957 286.034Z" fill="#383849"/>
<path d="M322.186 285.909C321.624 285.918 321.073 285.76 320.601 285.454C320.13 285.149 319.761 284.71 319.54 284.194C319.319 283.677 319.257 283.107 319.362 282.555C319.467 282.004 319.733 281.496 320.128 281.096C320.523 280.697 321.027 280.424 321.578 280.312C322.128 280.201 322.699 280.256 323.218 280.47C323.737 280.685 324.181 281.049 324.492 281.517C324.803 281.984 324.968 282.534 324.965 283.095C324.962 283.834 324.669 284.543 324.149 285.069C323.63 285.595 322.925 285.896 322.186 285.909Z" fill="#383849"/>
<path d="M330.594 277.157L333.636 281.036L333.58 293.243" stroke="#804533" stroke-width="1.989" stroke-linecap="round" stroke-linejoin="round"/>
<path d="M329.047 306.581H342.978" stroke="#ED714B" stroke-width="1.989" stroke-linecap="round" stroke-linejoin="round"/>
<path d="M367.96 277.326C364.352 282.379 360.363 288.965 356.754 294.016" stroke="white" stroke-width="1.989" stroke-linecap="round" stroke-linejoin="round"/>
<path d="M363.97 301.848L354.752 314.169" stroke="white" stroke-width="1.989" stroke-linecap="round" stroke-linejoin="round"/>
<path d="M303.741 277.035C307.303 282.12 311.232 288.742 314.795 293.827" stroke="white" stroke-width="1.989" stroke-linecap="round" stroke-linejoin="round"/>
<path d="M307.508 301.592L316.614 313.996" stroke="white" stroke-width="1.989" stroke-linecap="round" stroke-linejoin="round"/>
<path d="M315.841 290.342L355.915 290.524C356.743 290.528 357.535 290.86 358.117 291.448C358.7 292.036 359.025 292.831 359.021 293.658L358.976 303.612C358.951 309.066 356.761 314.287 352.887 318.126C349.013 321.965 343.773 324.107 338.319 324.083L333.131 324.059C327.677 324.034 322.456 321.844 318.617 317.97C314.778 314.096 312.636 308.856 312.66 303.402L312.705 293.449C312.709 292.621 313.042 291.829 313.63 291.246C314.218 290.663 315.013 290.338 315.841 290.342V290.342Z" fill="white"/>
<path d="M321.748 296.013L349.269 296.138" stroke="#CCCCCC" stroke-width="1.989" stroke-linecap="round" stroke-linejoin="round"/>
<path d="M321.722 301.656L349.243 301.781" stroke="#CCCCCC" stroke-width="1.989" stroke-linecap="round" stroke-linejoin="round"/>
<path d="M321.696 307.299L349.217 307.423" stroke="#CCCCCC" stroke-width="1.989" stroke-linecap="round" stroke-linejoin="round"/>
<path d="M321.671 312.94L349.192 313.065" stroke="#CCCCCC" stroke-width="1.989" stroke-linecap="round" stroke-linejoin="round"/>
<path d="M360.638 281.591L367.895 278.949C368.138 278.86 368.347 278.699 368.495 278.488C368.644 278.276 368.723 278.024 368.723 277.766C368.723 277.584 368.684 277.404 368.608 277.239C368.532 277.074 368.421 276.927 368.283 276.809C368.145 276.691 367.983 276.604 367.808 276.554C367.633 276.504 367.45 276.493 367.27 276.52L360.642 277.547L360.638 281.591Z" fill="#383849"/>
<path d="M339.111 284.452C338.56 283.385 336.826 283.005 335.508 283.004H335.5C333.66 283.004 332.089 283.967 331.917 284.374L329.852 283.502C330.544 281.862 333.329 280.762 335.502 280.762H335.51C338.153 280.762 340.244 281.762 341.104 283.425L339.111 284.452Z" fill="#383849"/>
<path d="M343.598 277.47H328.927V279.712H343.598V277.47Z" fill="#383849"/>
<path d="M311.041 277.47H329.433C329.785 277.47 330.134 277.539 330.46 277.674C330.785 277.809 331.081 278.006 331.33 278.255C331.58 278.504 331.778 278.8 331.912 279.125C332.047 279.451 332.117 279.8 332.117 280.152V287.762C332.117 289.781 331.315 291.718 329.887 293.146C328.459 294.573 326.522 295.376 324.503 295.376H315.974C313.954 295.376 312.018 294.573 310.59 293.146C309.162 291.718 308.36 289.781 308.36 287.762V280.152C308.36 279.441 308.642 278.759 309.145 278.256C309.648 277.753 310.33 277.47 311.041 277.47Z" fill="#383849"/>
<path d="M317.813 294.254L330.629 281.438V280.936C330.629 280.558 330.537 280.186 330.362 279.851C330.186 279.516 329.932 279.229 329.621 279.013L324.338 284.296L320.207 288.426L314.651 293.983C315.254 294.161 315.88 294.252 316.509 294.254H317.813Z" fill="url(#paint0_linear)"/>
<path d="M313.213 292.93C317.992 288.15 322.771 283.371 327.551 278.592H321.961L310.367 290.184C310.929 291.498 311.9 292.595 313.136 293.313C313.107 293.249 313.099 293.178 313.113 293.109C313.126 293.04 313.161 292.978 313.213 292.93Z" fill="url(#paint1_linear)"/>
<path d="M341.793 277.47H360.184C360.536 277.47 360.885 277.539 361.211 277.674C361.537 277.809 361.832 278.006 362.082 278.255C362.331 278.504 362.529 278.8 362.664 279.125C362.799 279.451 362.868 279.8 362.868 280.152V287.762C362.868 289.781 362.066 291.718 360.638 293.146C359.21 294.573 357.273 295.376 355.254 295.376H346.725C344.706 295.376 342.769 294.573 341.341 293.146C339.913 291.718 339.111 289.781 339.111 287.762V280.152C339.111 279.441 339.393 278.759 339.896 278.256C340.399 277.753 341.081 277.47 341.793 277.47Z" fill="#383849"/>
<path d="M348.565 294.253L361.381 281.44V280.938C361.38 280.56 361.289 280.188 361.113 279.853C360.938 279.518 360.684 279.231 360.373 279.015L355.09 284.297L350.959 288.428L345.403 293.985C346.006 294.163 346.631 294.254 347.26 294.256L348.565 294.253Z" fill="url(#paint2_linear)"/>
<path d="M343.964 292.93L358.302 278.592H352.713L341.12 290.184C341.683 291.498 342.654 292.595 343.889 293.313C343.86 293.25 343.852 293.178 343.865 293.11C343.879 293.041 343.913 292.978 343.964 292.93Z" fill="url(#paint3_linear)"/>
<path d="M310.416 281.591L303.163 278.948C302.92 278.86 302.711 278.699 302.562 278.487C302.414 278.276 302.335 278.023 302.335 277.765C302.335 277.583 302.374 277.404 302.45 277.239C302.526 277.073 302.637 276.927 302.775 276.808C302.913 276.69 303.075 276.603 303.249 276.553C303.424 276.503 303.608 276.492 303.787 276.52L310.416 277.547V281.591Z" fill="#383849"/>
<path d="M428.44 343.666C427.482 339.372 425.472 335.384 422.591 332.06C414.025 322.264 398.527 318.805 387.22 325.907C380.956 329.843 377.27 335.91 374.985 342.614V386.852H428.406C428.417 386.588 428.428 386.325 428.44 386.062V343.666Z" fill="#664431"/>
<path d="M365.43 462.715L385.657 403.82L384.701 403.491C382.843 402.852 380.877 402.586 378.916 402.708C376.956 402.829 375.038 403.336 373.273 404.198C371.507 405.061 369.93 406.263 368.629 407.735C367.328 409.207 366.33 410.922 365.692 412.78L351.426 454.311C350.965 455.651 350.817 457.08 350.992 458.486C351.168 459.893 351.662 461.241 352.438 462.428C353.214 463.615 354.251 464.608 355.469 465.333C356.688 466.058 358.056 466.494 359.469 466.61C360.754 466.716 362.038 466.39 363.117 465.685C364.197 464.98 365.011 463.935 365.43 462.715Z" fill="#C4FFDD"/>
<path d="M434.384 462.064L414.157 403.168L415.113 402.839C418.865 401.55 422.976 401.805 426.541 403.547C430.106 405.289 432.833 408.375 434.122 412.128L448.388 453.658C448.849 454.999 448.998 456.428 448.823 457.835C448.647 459.242 448.153 460.591 447.377 461.778C446.6 462.965 445.563 463.959 444.344 464.683C443.126 465.408 441.757 465.845 440.344 465.96C439.059 466.065 437.775 465.739 436.696 465.034C435.616 464.328 434.803 463.283 434.384 462.064Z" fill="#C4FFDD"/>
<path d="M469.799 408.233C468.73 409.644 467.164 411.575 467.164 411.575C465.486 415.367 464.537 417.459 462.582 419.002C461.637 419.757 460.999 421.878 460.824 422.984C460.647 423.846 460.235 424.643 459.635 425.286C459.034 425.929 458.268 426.395 457.42 426.631L457.278 426.678C453.248 427.954 449.224 424.766 450.296 421.116C450.995 418.739 450.804 417.842 450.62 417.314C449.955 415.35 446.794 413.835 446.419 410.035C446.048 406.22 443.465 401.611 443.465 401.611C443.465 401.611 444.85 399.897 446.406 401.341C447.974 402.802 448.502 405.884 449.423 406.34C449.606 406.433 449.798 406.505 449.997 406.557C450.014 406.561 450.03 406.569 450.044 406.58C450.728 406.811 451.474 406.766 452.125 406.455C452.175 406.443 452.221 406.42 452.261 406.387C454.273 404.975 455.722 400.08 456.131 397.85C456.693 394.753 457.741 390.52 459.719 391.595C461.697 392.669 458.753 396.891 458.204 403.711C458.25 404.22 463.012 397.481 464.615 393.32C465.727 390.46 468.183 392.339 467.682 393.781C467.332 394.787 463.01 404.326 462.737 405.192C467.213 400.589 469.091 395.975 471.043 396.4C472.4 396.695 472.312 398.861 470.906 400.343C470.302 400.987 466.879 406.165 465.892 407.467C470.095 404.535 471.178 402.225 472.715 402.709C474.301 403.22 471.148 406.457 469.799 408.233Z" fill="#FF9973"/>
<path d="M454.979 411.824C454.42 408.8 450.532 406.815 450.046 406.582C450.73 406.813 451.477 406.768 452.128 406.457C455.863 408.751 454.979 411.824 454.979 411.824Z" fill="#EC6E4B"/>
<path d="M439.561 467.375C440.516 467.686 441.522 467.805 442.522 467.726C443.522 467.647 444.497 467.372 445.391 466.916C446.285 466.461 447.08 465.833 447.732 465.07C448.383 464.307 448.878 463.423 449.187 462.469L463.031 421.916L448.504 417.197L434.66 457.749C434.35 458.703 434.23 459.709 434.309 460.709C434.387 461.709 434.662 462.684 435.117 463.578C435.572 464.472 436.199 465.267 436.961 465.919C437.724 466.57 438.608 467.065 439.561 467.375Z" fill="#C4FFDD"/>
<path d="M330.324 408.233C331.393 409.645 332.959 411.576 332.959 411.576C334.637 415.368 335.587 417.459 337.541 419.003C338.486 419.757 339.124 421.879 339.299 422.985C339.476 423.847 339.888 424.643 340.488 425.287C341.089 425.93 341.855 426.396 342.703 426.632L342.846 426.678C346.876 427.955 350.9 424.767 349.827 421.116C349.128 418.74 349.32 417.843 349.503 417.315C350.168 415.35 353.329 413.836 353.704 410.036C354.075 406.221 356.658 401.611 356.658 401.611C356.658 401.611 355.273 399.898 353.717 401.341C352.15 402.803 351.621 405.884 350.7 406.341C350.517 406.433 350.325 406.506 350.126 406.557C350.109 406.562 350.093 406.57 350.079 406.58C349.397 406.81 348.652 406.766 348.002 406.456C347.952 406.444 347.906 406.42 347.866 406.387C345.854 404.975 344.405 400.081 343.996 397.851C343.434 394.753 342.386 390.521 340.408 391.596C338.429 392.67 341.374 396.892 341.923 403.712C341.877 404.221 337.115 397.482 335.512 393.321C334.399 390.46 331.944 392.34 332.445 393.782C332.795 394.788 337.117 404.326 337.39 405.192C332.914 400.589 331.037 395.976 329.084 396.401C327.727 396.695 327.815 398.862 329.22 400.344C329.825 400.988 333.247 406.166 334.235 407.467C330.032 404.535 328.949 402.226 327.413 402.71C325.826 403.22 328.979 406.458 330.324 408.233Z" fill="#FF9973"/>
<path d="M345.147 411.824C345.705 408.8 349.594 406.815 350.079 406.582C349.397 406.812 348.652 406.767 348.002 406.457C344.262 408.751 345.147 411.824 345.147 411.824Z" fill="#EC6E4B"/>
<path d="M360.564 467.375C358.637 468.001 356.541 467.836 354.736 466.916C352.932 465.996 351.566 464.397 350.94 462.471L337.097 421.918L351.625 417.199L365.468 457.752C366.094 459.678 365.929 461.774 365.009 463.579C364.089 465.384 362.49 466.749 360.564 467.375Z" fill="#C4FFDD"/>
<path d="M424.25 402.676C424.25 402.676 422.261 401.841 420.297 401.049C416.212 399.403 411.99 397.7 408.848 395.624L408.64 395.487H391.371L391.164 395.624C387.658 397.939 383.403 399.795 379.286 401.589C377.919 402.185 376.585 402.766 375.327 403.344C374.5 403.725 369.821 484.068 369.821 484.068H429.786L424.25 402.676Z" fill="#C4FFDD"/>
<path d="M410.548 397.584C410.288 392.495 410.365 387.394 410.779 382.315C410.777 382.067 410.678 381.831 410.503 381.655C410.328 381.48 410.091 381.381 409.843 381.379L391.45 381.687C391.31 381.688 391.172 381.72 391.046 381.781C390.874 381.838 390.726 381.953 390.629 382.107C390.532 382.26 390.492 382.442 390.514 382.623C390.845 387.474 390.758 392.346 390.257 397.183L390.144 397.247C388.243 398.318 383.182 400.897 383.182 400.897L383.226 400.979C384.914 404.149 387.429 406.802 390.503 408.658C393.577 410.514 397.096 411.503 400.687 411.521C404.278 411.539 407.807 410.584 410.9 408.759C413.992 406.933 416.533 404.305 418.252 401.152C418.252 401.152 413.004 398.886 410.548 397.584Z" fill="#FF9973" stroke="#ED714B" stroke-width="2.449" stroke-miterlimit="10"/>
<path d="M389.665 392.344C389.679 392.375 389.691 392.407 389.7 392.44C390.33 396.913 397.367 397.991 401.075 397.934C404.817 397.89 408.44 396.612 411.381 394.297C411.288 390.325 411.401 386.351 411.719 382.39C411.735 382.146 411.7 381.901 411.616 381.67C411.532 381.44 411.401 381.23 411.231 381.053C411.055 380.863 410.842 380.71 410.605 380.604C410.368 380.499 410.113 380.442 409.853 380.438H409.828L391.44 380.75C391.195 380.748 390.952 380.799 390.728 380.899C390.364 381.027 390.053 381.272 389.844 381.596C389.635 381.92 389.54 382.305 389.575 382.689C389.782 385.903 389.812 389.126 389.665 392.344Z" fill="#ED714B"/>
<path d="M374.231 367.65C374.853 368.967 379.606 375.578 381.197 372.818C382.001 371.424 381.376 367.993 381.241 366.442C381.05 364.262 380.664 362.104 380.087 359.993C379.788 358.439 379.028 357.012 377.908 355.896C375.494 353.858 373.102 355.7 372.552 358.303C371.885 361.482 372.894 364.826 374.231 367.65Z" fill="#FF9973" stroke="#ED714B" stroke-width="2.449" stroke-miterlimit="10"/>
<path d="M429.636 367.65C429.013 368.967 424.261 375.578 422.669 372.818C421.866 371.424 422.49 367.993 422.625 366.442C422.816 364.262 423.202 362.104 423.779 359.993C424.079 358.439 424.838 357.012 425.959 355.896C428.372 353.858 430.765 355.7 431.314 358.303C431.982 361.482 430.971 364.826 429.636 367.65Z" fill="#FF9973" stroke="#ED714B" stroke-width="2.449" stroke-miterlimit="10"/>
<path d="M398.989 320.773C382.269 320.604 377.006 338.882 376.261 352.536C375.446 367.474 383.317 391.13 401.628 390.787C414.791 390.54 422.739 376.554 425.981 365.387C426.839 362.476 427.41 359.488 427.687 356.465C427.687 356.465 431.67 321.104 398.989 320.773Z" fill="#FF9973" stroke="#ED714B" stroke-width="2.449" stroke-miterlimit="10"/>
<path d="M429.293 338.52C427.777 325.214 415.116 313.744 402.375 313.721C393.306 313.706 384.771 319.412 379.867 326.79C376.576 331.744 375.192 337.677 374.913 343.556C374.791 346.477 374.889 349.403 375.207 352.309C375.427 354.414 375.297 358.374 377.249 359.77C378.782 360.863 382.51 358.947 384.017 358.366C386.54 357.386 388.967 356.176 391.268 354.751C395.884 351.894 399.959 348.242 403.302 343.964C404.97 341.833 406.44 339.553 407.693 337.155C408.445 335.714 411.055 331.586 410.646 329.957C412.841 338.638 416.749 346.794 422.14 353.945C423.489 355.733 425.554 359.187 427.61 360.02C428.666 358.198 428.909 355.524 429.202 353.46C429.865 348.504 429.896 343.484 429.293 338.52Z" fill="#664431"/>
<path d="M408.136 351.005C411.049 350.248 414.122 350.391 416.953 351.413" stroke="#383849" stroke-width="2.6" stroke-linecap="round" stroke-linejoin="round"/>
<path d="M412.545 361.637C412.108 361.646 411.678 361.525 411.31 361.289C410.942 361.053 410.653 360.713 410.479 360.311C410.305 359.91 410.255 359.466 410.334 359.036C410.414 358.606 410.62 358.21 410.926 357.898C411.232 357.585 411.624 357.371 412.052 357.282C412.48 357.194 412.925 357.234 413.329 357.4C413.734 357.565 414.081 357.847 414.324 358.21C414.568 358.573 414.698 359 414.698 359.437C414.698 360.012 414.472 360.565 414.07 360.976C413.667 361.387 413.12 361.624 412.545 361.637Z" fill="#664431"/>
<path d="M395.336 351.005C392.423 350.248 389.349 350.391 386.519 351.414" stroke="#383849" stroke-width="2.6" stroke-linecap="round" stroke-linejoin="round"/>
<path d="M390.927 361.637C390.49 361.646 390.06 361.525 389.692 361.289C389.324 361.053 389.035 360.713 388.861 360.311C388.688 359.91 388.637 359.466 388.717 359.036C388.796 358.606 389.002 358.21 389.308 357.898C389.614 357.585 390.006 357.371 390.434 357.282C390.862 357.194 391.307 357.234 391.712 357.4C392.117 357.565 392.463 357.847 392.707 358.21C392.951 358.573 393.081 359 393.081 359.437C393.081 360.013 392.855 360.565 392.453 360.976C392.05 361.387 391.503 361.624 390.927 361.637Z" fill="#664431"/>
<path d="M405.082 354.795C404.516 355.942 404.132 357.171 403.946 358.436C403.544 361.647 403.767 370.179 403.767 370.179" stroke="#ED714B" stroke-width="2.062" stroke-linecap="round" stroke-linejoin="round"/>
<path d="M406.075 378.699C403.351 379.361 400.514 379.409 397.769 378.838" stroke="#ED714B" stroke-width="2.062" stroke-linecap="round" stroke-linejoin="round"/>
<path d="M429.16 353.738C426.196 357.804 421.298 363.846 418.335 367.912" stroke="white" stroke-width="1.611" stroke-linecap="round" stroke-linejoin="round"/>
<path d="M424.119 374.311L416.555 384.22" stroke="white" stroke-width="1.611" stroke-linecap="round" stroke-linejoin="round"/>
<path d="M375.52 353.739C378.365 357.886 381.497 363.281 384.344 367.428" stroke="white" stroke-width="1.611" stroke-linecap="round" stroke-linejoin="round"/>
<path d="M378.38 373.662L385.66 383.782" stroke="white" stroke-width="1.611" stroke-linecap="round" stroke-linejoin="round"/>
<path d="M385.217 364.614L417.68 365.074C418.012 365.079 418.34 365.148 418.645 365.28C418.95 365.411 419.226 365.601 419.458 365.839C419.69 366.077 419.872 366.359 419.995 366.667C420.118 366.976 420.179 367.306 420.174 367.638L420.059 375.702C420.028 377.889 419.567 380.049 418.701 382.059C417.835 384.068 416.582 385.887 415.013 387.412C411.845 390.491 407.583 392.186 403.165 392.124L398.961 392.064C394.543 392.001 390.331 390.186 387.251 387.018C384.172 383.849 382.477 379.587 382.539 375.169L382.654 367.105C382.663 366.435 382.939 365.796 383.42 365.329C383.9 364.861 384.547 364.604 385.217 364.614Z" fill="white"/>
<path d="M389.959 369.255L412.254 369.572" stroke="#CCCCCC" stroke-width="1.611" stroke-linecap="round" stroke-linejoin="round"/>
<path d="M389.895 373.825L412.19 374.142" stroke="#CCCCCC" stroke-width="1.611" stroke-linecap="round" stroke-linejoin="round"/>
<path d="M389.829 378.397L412.124 378.714" stroke="#CCCCCC" stroke-width="1.611" stroke-linecap="round" stroke-linejoin="round"/>
<path d="M389.765 382.968L412.06 383.284" stroke="#CCCCCC" stroke-width="1.611" stroke-linecap="round" stroke-linejoin="round"/>
<path d="M579.587 438.094C576.534 438.058 573.588 436.963 571.253 434.996C568.917 433.029 567.337 430.312 566.782 427.31L554.744 362.223L556.282 361.894C559.264 361.256 562.343 361.212 565.342 361.763C568.341 362.315 571.203 363.452 573.763 365.11C576.322 366.767 578.531 368.913 580.261 371.424C581.992 373.935 583.211 376.762 583.849 379.744L592.655 422.237C593.055 424.167 593.017 426.163 592.544 428.077C592.071 429.991 591.174 431.774 589.921 433.295C588.667 434.817 587.088 436.038 585.3 436.868C583.512 437.699 581.561 438.118 579.589 438.094H579.587Z" fill="#FFEBB1"/>
<path d="M574.381 420.608L595.992 381.133C597.684 378.044 600.533 375.753 603.914 374.764C607.294 373.776 610.929 374.171 614.018 375.862C617.108 377.553 619.398 380.403 620.387 383.783C621.376 387.163 620.981 390.798 619.29 393.888L597.678 433.363C595.987 436.452 593.137 438.743 589.757 439.731C586.376 440.72 582.742 440.325 579.652 438.634C576.563 436.942 574.272 434.093 573.284 430.713C572.295 427.332 572.69 423.697 574.381 420.608Z" fill="#FFEBB1"/>
<path d="M627.941 366.865C626.744 367.999 625.011 369.536 625.011 369.536C622.891 372.766 621.7 374.545 619.669 375.666C618.685 376.216 617.776 378.069 617.447 379.059C617.153 379.824 616.653 380.494 616.004 380.994C615.354 381.494 614.579 381.806 613.764 381.894L613.625 381.914C609.727 382.475 606.512 378.931 608.054 375.74C609.054 373.663 609.018 372.808 608.93 372.294C608.618 370.388 605.942 368.514 606.176 364.964C606.415 361.401 604.742 356.772 604.742 356.772C604.742 356.772 606.28 355.407 607.486 356.971C608.705 358.552 608.722 361.465 609.498 362.025C609.652 362.139 609.819 362.236 609.994 362.313C610.009 362.32 610.022 362.33 610.034 362.341C610.627 362.658 611.319 362.73 611.965 362.543C612.013 362.54 612.059 362.525 612.1 362.501C614.165 361.509 616.241 357.23 616.956 355.246C617.944 352.484 619.551 348.753 621.206 350.041C622.861 351.33 619.514 354.763 617.97 360.949C617.934 361.424 623.338 355.95 625.444 352.372C626.901 349.911 628.873 352.014 628.193 353.262C627.719 354.133 622.294 362.243 621.912 362.998C626.727 359.447 629.154 355.492 630.887 356.18C632.089 356.658 631.679 358.634 630.161 359.784C629.507 360.284 625.573 364.523 624.469 365.569C628.776 363.514 630.126 361.555 631.468 362.234C632.84 362.941 629.449 365.437 627.941 366.865Z" fill="#FF9973"/>
<path d="M602.949 379.371L617.482 385.601C619.521 386.476 621.883 385.531 622.757 383.492L622.857 383.258C623.731 381.219 622.787 378.857 620.748 377.983L606.215 371.752C604.176 370.878 601.814 371.822 600.939 373.861L600.839 374.095C599.965 376.135 600.909 378.496 602.949 379.371Z" fill="#D6C28B"/>
<path d="M613.772 367.911C613.72 365.045 610.447 362.629 610.037 362.342C610.63 362.658 611.322 362.73 611.968 362.543C615.05 365.22 613.772 367.911 613.772 367.911Z" fill="#ED714B"/>
<path d="M516.135 439.442L532.423 362.482L530.282 362.081C512.789 358.804 495.784 369.488 492.301 385.944L482.489 432.32C481.959 434.825 481.995 437.417 482.594 439.907C483.193 442.396 484.341 444.72 485.953 446.709C487.566 448.699 489.602 450.303 491.913 451.405C494.225 452.507 496.753 453.079 499.313 453.079C503.256 453.078 507.078 451.723 510.14 449.24C513.202 446.758 515.319 443.299 516.135 439.442Z" fill="#FFEBB1"/>
<path d="M504.597 483.042H528.977C531.019 480.6 532.28 477.602 532.597 474.435C532.914 471.268 532.272 468.079 530.754 465.282L511.49 429.796C510.495 427.962 509.148 426.343 507.527 425.029C505.906 423.716 504.042 422.735 502.041 422.142C500.041 421.55 497.943 421.357 495.869 421.575C493.794 421.793 491.782 422.417 489.948 423.413C488.115 424.408 486.495 425.755 485.182 427.376C483.869 428.997 482.888 430.861 482.295 432.862C481.702 434.862 481.509 436.96 481.727 439.035C481.945 441.109 482.569 443.121 483.565 444.955L502.829 480.44C503.331 481.363 503.923 482.235 504.597 483.042Z" fill="#FFEBB1"/>
<path d="M555.223 358.67C553.426 354.607 551.432 344.826 551.404 340.407C551.382 337.034 550.076 327.64 538.011 327.717C525.946 327.794 524.916 340.796 524.916 340.796C525.554 346.76 523.52 355.266 521.772 358.894C521.772 358.896 536.973 370.637 555.223 358.67Z" fill="#FF9973" stroke="#ED714B" stroke-width="2.092" stroke-miterlimit="10"/>
<path d="M540.767 346.678C544.854 346.234 548.62 344.255 551.304 341.141C551.611 340.794 551.902 340.436 552.188 340.075C552.178 339.916 552.167 339.758 552.157 339.6C551.913 335.555 550.229 331.607 546.887 329.281C542.172 326 534.646 325.961 530.028 329.435C526.91 331.779 525.037 335.573 524.336 339.414C524.162 340.522 524.1 341.645 524.151 342.766C528.523 346.505 535.423 347.343 540.767 346.678Z" fill="#ED714B"/>
<path d="M573.62 483.266L506.478 483.72C505.393 483.714 504.354 483.276 503.591 482.505C502.828 481.733 502.402 480.689 502.408 479.604L502.324 466.53L577.55 466.022L577.633 479.096C577.653 480.181 577.241 481.23 576.489 482.012C575.736 482.793 574.704 483.245 573.62 483.266Z" fill="#D6C28B"/>
<path d="M577.174 376.594C577.064 372.05 575.031 367.967 571.775 365.941C570.535 365.045 569.224 364.253 567.853 363.574C566.556 363.005 565.302 362.457 564.181 361.833C557.235 357.972 564.608 352.96 558.444 347.941L558.175 347.721L555.868 347.737C551.146 351.529 545.282 353.615 539.226 353.656C533.17 353.697 527.278 351.69 522.505 347.962L520.198 347.977L519.932 348.201C513.831 353.302 521.267 358.215 514.37 362.169C513.258 362.808 512.01 363.374 510.721 363.959C509.362 364.648 508.063 365.45 506.837 366.356C503.6 368.428 501.608 372.542 501.549 377.096L500.285 473.989L579.501 473.455L577.174 376.594Z" fill="#FFEBB1"/>
<path d="M505.077 327.061C505.76 328.522 510.99 335.87 512.768 332.82C513.665 331.282 512.99 327.477 512.845 325.758C512.645 323.341 512.229 320.947 511.601 318.605C511.15 316.924 510.533 315.185 509.208 314.056C506.544 311.787 503.885 313.815 503.263 316.696C502.508 320.215 503.612 323.926 505.077 327.061Z" fill="#FF9973" stroke="#ED714B" stroke-width="2.362" stroke-miterlimit="10"/>
<path d="M572.432 327.367C571.74 328.822 566.439 336.121 564.69 333.058C563.806 331.511 564.515 327.713 564.673 325.996C564.894 323.581 565.332 321.192 565.98 318.856C566.447 317.179 567.08 315.446 568.415 314.328C571.099 312.084 573.74 314.136 574.337 317.02C575.062 320.544 573.926 324.248 572.432 327.367Z" fill="#FF9973" stroke="#ED714B" stroke-width="2.362" stroke-miterlimit="10"/>
<path d="M567.236 317.34C567.272 319.363 567.022 321.393 566.869 323.421C566.403 329.59 565.36 335.715 562.297 341.282C559.319 346.696 554.719 351.774 549.371 354.336C545.088 356.386 540.315 357.19 535.597 356.657C530.879 356.124 526.406 354.274 522.689 351.32C517.217 346.975 513.725 340.452 512.021 333.618C510.431 327.975 509.928 322.081 510.538 316.25C511.802 299.112 514.241 279.274 534.911 276.329C543.184 275.151 552.338 276.04 558.612 281.685C566.546 288.821 567.386 298.894 567.289 308.979C567.262 311.767 567.186 314.554 567.236 317.34Z" fill="#FF9973" stroke="#ED714B" stroke-width="2.362" stroke-miterlimit="10"/>
<path d="M511.577 319.878C512.766 314.3 512.665 308.342 514.784 302.982C515.714 300.631 518.067 298.419 518.048 295.778C518.034 293.903 516.766 292.431 515.886 290.821C515.768 290.729 515.656 290.632 515.534 290.54C514.996 290.123 513.089 291.061 512.606 291.327C511.674 291.84 510.862 292.546 510.222 293.396C508.993 294.961 508.018 296.709 507.332 298.577C506.926 300.13 506.703 301.726 506.665 303.331C506.581 304.67 506.498 306.008 506.415 307.347C506.349 308.992 506.174 310.63 505.892 312.252C506.872 312.951 508.584 313.73 509.194 314.783C509.698 315.648 509.732 317.14 509.874 318.107C509.97 318.766 510.018 319.435 510.059 320.099C510.005 320.721 510.028 321.346 510.129 321.962C510.723 322.414 511.206 321.429 511.576 320.045C511.564 319.99 511.564 319.933 511.577 319.878Z" fill="white"/>
<path d="M563.601 291.093C564.054 290.778 564.524 290.478 564.985 290.181C565.836 290.189 566.67 290.418 567.406 290.845C568.142 291.272 568.755 291.883 569.183 292.618C569.831 293.841 570.263 295.166 570.46 296.536C571.172 300.245 571.561 304.009 571.623 307.786C571.645 309.144 572.001 311.243 571.407 312.456C570.786 313.727 569.297 314.335 568.804 315.775C568.54 316.548 568.326 317.35 568.136 318.145C567.982 318.793 567.871 319.452 567.771 320.113C567.769 320.736 567.689 321.356 567.534 321.959C565.988 322.93 565.889 315.402 565.813 314.484C565.505 310.716 565.139 306.783 563.116 303.589C561.792 301.497 559.732 299.63 559.628 297.157C559.638 295.599 560.254 294.107 561.346 292.997C562.023 292.279 562.779 291.64 563.601 291.093Z" fill="white"/>
<path d="M530.72 305.958C526.982 304.968 523.033 305.133 519.39 306.431" stroke="white" stroke-width="8.746" stroke-linecap="round" stroke-linejoin="round"/>
<path d="M524.994 319.589C524.433 319.599 523.881 319.441 523.41 319.135C522.939 318.83 522.569 318.391 522.348 317.874C522.127 317.358 522.066 316.788 522.17 316.236C522.275 315.684 522.542 315.176 522.937 314.777C523.332 314.377 523.836 314.104 524.387 313.993C524.937 313.882 525.508 313.937 526.027 314.152C526.546 314.366 526.989 314.73 527.3 315.198C527.612 315.666 527.776 316.215 527.774 316.777C527.77 317.516 527.477 318.224 526.957 318.75C526.438 319.276 525.733 319.577 524.994 319.589Z" fill="#383849"/>
<path d="M525.007 321.298C527.091 321.298 528.872 320.08 529.173 316.89" stroke="#ED714B" stroke-width="2.296" stroke-linecap="round" stroke-linejoin="round"/>
<path d="M547.164 306.032C550.911 305.076 554.859 305.277 558.489 306.608" stroke="white" stroke-width="8.746" stroke-linecap="round" stroke-linejoin="round"/>
<path d="M552.766 319.716C552.204 319.725 551.653 319.567 551.182 319.262C550.71 318.956 550.341 318.517 550.12 318.001C549.899 317.484 549.837 316.914 549.942 316.362C550.047 315.811 550.314 315.303 550.709 314.903C551.103 314.504 551.608 314.231 552.158 314.12C552.709 314.008 553.28 314.063 553.799 314.278C554.318 314.493 554.761 314.857 555.072 315.325C555.383 315.792 555.548 316.342 555.545 316.903C555.541 317.642 555.248 318.35 554.729 318.876C554.209 319.402 553.505 319.703 552.766 319.716Z" fill="#383849"/>
<path d="M547.975 317.989C548.108 318.853 548.545 319.641 549.208 320.21C549.871 320.779 550.716 321.093 551.59 321.093" stroke="#ED714B" stroke-width="1.989" stroke-linecap="round" stroke-linejoin="round"/>
<path d="M533.402 310.838L536.416 317.404L532.683 329.611" stroke="#ED714B" stroke-width="1.989" stroke-linecap="round" stroke-linejoin="round"/>
<path d="M531.454 341.493H542.063" stroke="#ED714B" stroke-width="1.989" stroke-linecap="round" stroke-linejoin="round"/>
<path d="M549.588 298.921C551.95 298.115 554.528 298.228 556.81 299.235" stroke="#ED714B" stroke-width="1.989" stroke-linecap="round" stroke-linejoin="round"/>
<path d="M548.323 294.011C551.429 293.216 554.706 293.41 557.698 294.565" stroke="#ED714B" stroke-width="1.989" stroke-linecap="round" stroke-linejoin="round"/>
<path d="M533.765 299.989C535.975 301.002 538.452 301.28 540.832 300.781" stroke="#ED714B" stroke-width="1.989" stroke-linecap="round" stroke-linejoin="round"/>
<path d="M519.193 300.658C520.156 299.967 521.269 299.516 522.442 299.342C523.614 299.168 524.811 299.277 525.933 299.659" stroke="#ED714B" stroke-width="1.989" stroke-linecap="round" stroke-linejoin="round"/>
<path d="M519.713 295.407C521.016 294.818 522.423 294.491 523.853 294.448C525.282 294.404 526.707 294.644 528.043 295.153" stroke="#ED714B" stroke-width="1.989" stroke-linecap="round" stroke-linejoin="round"/>
<path d="M570.914 311.008C567.305 316.06 563.317 322.646 559.708 327.697" stroke="white" stroke-width="1.989" stroke-linecap="round" stroke-linejoin="round"/>
<path d="M566.924 335.529L557.706 347.85" stroke="white" stroke-width="1.989" stroke-linecap="round" stroke-linejoin="round"/>
<path d="M506.694 310.717C510.258 315.802 514.186 322.423 517.748 327.508" stroke="white" stroke-width="1.989" stroke-linecap="round" stroke-linejoin="round"/>
<path d="M510.462 335.273L519.568 347.677" stroke="white" stroke-width="1.989" stroke-linecap="round" stroke-linejoin="round"/>
<path d="M518.794 324.023L558.868 324.205C559.696 324.209 560.488 324.541 561.071 325.129C561.653 325.717 561.979 326.512 561.975 327.34L561.93 337.294C561.905 342.747 559.715 347.968 555.841 351.807C551.967 355.646 546.726 357.789 541.273 357.764L536.084 357.74C530.631 357.716 525.41 355.525 521.571 351.651C517.732 347.777 515.589 342.537 515.614 337.083L515.659 327.13C515.663 326.302 515.995 325.51 516.583 324.927C517.171 324.345 517.967 324.019 518.794 324.023V324.023Z" fill="white"/>
<path d="M524.702 329.695L552.223 329.819" stroke="#CCCCCC" stroke-width="1.989" stroke-linecap="round" stroke-linejoin="round"/>
<path d="M524.676 335.338L552.197 335.462" stroke="#CCCCCC" stroke-width="1.989" stroke-linecap="round" stroke-linejoin="round"/>
<path d="M524.65 340.98L552.171 341.105" stroke="#CCCCCC" stroke-width="1.989" stroke-linecap="round" stroke-linejoin="round"/>
<path d="M524.625 346.623L552.146 346.747" stroke="#CCCCCC" stroke-width="1.989" stroke-linecap="round" stroke-linejoin="round"/>
<path d="M303.579 329.582C303.566 328.382 303.189 327.215 302.498 326.235C300.306 323.205 295.956 323.165 293.14 325.21C291.958 321.679 292.632 317.095 292.217 313.359C291.657 308.311 291.15 303.257 290.698 298.198C290.236 293.056 289.833 287.908 289.489 282.755C289.438 281.991 289.576 279.712 289.412 277.987H227.321C227.159 279.71 227.298 281.986 227.244 282.755C226.313 296.633 224.452 310.385 222.903 324.217C222.267 323.561 221.503 323.041 220.659 322.69C219.815 322.339 218.908 322.164 217.994 322.176C217.08 322.187 216.178 322.386 215.343 322.758C214.509 323.131 213.759 323.67 213.14 324.343C212.521 325.016 212.046 325.808 211.744 326.671C211.442 327.534 211.32 328.449 211.384 329.361C211.448 330.273 211.698 331.162 212.118 331.974C212.539 332.786 213.12 333.503 213.827 334.083C211.01 335.646 208.872 338.199 207.829 341.247C206.785 344.296 206.909 347.623 208.177 350.585C209.445 353.547 211.767 355.934 214.693 357.283C217.619 358.632 220.942 358.848 224.018 357.888C222.459 362.087 225.347 366.619 228.618 369.681C243 383.14 267.61 384.204 279.819 367.418C281.36 369.502 283.572 370.992 286.082 371.639C288.592 372.285 291.248 372.049 293.605 370.969C295.961 369.889 297.875 368.032 299.024 365.708C300.173 363.385 300.488 360.737 299.916 358.209C302.427 357.579 304.662 356.142 306.277 354.118C307.891 352.094 308.796 349.596 308.852 347.008C308.908 344.419 308.113 341.884 306.587 339.792C305.062 337.701 302.891 336.168 300.41 335.43C301.415 334.831 302.241 333.971 302.798 332.942C303.356 331.912 303.626 330.752 303.579 329.582Z" fill="#BD4444"/>
<path d="M219.204 440.349C217.986 440.349 216.78 440.109 215.655 439.643C214.53 439.177 213.508 438.493 212.647 437.632C211.785 436.771 211.102 435.749 210.637 434.623C210.171 433.498 209.931 432.292 209.931 431.074V387.413C209.931 384.954 210.908 382.596 212.647 380.857C214.386 379.118 216.745 378.141 219.204 378.141C220.422 378.141 221.627 378.381 222.752 378.847C223.877 379.313 224.899 379.996 225.76 380.857C226.621 381.718 227.304 382.74 227.77 383.865C228.236 384.99 228.476 386.196 228.476 387.413V431.074C228.476 432.292 228.237 433.498 227.771 434.623C227.305 435.749 226.622 436.771 225.761 437.632C224.9 438.493 223.878 439.177 222.753 439.643C221.628 440.109 220.422 440.349 219.204 440.349Z" fill="#FFAE90"/>
<path d="M233.712 357.438V393.976H207.696V383.454C207.696 376.554 210.437 369.937 215.316 365.058C220.195 360.179 226.812 357.438 233.712 357.438V357.438Z" fill="#FFF9C7"/>
<path d="M296.587 440.349C297.804 440.349 299.01 440.109 300.135 439.643C301.261 439.177 302.283 438.493 303.144 437.632C304.005 436.771 304.688 435.749 305.154 434.623C305.62 433.498 305.86 432.292 305.859 431.074V387.413C305.859 384.954 304.882 382.596 303.143 380.857C301.404 379.118 299.046 378.141 296.587 378.141C294.127 378.141 291.769 379.118 290.03 380.857C288.291 382.596 287.314 384.954 287.314 387.413V431.074C287.314 432.292 287.554 433.498 288.02 434.623C288.485 435.749 289.168 436.771 290.029 437.632C290.89 438.493 291.913 439.177 293.038 439.643C294.163 440.109 295.369 440.349 296.587 440.349Z" fill="#FFAE90"/>
<path d="M308.094 393.976H282.079V357.438C285.495 357.438 288.878 358.111 292.035 359.418C295.191 360.726 298.059 362.642 300.475 365.058C302.891 367.474 304.807 370.342 306.114 373.499C307.422 376.655 308.095 380.038 308.094 383.455V393.976Z" fill="#FFF9C7"/>
<path d="M281.208 358.549L280.664 358.233C278.057 356.643 275.909 354.402 274.432 351.729C272.956 349.056 272.201 346.045 272.244 342.992V326.208H243.601V342.988C243.644 346.041 242.889 349.053 241.413 351.725C239.936 354.398 237.788 356.64 235.18 358.229L233.713 359.084V397.564H281.208V358.549Z" fill="#FFAE90" stroke="#FF906E" stroke-width="2.236" stroke-miterlimit="10"/>
<path d="M258.862 348.264C263.19 348.033 267.399 346.768 271.138 344.576C271.814 344.174 272.463 343.727 273.079 343.238C273.079 343.154 273.071 343.072 273.071 342.988V325.314H242.774V342.988C242.774 343.412 242.755 343.834 242.726 344.25C247.243 347.609 253.892 348.452 258.862 348.264Z" fill="#FF906E"/>
<path d="M258.056 483.801L298.635 484.067C298.635 484.067 288.381 437.504 288.862 426.4C288.975 423.793 290.213 419.863 291.895 415.638C297.603 401.293 298.202 400.718 293.688 385.951C293.669 385.889 293.65 385.827 293.633 385.767C291.609 379.045 287.158 358.445 287.158 358.445C287.158 358.445 284.957 357.551 279.128 353.88C277.786 362.995 267.305 370.509 258.055 370.705C248.805 370.509 238.324 362.995 236.982 353.88C231.153 357.551 228.952 358.445 228.952 358.445C228.952 358.445 224.502 379.045 222.478 385.767C222.46 385.827 222.442 385.889 222.423 385.951C217.907 400.718 218.507 401.294 224.215 415.638C225.897 419.868 227.138 423.79 227.249 426.4C227.729 437.504 217.476 484.067 217.476 484.067L258.056 483.801Z" fill="#FFF9C7"/>
<path d="M246.335 419.451C250.014 417.799 254.011 416.973 258.044 417.031C262.076 417.09 266.047 418.031 269.677 419.788" stroke="#383849" stroke-width="1.89" stroke-linecap="round" stroke-linejoin="round"/>
<path d="M299.233 422.23L241.957 404.643L241.915 404.631C240.073 404.052 238.109 403.976 236.227 404.412C234.346 404.847 232.615 405.779 231.215 407.109L216.838 422.471L219.376 428.47L237.874 422.79L293.787 439.957C294.951 440.314 296.174 440.439 297.386 440.324C298.598 440.208 299.776 439.855 300.852 439.285C301.928 438.715 302.881 437.938 303.656 437C304.432 436.061 305.015 434.979 305.373 433.815" fill="#FFAE90"/>
<path d="M216.838 422.23L274.115 404.645L274.157 404.633C275.999 404.053 277.963 403.978 279.844 404.413C281.726 404.849 283.456 405.78 284.856 407.111L299.233 422.472L297.166 420.87L278.668 415.191L222.281 439.955C221.117 440.313 219.894 440.437 218.682 440.322C217.47 440.207 216.292 439.854 215.216 439.284C214.141 438.713 213.188 437.937 212.412 436.998C211.636 436.06 211.053 434.977 210.696 433.813" fill="#FFAE90"/>
<path d="M224.203 314.404C224.886 315.865 230.117 323.212 231.894 320.163C232.792 318.625 232.117 314.819 231.971 313.1C231.772 310.684 231.355 308.29 230.727 305.948C230.275 304.267 229.658 302.527 228.333 301.399C225.67 299.129 223.01 301.157 222.389 304.038C221.635 307.559 222.739 311.271 224.203 314.404Z" fill="#FFAE90" stroke="#FF906E" stroke-width="2.362" stroke-miterlimit="10"/>
<path d="M291.559 314.712C290.867 316.167 285.565 323.467 283.816 320.403C282.933 318.855 283.642 315.058 283.8 313.34C284.021 310.926 284.458 308.537 285.107 306.202C285.574 304.524 286.207 302.791 287.542 301.674C290.226 299.429 292.867 301.481 293.464 304.366C294.189 307.889 293.052 311.589 291.559 314.712Z" fill="#FFAE90" stroke="#FF906E" stroke-width="2.362" stroke-miterlimit="10"/>
<path d="M286.507 303.302C286.55 305.26 286.307 307.224 286.16 309.187C285.716 315.155 284.693 321.08 281.65 326.458C278.691 331.688 274.113 336.587 268.773 339.049C264.472 341.019 259.715 341.78 255.014 341.25C250.313 340.721 245.845 338.921 242.09 336.043C236.605 331.818 233.092 325.493 231.366 318.874C229.76 313.423 229.238 307.711 229.828 302.059C229.828 302.059 231.578 284.524 235.303 276.995C239.027 269.467 245.657 258.256 257.02 258.731C275.501 259.504 287.746 268.556 286.507 303.302Z" fill="#FFAE90" stroke="#FF906E" stroke-width="2.324" stroke-miterlimit="10"/>
<path d="M289.294 278.761C286.987 265.575 277.604 255.775 265.389 253.792C253.762 251.906 239.701 253.036 232.8 263.944C227.12 272.922 226.71 284.376 226.109 294.664C226.047 295.694 225.603 297.376 225.871 298.361C226.183 299.514 226.651 299.237 227.239 300.249C228.065 301.672 228.474 303.989 228.986 305.585C230.379 309.924 231.666 315.053 231.406 319.65C231.839 311.977 231.483 303.759 232.726 296.181C233.654 290.529 239.546 287.792 243.923 285.016C250.621 280.754 256.116 274.847 259.883 267.858C261.323 273.893 264.35 279.435 268.65 283.909C272.949 288.383 278.366 291.627 284.34 293.306C284.723 301.684 285.108 310.061 285.493 318.438C285.587 314.923 286.005 311.424 286.742 307.986C287.442 304.708 288.972 301.818 289.977 298.927C290.982 296.037 290.339 291.35 290.251 288.292C290.162 285.096 289.842 281.911 289.294 278.761Z" fill="#BD4444"/>
<path d="M249.846 293.302C246.108 292.312 242.159 292.477 238.517 293.775" stroke="#BD4444" stroke-width="2.915" stroke-miterlimit="10"/>
<path d="M266.292 293.376C270.038 292.421 273.986 292.621 277.616 293.952" stroke="#BD4444" stroke-width="2.915" stroke-miterlimit="10"/>
<path d="M271.889 307.943C271.152 307.956 270.429 307.748 269.811 307.348C269.193 306.948 268.708 306.372 268.418 305.695C268.129 305.018 268.047 304.27 268.184 303.546C268.322 302.823 268.671 302.156 269.189 301.632C269.706 301.108 270.368 300.75 271.09 300.604C271.811 300.457 272.56 300.529 273.241 300.81C273.922 301.091 274.503 301.569 274.912 302.182C275.32 302.795 275.537 303.515 275.534 304.252C275.529 305.221 275.145 306.151 274.464 306.841C273.783 307.531 272.858 307.927 271.889 307.943Z" fill="#383849"/>
<path d="M243.666 307.789C242.935 307.802 242.217 307.596 241.604 307.198C240.99 306.8 240.509 306.229 240.221 305.557C239.934 304.885 239.853 304.142 239.989 303.424C240.126 302.705 240.473 302.044 240.987 301.524C241.501 301.003 242.158 300.648 242.874 300.503C243.591 300.358 244.335 300.429 245.01 300.709C245.686 300.988 246.263 301.462 246.669 302.071C247.074 302.679 247.288 303.395 247.285 304.126C247.28 305.089 246.899 306.011 246.222 306.695C245.546 307.38 244.629 307.773 243.666 307.789Z" fill="#383849"/>
<path d="M252.532 298.182L255.546 304.748L254.038 317.609" stroke="#ED714B" stroke-width="1.989" stroke-linecap="round" stroke-linejoin="round"/>
<path d="M290.149 297.666C286.539 302.718 282.551 309.304 278.942 314.355" stroke="white" stroke-width="1.989" stroke-linecap="round" stroke-linejoin="round"/>
<path d="M286.159 322.187L276.94 334.508" stroke="white" stroke-width="1.989" stroke-linecap="round" stroke-linejoin="round"/>
<path d="M225.928 297.375C229.491 302.46 233.42 309.081 236.983 314.166" stroke="white" stroke-width="1.989" stroke-linecap="round" stroke-linejoin="round"/>
<path d="M229.696 321.931L238.802 334.335" stroke="white" stroke-width="1.989" stroke-linecap="round" stroke-linejoin="round"/>
<path d="M238.028 310.681L278.103 310.863C278.93 310.867 279.722 311.199 280.305 311.787C280.887 312.374 281.212 313.17 281.209 313.997L281.164 323.951C281.139 329.405 278.949 334.626 275.075 338.465C271.201 342.304 265.96 344.446 260.507 344.422L255.318 344.398C249.865 344.373 244.644 342.183 240.805 338.309C236.966 334.435 234.823 329.195 234.848 323.741L234.893 313.788C234.897 312.96 235.229 312.168 235.817 311.585C236.405 311.002 237.201 310.677 238.028 310.681V310.681Z" fill="white"/>
<path d="M243.936 316.353L271.457 316.478" stroke="#CCCCCC" stroke-width="1.989" stroke-linecap="round" stroke-linejoin="round"/>
<path d="M243.91 321.996L271.431 322.12" stroke="#CCCCCC" stroke-width="1.989" stroke-linecap="round" stroke-linejoin="round"/>
<path d="M243.884 327.637L271.405 327.762" stroke="#CCCCCC" stroke-width="1.989" stroke-linecap="round" stroke-linejoin="round"/>
<path d="M243.859 333.28L271.38 333.405" stroke="#CCCCCC" stroke-width="1.989" stroke-linecap="round" stroke-linejoin="round"/>
<defs>
<linearGradient id="paint0_linear" x1="339.529" y1="270.647" x2="315.133" y2="297.753" gradientUnits="userSpaceOnUse">
<stop stop-color="white"/>
<stop offset="1" stop-color="white" stop-opacity="0"/>
</linearGradient>
<linearGradient id="paint1_linear" x1="336.057" y1="267.197" x2="314.84" y2="296.401" gradientUnits="userSpaceOnUse">
<stop stop-color="white"/>
<stop offset="1" stop-color="white" stop-opacity="0"/>
</linearGradient>
<linearGradient id="paint2_linear" x1="370.28" y1="270.648" x2="345.883" y2="297.754" gradientUnits="userSpaceOnUse">
<stop stop-color="white"/>
<stop offset="1" stop-color="white" stop-opacity="0"/>
</linearGradient>
<linearGradient id="paint3_linear" x1="366.807" y1="267.197" x2="345.589" y2="296.398" gradientUnits="userSpaceOnUse">
<stop stop-color="white"/>
<stop offset="1" stop-color="white" stop-opacity="0"/>
</linearGradient>
</defs>
</svg>
