<svg width="49" height="62" viewBox="0 0 49 62" fill="none" xmlns="http://www.w3.org/2000/svg">
<path d="M47.5517 12.5234L24.3048 0.136292C23.9599 -0.0477713 23.5466 -0.0451881 23.2043 0.142751L0.600629 12.5299C0.229918 12.7333 0 13.1221 0 13.5452V29.726C0.0135626 43.027 7.89407 55.0602 20.081 60.389L23.2185 61.7563C23.5117 61.8841 23.8456 61.8848 24.1395 61.7575L27.6748 60.2308C40.0878 55.0176 48.1633 42.8681 48.1646 29.405V13.5452C48.1646 13.1176 47.9289 12.7243 47.5517 12.5234V12.5234ZM45.8499 29.405C45.8473 41.94 38.3266 53.2506 26.7687 58.1015L26.7609 58.1053L23.6822 59.4345L21.0071 58.2674C9.66301 53.3074 2.32695 42.1073 2.31403 29.726V14.2304L23.7681 2.47229L45.8499 14.2388V29.405Z" fill="#14649C"/>
<path d="M15.2295 28.9755C14.8142 28.4892 14.0838 28.4317 13.5975 28.847C13.1112 29.2616 13.0537 29.9927 13.469 30.4783L19.5824 37.6374C19.9906 38.1154 20.7056 38.1806 21.1925 37.784L35.4306 26.2003C35.9267 25.7973 36.0016 25.0682 35.5979 24.5722C35.1949 24.0768 34.4658 24.0012 33.9698 24.4049L20.6087 35.2743L15.2295 28.9755Z" fill="#14649C"/>
</svg>
