<svg width="39" height="39" viewBox="0 0 39 39" fill="none" xmlns="http://www.w3.org/2000/svg">
<path d="M27.2636 8.7114L25.7506 10.2244L23.3716 7.84543L23.3009 7.77472L23.2302 7.84543L7.99024 23.0854L6.22367 21.3188L6.15296 21.2481L6.08225 21.3188L3.379 24.0221L3.30829 24.0928L3.379 24.1635L6.98285 27.7673L4.31568 30.4345L3.77396 29.8928L3.70325 29.8221L3.63254 29.8928L0.929289 32.596L0.858579 32.6668L0.929289 32.7375L6.08225 37.8904L6.15296 37.9611L6.22367 37.8904L8.92692 35.1872L8.99763 35.1165L8.92692 35.0458L8.38521 34.504L11.0524 31.8369L14.6562 35.4407L14.7269 35.5114L14.7976 35.4407L17.5009 32.7375L17.5716 32.6668L17.5009 32.596L15.7343 30.8295L30.9743 15.5895L31.045 15.5188L30.9743 15.4481L28.5953 13.0691L30.1083 11.5561L30.1376 11.5268V11.4854V9.6895L37.8904 1.93668L37.9611 1.86597L37.8904 1.79526L37.0245 0.92929L36.9537 0.858578L36.883 0.929289L29.1302 8.68211H27.3344H27.2929L27.2636 8.7114ZM14.7269 29.8221L8.99763 24.0928L11.0524 22.038L13.6108 24.5965L13.6815 24.6672L13.7522 24.5965L14.6182 23.7305L14.6889 23.6598L14.6182 23.5891L12.0598 21.0306L14.1145 18.9759L17.8978 22.7592L17.9685 22.8299L18.0392 22.7592L18.9052 21.8932L18.9759 21.8225L18.9052 21.7518L15.1219 17.9685L17.1766 15.9138L19.7351 18.4722L19.8058 18.5429L19.8765 18.4722L20.7425 17.6062L20.8132 17.5355L20.7425 17.4648L18.184 14.9064L20.2388 12.8516L24.0221 16.6349L24.0928 16.7056L24.1635 16.6349L25.0295 15.769L25.1002 15.6982L25.0295 15.6275L21.2462 11.8442L23.3009 9.7895L24.8139 11.3025L27.5172 14.0058L29.0302 15.5188L14.7269 29.8221ZM27.8829 10.107H28.7128V10.9369L27.5879 12.0617L26.758 11.2318L27.8829 10.107ZM6.15296 35.9464L2.87337 32.6668L3.70325 31.8369L6.98285 35.1165L6.15296 35.9464ZM7.37781 33.4967L5.32307 31.4419L7.99024 28.7747L10.045 30.8295L7.37781 33.4967ZM15.5568 32.6668L14.7269 33.4966L11.9891 30.7588L8.06095 26.8307L5.32307 24.0928L6.15296 23.2629L7.05356 24.1635L14.6562 31.7662L15.5568 32.6668Z" fill="#CFD0D1" stroke="#CFD0D1" stroke-width="0.2"/>
<path d="M37.3541 8.96628L37.3834 8.99553C37.8425 9.45417 38.1003 10.0766 38.1001 10.7256C38.0996 12.0756 37.0048 13.1696 35.6549 13.1691L37.3541 8.96628ZM37.3541 8.96628H37.3535M37.3541 8.96628H37.3535M37.3535 8.96628L35.6203 7.233L35.5495 7.16229L35.4788 7.233L33.7163 8.99553C33.7163 8.99554 33.7163 8.99555 33.7163 8.99556C32.7613 9.94972 32.7607 11.4974 33.7148 12.4524L33.7855 12.3817L33.7148 12.4524C34.1735 12.9115 34.7959 13.1693 35.4448 13.1691C35.4448 13.1691 35.4448 13.1691 35.4449 13.1691H35.6548L37.3535 8.96628ZM34.4245 10.7237V10.7237C34.4243 11.2871 34.8808 11.7439 35.4442 11.7442L34.4245 10.7237ZM34.4245 10.7237C34.4245 10.4533 34.532 10.194 34.7231 10.0029M34.4245 10.7237L34.7231 10.0029M35.6543 11.7442C35.9246 11.7441 36.1838 11.6367 36.3751 11.4456L35.6543 11.7442ZM35.6543 11.7442C35.6543 11.7442 35.6542 11.7442 35.6542 11.7442M35.6543 11.7442H35.6542M35.6542 11.7442H35.4442H35.6542ZM34.7231 10.0029L35.5495 9.17697L36.3754 10.0029C36.3754 10.0029 36.3754 10.0029 36.3754 10.0029C36.7737 10.4014 36.7736 11.0473 36.3751 11.4456L34.7231 10.0029Z" fill="#CFD0D1" stroke="#CFD0D1" stroke-width="0.2"/>
</svg>
