<svg width="22" height="21" viewBox="0 0 22 21" fill="none" xmlns="http://www.w3.org/2000/svg">
<path fill-rule="evenodd" clip-rule="evenodd" d="M11 0C17.0711 0 22 4.7049 22 10.5C22 16.2951 17.0711 21 11 21C4.92895 21 0 16.2951 0 10.5C0 4.7049 4.92895 0 11 0ZM8.987 16.0387C13.8655 16.0387 16.533 12.18 16.533 8.83575C16.533 8.7255 16.533 8.61525 16.5275 8.51025C17.0445 8.15325 17.4955 7.707 17.853 7.19775C17.38 7.39725 16.8685 7.53375 16.3295 7.59675C16.8795 7.28175 17.2975 6.78825 17.4955 6.195C16.984 6.48375 16.4175 6.69375 15.8125 6.80925C15.3285 6.31575 14.641 6.01125 13.8765 6.01125C12.4135 6.01125 11.2255 7.14525 11.2255 8.54175C11.2255 8.74125 11.2475 8.9355 11.297 9.11925C9.0915 9.01425 7.139 8.00625 5.83 6.47325C5.6045 6.846 5.4725 7.28175 5.4725 7.74375C5.4725 8.6205 5.94 9.3975 6.655 9.849C6.2205 9.8385 5.8135 9.723 5.456 9.534V9.5655C5.456 10.794 6.369 11.8125 7.5845 12.0487C7.3645 12.1065 7.128 12.138 6.886 12.138C6.7155 12.138 6.5505 12.1222 6.3855 12.0907C6.721 13.0988 7.7 13.8285 8.8605 13.8495C7.953 14.5267 6.809 14.931 5.566 14.931C5.3515 14.931 5.1425 14.9205 4.9335 14.8942C6.094 15.6187 7.491 16.0387 8.987 16.0387Z" fill="white"/>
</svg>
