
<svg width="19" height="19" viewBox="0 0 19 19" fill="none" xmlns="http://www.w3.org/2000/svg">
<path d="M16.6242 16.0313C16.6242 16.1888 16.5616 16.3398 16.4503 16.4512C16.3389 16.5625 16.1879 16.6251 16.0305 16.6251H2.9686C2.81114 16.6251 2.66012 16.5625 2.54878 16.4512C2.43744 16.3398 2.37488 16.1888 2.37488 16.0313V13.0627H0V16.0313C0 16.4212 0.076785 16.8072 0.225971 17.1674C0.375158 17.5276 0.593824 17.8548 0.869484 18.1305C1.14514 18.4061 1.4724 18.6248 1.83257 18.774C2.19274 18.9232 2.57876 19 2.9686 19H16.0305C16.4203 19 16.8063 18.9232 17.1665 18.774C17.5267 18.6248 17.8539 18.4061 18.1296 18.1305C18.4052 17.8548 18.6239 17.5276 18.7731 17.1674C18.9223 16.8072 18.9991 16.4212 18.9991 16.0313V13.0627H16.6242V16.0313Z" fill="#14649C"/>
<path d="M10.6868 14.2502V4.05605L13.0617 6.43093L14.7419 4.7507L10.3395 0.348261C10.2292 0.237857 10.0983 0.150273 9.95411 0.0905153C9.80996 0.0307582 9.65544 0 9.49939 0C9.34334 0 9.18882 0.0307582 9.04467 0.0905153C8.90052 0.150273 8.76956 0.237857 8.65928 0.348261L4.25684 4.7507L5.93707 6.43093L8.31195 4.05605V14.2502H10.6868Z" fill="#14649C"/>
</svg>
