<svg width="342" height="312" viewBox="0 0 342 312" fill="none" xmlns="http://www.w3.org/2000/svg">
<path d="M136.095 228.929H198.117V147.748H136.095V228.929Z" fill="#DBDBDB"/>
<path d="M144.159 228.929H206.181V147.748H144.159V228.929Z" fill="#DBDBDB"/>
<path d="M202.541 156.856H183.875V174.635H202.541V156.856Z" fill="white"/>
<path d="M202.541 179.242H183.875V197.021H202.541V179.242Z" fill="white"/>
<path d="M183.871 201.628V216.308H145.657V219.407H202.541V201.628H183.871Z" fill="white"/>
<path d="M136.095 152.965H198.117V71.7839L136.095 71.7839V152.965Z" fill="#DBDBDB"/>
<path d="M144.159 152.965H206.181V71.7839L144.159 71.7839V152.965Z" fill="#DBDBDB"/>
<path d="M202.541 80.8917H183.875V98.6712H202.541V80.8917Z" fill="white"/>
<path d="M202.541 103.278H183.875V121.058H202.541V103.278Z" fill="white"/>
<path d="M183.871 125.665V140.344H145.657V143.443H202.541V125.665H183.871Z" fill="white"/>
<path d="M188.482 228.75C188.482 229.703 188.765 230.635 189.294 231.427C189.824 232.219 190.576 232.836 191.456 233.201C192.337 233.566 193.305 233.661 194.24 233.475C195.174 233.289 196.032 232.831 196.706 232.157C197.38 231.483 197.839 230.625 198.025 229.69C198.21 228.756 198.115 227.787 197.75 226.907C197.386 226.027 196.768 225.274 195.976 224.745C195.184 224.216 194.253 223.933 193.3 223.933C192.667 223.933 192.041 224.058 191.456 224.3C190.872 224.542 190.341 224.896 189.893 225.344C189.446 225.791 189.091 226.322 188.849 226.907C188.607 227.491 188.482 228.118 188.482 228.75Z" fill="#DBDBDB"/>
<path d="M145.761 228.75C145.761 229.703 146.043 230.635 146.572 231.428C147.102 232.22 147.854 232.838 148.735 233.202C149.615 233.567 150.584 233.663 151.518 233.477C152.453 233.291 153.312 232.832 153.986 232.159C154.66 231.485 155.118 230.626 155.304 229.692C155.49 228.757 155.395 227.788 155.03 226.908C154.666 226.027 154.048 225.275 153.256 224.745C152.463 224.216 151.532 223.933 150.579 223.933C149.946 223.933 149.32 224.058 148.735 224.3C148.151 224.542 147.619 224.896 147.172 225.344C146.725 225.791 146.37 226.322 146.128 226.907C145.885 227.491 145.761 228.118 145.761 228.75Z" fill="#DBDBDB"/>
<path d="M75.3782 180.005H30.6478C29.9308 180.005 29.2432 180.289 28.7362 180.796C28.2292 181.303 27.9443 181.991 27.9443 182.708C27.9443 183.425 28.2292 184.113 28.7362 184.62C29.2432 185.127 29.9308 185.412 30.6478 185.412H31.4218C32.6076 198.283 33.7936 211.155 34.9799 224.027C35.0815 225.165 35.5121 226.249 36.2192 227.147C36.9263 228.045 37.8794 228.718 38.9622 229.083C48.0555 232.134 57.8946 232.142 66.9929 229.106C68.0893 228.746 69.0568 228.074 69.7768 227.172C70.4968 226.271 70.9379 225.178 71.0461 224.029L74.6043 185.413H75.3782C76.0952 185.413 76.7829 185.128 77.2899 184.621C77.7969 184.114 78.0817 183.427 78.0817 182.71C78.0817 181.993 77.7969 181.305 77.2899 180.798C76.7829 180.291 76.0952 180.006 75.3782 180.006V180.005Z" fill="#DBDBDB"/>
<path d="M72.9462 137.378C88.1966 131.871 98.4038 144.978 98.4038 144.978C98.4038 144.978 96.7295 113.193 76.8835 118.18C63.7045 121.491 55.1765 131.454 52.2267 145.745C51.819 140.48 51.2856 135.031 50.5908 129.549L51.0923 127.29C56.7497 118.656 75.5803 104.324 73.5195 84.2735C73.5195 84.2735 52.7617 97.7803 49.7997 123.784C48.9842 118.272 47.99 112.781 46.7863 107.457C46.8173 66.7844 14.2335 45.6099 14.2335 45.6099C11.6637 70.6272 33.1416 89.0525 42.4786 100.919C44.7145 109.424 46.4099 118.061 47.5545 126.779C43.9148 113.194 35.1788 104.718 22.9148 103.868C6.77868 102.75 9.89973 127.715 9.89973 127.715C9.89973 127.715 16.0162 116.096 28.6505 118.255C39.8192 120.166 47.4771 136.533 49.1057 140.307C50.1585 151.584 50.6103 162.298 50.7759 171.041C47.8922 163.379 39.9293 147.15 22.5862 140.758C-0.481195 132.255 2.30304 169.923 2.30304 169.923C8.9673 164.645 17.2715 161.872 25.77 162.085C38.8585 162.535 47.5121 170.206 50.8207 173.698C50.9659 184.703 50.6682 191.985 50.6576 192.239C50.6502 192.406 50.6756 192.572 50.7324 192.729C50.7892 192.885 50.8763 193.029 50.9887 193.152C51.1011 193.275 51.2366 193.374 51.3874 193.444C51.5383 193.515 51.7015 193.555 51.8679 193.562H51.925C52.2514 193.562 52.5651 193.436 52.8008 193.21C53.0366 192.984 53.1762 192.676 53.1907 192.35C53.2298 191.461 53.4631 185.799 53.4427 177.279C56.5768 171.458 61.7524 167.003 67.9739 164.769C74.1954 162.535 81.0232 162.68 87.1438 165.178C87.1438 165.178 80.9457 137.258 66.0737 148.455C58.3261 154.291 54.8756 162.564 53.3513 169.159C53.3301 168.126 53.3057 167.072 53.2755 165.992C55.5574 157.963 61.5328 141.498 72.9462 137.378Z" fill="#DBDBDB"/>
<path d="M338.987 262.945C322.676 304.211 239.872 308.381 173.481 311.722C173.481 311.722 62.1456 317.325 11.5051 278.164C8.97042 276.207 2.07509 270.872 0.280099 262.163C0.280099 262.163 -1.51407 253.444 3.97936 243.539C16.1479 221.607 110.188 228.155 171.301 230.097C274.241 233.368 333.383 225.15 340.773 248.216C342.546 253.741 340.625 258.807 338.987 262.945Z" fill="#F0F0F0"/>
<g style="mix-blend-mode:multiply">
<g style="mix-blend-mode:multiply">
<path d="M334.623 240.232C334.258 239.979 333.877 239.732 333.481 239.492L336.116 245.461H276.25L273.036 231.243L272.271 231.232L275.487 245.461H215.584L215.43 230.945L214.685 230.938L214.838 245.462H154.933L158.177 229.641L157.423 229.613L154.173 245.464H94.2992L101.721 227.816L100.919 227.803L93.4926 245.464H33.6798L43.9261 229.351L42.9818 229.448L32.7957 245.462H2.99861C2.8355 245.802 2.70094 246.136 2.55659 246.471H57.3914L45.85 267.577H2.19775C2.37228 267.922 2.55251 268.259 2.73845 268.587H18.0868L11.8382 278.411C12.0347 278.561 12.2378 278.708 12.4368 278.857L18.9708 268.587H83.7682L73.3082 293.46H39.0974C39.9496 293.804 40.81 294.138 41.6736 294.47H102.4L97.9144 308.008L98.6647 308.111L103.183 294.471H173.637L171.632 311.798C171.917 311.789 172.164 311.78 172.384 311.771L174.386 294.471H244.858L246.04 306.308L246.779 306.216L245.607 294.472H300.234C301.128 294.143 302.012 293.806 302.886 293.463H287.101L281.478 268.589H336.213C336.41 268.257 336.592 267.917 336.78 267.579H308.364L301.706 246.473H340.08C339.917 246.128 339.742 245.792 339.555 245.464H336.933L334.623 240.232ZM112.092 267.577L119.083 246.47H179.188L176.746 267.577H112.092ZM215.082 268.587L215.344 293.46H145.094L150.193 268.587H215.082ZM177.498 267.577L179.941 246.47H240.067L242.174 267.577H177.498ZM58.2404 246.47H118.303L111.311 267.577H46.699L58.2404 246.47ZM84.5739 268.587H149.432L144.333 293.46H74.1156L84.5739 268.587ZM286.337 293.46H216.089L215.827 268.587H280.715L286.337 293.46ZM307.581 267.578H242.923L240.815 246.471H300.926L307.581 267.578Z" fill="#DBDBDB"/>
</g>
</g>
<path d="M261.256 120.847C261.256 120.847 267.712 178.874 272.495 195.387C275.208 204.758 287.698 193.368 286.542 188.442C285.387 183.516 287.943 117.141 283.559 114.342C281.765 113.2 279.77 113.214 277.774 113.255C269.764 113.42 263.826 118.37 261.256 120.847Z" fill="#FF8B6A"/>
<path d="M289.366 199.622C288.111 191.635 285.755 184.237 283.13 181.259C280.822 178.641 272.492 179.017 272.096 183.308C270.547 192.72 280.707 232.666 281.488 240.903C281.875 244.98 281.193 246.398 284.268 246.962C285.138 247.139 286.037 247.116 286.897 246.895C287.758 246.673 288.556 246.26 289.234 245.686C290.539 243.516 289.646 240.717 289.685 237.487C289.725 234.258 290.625 207.609 289.366 199.622Z" fill="#FF8B6A"/>
<path d="M291.977 254.106C291.382 261.216 288.096 266.447 284.609 266.454C279.02 266.466 279.937 258.788 280.532 251.675C281.126 244.562 283.288 240.416 286.762 240.707C290.236 240.998 292.57 246.997 291.977 254.106Z" fill="#08051A"/>
<path d="M281.586 242.201C281.898 246.931 280.752 253.554 280.911 255.437C281.252 259.468 288.627 259.649 290.44 254.785C291.02 253.229 291.068 246.599 289.699 241.445C288.33 236.291 281.586 242.201 281.586 242.201Z" fill="#FF8B6A"/>
<path d="M260.94 115.222C260.94 115.222 259.093 173.577 255.632 190.419C253.668 199.975 240.316 189.608 241.079 184.606C241.841 179.605 235.924 113.956 240.073 110.818C241.769 109.536 241.881 109.079 243.873 108.962C251.87 108.489 258.181 112.956 260.94 115.222Z" fill="#FF8B6A"/>
<path d="M239.146 195.973C239.766 187.911 241.529 180.35 243.911 177.174C246.003 174.381 254.337 174.098 255.072 178.344C257.365 187.604 250.391 228.228 250.261 236.501C250.198 240.6 250.989 241.956 247.969 242.761C247.115 243.006 246.217 243.055 245.342 242.902C244.467 242.75 243.638 242.401 242.918 241.882C241.45 239.822 242.113 236.961 241.818 233.745C241.523 230.528 238.526 204.034 239.146 195.973Z" fill="#FF8B6A"/>
<path d="M240.853 250.493C242.007 257.533 245.697 262.488 249.172 262.219C254.744 261.789 253.222 254.205 252.068 247.164C250.913 240.124 248.429 236.155 244.989 236.726C241.55 237.296 239.697 243.452 240.853 250.493Z" fill="#08051A"/>
<path d="M249.119 235.784C249.743 236.226 250.249 237.911 250.292 238.675C250.543 243.16 251.998 249.202 251.989 250.944C251.967 254.99 244.629 255.755 242.438 251.046C241.737 249.541 241.164 242.936 242.122 237.689C242.857 233.666 247.065 234.326 249.119 235.784Z" fill="#FF8B6A"/>
<path d="M212.776 53.2029C213.372 54.3715 224.301 75.4 230.815 84.2135C231.676 85.3775 232.954 86.1626 234.381 86.4038C235.808 86.645 237.273 86.3235 238.468 85.507C239.079 85.0902 239.6 84.5566 240.004 83.937C240.407 83.3174 240.683 82.624 240.816 81.897C240.95 81.17 240.938 80.4237 240.781 79.7014C240.624 78.979 240.326 78.2948 239.903 77.6884L218.607 50.1234L212.776 53.2029Z" fill="#FF8B6A"/>
<path d="M276.992 8.12902C279.48 12.6145 288.803 16.14 291.712 20.4493C294.474 24.5408 288.227 26.4956 289.934 29.9975C291.823 33.8705 297.447 35.7185 297.744 40.606C298.542 53.7271 267.878 49.1291 267.878 49.1291C267.878 49.1291 243.173 44.7872 245.054 38.661C245.689 36.5928 247.085 34.9038 248.248 33.1153C249.716 30.8547 249.591 29.16 247.527 27.5942C246.048 26.472 244.291 25.561 245.149 23.3877C246.795 19.2154 250.911 4.43874 259.461 1.61292" fill="#08051A"/>
<path d="M249.279 40.093C243.546 43.966 240.395 50.067 234.943 70.3428L224.036 55.841C224.036 55.841 218.735 56.4469 216.295 61.2936C216.295 61.2936 229.54 85.8926 232.787 87.2276C236.034 88.5626 244.391 92.2765 253.602 56.853" fill="#14649C"/>
<path d="M245.84 44.0148C246.292 39.3427 258.693 35.7298 269.186 36.7444C279.679 37.7589 286.523 41.6914 286.068 46.3677C282.914 54.3059 280.921 62.6576 280.152 71.1648C279.432 79.3152 280.029 85.8623 280.59 92.0008C281.172 98.396 282.144 104.75 283.501 111.026C276.674 114.989 269.024 117.324 261.147 117.848C253.27 118.372 245.379 117.072 238.086 114.049C241.007 106.944 243.278 99.5899 244.872 92.0758C248.189 76.2561 248.517 59.9554 245.84 44.0148Z" fill="#14649C"/>
<path d="M281.516 99.8855C284.735 111.659 292.641 143.761 292.257 175.414C292.231 177.231 291.591 178.986 290.44 180.393C289.289 181.8 287.696 182.775 285.92 183.161C276.174 185.298 256.533 188.377 239.474 183.445C237.907 182.992 236.514 182.073 235.48 180.811C234.446 179.549 233.82 178.003 233.684 176.377C232.565 163.056 230.961 127.093 242.89 100.471" fill="#14649C"/>
<path d="M259.11 58.587C256.438 67.0686 257.138 76.2393 258.718 84.9867C260.299 93.7341 262.735 102.352 263.484 111.209C265.555 135.709 254.633 159.597 254.354 184.182" stroke="#08051A" stroke-width="0.751" stroke-linecap="round" stroke-linejoin="round"/>
<path d="M259.46 1.61877C259.46 1.61877 250.71 5.43384 255.464 13.5027C256.488 15.2374 263.799 6.54867 263.204 6.47119C262.608 6.39372 259.46 1.61877 259.46 1.61877Z" fill="#08051A"/>
<path d="M268.124 36.6583C270.774 36.9258 277.199 41.1788 259.017 56.8509C259.017 56.8509 256.465 38.4378 264 36.6583" fill="#FF8B6A"/>
<path d="M262.309 38.0479L268.267 39.8331L272.52 25.6428L265.866 26.1811L262.309 38.0479Z" fill="#FF8B6A"/>
<path d="M262.725 36.6581L265.09 26.2437L271.844 25.9077C269.984 29.6673 266.441 34.8044 262.725 36.6581Z" fill="#08051A"/>
<path d="M272.409 26.3466C272.409 26.3466 271.626 27.1785 270.353 28.312C266.833 31.4421 260.385 34.2459 255.482 30.7978C248.805 26.1019 253.273 7.70678 257.158 5.06935C266.151 -1.03655 280.364 8.78817 272.409 26.3466Z" fill="#FF8B6A"/>
<path d="M276.713 23.5322C275.61 23.8869 272.503 25.1934 271.37 24.2172C271.051 23.9432 271.175 23.767 271.181 23.3903C271.205 22.7016 271.144 22.0125 270.997 21.3392C270.617 19.7971 269.758 18.4151 268.543 17.392C266.648 15.7675 264.189 15.0392 262.251 13.4775C260.822 12.2898 259.72 10.758 259.048 9.02627C258.179 7.12932 258.07 4.9716 258.744 2.99704C260.538 -1.45006 265.87 -0.0204375 269.281 1.41735C270.524 1.94092 276.48 4.64279 278.393 11.4566C278.93 13.48 279.058 15.5901 278.769 17.6636C278.481 19.7371 277.782 21.7322 276.713 23.5322Z" fill="#08051A"/>
<path d="M258.551 16.6034C258.551 16.6034 258.324 19.1625 257.773 19.2C257.223 19.2376 256.24 18.471 256.104 18.7001C255.968 18.9293 256.469 19.9544 257.298 20.3377" stroke="#08051A" stroke-width="0.751" stroke-linecap="round" stroke-linejoin="round"/>
<path d="M270.494 24.0003C269.385 25.4951 269.407 27.3904 270.543 28.2329C271.68 29.0753 273.5 28.5468 274.608 27.052C275.716 25.5571 275.695 23.6618 274.559 22.8194C273.423 21.9769 271.603 22.507 270.494 24.0003Z" fill="#FF8B6A"/>
<path d="M274.053 24.408C272.713 23.9342 271.418 26.1737 271.915 27.1311C271.915 27.1311 272.229 26.0122 272.802 26.4534C273.376 26.8946 272.543 27.3195 272.543 27.3195" stroke="#08051A" stroke-width="0.751" stroke-linecap="round" stroke-linejoin="round"/>
<path d="M281.668 40.1477C276.204 37.6122 277.456 49.5353 278.229 56.1526C278.195 57.2242 283.029 83.7478 284.063 90.5681C284.552 93.791 290.524 96.7408 293.755 95.9555C295.107 95.5862 296.279 94.7364 297.05 93.5654C297.821 92.3945 298.138 90.9826 297.943 89.5943C297.032 82.2015 300.322 48.8005 281.668 40.1477Z" fill="#14649C"/>
<path d="M284.993 47.0342C283.021 48.0524 281.418 49.6633 280.409 51.6403C278.143 56.1135 279.629 62.5203 280.268 67.2985C280.693 70.4769 281.179 73.6472 281.727 76.8093" stroke="#08051A" stroke-width="0.751" stroke-linecap="round" stroke-linejoin="round"/>
<path d="M264.056 16.3277C263.792 16.5895 264.509 17.2296 265.344 18.068C266.18 18.9064 266.591 19.8508 266.854 19.5882C267.117 19.3256 266.879 18.2083 266.045 17.3707C265.211 16.5332 264.319 16.0651 264.056 16.3277Z" fill="#08051A"/>
<path d="M256.544 13.5302C256.564 13.8768 255.667 13.8792 254.564 13.9461C253.46 14.013 252.587 14.4159 252.566 14.0693C252.546 13.7227 253.405 13.0906 254.508 13.0237C255.611 12.9569 256.522 13.1844 256.544 13.5302Z" fill="#08051A"/>
<path d="M264.238 20.3799C264.224 20.1982 264.166 20.0226 264.07 19.8681C263.973 19.7137 263.84 19.585 263.683 19.4931C263.525 19.4012 263.348 19.3488 263.166 19.3405C262.984 19.3322 262.802 19.3682 262.637 19.4453" stroke="#08051A" stroke-width="0.751" stroke-linecap="round" stroke-linejoin="round"/>
<path d="M255.641 17.4017C255.496 17.1817 255.31 16.992 255.093 16.843C254.983 16.7703 254.855 16.7305 254.723 16.7284C254.591 16.7262 254.462 16.7617 254.35 16.8308" stroke="#08051A" stroke-width="0.751" stroke-linecap="round" stroke-linejoin="round"/>
<path d="M272.585 22.4127C271.182 23.0113 270.783 26.0964 270.664 27.1656C270.545 28.2347 269.278 27.0571 270.066 23.9361C270.854 20.815 270.637 19.3895 268.975 17.791C267.312 16.1926 275.001 15.9438 275.001 15.9438" fill="#08051A"/>
<path d="M234.981 77.916L256.731 82.4733L264.131 47.1561L242.381 42.5988L234.981 77.916Z" fill="white"/>
<path d="M259.019 76.5018C260.058 77.3027 278.944 91.6177 288.608 96.7882C289.884 97.4712 291.375 97.6329 292.768 97.2393C294.161 96.8457 295.347 95.9275 296.077 94.6776C296.45 94.0393 296.693 93.3334 296.791 92.6008C296.89 91.8682 296.842 91.1233 296.651 90.4092C296.46 89.6951 296.129 89.026 295.678 88.4404C295.227 87.8549 294.664 87.3645 294.022 86.9977L262.969 71.2196L259.019 76.5018Z" fill="#FF8B6A"/>
<path d="M297.683 81.4854C299.38 95.241 296.262 97.2121 292.27 98.6116C288.278 100.011 264.251 82.8008 264.251 82.8008C264.251 82.8008 267.898 73.9319 270.326 73.2729L293.8 82.7079" fill="#14649C"/>
<path d="M261.296 74.6788C261.544 74.4044 261.691 74.0538 261.714 73.6847C261.854 72.4865 261.871 71.2769 261.765 70.0752C261.885 69.0779 261.916 68.0718 261.856 67.0691C261.741 66.4534 261.041 65.4715 260.291 65.854C259.648 66.1802 259.758 67.2836 259.111 67.6065C258.622 67.8512 258.064 67.4834 257.661 67.1172C256.797 66.3342 256.014 65.4659 255.325 64.5255C254.789 63.7915 254.306 62.5935 253.501 62.1327C252.679 61.6646 252.166 62.4083 252.287 63.1464C252.246 63.1687 252.2 63.1798 252.154 63.1785C252.107 63.1772 252.062 63.1636 252.023 63.1391C251.93 63.059 251.848 62.968 251.778 62.8683C251.289 62.3382 250.598 62.8593 250.497 63.4261C250.453 63.6708 250.644 63.944 250.589 64.1829C250.477 64.6592 250.069 64.6299 249.811 64.983C249.739 65.1139 249.705 65.2619 249.711 65.411C249.717 65.5601 249.763 65.7048 249.845 65.8295C250.011 66.0766 250.146 66.3438 250.245 66.6246C250.368 67.1645 250.038 67.6294 249.907 68.1285C249.776 68.6891 249.856 69.2783 250.133 69.7832C250.797 71.304 251.761 72.6755 252.967 73.816C258.126 78.8552 258.973 77.0382 261.296 74.6788Z" fill="#454658"/>
<path d="M252.082 63.1088C252.762 65.0181 253.793 66.784 255.12 68.3159" stroke="#08051A" stroke-width="0.751" stroke-linecap="round" stroke-linejoin="round"/>
<path d="M250.176 64.1244C250.541 66.1547 251.515 68.0259 252.969 69.489" stroke="#08051A" stroke-width="0.751" stroke-linecap="round" stroke-linejoin="round"/>
<path d="M249.84 67.2543C250.192 68.7255 250.933 70.0751 251.985 71.1615" stroke="#08051A" stroke-width="0.751" stroke-linecap="round" stroke-linejoin="round"/>
<path d="M260.979 69.1584C261.214 69.2164 263.763 70.416 265.301 71.1435C265.651 71.3066 265.937 71.5811 266.114 71.9241C266.291 72.2671 266.349 72.6591 266.28 73.0388C265.812 75.5141 264.543 77.7668 262.668 79.4488C262.367 79.72 261.983 79.8799 261.579 79.9018C261.175 79.9238 260.775 79.8065 260.447 79.5696L255.273 75.8368" fill="#454658"/>
<path d="M219.14 45.7987C218.974 46.0702 218.783 46.3255 218.569 46.5612C218.16 46.8024 217.694 46.9276 217.219 46.9233C216.948 46.9394 216.677 46.894 216.426 46.7904C216.175 46.6869 215.95 46.528 215.769 46.3256C215.473 45.8626 215.301 45.3312 215.269 44.7826C215.16 44.1131 214.996 43.4536 214.78 42.8106C214.666 42.2278 214.408 41.6828 214.03 41.2252C213.318 40.6543 212.102 40.5271 211.249 40.2637C210.539 40.0443 209.537 39.8877 209.223 40.7734C209.108 41.2232 209.101 41.694 209.204 42.1468C209.329 42.6095 209.282 43.1018 209.074 43.5332C208.829 43.8414 208.386 43.7093 208.316 44.2574C208.308 44.642 208.408 45.0212 208.605 45.3518C208.801 45.6835 208.884 46.0704 208.841 46.4536C208.749 46.708 208.642 46.9567 208.521 47.1982C208.455 47.5497 208.468 47.9112 208.556 48.2575C208.645 48.6038 208.808 48.9267 209.034 49.2036C210.031 50.8151 211.399 53.8904 213.579 54.0046C215.074 54.0862 216.382 53.0154 217.35 51.872C218.182 50.8893 219.344 49.9147 220.08 48.9043C220.602 48.1874 220.591 47.1158 221.364 46.5392C221.506 46.4601 221.622 46.3417 221.699 46.1983C221.72 46.1081 221.72 46.0141 221.697 45.9241C221.675 45.8342 221.631 45.7509 221.57 45.6813C220.881 44.7361 219.793 45.0297 219.14 45.7987Z" fill="#454658"/>
<path d="M215.843 38.4915C215.455 38.4679 215.065 38.4791 214.679 38.5249H214.657C214.455 38.5526 214.114 38.5828 213.981 38.7696C214.618 39.498 215.308 40.1779 216.046 40.8035L216.119 40.9283C216.548 40.8759 216.962 40.7351 217.334 40.5148C217.553 40.3951 217.731 40.2117 217.843 39.9888L217.847 39.9798C217.913 39.8136 217.936 39.6335 217.914 39.4561C217.891 39.2787 217.825 39.1099 217.719 38.9653C217.367 38.5102 216.359 38.5168 215.843 38.4915Z" fill="#454658"/>
<path d="M202.866 30.4543L203.065 30.2553C203.002 30.2178 196.486 23.7636 194.427 21.7061L194.547 22.2003L202.866 30.4543Z" fill="#BFC9E2"/>
<path d="M214.962 43.1122C214.962 43.1122 217.995 40.169 217.81 39.7824C217.624 39.3959 216.223 40.7293 216.223 40.7293C216.223 40.7293 207.595 32.0357 207.252 31.7975C206.91 31.5594 204.692 31.7241 204.692 31.7241L203.756 30.792L203.34 31.2104L204.276 32.1425C204.276 32.1425 204.12 34.3632 204.357 34.7025C204.595 35.0417 213.328 43.6342 213.328 43.6342C213.328 43.6342 212 45.041 212.387 45.2245C212.774 45.408 215.705 42.3628 215.705 42.3628" fill="#BFC9E2"/>
<path d="M204.393 31.8408C204.393 31.8408 203.511 33.2198 203.299 32.9393C203.088 32.6588 203.403 32.1646 203.462 32.0055C203.616 31.57 202.227 30.5743 202.604 30.0556C202.98 29.5369 203.966 31.0081 204.386 30.7969C204.608 30.6852 205.196 30.5416 205.267 30.8222C205.338 31.1027 204.393 31.8408 204.393 31.8408Z" fill="#92D6AA"/>
<path d="M214.55 42.5626C214.55 42.5626 218.72 45.8566 218.628 46.182C218.536 46.5074 217.167 48.0895 217.537 48.3521C217.906 48.6147 221.897 44.6064 221.533 44.3438C221.168 44.0812 219.249 45.7506 219.209 45.6021C219.169 45.4537 215.54 41.5742 215.54 41.5742L214.55 42.5626Z" fill="#BFC9E2"/>
<path d="M210.116 40.4642C210.116 40.4642 215.143 40.978 215.143 41.9664C215.143 42.614 213.431 44.1439 212.031 43.7606" fill="#454658"/>
<path d="M219.319 48.9556C219.319 48.9556 222.141 51.655 222.004 52.1109C221.867 52.5667 214.463 57.6059 213.986 57.5953C213.508 57.5847 210.579 50.7856 210.579 50.7856" fill="#454658"/>
<path d="M289.097 80.8224L270.325 73.2771C270.325 73.2771 265.205 78.7485 264.25 82.805C264.25 82.805 274.078 90.0697 280.76 93.7021" stroke="#08051A" stroke-width="0.751" stroke-linecap="round" stroke-linejoin="round"/>
<path d="M213.774 43.9276C212.594 43.1604 211.224 42.7368 209.817 42.7043" stroke="#08051A" stroke-width="0.751" stroke-linecap="round" stroke-linejoin="round"/>
<path d="M258.114 18.5085L263.472 23.1733C263.711 23.3814 263.894 23.6459 264.004 23.9427C264.115 24.2395 264.149 24.5593 264.105 24.8729L263.289 30.5523C263.243 30.9404 263.071 31.3027 262.8 31.5839C262.148 32.22 260.583 32.9785 256.875 32.3815C252.774 31.7218 251.819 24.9675 251.62 22.9719C251.58 22.5949 251.659 22.2148 251.846 21.8848C252.821 20.1797 254.356 18.8638 256.189 18.1594C256.512 18.0391 256.861 18.008 257.2 18.0694C257.538 18.1308 257.854 18.2825 258.114 18.5085Z" fill="white"/>
<path d="M263.244 24.346C263.477 24.275 273.357 22.4327 273.357 22.4327" stroke="white" stroke-width="0.751" stroke-linecap="round" stroke-linejoin="round"/>
<path d="M262.093 30.1516C262.093 30.1516 265.11 32.705 270.354 28.3118" stroke="white" stroke-width="0.751" stroke-linecap="round" stroke-linejoin="round"/>
<path d="M276.992 8.12889C278.163 10.7492 250.247 10.9368 252.812 6.91211C252.812 6.91211 251.576 7.24974 252.054 8.94605C252.532 10.6424 260.21 11.8004 265.477 11.612C270.745 11.4236 277.022 11.4587 277.994 10.2501C278.966 9.04147 276.992 8.12889 276.992 8.12889Z" fill="white"/>
<path opacity="0.3" d="M269.658 10.8512C271.369 10.7268 273.069 10.4741 274.742 10.0952C274.833 10.0993 274.522 12.9447 274.497 13.1478C274.317 14.6973 274.277 15.8611 272.64 16.5453C271.479 16.9692 270.468 17.726 269.734 18.7211C268.247 20.8211 266.227 36.2714 266.227 36.2714C266.227 36.2714 250.133 34.956 249.59 34.3957C249.048 33.8354 252.062 8.95105 252.062 8.95105C257.9 10.2861 263.751 11.2892 269.658 10.8512Z" fill="white"/>
<path opacity="0.3" d="M262.158 23.0264C258.502 18.6428 255.116 14.0415 252.018 9.24792L252.055 8.94617C254.147 9.4257 256.239 9.85875 258.334 10.2013C260.831 13.4536 263.377 16.6685 266.126 19.7096C266.919 20.5863 267.746 21.432 268.573 22.2769C268.144 24.1379 267.723 26.4491 267.357 28.6552C265.547 26.8523 263.814 24.976 262.158 23.0264Z" fill="white"/>
<path opacity="0.3" d="M254.625 23.6592C253.412 21.865 252.192 20.0728 250.967 18.2824C251.068 17.3853 251.167 16.5086 251.263 15.6792C253.952 19.5844 256.85 23.3413 259.945 26.9336C262.027 29.3284 264.239 31.6066 266.572 33.7579C266.354 35.2683 266.223 36.269 266.223 36.269C266.223 36.269 264.844 36.1556 262.893 35.9835C259.818 32.1367 257.348 27.6871 254.625 23.6592Z" fill="white"/>
<path opacity="0.3" d="M253.969 35.1112C252.486 35.0256 251.016 34.785 249.584 34.3935C249.42 34.2255 249.576 31.8955 249.871 28.7166C251.135 30.9103 252.514 33.0462 253.969 35.1112Z" fill="white"/>
<path d="M119.976 108.035L162.235 107.627C163.631 107.443 164.917 106.772 165.865 105.731C166.813 104.691 167.363 103.348 167.416 101.941C167.47 100.535 167.025 99.1541 166.159 98.0441C165.293 96.934 164.063 96.1659 162.685 95.8756H162.691H162.676C162.531 95.8454 162.385 95.8185 162.237 95.7998C162.105 95.7818 161.969 95.7818 161.835 95.7729L120.995 90.2802C113.443 89.3016 110.586 96.4065 111.11 100.38C111.392 102.521 112.452 104.483 114.086 105.895C115.721 107.306 117.817 108.068 119.976 108.035Z" fill="#E87578"/>
<path d="M115.476 88.0336C115.476 88.0336 138.833 93.403 139.235 92.2572C139.637 91.1114 141.091 89.7666 141.737 90.8431C142.384 91.9196 143.191 92.0811 143.514 91.8388C143.837 91.5966 146.261 89.8196 147.069 91.3544C147.876 92.8893 149.228 92.1928 149.284 94.0856C149.315 95.1108 143.211 90.189 142.679 101.654C142.428 107.075 145.026 107.742 146.116 108.036C147.219 108.335 126.062 109.288 126.062 109.288" fill="#BFC9E2"/>
<path d="M151.288 62.0148L151.265 62.0229C150.89 61.1692 150.206 60.4891 149.35 60.1198C148.494 59.7505 147.53 59.7194 146.652 60.0328C145.774 60.3462 145.047 60.9808 144.619 61.8086C144.19 62.6365 144.091 63.5961 144.342 64.494L144.358 64.5486L144.365 64.5715L155.699 102.699C155.727 102.802 155.757 102.904 155.79 103.006L155.83 103.141H155.837C156.102 103.888 156.512 104.574 157.045 105.16C157.578 105.745 158.222 106.219 158.94 106.553C159.658 106.887 160.436 107.075 161.227 107.105C162.019 107.136 162.808 107.008 163.549 106.73C164.291 106.452 164.97 106.028 165.546 105.485C166.122 104.942 166.584 104.289 166.905 103.565C167.226 102.841 167.4 102.06 167.416 101.269C167.432 100.477 167.29 99.6898 166.998 98.9535L166.979 98.9079L166.957 98.8573L151.288 62.0148Z" fill="#E87578"/>
<path d="M88.3469 199.002C88.3469 199.002 77.0771 261.383 80.6311 264.009C84.1852 266.635 95.6622 200.618 95.6622 200.618L121.418 202.042C121.418 202.042 128.732 261.508 131.986 263.101C135.24 264.695 128.086 200.749 128.086 200.749C128.086 200.749 89.0784 196.592 88.3469 199.002Z" fill="#08051A"/>
<path d="M102.325 197.086C102.325 197.086 97.1696 257.001 100.724 259.627C104.279 262.253 109.641 198.702 109.641 198.702L137.033 197.949C137.033 197.949 148.825 257.126 152.079 258.72C155.334 260.315 143.701 196.658 143.701 196.658C143.701 196.658 103.053 194.677 102.325 197.086Z" fill="#08051A"/>
<path d="M68.6929 106.166C45.7022 110.846 71.3507 195.798 86.7978 203.082C99.6073 209.117 142.604 210.192 150.515 195.454C161.462 175.056 99.2787 190.444 95.3372 183.595C91.3957 176.746 68.6929 106.166 68.6929 106.166Z" fill="#08051A"/>
<path d="M68.9819 107.09C71.979 106.104 99.9118 183.493 99.9118 183.493C99.9118 183.493 105.482 183.602 116.81 183.616C132.095 183.634 148.681 186.723 148.681 189.188C148.681 192.266 134.409 194.762 116.81 194.762C100.821 194.762 89.6581 195.465 88.2244 192.78C82.1813 187.128 75.6986 165.898 68.7682 144.827C59.7133 117.297 63.3294 108.949 68.9819 107.09Z" fill="#FBA864"/>
<path d="M68.6936 106.167C78.9889 102.848 101.773 182.563 101.773 182.563C101.773 182.563 107.343 182.671 118.672 182.685C133.957 182.704 150.542 185.792 150.542 188.258C150.542 191.335 136.27 193.831 118.672 193.831C102.683 193.831 91.5196 194.534 90.0867 191.85C84.0428 186.198 77.5601 164.968 70.6297 143.897C61.5748 116.363 63.0297 107.992 68.6936 106.167Z" fill="#FFD392"/>
<path d="M101.036 163.47C101.036 163.47 162.219 163.068 172.452 168.147C182.684 173.225 176.724 185.972 170.804 185.757C167.171 185.626 140.903 189.702 121.15 192.871C115.198 193.826 109.11 192.407 104.194 188.918C99.2791 185.429 95.9299 180.15 94.8677 174.217L101.036 163.47Z" fill="#323444"/>
<path d="M187.671 245.214C188.456 246.006 196.979 239.864 197.829 239.44C197.469 239.571 195.925 239.599 193.099 232.561C192.729 231.639 192.291 230.328 191.806 228.732L182.338 234.297C184.298 238.203 186.925 244.462 187.671 245.214Z" fill="#E87578"/>
<path d="M168.032 169.208C162.634 170.086 156.717 176.478 158.073 182.325C158.073 182.325 179.208 231.182 183.129 240.195C183.301 240.595 183.614 240.918 184.008 241.104C184.403 241.289 184.851 241.323 185.269 241.199C188.772 240.162 192.088 238.578 195.096 236.504C195.405 236.291 195.639 235.986 195.765 235.632C195.891 235.278 195.902 234.894 195.796 234.533C192.642 223.643 187.506 207.032 184.608 196.322C181.395 184.445 178.736 174.401 178.736 174.401C177.413 169.208 172.883 168.42 168.032 169.208Z" fill="#323444"/>
<path d="M205.204 237.312C205.204 237.312 201.869 237.351 199.938 236.426C198.007 235.5 194.048 232.712 193.654 232.889C192.525 233.917 191.561 235.113 190.794 236.434C190.708 236.97 199.629 239.251 199.444 239.539C199.258 239.828 199.554 244.124 200.784 244.034C202.015 243.943 205.608 241.055 205.608 241.055L205.634 238.106L205.204 237.312Z" fill="#08051A"/>
<path d="M215.842 236.593C215.842 236.593 214.805 235.234 213.624 235.348C212.443 235.461 208.034 237.398 207.679 237.439C206.639 237.362 205.594 237.362 204.554 237.439C204.057 237.633 202.22 242.505 201.311 242.81C200.401 243.115 201.719 239.426 201.148 239.282C200.577 239.139 195.045 237.885 194.694 237.586C194.377 237.315 191.58 242.089 187.164 244.014C186.788 244.171 186.486 244.467 186.322 244.841C186.157 245.214 186.143 245.637 186.281 246.02L188.473 251.949L189.435 253.724L191.677 253.138L197.008 249.846L205.044 246.961L209.122 245.389L214.285 241.161L216.199 236.774L215.842 236.593Z" fill="#454658"/>
<path d="M209.196 237.567C207.587 240.249 206.965 243.409 207.436 246.501" stroke="#08051A" stroke-width="0.897" stroke-linecap="round" stroke-linejoin="round"/>
<path d="M216.856 237.359C216.842 237.261 216.057 236.023 215.628 236.066C215.2 236.109 215.864 237.821 215.663 238.005C215.461 238.19 212.93 242.271 206.404 245.582C199.878 248.892 198.004 247.798 194.9 249.293C191.796 250.788 189.407 253.399 188.471 251.949C188.541 252.302 189.071 254.774 191.052 255.556C192.343 256.065 193.591 255.597 194.694 255.165C197.519 254.057 198.268 252.8 200.373 250.987C201.169 250.301 202.958 250.684 205.91 249.463C208.862 248.241 217.598 242.341 216.856 237.359Z" fill="white"/>
<path d="M191.967 252.013C192.099 249.974 192.875 247.102 194.685 245.904C195.219 245.587 195.839 245.447 196.457 245.501C197.076 245.555 197.662 245.802 198.133 246.207C198.933 246.888 199.612 247.7 200.141 248.609" stroke="#08051A" stroke-width="0.897" stroke-linecap="round" stroke-linejoin="round"/>
<path d="M205.062 237.8C205.119 237.764 205.16 237.71 205.179 237.646C205.199 237.582 205.194 237.514 205.167 237.453C205.14 237.393 205.092 237.344 205.032 237.315C204.972 237.287 204.904 237.282 204.84 237.3C203.244 237.766 201.78 238.598 200.564 239.731C200.535 239.755 200.512 239.785 200.495 239.818C200.478 239.852 200.468 239.888 200.466 239.926C200.464 239.963 200.469 240.001 200.482 240.036C200.494 240.071 200.514 240.104 200.54 240.131C200.565 240.158 200.596 240.18 200.631 240.195C200.665 240.211 200.702 240.219 200.739 240.219C200.777 240.219 200.814 240.212 200.849 240.197C200.883 240.183 200.915 240.162 200.941 240.135C202.094 239.062 203.483 238.274 204.995 237.833C205.019 237.825 205.042 237.814 205.062 237.8Z" fill="white"/>
<path d="M201.031 239.783C201.078 239.755 201.115 239.713 201.138 239.663C201.257 239.399 201.37 239.109 201.485 238.814C201.699 238.178 201.995 237.572 202.366 237.012C202.39 236.983 202.408 236.95 202.418 236.914C202.429 236.878 202.432 236.841 202.427 236.804C202.423 236.767 202.411 236.731 202.393 236.699C202.374 236.666 202.35 236.638 202.32 236.615C202.29 236.593 202.256 236.577 202.22 236.568C202.184 236.559 202.146 236.557 202.109 236.563C202.073 236.569 202.037 236.582 202.006 236.602C201.974 236.622 201.947 236.648 201.926 236.678C201.522 237.277 201.201 237.928 200.971 238.613C200.859 238.9 200.75 239.184 200.634 239.435C200.609 239.489 200.603 239.549 200.615 239.607C200.627 239.665 200.658 239.718 200.703 239.757C200.747 239.796 200.803 239.82 200.863 239.824C200.922 239.829 200.981 239.815 201.031 239.783Z" fill="white"/>
<path d="M205.159 237.482C205.212 237.449 205.252 237.4 205.274 237.343C205.296 237.285 205.297 237.221 205.279 237.162C205.26 237.103 205.222 237.052 205.17 237.018C205.119 236.983 205.058 236.967 204.996 236.971C203.417 237.059 199.625 237.645 197.995 238.922C197.937 238.967 197.899 239.033 197.89 239.106C197.881 239.178 197.901 239.251 197.946 239.309C197.991 239.367 198.058 239.404 198.13 239.413C198.203 239.423 198.276 239.402 198.334 239.357C199.72 238.282 203.145 237.627 205.027 237.522C205.074 237.52 205.119 237.506 205.159 237.482Z" fill="white"/>
<path d="M197.889 239.091C197.94 239.059 197.979 239.013 198.001 238.957C198.397 238.002 198.908 237.098 199.523 236.266C199.564 236.207 199.581 236.135 199.57 236.065C199.56 235.994 199.522 235.931 199.465 235.887C199.409 235.843 199.338 235.824 199.267 235.831C199.196 235.839 199.13 235.874 199.085 235.929C198.44 236.803 197.903 237.752 197.486 238.756C197.46 238.824 197.461 238.9 197.49 238.967C197.52 239.034 197.575 239.087 197.643 239.114C197.683 239.129 197.726 239.136 197.769 239.132C197.812 239.128 197.853 239.114 197.889 239.091Z" fill="white"/>
<path d="M201.18 236.854C201.232 236.823 201.272 236.774 201.293 236.718C201.315 236.661 201.317 236.598 201.3 236.54C201.282 236.481 201.246 236.431 201.196 236.395C201.147 236.36 201.087 236.342 201.026 236.344C199.153 236.482 197.346 237.1 195.781 238.138C195.722 238.181 195.682 238.246 195.671 238.319C195.659 238.391 195.677 238.465 195.721 238.525C195.764 238.584 195.829 238.624 195.901 238.635C195.974 238.646 196.048 238.628 196.107 238.585C197.582 237.608 199.282 237.026 201.046 236.894C201.093 236.893 201.139 236.879 201.18 236.854Z" fill="white"/>
<path d="M194.841 238.11C194.878 238.088 194.91 238.056 194.932 238.018C195.343 237.405 195.88 236.887 196.506 236.498C197.133 236.109 197.836 235.858 198.568 235.762C198.604 235.759 198.639 235.749 198.671 235.733C198.703 235.717 198.732 235.694 198.755 235.666C198.779 235.639 198.797 235.607 198.808 235.572C198.819 235.538 198.823 235.502 198.82 235.465C198.817 235.429 198.808 235.394 198.791 235.362C198.775 235.33 198.752 235.301 198.724 235.278C198.697 235.254 198.665 235.236 198.63 235.225C198.596 235.214 198.56 235.21 198.524 235.213C197.704 235.314 196.916 235.592 196.214 236.027C195.513 236.462 194.914 237.044 194.459 237.733C194.427 237.787 194.413 237.849 194.421 237.91C194.429 237.972 194.457 238.029 194.501 238.073C194.545 238.116 194.603 238.144 194.664 238.15C194.726 238.157 194.788 238.143 194.841 238.11Z" fill="white"/>
<path d="M195.883 238.533C195.941 238.497 195.983 238.44 196.003 238.375L196.148 237.858C196.381 236.823 196.743 235.823 197.225 234.878C197.261 234.818 197.273 234.745 197.258 234.676C197.243 234.607 197.201 234.547 197.143 234.507C197.084 234.467 197.013 234.452 196.943 234.463C196.873 234.475 196.81 234.513 196.768 234.569C196.247 235.561 195.859 236.617 195.615 237.711L195.472 238.221C195.458 238.274 195.459 238.331 195.477 238.383C195.494 238.436 195.527 238.481 195.571 238.515C195.615 238.548 195.668 238.568 195.723 238.571C195.778 238.574 195.833 238.561 195.88 238.533H195.883Z" fill="white"/>
<path d="M101.036 163.47C101.036 163.47 163.515 169.587 173.048 175.883C182.58 182.179 175.099 194.098 169.251 193.158C165.662 192.581 139.09 193.403 119.095 194.12C113.072 194.337 107.205 192.179 102.756 188.113C98.3067 184.047 95.6316 178.397 95.3062 172.379L101.036 163.47Z" fill="#454658"/>
<path d="M140.594 247.613C140.729 248.719 151.229 249.085 152.16 249.271C151.795 249.154 150.558 248.23 152.635 240.935C152.907 239.98 153.364 238.676 153.959 237.118L143.066 235.716C142.222 240.005 140.465 246.559 140.594 247.613Z" fill="#E87578"/>
<path d="M171.626 175.505C166.823 172.895 158.229 174.321 155.723 179.773C155.723 179.773 142.504 231.338 140.081 240.863C139.972 241.285 140.021 241.732 140.22 242.12C140.418 242.508 140.752 242.81 141.158 242.968C144.562 244.295 148.154 245.074 151.801 245.276C152.176 245.297 152.548 245.199 152.864 244.997C153.181 244.794 153.425 244.497 153.562 244.148C157.743 233.603 163.854 217.33 168.124 207.091C172.86 195.734 176.913 186.169 176.913 186.169C179.041 181.251 175.944 177.854 171.626 175.505Z" fill="#454658"/>
<path d="M159.294 252.105C159.294 252.105 156.634 250.093 155.674 248.178C154.715 246.263 153.294 241.636 152.874 241.534C151.352 241.655 149.857 242.009 148.442 242.584C148.046 242.955 153.7 250.223 153.377 250.337C153.054 250.451 150.656 254.028 151.684 254.71C152.712 255.393 157.321 255.312 157.321 255.312L159.148 252.995L159.294 252.105Z" fill="#08051A"/>
<path d="M168.142 258.053C168.142 258.053 168.154 256.34 167.151 255.71C166.148 255.081 161.477 253.907 161.172 253.722C160.397 253.024 159.571 252.384 158.702 251.807C158.19 251.656 153.753 254.383 152.848 254.066C151.943 253.75 155.241 251.64 154.881 251.179C154.52 250.719 150.913 246.336 150.819 245.885C150.738 245.477 145.6 247.536 140.93 246.353C140.536 246.247 140.116 246.296 139.758 246.491C139.399 246.685 139.129 247.01 139.003 247.399L137.104 253.427L136.777 255.419L138.909 256.329L145.139 256.993L153.258 259.635L157.446 260.892L164.117 260.712L168.318 258.417L168.142 258.053Z" fill="#454658"/>
<path d="M162.294 254.754C159.379 255.888 156.951 258.004 155.43 260.737" stroke="#08051A" stroke-width="0.897" stroke-linecap="round" stroke-linejoin="round"/>
<path d="M168.478 259.282C168.526 259.195 168.665 257.736 168.299 257.508C167.934 257.28 167.41 259.039 167.139 259.057C166.867 259.075 162.365 260.756 155.179 259.375C147.993 257.995 147.183 255.983 143.813 255.262C140.443 254.541 136.956 255.143 137.104 253.423C136.941 253.745 135.848 256.024 136.935 257.855C137.643 259.049 138.916 259.443 140.052 259.777C142.965 260.631 144.325 260.099 147.101 259.954C148.15 259.898 149.329 261.298 152.411 262.14C155.493 262.983 166.014 263.673 168.478 259.282Z" fill="white"/>
<path d="M139.828 255.62C141.18 254.091 143.552 252.294 145.717 252.455C146.333 252.532 146.91 252.8 147.365 253.222C147.821 253.644 148.133 254.198 148.257 254.807C148.472 255.836 148.512 256.894 148.374 257.936" stroke="#08051A" stroke-width="0.897" stroke-linecap="round" stroke-linejoin="round"/>
<path d="M158.884 252.406C158.951 252.412 159.017 252.395 159.072 252.356C159.126 252.318 159.165 252.261 159.181 252.196C159.197 252.132 159.189 252.063 159.158 252.004C159.128 251.945 159.077 251.899 159.015 251.874C157.469 251.265 155.801 251.027 154.146 251.177C154.11 251.18 154.075 251.19 154.043 251.207C154.011 251.224 153.982 251.247 153.959 251.275C153.936 251.303 153.919 251.335 153.908 251.37C153.897 251.404 153.893 251.441 153.897 251.477C153.9 251.513 153.91 251.548 153.927 251.58C153.944 251.612 153.967 251.64 153.995 251.664C154.023 251.687 154.055 251.704 154.09 251.715C154.124 251.726 154.161 251.73 154.197 251.726C155.766 251.584 157.346 251.811 158.812 252.388C158.835 252.397 158.86 252.403 158.884 252.406Z" fill="white"/>
<path d="M154.484 251.504C154.538 251.511 154.593 251.5 154.641 251.474C154.897 251.339 155.164 251.179 155.437 251.016C155.995 250.644 156.6 250.346 157.236 250.131C157.273 250.123 157.307 250.108 157.338 250.086C157.368 250.064 157.394 250.037 157.413 250.005C157.433 249.973 157.445 249.937 157.451 249.9C157.456 249.863 157.454 249.825 157.444 249.789C157.434 249.753 157.417 249.719 157.394 249.69C157.371 249.661 157.342 249.636 157.309 249.618C157.277 249.6 157.24 249.589 157.203 249.586C157.166 249.582 157.128 249.586 157.093 249.598C156.407 249.824 155.754 250.142 155.153 250.542C154.889 250.7 154.632 250.854 154.383 250.986C154.331 251.014 154.289 251.058 154.264 251.111C154.238 251.164 154.231 251.224 154.242 251.282C154.253 251.34 154.283 251.393 154.326 251.433C154.37 251.473 154.425 251.498 154.484 251.504Z" fill="white"/>
<path d="M159.155 252.213C159.216 252.22 159.278 252.206 159.331 252.174C159.383 252.142 159.423 252.093 159.445 252.035C159.466 251.978 159.468 251.915 159.449 251.856C159.431 251.797 159.393 251.746 159.342 251.712C158.037 250.815 154.684 248.953 152.612 248.965C152.539 248.965 152.469 248.994 152.417 249.046C152.365 249.097 152.336 249.167 152.336 249.241C152.336 249.314 152.365 249.384 152.417 249.435C152.469 249.487 152.539 249.516 152.612 249.516C154.364 249.516 157.475 251.096 159.026 252.166C159.064 252.192 159.109 252.209 159.155 252.213Z" fill="white"/>
<path d="M152.424 249.032C152.483 249.039 152.543 249.025 152.594 248.995C153.493 248.483 154.452 248.081 155.448 247.799C155.485 247.792 155.519 247.777 155.55 247.755C155.581 247.733 155.606 247.706 155.626 247.674C155.646 247.642 155.659 247.607 155.664 247.57C155.67 247.533 155.668 247.495 155.658 247.459C155.649 247.422 155.632 247.389 155.609 247.359C155.586 247.33 155.557 247.305 155.524 247.287C155.492 247.269 155.456 247.258 155.418 247.254C155.381 247.25 155.343 247.254 155.308 247.265C154.263 247.56 153.257 247.98 152.313 248.516C152.263 248.546 152.224 248.591 152.201 248.644C152.178 248.697 152.173 248.757 152.185 248.813C152.198 248.87 152.228 248.921 152.271 248.96C152.314 248.998 152.369 249.022 152.426 249.028L152.424 249.032Z" fill="white"/>
<path d="M156.391 249.282C156.451 249.289 156.512 249.275 156.564 249.243C156.616 249.212 156.656 249.164 156.677 249.107C156.699 249.05 156.702 248.988 156.684 248.93C156.667 248.871 156.631 248.821 156.582 248.785C155.016 247.747 153.21 247.129 151.336 246.991C151.3 246.99 151.264 246.996 151.23 247.008C151.196 247.021 151.165 247.04 151.138 247.065C151.112 247.09 151.091 247.12 151.076 247.153C151.061 247.186 151.053 247.221 151.051 247.257C151.05 247.294 151.056 247.33 151.069 247.364C151.082 247.397 151.101 247.429 151.126 247.455C151.151 247.481 151.18 247.503 151.213 247.518C151.246 247.533 151.282 247.541 151.318 247.542C153.082 247.673 154.783 248.255 156.258 249.231C156.297 249.26 156.343 249.277 156.391 249.282Z" fill="white"/>
<path d="M150.615 246.39C150.658 246.395 150.702 246.39 150.743 246.374C151.443 246.141 152.185 246.06 152.919 246.136C153.653 246.213 154.362 246.445 154.999 246.818C155.03 246.84 155.064 246.856 155.101 246.864C155.137 246.872 155.175 246.873 155.212 246.866C155.249 246.86 155.284 246.846 155.315 246.825C155.347 246.804 155.373 246.777 155.394 246.746C155.414 246.714 155.428 246.679 155.435 246.642C155.441 246.605 155.44 246.567 155.431 246.53C155.423 246.494 155.407 246.46 155.384 246.429C155.362 246.399 155.334 246.374 155.301 246.355C154.591 245.933 153.798 245.67 152.977 245.585C152.155 245.499 151.325 245.592 150.543 245.859C150.485 245.881 150.436 245.922 150.405 245.975C150.373 246.029 150.36 246.091 150.369 246.153C150.377 246.214 150.406 246.271 150.451 246.314C150.495 246.358 150.553 246.384 150.615 246.39Z" fill="white"/>
<path d="M151.179 247.362C151.247 247.369 151.315 247.35 151.371 247.31L151.802 246.991C152.62 246.316 153.518 245.747 154.478 245.296C154.545 245.272 154.601 245.222 154.632 245.157C154.664 245.093 154.669 245.018 154.646 244.95C154.624 244.882 154.576 244.825 154.512 244.791C154.449 244.758 154.375 244.75 154.306 244.771C153.287 245.236 152.333 245.833 151.471 246.548L151.045 246.863C151 246.896 150.966 246.942 150.947 246.995C150.929 247.047 150.927 247.105 150.941 247.158C150.956 247.212 150.986 247.261 151.028 247.297C151.071 247.333 151.123 247.356 151.179 247.362Z" fill="white"/>
<path d="M119.037 88.7348C116.852 88.2135 114.631 87.857 112.392 87.6681C110.179 87.6681 102.001 88.0334 95.3059 91.0216C91.8481 92.5654 94.0565 95.1922 93.829 115.569C93.6659 130.404 94.5695 140.072 95.0474 155.573C95.2798 163.111 95.3271 169.304 95.3304 173.403C96.848 174.344 98.4347 175.17 100.077 175.872C106.037 178.392 112.553 179.31 118.977 178.535C125.402 177.76 131.512 175.319 136.702 171.454C134.315 124.474 126.364 90.613 119.037 88.7348Z" fill="#BFC9E2"/>
<path d="M107.659 54.4074C107.858 54.6521 117.918 52.2935 116.386 64.3235C115.947 67.7724 103.263 61.085 104.329 60.3902C105.395 59.6953 107.659 54.4074 107.659 54.4074Z" fill="#FEE2D5"/>
<path d="M105.342 90.4605C105.342 90.4605 103.857 95.9596 115.983 97.5107C115.983 97.5107 115.368 89.0341 109.589 87.54" fill="#E87578"/>
<path d="M111.238 88.4118C111.228 88.4624 110.749 89.017 110.236 89.609C109.748 90.1872 109.105 90.6131 108.382 90.8362C107.659 91.0592 106.887 91.0701 106.158 90.8674C105.862 90.7864 105.585 90.6478 105.343 90.4596L100.464 76.4113L107.16 76.6632L111.238 88.4118Z" fill="#E87578"/>
<path d="M110.76 87.0369L107.158 76.6649L101.152 76.6527C103.178 80.3422 106.953 85.3398 110.76 87.0369Z" fill="#08051A"/>
<path d="M99.5928 74.9092C100.233 75.9246 100.936 76.8987 101.699 77.8255C102.101 78.168 102.455 78.5627 102.752 78.9991C103.916 80.2593 105.353 81.2371 106.952 81.8579C108.551 82.4788 110.271 82.7264 111.981 82.5817C113.928 82.4065 115.768 81.6109 117.23 80.3121C117.93 79.6256 118.52 78.8357 118.98 77.9699C120.679 74.6914 120.894 67.8948 117.255 62.0825C115.797 59.7541 111.701 53.2136 105.185 53.8252C99.9117 54.3194 95.6676 59.2493 95.2223 63.7608C94.8708 67.3052 96.8648 70.5143 99.5928 74.9092Z" fill="#E87578"/>
<path d="M96.2027 74.5869C98.1075 74.3442 99.9894 73.9471 101.83 73.3995C101.849 73.3943 101.867 73.3843 101.882 73.3705C101.897 73.3567 101.908 73.3395 101.914 73.3204C101.921 73.3014 101.923 73.281 101.919 73.2611C101.916 73.2411 101.908 73.2223 101.896 73.2062C101.47 72.6503 101.167 72.0097 101.009 71.3275C100.85 70.6452 100.839 69.937 100.976 69.2501C101.239 68.2299 101.823 68.2714 101.987 67.3344C102.352 65.2695 99.6834 64.0127 99.9485 62.4926C100.099 61.6273 101.232 60.9659 104.383 60.0574C111.25 58.0773 113.693 58.883 115.185 56.9486C116.477 55.2743 116.697 52.5643 115.522 51.2341C114.326 49.8804 111.981 50.2783 109.737 50.6633C108.044 50.9512 105.024 51.6794 100.211 54.7091C95.9328 57.4004 93.7936 58.7485 92.6266 61.1347C92.3338 61.7317 90.242 66.1959 92.4888 70.6137C93.3424 72.2512 94.6265 73.6249 96.2027 74.5869Z" fill="#FEE2D5"/>
<path d="M114.077 66.7483C114.077 66.7483 114.791 68.593 114.974 69.318C115.106 69.8555 116.715 69.1019 116.861 69.3254C117.007 69.5488 116.224 70.3774 115.563 71.0078" stroke="#08051A" stroke-width="0.751" stroke-linecap="round" stroke-linejoin="round"/>
<path d="M101.075 73.7756C102.252 75.2264 102.312 77.1282 101.209 78.0221C100.107 78.9159 98.2586 78.4649 97.0818 77.0141C95.9049 75.5632 95.8454 73.6614 96.9488 72.7676C98.0523 71.8738 99.8986 72.3247 101.075 73.7756Z" fill="#E87578"/>
<path d="M119.896 69.0819C120.666 68.2028 123.936 80.5189 117.319 83.3741C110.703 86.2293 100.908 81.8638 99.6548 72.4403L101.187 71.8955C101.187 71.8955 103.734 77.4517 107.638 77.3008C111.542 77.15 111.974 72.9785 115.455 71.8107C118.146 70.9079 117.657 73.2216 119.101 73.5845C120.545 73.9474 119.014 70.0875 119.896 69.0819Z" fill="#FEE2D5"/>
<path d="M115.48 62.6475C115.524 62.9402 116.586 62.9957 117.003 62.9957C117.421 62.9957 118.481 62.9378 118.526 62.6426C118.567 62.3808 117.808 61.9339 117.053 61.9192C116.248 61.9037 115.439 62.3792 115.48 62.6475Z" fill="#FEE2D5"/>
<path d="M109.566 66.1397C109.722 66.3379 109.05 67.2684 107.98 68.1108C106.91 68.9533 105.849 69.388 105.697 69.1898C105.544 68.9916 106.068 67.8776 107.137 67.0352C108.206 66.1927 109.413 65.9423 109.566 66.1397Z" fill="#FEE2D5"/>
<path d="M97.8984 74.345C98.3363 74.4164 98.7533 74.5824 99.1205 74.8314C99.4877 75.0804 99.7962 75.4065 100.025 75.7868C99.9329 75.7235 99.8229 75.6921 99.7116 75.6973C99.6004 75.7025 99.4938 75.7441 99.4085 75.8157C99.3231 75.8872 99.2636 75.9848 99.239 76.0935C99.2145 76.2022 99.2263 76.3159 99.2726 76.4172" stroke="#08051A" stroke-width="0.751" stroke-linecap="round" stroke-linejoin="round"/>
<path d="M92.6579 105.95L104.825 146.421C105.391 147.71 106.394 148.757 107.658 149.377C108.921 149.997 110.363 150.151 111.729 149.811C113.095 149.47 114.296 148.658 115.121 147.518C115.946 146.377 116.34 144.982 116.236 143.578V143.584V143.57C116.224 143.422 116.21 143.273 116.187 143.126C116.167 142.995 116.13 142.864 116.1 142.733L107.672 102.098C106.506 94.5723 101.21 93.6923 97.5405 95.3038C95.5632 96.1713 93.9735 97.735 93.0733 99.6977C92.1732 101.66 92.0254 103.885 92.6579 105.95Z" fill="#E87578"/>
<path d="M138.829 113.652L138.81 113.638C138.936 113.456 139.045 113.264 139.137 113.063C139.493 112.263 139.553 111.362 139.306 110.522C139.059 109.682 138.521 108.957 137.788 108.478C137.055 107.998 136.175 107.795 135.307 107.905C134.438 108.015 133.636 108.431 133.046 109.078L133.009 109.121L132.992 109.138L106.675 138.968C106.603 139.05 106.532 139.126 106.463 139.208L106.37 139.314H106.376C105.881 139.934 105.515 140.647 105.299 141.41C105.083 142.174 105.021 142.972 105.118 143.76C105.214 144.547 105.467 145.308 105.861 145.996C106.256 146.685 106.783 147.288 107.413 147.77C108.044 148.252 108.764 148.603 109.532 148.803C110.299 149.003 111.099 149.048 111.885 148.935C112.67 148.822 113.425 148.554 114.105 148.145C114.785 147.737 115.377 147.197 115.846 146.557L115.874 146.516L115.905 146.471L138.829 113.652Z" fill="#E87578"/>
<path d="M133.192 113.546C132.882 113.344 132.65 113.043 132.533 112.692C132.089 111.57 131.761 110.406 131.555 109.217C131.182 108.284 130.894 107.32 130.694 106.336C130.648 105.711 131.071 104.582 131.895 104.759C132.602 104.911 132.777 106.004 133.486 106.151C134.018 106.26 134.465 105.762 134.761 105.306C135.396 104.327 135.929 103.286 136.353 102.2C136.68 101.355 136.843 100.072 137.502 99.4201C138.175 98.7562 138.863 99.3434 138.935 100.088C138.981 100.099 139.028 100.098 139.072 100.084C139.117 100.071 139.157 100.046 139.189 100.012C139.257 99.9104 139.314 99.8009 139.356 99.6859C139.692 99.0482 140.494 99.3744 140.737 99.8963C140.843 100.124 140.728 100.435 140.843 100.652C141.073 101.083 141.46 100.949 141.8 101.222C141.903 101.331 141.974 101.465 142.007 101.61C142.039 101.756 142.032 101.908 141.985 102.049C141.888 102.331 141.826 102.623 141.803 102.92C141.822 103.474 142.261 103.839 142.516 104.287C142.785 104.795 142.859 105.385 142.722 105.944C142.47 107.585 141.891 109.158 141.019 110.57C137.329 116.765 136.043 115.227 133.192 113.546Z" fill="#E87578"/>
<path d="M139.126 99.9944C138.959 102.015 138.417 103.986 137.528 105.808" stroke="#08051A" stroke-width="0.751" stroke-linecap="round" stroke-linejoin="round"/>
<path d="M141.226 100.485C141.396 102.541 140.936 104.6 139.906 106.387" stroke="#08051A" stroke-width="0.751" stroke-linecap="round" stroke-linejoin="round"/>
<path d="M142.358 103.425C142.396 104.937 142.026 106.432 141.289 107.752" stroke="#08051A" stroke-width="0.751" stroke-linecap="round" stroke-linejoin="round"/>
<path d="M97.6759 90.189C96.1496 90.5674 94.7383 91.3116 93.564 92.3575C90.5343 95.5446 91.3376 100.877 91.9753 104.36C93.9003 114.341 96.5916 124.159 100.025 133.726C105.073 133.143 109.899 131.325 114.077 128.434C114.077 128.434 109.427 86.36 97.6759 90.189Z" fill="#BFC9E2"/>
<path d="M154.982 63.4401C154.228 64.3968 153.315 65.2881 152.712 66.0197C151.331 67.6972 149.484 69.0641 147.286 67.9549C145.437 67.0203 144.525 65.0508 144.079 63.1221C143.659 61.2977 143.165 59.0803 143.819 57.2543C144.135 56.4929 144.562 55.7823 145.085 55.1454C145.324 54.782 145.624 54.463 145.972 54.2026C146.386 53.9294 147.044 53.887 147.297 54.3143C147.537 54.7221 147.254 55.222 147.011 55.6257C146.767 56.0294 146.581 56.6125 146.937 56.9216C147.74 56.2662 148.423 55.4761 148.955 54.5867C149.387 53.8642 150.04 52.9051 151.046 53.3585C151.931 53.7573 151.716 55.3354 152.616 55.6958C153.151 55.9103 153.822 55.6094 154.314 55.9405C155 56.4005 154.747 57.4639 155.005 58.1424C155.35 59.0477 156.345 59.6332 156.286 60.7048C156.131 61.7254 155.677 62.6772 154.982 63.4401Z" fill="#E87578"/>
<path d="M151.372 55.8956C151.089 56.7458 150.662 57.5411 150.109 58.2468C149.874 58.5787 149.568 58.8535 149.212 59.0509C149.033 59.1471 148.833 59.1962 148.63 59.1934C148.426 59.1907 148.227 59.1364 148.051 59.0354C147.88 58.9256 147.759 58.7532 147.713 58.5551C147.667 58.3571 147.701 58.1489 147.806 57.9752" stroke="#08051A" stroke-width="0.751" stroke-linecap="round" stroke-linejoin="round"/>
<path d="M153.986 57.9728C153.326 59.124 152.529 60.1919 151.614 61.1534C151.269 61.5939 150.781 61.9002 150.235 62.0195C149.684 62.0798 149.057 61.6044 149.182 61.0637" stroke="#08051A" stroke-width="0.751" stroke-linecap="round" stroke-linejoin="round"/>
<path d="M155.551 60.4128C155.043 61.5331 154.412 62.5933 153.669 63.5738C153.535 63.8068 153.351 64.0072 153.13 64.1606C152.91 64.314 152.658 64.4166 152.393 64.4612C152.137 64.4567 151.893 64.3524 151.714 64.1706C151.534 63.9887 151.433 63.7438 151.431 63.4882" stroke="#08051A" stroke-width="0.751" stroke-linecap="round" stroke-linejoin="round"/>
<path d="M107.904 104.377C109.814 112.018 112.168 120.793 114.077 128.435C109.893 131.495 105.019 133.474 99.8865 134.197C97.5949 126.505 96.2868 121.42 93.9951 113.728" stroke="#08051A" stroke-width="0.751" stroke-linecap="round" stroke-linejoin="round"/>
<path d="M108.212 74.587L109.59 80.8519C110.783 81.8023 112.17 82.4792 113.653 82.8349C115.137 83.1906 116.68 83.2163 118.174 82.9103C123.562 81.983 121.96 70.2157 120.161 68.5659C118.362 66.9161 114.668 68.3563 114.668 68.3563C114.668 68.3563 108.859 72.3614 108.212 74.587Z" fill="#14649C"/>
<path d="M117.977 65.8282C117.957 65.7118 117.911 65.6014 117.842 65.5054C117.773 65.4094 117.683 65.3304 117.579 65.2742C117.475 65.2181 117.36 65.1863 117.242 65.1814C117.124 65.1764 117.006 65.1983 116.898 65.2455C116.79 65.2927 116.693 65.364 116.617 65.4538C116.54 65.5437 116.485 65.6498 116.455 65.7642C116.425 65.8786 116.422 65.9982 116.446 66.114C116.469 66.2298 116.519 66.3387 116.59 66.4326" stroke="#08051A" stroke-width="0.751" stroke-linecap="round" stroke-linejoin="round"/>
<path d="M110.719 69.1391C110.529 68.8792 110.247 68.7012 109.931 68.641C109.615 68.5807 109.288 68.6428 109.015 68.8146C108.743 68.9864 108.546 69.2551 108.464 69.5665C108.383 69.8779 108.422 70.2087 108.575 70.492" stroke="#08051A" stroke-width="0.751" stroke-linecap="round" stroke-linejoin="round"/>
<path d="M109.573 74.3439L99.6558 72.4404" stroke="#14649C" stroke-width="0.751" stroke-linecap="round" stroke-linejoin="round"/>
<path d="M101.153 78.3962C101.153 78.3962 113.06 83.2299 118.524 82.3027" stroke="#14649C" stroke-width="0.751" stroke-linecap="round" stroke-linejoin="round"/>
</svg>
