<svg width="22" height="22" viewBox="0 0 22 22" fill="none" xmlns="http://www.w3.org/2000/svg">
<circle cx="10.8332" cy="10.8678" r="10.4885" fill="#14649C"/>
<g clip-path="url(#clip0)">
<path d="M13.4179 11.3542C13.4179 12.5481 12.4466 13.5194 11.2527 13.5194C10.0588 13.5194 9.08788 12.5481 9.08788 11.3542C9.08788 10.1603 10.0588 9.189 11.2527 9.189C12.4466 9.189 13.4179 10.1606 13.4179 11.3542ZM17.9653 8.27973V14.4294C17.9653 15.2492 17.3006 15.9139 16.4808 15.9139H6.02456C5.20473 15.9139 4.54004 15.2492 4.54004 14.4294V8.27973C4.54004 7.4599 5.20473 6.79521 6.02456 6.79521H7.85053V6.28156C7.85053 5.56417 8.43172 4.9826 9.14948 4.9826H13.3559C14.0736 4.9826 14.6548 5.56417 14.6548 6.28156V6.79484H16.4808C17.3006 6.79521 17.9653 7.4599 17.9653 8.27973ZM14.5313 11.3542C14.5313 9.5464 13.0605 8.07561 11.2527 8.07561C9.44528 8.07561 7.97448 9.5464 7.97448 11.3542C7.97448 13.162 9.44528 14.6327 11.2527 14.6327C13.0605 14.6327 14.5313 13.162 14.5313 11.3542Z" fill="white"/>
</g>
<defs>
<clipPath id="clip0">
<rect width="13.4253" height="13.4253" fill="white" transform="translate(4.54004 3.7356)"/>
</clipPath>
</defs>
</svg>
